<svg id="59f120d4-9eab-4f1b-8f12-bd24c031e421" data-name="Layer 1" xmlns="http://www.w3.org/2000/svg" viewBox="0 0 440.37 241.9">
  <title>beans-wide</title>
  <g>
    <path d="M435.76,186.48c-6.2,1.24-12,6.22-19.25,7.7,7.95-3.1,15-9.09,23.86-10-8.28,6-17.75,10.72-27.32,15.39C419.69,194.27,428,190.69,435.76,186.48Z" style="fill: #c5c8b2;fill-rule: evenodd"/>
    <path d="M405,198.41c.32,1.13,1.24-.23,1.92,0a8.65,8.65,0,0,1-5,1.92c4.09-5.18,11.39-7.1,17.32-10.39,3-1.64,6-3.31,8.85-5s5.31-4.21,8.47-4.62C427.09,187.44,415.75,192.65,405,198.41Z" style="fill: #c5c8b2;fill-rule: evenodd"/>
    <path d="M432.68,177.24C418.08,187,401,194.3,385.34,203c2.53-3.75,7.31-4.95,11.16-6.93,11.49-5.9,23.54-12.48,35-18.86C431.81,176.56,432.22,177.19,432.68,177.24Z" style="fill: #c5c8b2;fill-rule: evenodd"/>
    <path d="M426.13,174.93c.07.45-.08.69-.38.77-6.26,3.81-12.86,7.63-19.63,11.55s-14.21,6.91-20.4,10.77c-2.14,1.35-3.13,4.1-6.15,3.08,14.34-9.52,31-16.69,45.41-26.17C425.49,174.47,425.59,174.78,426.13,174.93Z" style="fill: #c5c8b2;fill-rule: evenodd"/>
    <path d="M423.83,171.85c-11.56,9.22-26.26,15.58-39.26,23.09-2,1.17-3.75,3.67-6.54,3.08,1.1-1.68,3.22-2.9,5-3.84,13.23-7,27.45-13.54,39.26-22.33Z" style="fill: #c5c8b2;fill-rule: evenodd"/>
    <path d="M410.36,196.87c-.5.79-2.16.4-2.31,1.54C407,197.58,408.89,196.45,410.36,196.87Z" style="fill: #c5c8b2;fill-rule: evenodd"/>
    <path d="M371.48,159.54c-4.25,4.21-12.39,6.59-16.54,9.62-.56-2.09,4.79-3.65,7.31-5C365.39,162.46,368.41,160.2,371.48,159.54Z" style="fill: #c5c8b2;fill-rule: evenodd"/>
    <path d="M362.25,154.92c-5.73,3.19-11.12,5.78-16.55,8.47.84-2.32,4.86-3.53,7.7-5S359.51,155,362.25,154.92Z" style="fill: #c5c8b2;fill-rule: evenodd"/>
    <path d="M356.86,86c-2.18,3.46-7.22,4.06-10.78,6.16,1.16-1.93,3.71-2.46,5.78-3.47-3.16-.58-6.79,1.68-10.78,1.54C345.72,88.23,352,87.84,356.86,86Z" style="fill: #c5c8b2;fill-rule: evenodd"/>
    <path d="M340.7,64.86c-10.42,4.72-21.66,8.62-31.56,13.86-1.74.55,0,2.74-3.08,2.3.82-3.39,4.95-4.07,7.7-5.38C322.07,71.66,331.88,67.05,340.7,64.86Z" style="fill: #c5c8b2;fill-rule: evenodd"/>
    <path d="M336.46,60.24c.11.62-.36.66-.38,1.16-11.33,4.83-22.3,10-33.1,15.39.68,1.18,2.54-.27,2.31,1.16-1.47-.55-2.8,1-3.47,0-.51-1.37,1.45-2.54,2.31-3.08,4.49-2.83,10.73-4.63,16.17-7.31A148.19,148.19,0,0,1,336.46,60.24Z" style="fill: #c5c8b2;fill-rule: evenodd"/>
    <path d="M335.31,58.7c-9.55,4.69-19.46,9-29.64,13.09-1,1.6-2.77,2.6-5.77,3.08,1.44-3,5.15-3.36,8.08-4.62,2.71-1.17,5.63-2.61,8.47-3.85C322.73,63.66,328.69,60.35,335.31,58.7Z" style="fill: #c5c8b2;fill-rule: evenodd"/>
    <path d="M333.38,131.44a42.32,42.32,0,0,0-16.93,8.09c2.68-5.54,9.95-6.47,15.78-8.86A2.66,2.66,0,0,0,333.38,131.44Z" style="fill: #c5c8b2;fill-rule: evenodd"/>
    <path d="M331.07,128.75c.6,1.16-2,1-1.92.38-4.63,2.43-9.65,4.46-14.24,6.93-1.2.61-1.93,3.26-3.85,1.93C316.34,133.73,323.76,129.7,331.07,128.75Z" style="fill: #c5c8b2;fill-rule: evenodd"/>
    <path d="M328,124.52c-6.68,3.45-13.68,6.58-19.24,11.15C312.82,129.61,320.38,127,328,124.52Z" style="fill: #c5c8b2;fill-rule: evenodd"/>
    <path d="M289.89,39.46c-2.61-8.17-5.21-16.34-8.08-24.25C286,21.84,288.43,30.15,289.89,39.46Z" style="fill: #c5c8b2;fill-rule: evenodd"/>
    <path d="M287.2,44.46c-2.27-3.09-2.16-7.23-3.08-11.16-1.65-7-4.81-13.94-5.77-20C283,22,284.77,33.55,287.2,44.46Z" style="fill: #c5c8b2;fill-rule: evenodd"/>
    <path d="M281,38.3c-.13.45-.68,1-.77.39-1.45-7.79-3.71-16.81-5.39-23.09C279,22.51,279,30.74,281,38.3Z" style="fill: #c5c8b2;fill-rule: evenodd"/>
    <path d="M274.88,36.38c-1.88-5.29-3.85-15.55-5-21.55C273.18,20.58,273.63,29.65,274.88,36.38Z" style="fill: #c5c8b2;fill-rule: evenodd"/>
    <path d="M269.11,37.54c-.38-9.18-2.22-16.88-3.08-23.87,3.36,6.2,2.33,16.35,4.24,23.1A1.07,1.07,0,0,1,269.11,37.54Z" style="fill: #c5c8b2;fill-rule: evenodd"/>
    <path d="M267.57,62.94c-.49,1.63-1.54-.41-2.31-.77-11.57-.88-25.76.58-38.48,1.15,9-1.36,24.76-3.56,35.4-2.31A14,14,0,0,1,267.57,62.94Z" style="fill: #c5c8b2;fill-rule: evenodd"/>
    <path d="M266,66c-10.08-.2-21.63.19-30,.39C242.5,64.54,257.64,64.79,266,66Z" style="fill: #c5c8b2;fill-rule: evenodd"/>
    <path d="M265.26,35.61C263.61,30,264,19.93,262.18,14.83,266,20.26,264.39,29.62,265.26,35.61Z" style="fill: #c5c8b2;fill-rule: evenodd"/>
    <path d="M259.87,34.07c-2.18-1.93.25-11.88-1.54-15-.7-.62-1.82-.93-.77-2.69C261.64,19.47,259,29.87,259.87,34.07Z" style="fill: #c5c8b2;fill-rule: evenodd"/>
    <path d="M256.41,16c-3.37,1.27-1.86,8.2-2.31,12.7-1.59-3.33-.71-10.31.77-13.08C255.66,14.82,255.63,15.77,256.41,16Z" style="fill: #c5c8b2;fill-rule: evenodd"/>
    <path d="M254.49,215a305.76,305.76,0,0,1-31.18,22.32c.33,1.13,1-.5,1.93,0a17.91,17.91,0,0,1-5.39,2.69c1.17-3.61,5.28-4.68,8.08-6.54,8.35-5.55,16.91-12.18,25-18.47Z" style="fill: #c5c8b2;fill-rule: evenodd"/>
    <path d="M253.33,210.34c.69.28.06.7,0,1.15-10.93,8.19-23.67,14.56-34.64,22.71.93.16.84-.7,1.93-.38a29,29,0,0,1-5.78,2.69c1.42-3.56,5.74-4.88,8.86-6.93C233.22,223.32,244.13,217,253.33,210.34Z" style="fill: #c5c8b2;fill-rule: evenodd"/>
    <path d="M249.48,11.75c.27,6.17-1.42,10.38-1.92,15.78a59.3,59.3,0,0,1,.77-14.63C248.45,12.35,248.11,11.74,249.48,11.75Z" style="fill: #c5c8b2;fill-rule: evenodd"/>
    <path d="M244.86,18.29c.59,1.87-1.67,4.22-2.69,5.78-2.54-.92-.14-5.4,0-7.32-.76-.92-1.51-3.73,1.15-3.85.2,3.67-1,6-1.15,9.24A18.93,18.93,0,0,0,244.86,18.29Z" style="fill: #c5c8b2;fill-rule: evenodd"/>
    <path d="M244.09,106.81c1.13,1.4-.13,3.7-.38,5-3.72-2.56-2.26-10.31-5.77-13.08,1.25-.93.29-2.33.77-3.47,2.35,3.68,2.4,9.66,4.23,13.86C243.77,108.79,243.56,107.43,244.09,106.81Z" style="fill: #c5c8b2;fill-rule: evenodd"/>
    <path d="M241,140.68c-6.09,6.66-13.91,12.11-21.17,18.09-2.22,1.82-3.88,5.06-6.93,5.39C222.23,156.27,231.14,148,241,140.68Z" style="fill: #c5c8b2;fill-rule: evenodd"/>
    <path d="M238.71,13.29c-.22,3.24-1.58,5.35-1.93,8.47.52,1.1,1-1,1.93-.77-.76,1-.7,2.89-2.7,2.69C235.66,20.46,236.36,15.08,238.71,13.29Z" style="fill: #c5c8b2;fill-rule: evenodd"/>
    <path d="M238.32,112.2c-4.27-2.52-3.55-11.25-4.23-16.17,2,2.39,1.44,10.47,3.08,14.63C238.45,110.27,238.43,111.19,238.32,112.2Z" style="fill: #c5c8b2;fill-rule: evenodd"/>
    <path d="M236.78,236.51c-.42.86-1.89.68-2.31,1.54C233.58,237.38,235.47,236.25,236.78,236.51Z" style="fill: #c5c8b2;fill-rule: evenodd"/>
    <path d="M236.4,37.15c-2.42,4.12-2.15,10.94-6.16,13.47,1.6-4.3,3.57-8.23,4.62-13.08A2.15,2.15,0,0,1,236.4,37.15Z" style="fill: #c5c8b2;fill-rule: evenodd"/>
    <path d="M234.09,13.67A45.49,45.49,0,0,1,231,22.14c.06.45.7.33,1.15.39-.22,1.06-.4,2.15-1.92,1.92C230.43,21.2,231.38,15.67,234.09,13.67Z" style="fill: #c5c8b2;fill-rule: evenodd"/>
    <path d="M233.7,38.3c-3.53,3.46-2.67,8.93-6.16,12.32C228.12,46.56,229.9,40.43,233.7,38.3Z" style="fill: #c5c8b2;fill-rule: evenodd"/>
    <path d="M226,22.91c.08.49,1.14.5,1.15,0,1,.65-.6,1.94-1.92,1.54-.89-2.95,1.73-6.55,1.92-8.47C228.4,16.94,226.37,21,226,22.91Z" style="fill: #c5c8b2;fill-rule: evenodd"/>
    <path d="M227.93,104.5a2,2,0,0,1-2.31,1.54c-1.83-3,2-9-.77-10.39,0-1.3.9-1.67,1.54-2.31,1.94,2.75-.4,8.15,0,10.78C226.5,104.93,227.42,103.56,227.93,104.5Z" style="fill: #c5c8b2;fill-rule: evenodd"/>
    <path d="M226.78,70.25c-1.07,4.07-5,8.56-8.09,11.93-1.7-1.62,1.36-2.65,2.31-3.85,1.75-2.2,3-5.67,4.62-7.7C226.17,70.67,226.71,70.7,226.78,70.25Z" style="fill: #c5c8b2;fill-rule: evenodd"/>
    <path d="M224.47,69.86c-2.78,3-4.23,7.32-8.09,9.24C218.88,75.82,220.39,71.56,224.47,69.86Z" style="fill: #c5c8b2;fill-rule: evenodd"/>
    <path d="M223.7,68.33c-6.36,1.46-7.27,8.38-12.32,11.15C213.57,75.86,219.07,66.41,223.7,68.33Z" style="fill: #c5c8b2;fill-rule: evenodd"/>
    <path d="M217.92,105.27c.56.91,2.06-.47,2.31-1.15.45,1-.95,3.39-3.08,3.08-.29-5.42,1.59-10.88,3.47-14.63C221.46,97,218.19,100.64,217.92,105.27Z" style="fill: #c5c8b2;fill-rule: evenodd"/>
    <path d="M219.08,66c-4.45,2.74-6.3,8.08-10.39,11.17,1.84-4.7,5.33-7.75,8.46-11.17Z" style="fill: #c5c8b2;fill-rule: evenodd"/>
    <path d="M218.31,37.15c-3.2,3.22-3.3,9.53-6.16,13.09-2.26-.81-.28-2.72-.38-4.62.85.05.16,1.63.38,2.31,2-3.73,2.72-6.7,4.62-10.78Z" style="fill: #c5c8b2;fill-rule: evenodd"/>
    <path d="M216.77,93c-2.28,3.49-2.42,9.12-4.62,12.7C212.38,101.58,213.3,95.06,216.77,93Z" style="fill: #c5c8b2;fill-rule: evenodd"/>
    <path d="M216.38,141.45c-5.1,5.54-10.11,11.18-15.78,16.16,4.16-6,10.25-10,14.24-16.16Z" style="fill: #c5c8b2;fill-rule: evenodd"/>
    <path d="M212.92,139.91c-3,1.82-3.82,5.93-7.31,7.31C208.24,145.2,209.61,140,212.92,139.91Z" style="fill: #c5c8b2;fill-rule: evenodd"/>
    <path d="M205.22,106c1.85-5.21,4-10.07,6.16-15,.87,3.26-2.28,7.14-3.85,10.39C206.81,102.92,207.13,105.68,205.22,106Z" style="fill: #c5c8b2;fill-rule: evenodd"/>
    <path d="M210.61,63.32c-5.29,3.82-7.45,10.77-13.08,14.24C202,72.9,204.17,66,210.61,63.32Z" style="fill: #c5c8b2;fill-rule: evenodd"/>
    <path d="M206,62.17c1,.34-.18,1.56-1.15,1.15-1.6,2.2-3.32,4.38-5,6.54s-3.09,4.67-5.39,6.16C197.58,70.68,200.87,65.51,206,62.17Z" style="fill: #c5c8b2;fill-rule: evenodd"/>
    <path d="M201,105.27c.26-4.74,1.83-11.5,4.62-15C204.6,94.28,203.09,101.07,201,105.27Z" style="fill: #c5c8b2;fill-rule: evenodd"/>
    <path d="M200.6,64.86c-4.06,3.38-6.78,8.1-10.39,11.93a1.39,1.39,0,0,1-1.15,2.31A26,26,0,0,1,200.6,64.86Z" style="fill: #c5c8b2;fill-rule: evenodd"/>
    <path d="M197.53,103.35c-4.14-3,.57-8.67,1.54-12.32C200.59,94.7,195,99.28,197.53,103.35Z" style="fill: #c5c8b2;fill-rule: evenodd"/>
    <path d="M196,65.25c.45.06.32.7.38,1.15-5.24,2.34-7.53,9.65-11.93,11.55C188,73.39,191.27,68.61,196,65.25Z" style="fill: #c5c8b2;fill-rule: evenodd"/>
    <path d="M192.91,94.49c.3,2.22-2.67,6.15-1.93,8.86C188.53,101.27,191.62,96.48,192.91,94.49Z" style="fill: #c5c8b2;fill-rule: evenodd"/>
    <path d="M187.52,99.11c-3.09-.83-.69-9.6,1.92-10.77C189.58,91.32,185.43,95.15,187.52,99.11Z" style="fill: #c5c8b2;fill-rule: evenodd"/>
    <path d="M185.21,193.79c-1.74,3.91-6.57,4.72-7.7,9.24C176.69,199.56,182,195.75,185.21,193.79Z" style="fill: #c5c8b2;fill-rule: evenodd"/>
    <path d="M182.9,189.94c-2.69,4.12-7.91,5.69-10.78,9.62.46.49,1.46.17,1.93-.38,1,1.23-2.57,2-3.46,1.54C173.17,195.61,178.66,193.4,182.9,189.94Z" style="fill: #c5c8b2;fill-rule: evenodd"/>
    <path d="M173.28,191.87c-1.67,1.79-3,3.92-5.39,5C169.42,194.94,170.53,192.58,173.28,191.87Z" style="fill: #c5c8b2;fill-rule: evenodd"/>
    <path d="M172.51,106.81c-2.32-5.28-9.84,1.14-13.86,0,1.86-4,6-5.83,9.24-8.47-.54-1.12-1.32.69-2.31.39.49-2,3-1.86,4.62-2.7-.85,4.18-7.19,6.14-10,9.63C162.8,106.25,173.86,99.7,172.51,106.81Z" style="fill: #c5c8b2;fill-rule: evenodd"/>
    <path d="M145.57,221.5c-1.8-.47-.61-1.65-1.16-3.08C145.75,218.5,145.12,220.54,145.57,221.5Z" style="fill: #c5c8b2;fill-rule: evenodd"/>
    <path d="M129.41,10.6c-2.92.34-6.54-.86-8.86-.78C122,8.06,127.17,9.67,129.41,10.6Z" style="fill: #c5c8b2;fill-rule: evenodd"/>
    <path d="M124.4,83c.06,1.09-1.15.9-1.15,1.92C122.22,84.31,123.41,82.76,124.4,83Z" style="fill: #c5c8b2;fill-rule: evenodd"/>
    <path d="M119.78,196.87c2-.34-.12,4.55.39,5.39-1.39.36-.54-1.52-.77-2.31C120.48,200.92,120,197.5,119.78,196.87Z" style="fill: #c5c8b2;fill-rule: evenodd"/>
    <path d="M119,134.14c-5.67,4.46-12,8.3-16.16,14.24,1.64-6.33,9.7-9.54,14.24-14.24Z" style="fill: #c5c8b2;fill-rule: evenodd"/>
    <path d="M109.78,136.45a92.54,92.54,0,0,1-9.24,7.69C102.62,140.58,106.22,138.54,109.78,136.45Z" style="fill: #c5c8b2;fill-rule: evenodd"/>
    <path d="M102.85,21.37c.94,1.22-2.4,1.43-3.46,1.92C99.62,21.74,102.08,22.39,102.85,21.37Z" style="fill: #c5c8b2;fill-rule: evenodd"/>
    <path d="M97.85,19.83c-.54,1-2,1.09-3.08,1.54C94.82,19.89,96.27,19.79,97.85,19.83Z" style="fill: #c5c8b2;fill-rule: evenodd"/>
    <path d="M94.38,21c-3.19,2.67-9.06,3.41-13.47,5.77-1.9,1-3.46,3.37-5.77,2.31C80.36,25.18,87.7,23.42,94.38,21Z" style="fill: #c5c8b2;fill-rule: evenodd"/>
    <path d="M93.61,86.8c-4.16-4.92-7.32-9.22-8.46-16.55,3.08,2.1,1.78,7.77,5.77,9.62C91,82.76,94.47,84.19,93.61,86.8Z" style="fill: #c5c8b2;fill-rule: evenodd"/>
    <path d="M92.46,18.29c-8.24,3.55-15,6.24-22.32,10.78-.55-2.56,3-2.7,4.61-3.46C80,23.07,86.94,19.25,92.46,18.29Z" style="fill: #c5c8b2;fill-rule: evenodd"/>
    <path d="M88.22,106.43c-.87-4.19.36-12.9,1.54-16.55C90.42,94.76,88.66,101.26,88.22,106.43Z" style="fill: #c5c8b2;fill-rule: evenodd"/>
    <path d="M89,13.67c.69.29.06.7,0,1.16C81.43,17.4,75.5,21.61,69,25.22c-.64.76,0,.49,0,1.54a12.34,12.34,0,0,0-3.85,2.31c0-2.2,2.5-3.8,4.24-5C74.89,20.23,82.51,16.82,89,13.67Z" style="fill: #c5c8b2;fill-rule: evenodd"/>
    <path d="M88.22,88.72C86.36,83.39,83.57,77,82.45,72.17c1.82,2.3,2.85,5.37,3.85,8.47.71-.06.24-1.3.77-1.54C87.4,82.16,88.8,86,88.22,88.72Z" style="fill: #c5c8b2;fill-rule: evenodd"/>
    <path d="M74.75,112.58c-1.3-4.9.16-12.33-.38-17.7.34-.24.69-.47.77,0A76.8,76.8,0,0,1,74.75,112.58Z" style="fill: #c5c8b2;fill-rule: evenodd"/>
    <path d="M74.75,74.87c-3.6,3.45-6.68,7.42-10.39,10.77.12.53,1,.32,1.54.39A4.62,4.62,0,0,1,62.44,88C65.6,82.65,69.47,78.05,74.75,74.87Z" style="fill: #c5c8b2;fill-rule: evenodd"/>
    <path d="M70.91,108.74c-2.5-3.64-2.14-9.8-1.93-13.48C70.22,99.28,70.07,105.43,70.91,108.74Z" style="fill: #c5c8b2;fill-rule: evenodd"/>
    <path d="M70.52,109.5c.83.85.27,3.59-1.15,3.47.27-.93.1-3.31,1.15-2.31Z" style="fill: #c5c8b2;fill-rule: evenodd"/>
    <path d="M67.06,106c-2.27-1-1.83,3.74-3.08,5-2.32-1.9-.68-5.26-.77-8.08-.07-2.18-.76-4.14-.77-6.54,2.43,1.71,1.6,8.62,1.15,11.93,1.91-1.81,2.52-4.93,2.7-8.47C68.68,101.27,66.63,103.52,67.06,106Z" style="fill: #c5c8b2;fill-rule: evenodd"/>
    <path d="M44.35,75.25c-6.6,3.8-13.69,9.14-20.4,11.55C30.48,82.68,37,78.5,44.35,75.25Z" style="fill: #c5c8b2;fill-rule: evenodd"/>
    <path d="M29.34,71c-3.42,2.76-8,6.37-11.93,7.31C21.11,75.62,24.78,72.87,29.34,71Z" style="fill: #c5c8b2;fill-rule: evenodd"/>
    <path d="M27.8,64.86c-1.87,2.75-7.72,4.85-11.16,7.31C17.68,68.6,24.53,67.5,27.8,64.86Z" style="fill: #c5c8b2;fill-rule: evenodd"/>
    <path d="M26.65,90.65c-2,4.89,1.33,11.35-1.16,15C25,100.49,24.3,93.93,26.65,90.65Z" style="fill: #c5c8b2;fill-rule: evenodd"/>
    <path d="M19,104.12c-.42.78-1,2.44-1.92,1.54C17.52,105,17.82,104.14,19,104.12Z" style="fill: #c5c8b2;fill-rule: evenodd"/>
    <path d="M17.41,104.89c-2.45-4.34-.18-12.4.77-16.17C18.75,93.91,16.35,99.94,17.41,104.89Z" style="fill: #c5c8b2;fill-rule: evenodd"/>
    <path d="M15.1,98c.75.9-.14,3.44-.38,4.62-3.33-2.47-2.24-13.67-.39-15.78-.49,2.67-1.27,8.86-.38,13.08C15,99.94,15.06,98.94,15.1,98Z" style="fill: #c5c8b2;fill-rule: evenodd"/>
    <path d="M11.64,95.26c.37.9,0,4.37-1.54,4.62.16-3.73-2.42-9.93,1.15-13.47-.83,3.36-1.49,6.4-.77,10.39C11.5,96.92,11.47,96,11.64,95.26Z" style="fill: #c5c8b2;fill-rule: evenodd"/>
    <path d="M344.54,179.55c-.8,1.5-2.73,1.89-3.84,3.08,12.19-2.81,25.28-8.07,35-14.63-11,2.89-18.76,8.92-30.79,11.17-2.14.39-6.37,1.88-7.7-.78a55.36,55.36,0,0,0,19.24-3.84c7.79-2.81,12.72-8,19.63-8.09,3.1,0,4.65-1.51,7.7-2.3,3.82-1,5-5.83,8.85-6.16-.4-3,2.38-5.37,3.85-7.7-2.91.94-5.63,5.4-10,6.16,1.41-2.11,3.84-3.43,5.78-5s4.21-2.95,5.77-5c-6.89,1.33-10.18,6.24-16.16,8.47,1.82-4.07,7.14-4.66,8.85-8.85-3.61-.27-6.8,3.2-9.62,5,1.52-2.84,6-6.06,10.77-6.93a3.26,3.26,0,0,1-.38,3.47c2.76-.48,6.39-4.06,10.39-3.47-1.35,3.53-4.24,5.52-5.77,8.85,5.08-3.82,14.38-17.92,6.54-25.4,0-1.67-.23-3.56.77-4.23,1.1.91-.38,2.18.38,3.08,3.16,2.67,2.88,6.77,4.62,10.39-1.69,5.19-.75,10-1.54,14.62-1.35,8-7.88,12.72-11.93,18.09,4.3-2.37,6.91-6.43,11.93-8.08-.75,3.1-4.54,3.16-6.16,5.39,2.22-.35,2.92-2.22,5.39-2.31.84.8,0,1.24-.38,1.92.47.56,1.47.59,1.92,1.16-.53.49-.23,1.82-.77,2.31.1.8,1.69.1,1.93.77-.12.78-1.05.75-1.16,1.54a16.55,16.55,0,0,1,9.24-3.47c-11.19,9.72-25.68,16.14-38.49,24.25A213.11,213.11,0,0,0,400,181.86c7.08-4,14.1-8.7,21.56-10.78-14.11,9.25-30.56,16.14-45,25-.43-1.21-.18-1,.38-1.92-1-.42-1.83,1.16-2.31,0,1.47-2.13,4.13-3.06,6.55-4.24-2-.76-4.86,2.75-7.32,1.54.67-2.15,3.48-2.16,4.62-3.85-3.88,1.38-6.79,3.73-11.54,4.24,3.55-4.44,10.92-5.81,15.78-9.24-7.56-.62-17.51,9.11-26.18,8.85-3.26-.1-5.72-2.7-9.23-.77,3.38-1.63,7.91-2.09,11.54-3.46-18.81,4.92-46.71,4.61-55.8-11.55-3.64-1.79-4.79-6.37-7.31-10.39-1.51-2.39-4.81-4.6-3.08-6.93,5.16,6.9,11.22,19.15,18.86,24.25,4.11,2.75,8.56,3.72,10.77-1.54-2.78-1.81-4.77-2.38-7.7-3.85-.89.8.93,2.13.77,3.47,1.44.51,2.21-1.61,2.7-.77-1.09,1.34-2.07,2.8-4.23,3.07a9.69,9.69,0,0,0,.38-3.84c-.34-1.34-2.89-.45-3.08-1.93-.6-1.37,1.31-.23,1.16-1.15-5.92-3.21-9.26-9-13.09-15-1.13-1.78-3.51-3.15-3.08-5.39,4.22,2.07,5.13,7,7.7,10.39,4.36,5.8,9.93,9.53,16.93,12.7,1.22.43.87,0,2.31,0,0,1.72,6.48,2.45,6.93,0,1.83.69-.57,1-.77,1.93,3.06.27,5.74.92,9.24.76-3.93,1.33-10.28,4.93-15.78,4.62.07-1.46,1.74-1.33,2.69-1.92-.14.5-.68.6-.77,1.15,3.32-.91,6.87-1.6,9.62-3.08-1.25.47-5.87-1.07-6.93.39-.57-.17.16-.49,0-1.16-3,.81-5.16,2.53-7.31,4.24,3.95,3,11.4,2.49,12.7-1.16C337.75,184.05,340.54,181.2,344.54,179.55ZM400,172.62c2.59.72,4.94-1.94,6.16-3.85C403.09,169.07,401.59,170.91,400,172.62Zm4.24-16.93c.37-2.08,2.32-4.6,1.15-6.93C404.44,150.3,403,153.33,404.2,155.69Zm-16.94,17.7c6.1-4.94,13.92-10.2,15-18.86C399.64,162.94,390.92,167.3,387.26,173.39ZM378,189.56c8.43-3.37,18.42-7.24,23.86-12.32C394.83,182.24,385.55,185,378,189.56ZM395,178.78c.2-.12,2.83-1.89,1.54-1.92-4.7,2.61-10.05,4.57-14.24,7.69C385.85,182.73,391.84,180.71,395,178.78Zm-8.47-14.24c4.13-1.39,8.51-4.58,10-7.31C392.88,159.38,390.06,162.33,386.49,164.54Zm-27.32,20.4c8-2.53,18-4.66,21.55-10.39,4-1.89,8.81-5.05,9.62-8.85A136,136,0,0,1,359.17,184.94Zm16.93-4.23c2.9-.84,7-2.53,7.7-4.24C381.75,178.4,378.32,179,376.1,180.71Zm-2.31-7.32c3.24-1.13,8.21-2.56,8.47-5.39C378.79,169.15,376.34,171.32,373.79,173.39Zm-21.16,10.39c7.87-.59,18.29-5.3,24.24-10.39C368,176.1,361.45,181.07,352.63,183.78Zm13.47-9.23c-3,1.3-6.41,2.19-9.24,3.84-2.34,1.37-.05.4,0,.39,5.23-.78,14-3.93,18.47-8.08C371.68,171.48,369,173.28,366.1,174.55ZM329.53,188.4c2.25-.06,3.69.67,6.16.39,7.23-5.48,20.51-4.89,27.33-10.78C352.43,182.05,338.66,182.9,329.53,188.4Zm18.09-.77c2.12-1,6.75-1.45,6.93-3.08C352.76,185.35,346.81,184.68,347.62,187.63ZM323,180.71c-.16.73-.83,1-.77,1.92a3.6,3.6,0,0,0,2.31-1.54A2.2,2.2,0,0,1,323,180.71Z" style="fill: #c5c8b2;fill-rule: evenodd"/>
    <path d="M353.78,165.7c-.39.9-2.39,1.43-4.23,1.92-.93-3.05,3.12-3.66,5-4.62,4.49-2.3,9.58-5.92,13.47-6.93-5,3.85-10.94,6.76-16.93,9.63C351.54,166.73,353.09,165.69,353.78,165.7Z" style="fill: #c5c8b2;fill-rule: evenodd"/>
    <path d="M360.71,79.87c-6,3.3-15,6.73-22.71,9.62-2,2.33-6.4,8.37-5.77,10.39-2.32,1.4-3.09,4.36-4.24,6.93,3.14-.25,5.48-5.31,9.24-4.23-4.05,3.9-11.34,4.57-12.7,11.16-1.88-.85.41-2.48.39-3.85-10.86,6.59-22.95,12-33.87,18.47,1.95-.48,3.34-1.53,5.39-1.92-2.94,2.32-7,3.53-11.16,4.62,9.21-7.46,22.06-11.29,31.94-18.09.09-3.11,2.14-4.27,3.08-6.54-4,1.36-5.77,5-8.85,7.31-.44,1.2-.85-1.17-1.16-1.16s-1.43,1.87-2.31,1.93c-.41,0-.74-1-1.15-.77-1.47.61-2.24,2.23-3.85,3.08-.52.27-.92-.53-1.54-.39-5,1.16-9.75,7.22-13.86,8.47.33,1.13,1-.5,1.93,0-.58,1.09-2.27,1.07-3.85,1.15,4-5.23,11.73-6.74,16.16-11.54-5.36,1.31-10.58,6.1-15.78,8.85-.59.66-.91,2.88-3.07,1.54.91-2.29,4.36-2.05,5.38-4.24-4.12,0-4.77,3.44-8.85,3.47.35-1.84,2.67-1.69,3.85-2.69-9.46.41-18.76,4.33-30,4.23-3.3-4.6-13.93-2-18.86-2.69,3.23-1.89,9.25-1.13,13.86-1.54,8.44-.77,17.44-1.62,25-3.08.12-2.09-1.82.11-2.31-1.54-10.28,3-27.15,4-41.94,2.69.17-1.72.81-.57,1.92-1.15-10-.57-18.43-2.06-30.79-2.31-.88-.4-1.07-1.5-1.92-1.93-6.72,1.4-10.13-3.68-14.63-5.77.73-3.68-4.62-3.92-5-7.7-1.18-.27-1.4.4-2.31.39-9.11-21.93,12.47-37.41,25.4-45.8-7.3,6.77-18.26,13.5-23.09,24.24-2.82,6.26-4.85,13.42-1.16,19.63.59-4-.18-7.25,1.54-11.93.93,3-.84,6.61,0,8.85,2.84.61,4.65,5.28,7.31,7.32,1,.12-.36-2.16,1.16-1.54,4.94,4.3,11.43,9.94,19.63,11.54,9.25,1.82,19.56-.31,28.86,2.31a2.85,2.85,0,0,0,2.31-1.92c1.42.25,4,1.06,4.23-.77,7.55,1.52,11.09.77,18.48.77-.74-4.27-1.84-8.17-2.7-12.32-.25-.81-2.24.89-2.69,0-.15-1.56,1.64-1.18,1.92-2.31-.06-1.09-.7-1.6-.76-2.69-1.51.29-2.1,1.5-3.47,1.92.33,1.38.95,0,2.31.39a1.88,1.88,0,0,1-1.92.77c-.11,5,2.79,9,2.31,13.08-3.08-3-1-11.08-5-13.08,2.2-1.47,0-3.62.39-6.54-2.23,0-3.64.72-5.78.77,1,6.54,2,13.1,4.62,18.08-4.76-3.06-3.79-11.86-5.77-17.7-5.48,1-10.09.73-15.39,1.54,5.62-2.38,15.52-1.94,21.93-3.85.86-1.26-.8-1.69,0-2.69,1.11.41,1.28,1.16.77,2.31,6.43-1.53,14.71-1.2,18.09-5.78-12.93.8-30.22,2.83-43.49,6.55-.94-.86,1.67-1.83,1.92-1.93,3.77-1.39,10-1.87,15.4-2.69,7-1.07,13.35-1.67,20.4-2.7.28-1.17-.67-1.13-.39-2.31H261.8c-.87.17,0,2-.77,2.31-1.4.37-.39-1.66-1.16-1.92-11.82.94-25,3.5-35,3.85,9.77-2.7,23.71-2.89,34.64-5a13.92,13.92,0,0,0-1.54-5c-7.15.67-14.45.93-21.55,1.93,5.41-2.4,14-1.78,21.55-2.7-.26-1.53-.84-2.75-.77-4.62-4.42.4-10.38.57-17.32,1.16-4.38.37-9,1.93-11.55,0,10.27-.37,21.42-1.51,32.33-2.31.61,0-.73-2.3,1.16-1.92v1.92h3.85c.11-1.94-.6-4.7,1.54-4.62-.92.93-.47,4.36,1.15,5-.63,2.82.29,10,3.85,11.17.06.83-1.37.17-1.92.38-.35,2.14,1.26,2.33,2.69,2.69.06.84-1.37.18-1.93.39,1.11,2.54.28,2.43,1.16,5,1.18-.1,1.73-.83,2.69-1.15-2.07-7.08-4.55-15.66-5.77-22.32,2.19-.65,1.66,3.41,1.92,4.61,1.19,5.29,3.67,12,4.62,17.32,1.49.43,1.37-1.36,2.31-.38-.43,1-2.47,1.57-1.15,3.08.32.54,2-.82,2.31-1.54-1.11-7.16-5.89-14.56-5-21.17,2,6.7,4.05,13.39,5.78,20.4,1.38-.14,1.41-1,2.69-.39-.58-6.92-5.3-13.59-3.85-20,1.89,8.12,4.15,15.86,6.16,23.86,3.8-3.11-1.31-9-.77-13.85-1.29,2.59.55,4.07,0,8.08-1.31-4-1.63-10.91-1.54-15,3.08,4.87,3.12,12.79,5,18.86.33.9.95-1.06,2.31-.39-.58-7.76-4.2-14.51-4.23-21.55,4,8.67,4.19,21.21,8.08,30,1.54-.38,1.65-2.2,2.31-3.47-.09-.55-1.15-.13-1.15-.77-.42-10.2-4.23-15.76-5.39-23.47-3.95-4.52-9.51-7.43-12.32-13.09,1.76-.34,2.18.65,3.47.77-.43-2.21-2.12-1.66-3.85-1.92-1.18.95.46,2.33,0,3.85-1.87-.19-1.05-3.05-1.93-4.24-4-.79-7.93-1.74-10.39-3.08-6-.4-14.18,1.39-17.7-1.15-12.51,1.68-32.47-.86-43.88,5.39,1.94-3.45,6.68-4.1,11.17-5,2.9-5,3-12.95,7.69-16.17C218.94,41,217.48,47,215.61,52.55c7.2-1.53,4.2-13.26,10.4-15.78-3.09,4.35-4.12,10.76-6.93,15.39,3.2-.69,4.38-4.31,5.77-6.93s2.25-6.22,5.39-6.93c.32,2.46-.49,1.39-1.93,1.93-1.25,4.39-4,7.26-5.38,11.55a60.13,60.13,0,0,0,12.7-.39c.74,0-.45-1.29,0-2.31,3.69-1.62,1.91-12.2,6.92-10-.34.34-1.13.07-2.3.39-.35,4.92-2.16,8.36-3.85,11.93,1.75.22,2.39-.68,4.23-.38.85-2.92,1.65-8.4,4.23-10.78-.31,2.52-2,7-3.07,10,.53,1,2.49-1,3.07,0,3.11-2.16,1.19-9.34,5-10.78-1.68,2.72-1.42,7.88-3.85,10.78.21,1.2,2.23.59,3.08,1.15.77-2.54,1.44-8.22,4.23-10a43.19,43.19,0,0,1-3.46,10c1.1,1.07,4.64-.28,5.77.77,1.2-3.29-.61-8.29,1.92-10.78-.2,2.77.4,7.3-.76,10.4,1.1.9,2-.25,3.07.38,1.74-3.23.72-6.9,1.16-10a31.82,31.82,0,0,1,4.23,10c1.8-.25,2.47.61,3.85.77-1.37-3.89-3.68-6.84-3.85-11.93,3.47,4.22,2.39,13,9.24,13.85.08-6.16-4-10-4.62-14.24,3.32,3.36,5,8.3,5.77,14.24.87.68,2.9.19,3.85.77-.83-5.34-4.51-9.83-5-14.24,4.51,4.35,4.11,13.6,9.62,16.94-.08-6-4-10.12-5-13.86,4.56,3,5.42,9.72,6.54,16.17,1.3-.11,2.21-.61,3.85-.39-1-6.23-4.35-12.07-6.16-16.16,2,.09,2.92,3.17,3.85,5.39s1.64,5.06,2.69,6.92c-.2,1.49.69,1.88.39,3.47,2,.3,2.52-.81,4.23-.77-1-6.74-4.46-13-5.39-18.48,3.59,4.62,4.56,11.87,6.55,18.09,1.53.12,1.93-.89,3.46-.77a85,85,0,0,0-5-15.78c-1.34.08,0,2.86-1.54,2.7-1-12.14-6.43-21.78-6.55-33.49,1.32.1.79,2,1.93,2.31s.54-1.25,1.15-1.54c2.45,7.31,4.6,14.91,6.93,22.33,5.49,4.77,6.66,13.86,9.24,21.55A23.42,23.42,0,0,1,308,54.85c-.76-6.81-3.08-12.05-5.39-17.31-.35-.68-.71-1.34-1.92-1.16-1.4-9.25-5.64-15.65-8.08-23.86,1.29.76,1.77,2.33,2.31,3.85,1,.12-.36-2.16,1.15-1.54,2.07,6.39,6.56,10.37,8.85,16.55,1,.12-.36-2.16,1.16-1.54,2.45,7,5,14,6.93,21.55,2.92-1.82.38-6.22-.39-9.24-.88-3.44-1.89-6.93-2.69-9.62-3.53-5.58-7.2-11-10-17.32-.84,2.23.11,3.68.38,5.78-1.73-2-2.17-5.27-1.92-9.24-.7-.5-1.41-.19-3.08-.39-6.63-5.55-21.47-9.27-35-9.62-4.53-.11-11.4-1.23-15.78-1.15-7.61.13-17,3.63-22.71,6.16.56-3.53,6.36-3.74,11.93-5C240,.33,243.08-.37,249.87.2c16.7,1.43,36.14,1.27,45.8,9.62,15.92,3.07,20.37,17.6,26.55,30.41-1.31.28-.63-1.42-1.54-1.54.25,4.75,2.51,9.54,1.54,14.24-1.38-.67-.85-3.26-1.15-5-1.24,1.35,0,3.23-.77,5.38-1.81.5-3,1.63-4.62,2.31.33,1.13,1-.5,1.92,0,.06,1-.6,1.2-.77,1.93,2.64-1.08,4.7-2.75,7.7-3.47-8.86,5.64-18.78,10.22-27.71,15.78,9.85-3.74,20.67-9.86,31.95-13.47-10.56,5.61-22.64,9.7-33.1,15.4.84,1.07,2.74-.06,3.84,0,.85.62-2.18.61-2.69,1.15,2.47,4.59,5.26,8.85,6.16,15a12.79,12.79,0,0,0,5-5c12.62-5.35,24.73-11.2,38.49-15.39C334.67,73,321.88,77.35,310.29,83c.25,1.15.82-.37,1.54,0,0,1.19-1.16,1.15-2.31,1.15-.28,6.39-3.31,10-5,15,3.14-3.14,4-8.55,8.08-10.77-.14,5.26-4.08,10-6.16,14.62,5.41-4.37,6.66-13.48,11.55-18.86-1.42.39-2.31,1.29-3.85,1.54.09.68.66.88,1.54.77-.17.64-2.91.64-3.08,0,4.43-4,10.83-5.41,16.55-7.69s11.17-5.18,16.93-6.93c-8,4.73-17.7,7.69-26.55,11.55-1.26,6.34-6.51,11.93-9.24,18.08,2.34.77,3.06-2.45,3.85-3.85,2.8-4.91,5.89-11.3,10.78-14.23a14.81,14.81,0,0,1-1.16,3.46C335,82.36,345.49,77.23,358,74.1,348,78.29,337.47,82,327.22,86c-.59,5.35-5.31,9.78-7.69,14.62,6.74-3.78,7.64-13.39,15.78-15.78-.5,2.2-1.71,3.69-2.7,5.39,2,.87,3.26-2.37,4.62-3.46,1.43,0,1,.56.77,1.54C346,86,352.77,82.33,360.71,79.87Zm-33.1,13.47c-1.31,1.81-3.92,4.07-3.08,5.77,2.86-1.76,6.47-8.15,7.7-11.54A48.68,48.68,0,0,0,327.61,93.34Zm-.39,5.77a2.18,2.18,0,0,1,1.55.39c.93-2.27,3.6-4.86,3.46-6.93C329.53,93.73,328.72,96.76,327.22,99.11Zm-6.15,11.55c4.21-.66,6.7-5.1,6.92-8.47C326.17,105.5,323.4,107.86,321.07,110.66Zm3.85-8.08c1.19,0,3.23-1.1,2.3-1.93C326.54,101.38,324.69,100.94,324.92,102.58Zm-3.08-13.47c-.12.75.52.76.77,1.15-4.55,2.77-5.92,8.71-8.85,13.09,5.71-3.65,7-11.71,11.93-16.17C324,87.38,323,88.38,321.84,89.11Zm-1.54,20c2.05-1.28,4.73-4,5-5.77C322.85,104.49,322,107.22,320.3,109.12ZM318.76,106a6.14,6.14,0,0,0,4.62-4.23C320.59,102,320,104.33,318.76,106Zm-2.7-74.66c.75.43.85,3.49,1.93,2.31C317.12,33.38,316.89,30.45,316.06,31.38Zm-.38,8.85c-1.2-3.68-2.57-7.5-3.46-10.39-1.35-.34-2.47-2.91-3.47-2.31,3.14,6.48,4.84,14.4,6.93,21.94C319.78,48,316.67,43.26,315.68,40.23Zm-1.16,68.51c1.05-1.52,2.64-2.5,3.47-4.24C316.06,104.89,314.44,107.62,314.52,108.74Zm1.16-72c.45,1.09.53,2.54,1.54,3.07C316.85,38.67,316.77,37.22,315.68,36.77Zm-3.46,69.66c.56-.85,2.06-.77,2.3-1.93C313.62,104.77,311.35,105.66,312.22,106.43Zm-1.54-82.36c1,1.19.93,3.42,2.31,4.23C312.71,26.64,311.36,24,310.68,24.07Zm-1.16,87.36c.31-1.76,3.32-2.83,2.7-4.23C311.15,108.19,308.9,110,309.52,111.43ZM296.05,18.68c2.06,4.22,3.15,9.42,5.77,13.08,2.27,7.61,6.19,13.57,7.32,22.32,1.45.18,1.8-.76,2.69-1.15a76,76,0,0,0-5.39-18.09c-.09.68.39,1.93-.77,1.54C302.73,30.47,299.88,22.42,296.05,18.68Zm11.16,88.13c2-.32,4-2.66,3.47-4.23C308.94,103.4,308.25,105.28,307.21,106.81Zm0-87.36c.79,1.52,1.27,3.35,2.7,4.23C310.61,22.06,308.26,20.55,307.21,19.45Zm-1.54,81.2c2-1.47,3.64-5.34,3.85-7.31C308.35,95.89,306.74,98,305.67,100.65Zm-3.85-87c2.67,3.11,3.24,8.31,6.55,10.78C306.52,20.78,305.37,14.37,301.82,13.67Zm3.85,43.88c1.08,0,3.3-.77,2.31-1.54C307.68,57,305.5,56.09,305.67,57.55Zm-.38,52.72c1.39,0,3.16-1.68,2.31-2.69C307,108.61,305.52,108.84,305.29,110.27Zm-1.93-1.15c1.12-1.32,2.41-2.46,3.08-4.23C304.62,105.25,303.16,108,303.36,109.12Zm.39-17.32c.19-1.24,2.08-2.77,1.15-3.85C304.94,89.42,302.41,90.31,303.75,91.8Zm-7.31-31.17c2.09-1.63,6.51-.93,8.08-3.08C302.2,58.69,296.85,58.85,296.44,60.63Zm1.15-21.94c-.32,1,1.16,2.11,0,2.69-3.68-8-5.41-17.93-8.85-26.17,3.35,15.37,7.78,28.91,11.54,42.34,1.17-.5,2.61-.73,3.85-1.16C302.57,49.87,300.81,43.55,297.59,38.69Zm-7.31,28.48c4.58.19,10.23-1.8,13.85-3.85C299,64.08,295.14,66.13,290.28,67.17Zm9.23-54.27a28,28,0,0,0,2.7,3.85A5.24,5.24,0,0,0,299.51,12.9ZM285.28,115.66c-.16.66.57,1,0,1.16-1.52-.72-2,1.45-4.24,1.15-.62,1.52,1.66.14,1.54,1.16-4.78,1-9.28.94-13.47,3.07,14.86-1.43,27.44-5.14,33.48-15.39C298.37,112.57,292.63,111.77,285.28,115.66Zm6.92-46.95c1.84,4.21,7.21-2.11,10-3.08C298.72,66.51,295.85,68,292.2,68.71Zm3.47,6.16c1.26,6.31,5.52,10.78,5.38,17.32C302.69,86,299.47,78.89,295.67,74.87Zm-5,43.87c3.06-.7,7.24-3.51,10-5.77C297.06,113.11,293.25,116.3,290.66,118.74Zm3.47-39.64c.09.21-.32.91-.39.77-.46-1-.52-4.83-1.92-5.39.06,2.25,1.25,3.37,1.15,5.78.77.64.49,0,1.54,0-1.15,3.76,1.87,9.55,2.31,14.23C298.46,89.14,296.4,84.11,294.13,79.1Zm-7.7-16.93c1.32,1.65,7.09,0,8.47-1.93C292.51,61.32,288.24,60.51,286.43,62.17ZM293,38.69c.49.08.79.6.77-.39-2.3-5.78-2.55-13.61-5.77-18.47C289.49,26.26,291.18,32.53,293,38.69Zm-20.78,61.58c.47,3.24,1,6.43,2.69,8.47a3.14,3.14,0,0,1,.77-2.31c.13,1.41-.32,3.4.39,4.23,6.51-1.19,10.13-5.26,15.78-7.31,1.74-2.31-.58-4.67-.39-7.7-1.38-.23-1.86.45-2.69.77-.48,2.66,1.35,3,1.54,5-.61,0-.3,1-1.16.77-1.73-.7-.39-4.48-2.31-5-.95.66.9,3-.38,3.85-1.17-.24-.75-2.07-1.93-2.31-.06.45-.6.42-1.15.38-.78,1.83.62,3.71.77,5.78,1-.2,1.49-.66,1.54.77a1.83,1.83,0,0,0-1.16.38c-2.09-.85-1.57-4.32-3.07-5.77-1.33,2,.27,3.17-1.16,5.39-1.76-.17-1.53-2.32-2.31-3.47-1.44.11-2.71,2.41-4.23,1.16.28-2.29,3.13-2,3.46-4.24-.3-.08-.44-.32-.38-.77C274.93,98.65,273.75,99.64,272.19,100.27Zm7.31,16.55a41,41,0,0,0,13.09-6.55C288.62,112,284.11,114.66,279.5,116.82ZM281,61.4c3.33,3.72,7.17,6.94,10.78,10.39C289.08,67.72,285.55,62.4,281,61.4ZM289.89,91c-.28.88-1.16,1.15-1.92,1.54-.27,1.43.66,1.65.38,3.08,1.22.19,1.36-.69,2.7-.39A8.28,8.28,0,0,0,289.89,91Zm-3.08,2.7c-1.05-.28-.77.76-1.53.76,0,.91.66,1.14.38,2.31C287.68,97.44,287.43,94.53,286.81,93.73Zm-3.07,1.92a1.06,1.06,0,0,1-1.16.77c0,1,.71,1.35,1.16,1.92.08-.3.32-.44.76-.38C284.58,96.85,284.41,96,283.74,95.65Zm-2.31-37.33c0,1.21,2,2.33,2.31,1.92C282.47,60.1,283,58.2,281.43,58.32Zm.38,35.41c.58.61,1.62,0,1.93-.77C283.18,92.37,281.73,92.58,281.81,93.73Zm.39-4.62c-.05,1.11-1.65.67-1.54,1.92A2.67,2.67,0,0,0,283,91C283,90.08,283,89.16,282.2,89.11Zm-1.93,5.38c-1.16.51-2.37,1-2.69,2.31,2.31-.08-.1.56.38,1.93,1.52-.15,1.77-1.57,2.7-2.31,0,.21.31.44.38,0C279.26,95.74,279.93,96.29,280.27,94.49Zm-3.08-1.92c.34,1.36-1,2,.39,2.31.77-1,2.42-1.17,2.31-3.08C278.92,90.88,278.6,92.77,277.19,92.57ZM276,116.43c1.17-.63,2.67-.91,3.46-1.92C278.15,115,276.76,115.35,276,116.43Zm-.77-22.32A15.56,15.56,0,0,1,271,97.19c.17.74.14,1.66,1.16,1.54C273.13,97.11,277.26,96.34,275.27,94.11Zm-1.16-3.46c-1.19.21-.93,1.88-1.54,2.69-1.23.34-.52-1.27-1.54-1.15a1,1,0,0,1-1.15.77A4.52,4.52,0,0,0,271,96a44,44,0,0,1,3.85-2.69C274.82,92.25,275.21,90.7,274.11,90.65Zm0,20c-1.66-2.44-2-6.19-3.08-9.24-1.18.1-1.73.84-2.69,1.16.18,3.8,2.26,5.69,3.08,8.85C272.29,111.15,274.42,112.12,274.11,110.66Zm-23.86,12.7c8.49-.24,16.62-.83,22.71-3.46C265,120.67,256.18,120.56,250.25,123.36Zm20-35c-1.23,1.34-3.45,1.68-5,2.69v3.08c2.37-.2,3.34-1.79,3.85-3.85.79.11.36,1.44,1.16,1.54,0-.73,1.27-.27,1.15-1.15C270.59,90.32,271.09,88.66,270.27,88.34ZM267.19,99.5c-.09,3,3,.65,3.46-.39C269.43,97.53,269,99.6,267.19,99.5Zm-.39,3.85c-.32.36-2,1.29-2.31.38-.17-1.84,2.62-.72,1.93-3.08-1.8-.39-1.28,1.55-3.08,1.16a36.34,36.34,0,0,0,2.31,10c1.1-.41,1.82-.62,1.54,1.16.92-.23,2.79.48,3.08-.39C268.5,110.92,268.88,105.75,266.8,103.35Zm2.31-21.55c-1.76-.22-2.4.68-4.23.38-.43,2.74,2.39,2.22,4.62,2.31C269.8,83.15,268.92,83,269.11,81.8Zm-.77,11.93c-.3,1.36-2.61.72-2.69,2.3,1.25.45,2.36-1.17,3.08,0-1.16.39-2.68.41-2.31,2.31,1.36-.18,2.1-1,3.08-1.54C269.22,95.67,269.39,94.09,268.34,93.73ZM267.57,76a8.46,8.46,0,0,0-4.23.77c1.24,1.07.27,2.75,1.15,4.62,1.84.3,2.48-.6,4.24-.39C268.73,79,267.79,77.85,267.57,76Zm-1.15-5h-4.24c.37,1.55.79,3.06,1.16,4.62a9.7,9.7,0,0,1,3.85-.39C267.18,73.59,266.29,72.81,266.42,71Zm-1.54,25.4c-.9.13-1.66.39-1.93,1.15,1.81-.21-1.48,2.72.77,3.08.29-1.12,2.08-.74,1.93-2.31A1.87,1.87,0,0,1,264.88,96.42ZM262.57,103c-1.19.1-1.73.84-2.7,1.16.28,3.7,2.19,5.76,2.31,9.62,1.24.08,1.63-.68,3.08-.39A26,26,0,0,1,262.57,103Zm-.77-9.62c-.19,1.22.69,1.36.38,2.69,1.44.42,1.1-1,2.31-.77-.31-1.79.25-2.46-.38-3.46A7.3,7.3,0,0,1,261.8,93.34Zm0-45.41c.76.58-.73,3.62,0,4.23C266.07,53.24,262.72,47.19,261.8,47.93ZM256.41,91.8c.13.9.39,1.66,1.15,1.93,1.42-1.55,5.75-2.21,5.78-3.85C261.49,91,258.7,91.14,256.41,91.8Zm6.16-15c-.62-.63-1.61.34-3.08,0,.16,1.89,1.1,3,1.15,5,1.18-.12,2.63.06,2.7-1.16A7.78,7.78,0,0,1,262.57,76.79Zm-1.16-5.39h-3.08c-.27,1.95.53,2.81.77,4.24C263.94,76.73,260.91,73,261.41,71.4ZM261,98.34c-.12,1-.09,1.84-1.93,1.93,0,.9.67,1.13.39,2.31,1.09-.2,1.63-.93,2.69-1.16C262.15,100.05,262,98.78,261,98.34Zm0-4.23c-1.46.09-1.87,1.21-3.08,1.54.27,1.14.11,2.72,1.15,3.08C260.56,97.37,261.86,97,261,94.11Zm-8.47,21.55c1-.14,4.69.36,3.85-.38C255.38,115.42,251.73,114.93,252.56,115.66Zm3.08-23.47c-1.55-.27-2.2.37-3.46.38.36,2,.54,3.23.77,4.62C255.32,96.68,256.29,94.72,255.64,92.19Zm-15.39,26.17c-2.16-.09-.46.68.77.38,2.07.52,6,.33,7.69-.77C245.63,117.27,243.68,118,240.25,118.36Zm-16.55-2.7c-5-.68-1,1.61,0,0ZM179.44,99.11c-.06,2.2,2.72,5.38,3.85,3.85C182.52,101.16,180.74,100.38,179.44,99.11Z" style="fill: #c5c8b2;fill-rule: evenodd"/>
    <path d="M258,223.42c-6.09,2.9-12.07,8-17.32,10.4,6.66-4.51,12.34-10,20.78-12.7-4.09,5.78-11,8.71-15.78,13.85,10.55-2.17,16.91-10.53,27.71-11.16-1.21,3.91-4.93,6-7.69,8.47s-5.13,5.37-8.09,7.69c3.22-6.41,9.93-9.31,13.86-15-9.58,1.33-16.93,10.26-27.33,10.78C247.42,230.34,253.8,228,258,223.42Z" style="fill: #c5c8b2;fill-rule: evenodd"/>
    <path d="M226.39,241.9c6.15-7.84,15.85-12.12,23.09-18.86-5.4,3.06-10,7-15.78,9.62,7.39-5.31,14.76-10.64,23.1-15-3.1,4.44-8.6,7.88-13.48,11.55S233,236.34,228.7,240.36c1.8-.38,2.7-1.66,4.23-2.31C233.62,239.19,229.11,241.62,226.39,241.9Z" style="fill: #c5c8b2;fill-rule: evenodd"/>
    <path d="M219.08,225c-9,3.72-20,10.76-31.56,10-8.37-.55-20.39,1.38-28.48-3.08a2.2,2.2,0,0,1-.39-1.54c-.47-.57-1.11.94-1.92-.38-.22-7.26-.45-12.34-.38-23.09-3.3,2.84-2.92,14.78-2.7,20-.11.69,1.49,0,1.16-.77.73.88-.3,3.28-1.16,3.85-5.07-4.32-4.08-15.21-2.69-23.48.16-1.06-1.44-.36-1.54-1.15-1.92,6-1.31,12.43-1.16,18.08a1,1,0,0,0,.77-1.15c.91.33-.32,1.69-.38,2.31-3.13-5.13-.53-15.8-.39-20-3.76.91-2,8.66-3.08,10.77-3.56-1,2-8.74-.38-12.31-.81.16-1-.27-1.54-.39-1.76,3.84-1.13,8.65-1.54,12.32-3.06-5.18,2.5-12.58-1.15-15.4-.18,5.73-2.24,9.57-1.93,15.78-2.35-1.58-.4-5.13,0-7.7.46-2.95.48-5.8,1.16-8.08a3.49,3.49,0,0,1-1.54-3.46c-3.94,3.79-2.48,11.87-4.24,16.16-1.56-3.86,1.51-12.07,2.31-17.32-1.62.18-1.77,1.82-3.08,2.31-1.51,4.5.2,9.73-1.92,12.32A30.88,30.88,0,0,1,132.48,198c0-.72-1.27-.26-1.15-1.15a10.12,10.12,0,0,1,1.54-5c-3.44.41-2.5,5.2-4.24,7.31.11-1.31.62-2.21.39-3.85-2.22.35-1.72,1.69-1.92,3.46a2.85,2.85,0,0,0,.77-1.15c.1,2.81-.15,7.89-.39,10.77-2.26-2,.08-7.38-2.31-10-1.61.26,0,2.24-.77,2.69-1,.28.28-1.81-.77-1.54a1.47,1.47,0,0,0,.77,2.31c.3,1.59-.59,2-.38,3.47-3.94-1.63-.35-9.2-1.16-12.32.17-1.08-1.43,1-1.54-.38-.86.16-.15,1.89-.38,2.69-.79-1.75-1.45-4.91-.77-6.93-4.3.4-1.78,7.61-3.47,9.62-1.2-.88-.52-7.9.39-7.69-.19-1.09-1.1-1.47-1.93-1.93.57,1.67.76,2-.38,2.31.87.76,1.31,5.39-1.15,6.16,2-5.82-.78-12.13-2.7-17.32-1.91,4.72.71,9.33,0,13.47-3.41-8.86-.88-19.24-1.54-28.86-9.22,14.39-1.82,28,6.16,40,3.64,5.5,8.57,8.94,13.47,12.7,7.67,3.24,14.07,7.75,20.4,12.32a297.5,297.5,0,0,1-28.87-16.55c-3-4-7.09-6.77-8.85-11.93-4.17-6.41-9.73-14.9-8.47-24.25-5-1.87-11.18-2.8-16.16-4.62C76.23,161.43,67,144.92,69.37,124.9c-4.92-1-9.5-.61-14.24-1.92-4.55-1.26-7.24-2.87-13.09-3.47-8.72-.89-16.69-4.23-24.63-6.93-4,1.37-6.17-3.14-5.39-6.54.4,1.77,3.64,2.37,3.08,3.85C30,118.06,52,120.93,74,118c5.69-4.06,5.21-14.29,5.78-23.48-.45.07-.33.71-.39,1.16-1.55-.36.85-2.85,1.16-3.85.89,7.18-.76,15.15-1.93,21.55.78.38,2.28-1.81,3.85-1.92-.13-7,1.89-13.71,1.93-21.17,1.82.78.91,3.9.77,5.39-.41,4.32-1.81,9.33-1.54,13.85,2.55-1.42,5.56-2.38,8.08-3.84a109.23,109.23,0,0,0,1.92-18.48c2.31,1.78.1,8.59-.38,12.7-.21,1.8.49,3.51-.39,5,.48.82,1.58-1,2.7-.77-.08-5.69,2.36-10.36,1.92-15s-4.21-9.74-6.16-14.24c-1.29-3-1.89-6-3.08-8.86,5.24,6.45,7.48,17.93,11.55,24.25.18,1.58-1,0-1.54,0-.63,4.38-1.29,8.72-1.54,13.47,0,.85,1.63.16,2.31.39,1.35-5.11,3.37-13.79,1.93-18.09.17-.56.33,0,.76,0a70.71,70.71,0,0,0-9.23-18.48c-1.62,3-.89-4-1.54-6.15,1.64-.65,2.12,1.46,4.23,0-1.77-3-7.81-1.68-11.16-3.08-.18-.82.55-.74,1.16-.77-3.08-1.45-7.42-3.14-11.55-2.31,1.83-1.46,2.21-2,2.69-4.62-1.16.65-5.69,3.16-3.46,3.46-2.21.54-6.11-.55-8.85-.77a22.88,22.88,0,0,0,5,3.85c-2.16.36-4.39-2.52-6.54-3.46-15.06.46-39.18.46-47,10,2.91.08,6.59-2.4,9.24-3.85-1.6,2.63-6.89,4.91-10,7.31-.11-1.77,1.71-1.62,2.31-2.7C10,66.53,8.84,74.51,6.25,81c0-5.39,3.13-11,6.16-14.62-5.59,3-7.55,13-10.39,20,1.24,2.52-.57,4.47-.77,6.55C.62,99.16,4.53,102.07,7,106,.17,102-1.16,96.78.86,86,2.48,77.38,7.27,66.79,14,64.09c2.15-2.34,4.51-4.47,6.54-6.93,13.45-1.68,26.15-5.31,40.41-5-.91-1.56-2.29-1.86-4.23-1.54a6.84,6.84,0,0,0-1.16-1.54C57.23,44.75,54,38.3,57.44,34.84V41a30.46,30.46,0,0,1,2.69-3.46A16,16,0,0,1,59,30.61c2.54,3.88,2.26,10.57,6.16,13.08a45.52,45.52,0,0,1,11.93,4.24c1.15-.27,2.36-.47,2.7-1.54,1.21.53-.53,1.9.38,2.31,2.6.28,4-.62,6.55-.39,0,.69-.48.81-.39,1.54,6.8,2,13.48-.9,20.78-.77.67.79-.28.76.39,1.54.67-.09.87-.66.77-1.54,8.79-.68,14,4.32,23.47,3.08.81-.11-.55-1,.39-1.54,11.37-.17,18.48-4.61,27.71-6.93.14-4.53,3.89-8.49,1.54-13.08C160.44,32.26,160,34.38,159,36c-2-1.38.79-3.55.38-5.78-2.9.43-1.44,5.22-4.23,5.78.07-1.86.85-3,1.16-4.62-5.87.3-12.27,4.41-19.63,3.85-3-.23-6.45.41-10,0-2.5-.3-5.11-1.47-7.7-1.54-7.23-.2-15,1.75-21.93,1.92-5.53.14-11.52.28-16.55,0-2.66-.15-5.43-1.16-7.7-.77-1.36.23-2.89,2.24-4.23,1.93-3.74-.87-1.19-6.81,2.31-6.93-.34,1.59-2,1.88-2.7,3.08.29,1.39,3.29.3,3.47.77,1.23-.31,1.1-2,1.92-2.7,6-.39,11.11-1.71,17.7-1.54,3.46-4.24,10-5.34,15.78-7.31C103.25,24.59,98,25.65,94,27.91c.29.73,1.15.27.38,1.16,8.4-.27,15.61,1.21,23.86,0,7.19-1.05,16.27-6.68,22.33-3.08,1.64-.77,3.9-.15,5.38.38a1.43,1.43,0,0,1,0,1.93c2.68,1.12,6.08,2.42,9.63,1.54,1.5-.55,1.27-2.83,1.92-4.23,1.55-.23-.19,1.13.39,2.3.86-.54.73-2.08,1.53-2.69,2.21.1,2,2.62,3.08,3.85,1.16-5.6-5.33-9.65-8.85-13.09-3.06-1.17-7.88-.59-9.62-3.08,7.52-.49,17.57,5.5,20.4,13.47a47.38,47.38,0,0,1,2.31,8.86c0,1.74-.39,3.65-2.31,4.23.71-1.1,1.23-4,.38-5.39-.87,1.44-.67,4-1.15,5.77.33,1.47,2.19,1.41,2.69,2.7,0,5.51-4.37,8.3-4.23,12.7-4.31,2.36-6.8,6.54-11.55,8.47,2.55.86,4.48-2.19,8.08-1.54,1,1-1,1.29-1.15,2.3,1.11-.55,1.79,1.06.39.78.11.52,1,.32,1.53.38-.54,2.28-4,1.59-5,3.46,2.8-.91,5.09-2.35,8.47-2.69-2.33,3-6.69,3.66-10.39,5-7.82,2.83-17.06,6.2-25.79,8.47,14.18-.71,26.22-8.92,38.87-11.16-11.56,5.11-23.92,9.43-36.17,13.85,13-.88,24.57-8.51,36.17-10.77-11,6-24.18,7.81-34.64,14.62,10.79-1.91,18.34-7.06,28.1-10-1.42,2.92-5.9,3.88-9.62,5.39-4.56,1.84-9.29,3.34-13.09,5.38,8.81.47,16.66-5.4,24.25-6.16-5.19,4.18-13.39,5.34-18.86,9.24,4.7.83,11.19-3.92,14.63-3.08-1.53-.93-2.4,1.38-2.31,2.31-8.13,4.06-15,9.33-22.33,14.24.74.68,2,.82,3.08,1.16,9.08-5.55,16.68-12.58,26.17-17.71-8,6.66-17.35,11.9-25.4,18.48.39,1.08,1.64-.11,2.31,0a6.43,6.43,0,0,1-4.23,1.92c-.33-1.23.6-1.19.77-1.92-6.68-1.77-11.22-1.6-18.09-2.31-.29,1.18,1.33.47.77,1.92-2.15.61-1.43-1.65-2.69-1.92-5.21,1.07-11.77.63-14.24,3.46-1.16.39-.69-.86-.77-1.54-.91.12-1.45.61-2.7.39-1,.35.69,1.34-.38,1.92-1.21.18-1.23-.82-1.16-1.92-3,2.29-8.12,2.39-10.39,5.38a1,1,0,0,1-1.15-.77c-.84,2.32-4.13,3.94-5.78,6.55-.15.92,1.76-.22,1.16,1.15-1.18-.28-1.4.4-2.31.39-4.75,12.9,3,27.47,15.39,28.48-.93.93,3.5,3.16,3.85,1.54.48,1.69,2.81,3.28,5.77,2.31.19,1.2-1,1-1.15,1.92.39.85,1.32-1,2.69-.39,0,.7-.47.82-.38,1.54,2.67.56,3.78-.08,5.77,0,8.21-6.41,16.83-12.42,24.63-19.24-5.13-3.22-11,4.48-14.62,7.31-4.42,3.46-8.25,5.73-11.16,8.47.25,1.15.82-.37,1.54,0a3.52,3.52,0,0,1-2.7,1.15c0-2.87,3.22-3.68,5-5,5.45-4,11-9.07,16.55-13.47-2.37-1.3-6-2.92-8.47-1.92-.12-2.09-6.6-2-9.24-1.54-1.44.29-.84-1.47-1.92-1.54C98.31,129.51,84,130.3,84,119.13c1.67.12.9,2.69,1.93,3.46,4.55-2,8.32-5.94,14.62-5,.34.68,1.22,1.12.39,1.92,2.25,1.15,5.9.23,7.69,0,.11,1.81-1.35,2.57-3.46,3.08,3.79,1.47,6-2,9.24-2.31-.11,1.44-1.92,1.17-2.31,2.31,4.67,0,5.93-3.31,10-3.85-.45,2.38-4,1.68-5,3.46,3.44,1.64,6-.92,8.47-1.54.16,1.45-1.21,1.37-1.54,2.32,2.49,2.36,5.08-.73,7.31-1.93.82,2.11-3.64,2.25-4.23,4.23,5.29,2.5,7.85-2.75,12.31-3.46-.84,2.75-4.2,3-6.16,4.62,3.86,2.08,5.61-3.28,10-3.08-1.25,2.22-4.1,2.83-5.77,4.62,4.44.78,7.25-5.24,11.54-4.62-1.11,2.22-3.75,2.92-5.77,4.23,3.94,1.37,5.89-2.57,9.24-3.07,1.84.13-.83,1.15-.77,1.92,10.52-2.24,16.61,3.67,26.17,4.62-.07,2.25,2.4,2,1.92,4.61-6.21.72-9.81,4.05-13.47,7.32,2.62,1.39,5.11-2.5,6.93-1.93-1.77,1.32-3.32,2.84-5,4.24,1.59,1.61,4.35,2.06,6.92,2.69,4.54-2.52,7.92-6.19,13.09-8.08-2.68,2.15-7.22,5.2-10.78,7.7.56,1.14,1.5-.51,2.7,0-2.48.78-.77,1.64.77,2.31.83-.84,1-2.35,1.92-3.08-.27-1-1,.71-1.92.38a59.37,59.37,0,0,0,11.16-8.08c-.8,4-7.51,5.32-9.24,9.62,4.09-1,9.56-4,10.78-9.23,1,0,.47.28.38.76,1.43.41.76-1.29,1.54-1.54-.79-7-2.74-11.64-5.77-15.77a36.82,36.82,0,0,0-11.55-9.63c-10.95-5-26.66,2.83-34.25-6.54a2.52,2.52,0,0,1-1.92-.38c6.77-6.45,15.35-11.08,23.09-16.55-6,5.84-13.88,9.72-20.4,15,.2.66,1.85-.42,2.69-.39-.35.93-1.54,1-2.69,1.16.12,1.67,1.26,2.33,2.31,3.08,5.7-6.36,12.69-11.43,20-16.17-5.36,5.16-12,9.09-17.32,14.24,1.32.92,2.18-1.92,4.24-1.54-1.27,1.81-3.77,2.39-5.78,3.47,8.49,4.37,23.14-1.42,32.72,4.23.72.43.29,1.16,1.15,1.92,2.58,2.27,7.45,4.78,8.85,6.55,2.11,2.65,7.88,14.34,5.39,19.24.26.36,2.24-.34,2.7.77s-1.25.29-.77,1.54c3.22.21,5-2.88,7.69-1.93-2.89.71-4.89,2.29-7.69,3.08-1.12,3.89-3.3,6.72-4.62,10.39,3.57,1.56,5.22,5,9.62,5.78,5.93-4.94,11-11.55,16.93-16.94,1.8-1.63,3.83-3.84,6.16-4.23-7.08,6.91-15.9,14.1-21.17,21.55.26,1.15,2.24.59,2.7,1.54,5.62-5.82,12.68-10.81,18.86-16.55,1.85-1.73,3.39-4.52,6.15-4.62-8,7.17-16.3,14-23.86,21.56,6.37,5,14.53,8.3,16.94,17.32,1.17-.56,2.3-.08,3.46.38.64,5.32.94,10.05,1.92,16.16.78.35,1.28-1.31,2.7,0a11,11,0,0,0-4.24,8.47c-2.12.7-2.91,2.73-4.23,4.23,5.59-4.11,8.06-10.15,14.63-13.85-3.76,4.79-9.28,9.16-11.94,13.85,6.78-1.68,8.73-8.2,13.86-11.54.27,3.23-5.83,5.71-8.08,9.62-.65,1.12-.18,2.54-1.16,3.46,5.06-2.76,8.94-8.76,13.86-10.39-9.26,7.67-17.6,16.27-27.33,23.48,10.93-4.85,20.87-14,31.95-20,.43,1.8-2,2-3.08,2.69-4.15,2.53-8.19,5.83-12.7,8.85-6.26,4.2-14,7.84-18.09,12.7-3.92.83-5.61,3.89-10,4.24C210.19,228.65,215.89,228.06,219.08,225ZM74.75,50.24c-1.49-.09-2.41.4-2.69,1.54C73.62,51.93,74.74,51.63,74.75,50.24Zm65.82,41.18c-4.25,3.32-11.44,7-16.17,11.16a9.84,9.84,0,0,1,4.62,1.15,163.78,163.78,0,0,0,21.17-14.24C147.7,89.54,142.46,92,140.57,91.42ZM228.7,213c2.12-.06,2.66-1.69,3.46-3.08C230.48,210.45,229.74,211.9,228.7,213ZM226.39,205c.93-2.27,4.72-5.38,2.7-8.08C229.63,200.76,226.1,202.61,226.39,205Zm-1.54-18.09c.17,2-1,3.8.77,4.62-.37-1.3,1.18-2.63,0-3.46C225,189.48,225.65,186.52,224.85,186.86Zm-.38,8.47c.08-.3.32-.45.77-.39-.48-1.65,1.23-3.1-.77-3.07C224.78,193.11,224,195.2,224.47,195.33ZM152.11,203c.64,0,.22,1.07.77,1.15,2.13-2.75,3.4-6.35,6.93-7.7-1.85,3.16-4.64,5.38-6.16,8.86,5,.81,6.28-6.17,10.39-8.47.21,2.83-3.32,5.1-4.23,8.08,3.38-1.24,4.56-4.68,7.7-6.16.44,2.94-2.63,5.55-3.47,8.47,3.74,3.14,4.17-4.38,6.93-5.77,1,2-.81,4.22-1.15,6.15,2.5-1.08,3-5.77,6.15-5-.52,1.73.41,2.81.77,4.62a2.59,2.59,0,0,1,3.08-1.54c1.06,1.89,2.06,3.84,5,3.85.17-1.62,0-3.58,1.15-4.23.44,1.82-.89,3.14,0,4.23,2.21.67.92-2.16,2.31-2.31,1,2.07,2.53,3.63,6.16,3.08.67-.61.5-2.06,1.15-2.7A3.3,3.3,0,0,1,196,210c3.45.64,3.62-2,5.38-3.07.23.68-1.12,1.59,0,1.92a27.3,27.3,0,0,1,4.62-2.31c.09.3,0,.76.39.77a33.83,33.83,0,0,0,16.93-11.16c-.07-3.37-.53-9.86,1.93-11.93-2-11.76-11.42-16-21.17-20-.77-2.83-3.63-3.56-6.54-4.24-1-1.56-1.89-3.24-4.24-3.46-.44,1.13,1.85,1.43.77,1.92-1-.24-1-1.61-2.31-1.54-.76.29-1.71,2.36-2.31,1.54-.41-1.43,1-1.09.77-2.31-7.09-2.12-14.05-5.27-21.16-7.69-2.39-.82-4.92-2-7.32-2.7-8.06-2.19-17.26,1.6-26.55,1.16-.68.34-1.13.93-1.93,1.15-5.78-2.3-12.73,2.91-13.85,6.54.21-.8.6-.81,1.15-.38-.89,2.31-.5,5.91-4.23,5.39a28.28,28.28,0,0,0-3.46,7.69c.45.07,1.09-.06,1.15.39.41,5,3.49,9.34,3.46,13.47-1.79-1.55-.94-5.73-3.07-6.93a22.21,22.21,0,0,0,6.54,13.09c0-.47.11-.91.77-.77-.77.78-.1,1,.38,1.54,3.47.13,4-4.78,6.16-4.62-.69,1.95-3.44,3.64-3.08,5.39,2.51-1,2.08-4.86,5-5.39-.95,3-3,4.9-4.23,7.7,4.8,2.56,4.33-6,8.47-6.55A65.18,65.18,0,0,1,129,193c3-1,3.33-4.63,6.93-5-.44,2.38-1.82,3.83-1.93,6.54,3.23-.75,3.51-4.45,7.32-4.62-.39,2.18-1.36,3.78-1.16,6.54,1.91-.16,1.26.12,1.16,1.54,2.15.19,4.9,4.09,6.15,1.54C147,201.49,150.41,204.72,152.11,203Zm-5.77,0c1.62.18,3.32,2.31,5,1.15C149.58,204.13,147.14,201.59,146.34,203Zm76.59,6.54c1.14.46,1.65-1.62.77-1.93C223.26,208.11,222.6,208.34,222.93,209.57Zm-5,5.77c1.9-.76,1.35-3.72,1.16-5C218.61,211.68,217.29,214.18,217.92,215.34ZM216.38,210c.86-.07,2.7-1.11,1.54-1.92C217.88,209.14,216.28,208.7,216.38,210Zm0,5a8.5,8.5,0,0,0,.77-3.47C215.45,211.88,216.26,214.41,216.38,215Zm-51.18,2.31c.34,3.17-.68,8,.38,11.54.64-.65.84-1.73,1.54-2.31,0,3.19-2.23,5.73-3.08,2.7-1.45-5.19,2.34-19-1.92-20.79-2.53,6.25-1.93,13.82-.77,18.86,1.43.41.61-1.44,1.92-1.15-.42,1.11-.47,2.6-1.92,2.69-3.47-5-1.71-15-.77-20.78-1.23-.59-1.69-.14-3.08,0,.13,7.94-.5,13.58.39,21.55A6.52,6.52,0,0,1,159,228c1.32,5.36,14.07,7.37,16.16,1.93,1.05.24,1,1.6,2.31,1.54,11.49-.57,18.89-5.24,28.48-7.7.54-1,1-2.11,2.31-2.31-.08.49-.6.79.39.77a23.37,23.37,0,0,0,6.92-5c-3.24.47-3.94,3.5-7.31,3.85.27-1,1.75-.82,1.93-1.93a6.08,6.08,0,0,1-.77-3.85c-2.89.58-1.29,5.65-4.24,6.16-1.08-.72-.73-2.86-.77-4.62-3.95-.11-1.89,5.81-4.61,6.93-1.64-1.19-.38-5.27-.77-7.7h-3.85c.09,2.21-.29,4.91.38,6.54,1.93-.76,1.42-4,3.08-5-.91,2.43-.76,5.91-3.08,6.93-1.62-1.46-1.65-4.5-1.54-7.7-1.71-.3-2.31.51-3.85.39,1,2.81-.66,4.16.77,6.54,1.05-.88.85-3,1.93-3.85-.43,2.26-.36,5-2.31,5.77-1.48-1.6-1-5.11-1.16-8.08H185.6c.19,3.08-.79,5.59.76,7.7,1.34-1.23.69-4.45,1.93-5.77-.65,2.43.39,6.54-1.93,7.31-2.89-.7-1.65-5.53-1.92-8.85-1.2.08-2.82-.26-3.46.38.3,2.21.36,5.13.77,6.16-.19-.75,1-2,1.15-1.16-.16,1.39-.1,3-1.15,3.47-1.44-1.9-1.58-5.09-1.54-8.47h-5c-.25,1.18.18,4.6,0,6.93,1.2,0,.25-1.35,1.54-1.93.17,2.23-.28,3.83-1.54,4.62-1.52-2.06-1.08-6.1-1.15-9.62a17.78,17.78,0,0,1-5-.38c.13,3.93.63,5.3.77,9.23,1.83.43.53-2.29,1.92-2.31-.38,1.81-.1,4.27-1.92,4.62-1.95-2.79-.72-8.78-2.31-11.93C166.12,218.35,165.34,216.55,165.2,217.27Zm49.26-4.62c-1.32,1-1.48,3.14-1.92,5C215.24,217.46,215.44,214.81,214.46,212.65Zm-3.08,4.62c-.08-1.14,1.52-2.55.39-3.47C210.81,214.11,209.82,216.79,211.38,217.27Zm-3.46-6.55c.05,1.09-.95,1.11-1.93,1.16.28,1.18-.39,1.4-.38,2.31C207.93,214.8,209.76,211.84,207.92,210.72Zm-1.54,8.09c1.29-3.3-1.31-2.57,0,0Zm-6.16-5a21.35,21.35,0,0,0,4.23,0v-1.15C203.11,213.1,200.93,212.71,200.22,213.8Zm.38,6.16c.07-1.09.71-1.6.77-2.69C200,216.77,199.85,219.55,200.6,220Zm-5.38-5c1.73-.19,3.85,0,4.23-1.54C198.23,214.13,195.61,213.43,195.22,215Zm-.39-65c.62-2.09,2.4-5,1.93-6.93C196.22,145.15,194.26,147.93,194.83,149.92Zm-3.46,63.88c-.12-.68,2.15-.68,1.54.39-1.29,0-2.57,0-2.31,1.54,1.49.2,1.88-.69,3.46-.39-.78-1.17-.87-1.55.39-2.31C193.72,212.09,190.45,213.17,191.37,213.8ZM189.83,148c1-.93,3.28-2.61,2.69-3.85C191.85,145.4,189.57,147.08,189.83,148Zm1.15,5c1.08-.22,1.83-2.76,1.16-3.46C191.35,150.28,191.54,152,191,153Zm-5-2.3c.23-1.58,3-2.63,2.31-3.85-1.31,1.77-3.66,2.5-5.39,3.85,2.44.76,4.37,2,6.93,2.69.19-1.22-.69-1.36-.39-2.69-1.35.05-1.72,1.1-3.08,1.15C186.34,151.35,185.87,151.31,186,150.69Zm-.38,63.88c-.54,1.63,3.91,1.72,3.84.39C188.27,214.52,187.65,214.71,185.6,214.57Zm-5-.38v1.15a20,20,0,0,0,4.24,0c.15-1.93-3.43-3.87-4.62-1.92.1,1.35,1.7-.7,1.54.38C181.25,213.82,181.21,214.3,180.59,214.19Zm0,2.69c.48.69,4.06-.07,3.47-.38C183,216.74,181,216,180.59,216.88Zm-1.54,15.4c-5.68.66,1.6.68,2.7.76a3.19,3.19,0,0,0-2.31.78h3.08c-1.66-2.15.75-.88,1.54-2.31C181.9,231.9,180.84,232.07,179.05,232.28Zm1.16-22.71v1.92a1.44,1.44,0,0,0,1.54-1.54C181,210,180.9,209.52,180.21,209.57Zm-5,6.16v1.92c1.6-.33,4.74.89,4.62-1.15A11.83,11.83,0,0,0,175.2,215.73Zm3.85-8.09c-1.25-.56-2.71,1.53-2.69,3.47.91,0,1.13.66,2.31.38C179,210.44,179.92,208.7,179.05,207.64Zm-3.46,4.62c.16.93-.7.84-.39,1.93,1.89.28,3.43.44,4.24-1.16A6.7,6.7,0,0,0,175.59,212.26Zm1.15-79.66c-1.12,1.69-4.15,1.49-5,3.46,3-1.08,4.8-.94,6.93-1.54C178,133.94,177.71,132.91,176.74,132.6Zm-15.39-5c-1.41,2.19-5.92,3.32-5.77,5.78,3.66-.86,7.19-3.8,10.77-3.47a18.33,18.33,0,0,1-3.08,5c1.14.49,2.45-.12,3.47-.77-.76.18-1.24-1.77-.39-1.93,2.58,2.29,6.51,1.11,8.85-.77C169.83,130.91,166.52,128.32,161.35,127.59Zm13.47,81.59c1.22-4.18-1.1-3.16,0,0Zm-1.54-3.84c-.86,2.09-2.66,3.24-3.85,5a31.1,31.1,0,0,1,3.85,2.69c-1.74-.18-2.62-1.23-4.23-1.54-.05,2.91-.49,3.4,0,5.78,1.88-.09,2.91.67,5,.38-.16-.93.7-.83.38-1.92-1.7-.35-4-.16-4.61-1.54,1.13-1,3.44.12,4.61.38C174,211,172.23,208.35,173.28,205.34ZM167.12,138c-1.81,2-4.72,3-6.54,5,1.87.57,3.13-1.47,4.23-.39a2.47,2.47,0,0,1-1.92.39c-.06,1.08.94,1.11,1.92,1.15-.16-1.69,1.18-1.26.39-2.69,2.89-.45,4.3-2.38,6.15-3.85C169.3,136.62,169.27,139.21,167.12,138Zm-1.54,6.92c1.61.87,2.5-.67,3.47-1.54A7,7,0,0,0,165.58,144.91Zm0,65a63,63,0,0,0-.38,6.55h2.69C167.62,213.82,169,209.47,165.58,210ZM164,136.45c-2,1.7-7.65,3.84-6.92,5.77,0,.39-.32.46-.39.77,4.8-.84,7.19-4.1,10.78-6.16C166.34,136.36,165.44,137.15,164,136.45Zm-9.23-1.54c3.42,0,3.78-.54,6.54,0a20.66,20.66,0,0,0,3.08-3.85A91.83,91.83,0,0,0,154.81,134.91Zm6.15,72c.93-.16.84.7,1.93.38-.22-1.77,2.17-2.94,1.15-4.23C163.3,204.59,161.39,205,161,206.88Zm0-153.95c.86-1.84,2.58-4.86,2.7-6.16C162,47.78,160.25,50.8,161,52.93Zm-2.69,82.74a1.67,1.67,0,0,1-.77,1.54c-3.93,1.21-6.5,3.77-9.62,5.78,1.25.22,1.79-.26,2.69-.39.12.89-1.11.43-1.15,1.16,6.16-.39,8-5.07,12.31-7.31C160.93,135.84,159.18,136.18,158.27,135.67Zm-.38-87.36a9.6,9.6,0,0,0,3.07-.77c-.53-1.1,1-1.95,0-2.31C159.87,46.19,158.94,47.31,157.89,48.31ZM148.65,133a37,37,0,0,0,10.77-5.77C154.78,127.82,150.72,131.07,148.65,133Zm3.08-76.59c2.25-1.72,6.54-3.45,6.54-6.15C156.26,52.2,152.37,54.34,151.73,56.39Zm-15.4,80.06c-.38-.52-.36-1.44-1.15-1.54-4.38,2.65-8.73,6.42-13.47,10-4,3-10.13,6.17-10.78,10,4.91-1,7.25-4.56,10.78-6.93-.45-.06-1.09.07-1.16-.38,6.76-1.21,9.43-8.52,15-9.62-3.15,3-8.34,6-10,9.23a25.48,25.48,0,0,1,9.23-2.31c3.21-2.17,5.14-5.64,8.86-7.31-1.78,2.85-4.91,4.33-6.93,6.93,6.87.2,8.48-6.91,14.24-6.54a38.6,38.6,0,0,0-8.85,6.15c1,.42,1.83-1.17,2.3,0-.23.54-1.48.06-1.53.77h2.69c2-4.58,7.55-5.53,10.78-8.85C150.26,136.26,142.68,136.26,136.33,136.45Zm16.17-78.9c.53.88-1,1.45,0,1.54.67-.87,3.82-2.93,3.08-2.7C154.21,56.44,154.18,57.82,152.5,57.55ZM151.34,208.8c-.17,5.43-1.35,13.49.77,17.7.49-4.09.49-12.68,1.93-18.09C153.13,208.54,152.59,209,151.34,208.8ZM146,54.85c2.46-1.26,6.16-1.28,7.7-3.46C151.12,52.33,147,53.73,146,54.85ZM139,134.52c5.14-1.78,12-3.92,14.24-7.31C148.3,128,143.16,131.66,139,134.52Zm8.46.39c2.14.33,4.67-.53,5.78,0-.24-1.49-.32-1.59.38-2.7A26.29,26.29,0,0,0,147.49,134.91Zm1.54-75c.81,1.1,2.92-.93,1.93-1.54C150.52,59,149.47,59.14,149,59.86Zm-.38,7.31c.48-.93,2-.78,2.69-1.54C150,65.49,147.71,66.33,148.65,67.17Zm-6.54-.38c2.94-1.68,7.06-2.17,8.08-5.78-1.54.68-2.44.93-3.85,0-4,1.87-7.7,6.16-11.93,6.54,1.67-3.32,6.29-3.71,8.47-6.54-3.16,1-5.61,2.61-8.86,3.46-1.11,1.89-4,6-6.54,3.86,4.09-.87,5.89-4.68,8.08-6.93A61.09,61.09,0,0,1,149.8,51c-6.13,2.07-14.12,2.7-21.55,3.07-2.82,5-9.26,6.4-12.32,11.17,1.3.36,2.63-1.18,3.47,0-1.73,1.61-6.5.17-7.31,2.69,9.76.2,13.74-9.54,20.78-11.93-4,3.73-8.3,7.1-12.32,10.78a3.3,3.3,0,0,0,2.31.38,104.52,104.52,0,0,1,18.86-12.7c-4.84,4.91-13.84,7.71-16.93,13.08a12.23,12.23,0,0,1,4.23-2.3c-1.31,2-4,2.65-5.39,4.61C133.77,72,139,65.37,145.57,64.09,144.13,64.46,141.82,66,142.11,66.79Zm6.54,3.46c.23,0,.45.06.38.38a1.74,1.74,0,0,0-1.54.77c1.18.28,1.14-.66,2.31-.38v-.77C149.35,70.19,148.93,69.56,148.65,70.25Zm-1.54-38.87c.67-.35,1.92-.13,2.31-.77A1.41,1.41,0,0,0,147.11,31.38ZM146,57.93c.53-.88,1.92-.9,2.31-1.92C146.88,55.8,145.47,57.54,146,57.93Zm-1.15,75.44c-.56,1-2.33.74-2.69,1.92,1.06-.35,2.7-.12,3.46-.77C144.93,134.52,145.35,133.45,144.8,133.37ZM136,62.94c4-1.4,7.59-3.19,9.23-6.93C140.68,56.9,138.88,60.48,136,62.94ZM119.4,100.65c.66.16,1-.57,1.15,0,0,.66-2.5.78-1.15,1.54,7.37-.22,11.83-6.61,18.09-9.23-.47-4.71,6.82-3.69,7.31-6.16C133.3,88.38,126.12,94.29,119.4,100.65Zm21.94-73.5c1-.2,3,1.67,3.07,0C143.05,27.38,142,25.32,141.34,27.15ZM136.72,132.6c3.05-.41,4.89-2,6.93-3.47C140,129,138.42,130.83,136.72,132.6ZM124.4,29.84c3.55.64,13.17,1.79,16.94-1.54C136.61,26.14,129.37,28.69,124.4,29.84Zm-.77,3.85c6.42,1.48,13.2.84,17.71-2.31C135.31,32,129.05,32.43,123.63,33.69Zm10,36.94c.67.84,5.19-.89,6.54-1.92C137.75,69.1,136.35,70.53,133.64,70.63Zm2.69,123.93a3.29,3.29,0,0,1,2.31.38c.14-.66,1.17-2.37.39-2.69C138.29,193.18,137,193.53,136.33,194.56ZM125.94,78.33c4.41-1.23,9.62-1.66,12.7-4.23C134.39,75.49,130,76.7,125.94,78.33Zm1.54-50.42A68,68,0,0,0,137.87,26C134.3,25.25,130.34,26.73,127.48,27.91Zm5.39,103.92c1.31-1.39,4.43-1,5-3.08C135.69,127.72,132.54,130.41,132.87,131.83Zm-2.31-3.08c1.17-.5,3.42.09,3.85-1.16C133.1,127,130.57,126.93,130.56,128.75ZM121.71,81.8c-.34-1.24,1-.8,1.15-1.54-1-.32-2.11,1.16-2.69,0-.5-1.66,1.09-1.22,1.54-1.93-1-.11-2.85.54-2.31-1.15-.92-.24-2.79.48-3.08-.39-.08-1.62,1.72-1.35,2.31-2.31-3,.81-5.2-1.2-6.54-.77,3.7,3.48,7.82,6.55,6.54,15,.72.37,1.28-1.15,1.54,0-2.24,1.25-1.72,4.93-1.54,7.31a85,85,0,0,1,8.08-7.31c-.57-.06-1.42.14-1.54-.38.58-3.4,5.08-2.87,6.93-5-1.94.12-4.23,1.91-6.16.76.45-2.18,6.13-3,5.77-3.46C126.56,80.34,125.57,83.45,121.71,81.8Zm10,5.77c-6.53,1.29-9.21,6.44-13.47,10,2.07.36-.76,1.22-.38,2.31q7.27-4.83,14.24-10C130.54,89.78,131,88.14,131.71,87.57Zm-3.08,42.72a2.54,2.54,0,0,1-.38-1.93c-1.16.64-3.14.46-3.46,1.93,2.15.28,3.12,1.75,5.77,1.54.25-1,1.1-1.47,1.54-2.31C131,129.79,130.42,130.66,128.63,130.29Zm-1.15-42.72c.81-.86,3-.33,3.08-1.93C129.12,85.63,127,87,127.48,87.57Zm-5.39,41.18a12.12,12.12,0,0,0,7.7-2.31C126.05,126,123.85,126.5,122.09,128.75ZM110.55,64.86a3.76,3.76,0,0,1,3.08,0c3.29-2.24,6.29-4.74,9.23-6.93,1.71-1.26,4.74-2.22,4.24-4.62-3.32,2.41-6.91-3.09-10-.76A1.44,1.44,0,0,0,115.55,51c-3.58.37-5.3.08-10,.38-1.65,2.2-4,3.74-6.15,5.39a6.8,6.8,0,0,1,1.15,1.54c5.36-.84,6.32-5.74,10.78-6.16-1.69,2.93-5.78,3.46-7.32,6.54.7,1,2.53-1.32,3.08-.38-.61.81-3.12,1.73-3.08,1.92,1.71-.42,1.92.65,3.08.77,3-1.77,7.22-7.33,10-6.54-3.44,2.46-6.62,5.18-10,7.7,5,1.73,9.37-7,14.24-7.7-2.65,2.61-5.9,4.62-8.46,7.31,1.42.27,1.65-.66,3.07-.38,0,.49.5.53.39,1.15C115.62,63.12,110.86,62.65,110.55,64.86Zm15.78,132.78c-.57-2,1-3.29.38-4.24C124.29,193.94,125.23,196.5,126.33,197.64Zm1.15-5c-1.13.1-1.18-.87-2.31-.77.09.72-.43.84-.38,1.53C125.93,192.54,127.14,194,127.48,192.64ZM120.17,71.79c-1.77,1.25,5.45,0,6.93-.39C124.9,70.24,122.81,72.16,120.17,71.79Zm3.46,123.93c.25,2-.77,2.48,0,3.46C124.92,198.77,124.15,195.18,123.63,195.72Zm-10-40.8c-.39,1.31,2.72,1.09,1.53,1.92a8.33,8.33,0,0,0-3.46-.38c-.65,2.17-2.2,3.44-3.08,5.39,2.37-1.1,2.88-4,5.78-4.62.88.14.36,1.68,1.53,1.54.54-5,5.43-7.66,6.93-10.39A85.08,85.08,0,0,1,113.63,154.92ZM116.7,128c2.07-.5,4.26-.88,5.78-1.93A5.67,5.67,0,0,0,116.7,128ZM115.16,71.4c3-1.46,5,0,6.55-2.69C118.35,68.52,117.06,69.49,115.16,71.4Zm5.78,117.77c.15.93-.71.84-.39,1.93C122,191.47,122.08,189.21,120.94,189.17Zm-10-62c2.13.89,4.62-.27,5.77-1.54-.62.28-1.67-.77-.77-.77,2.09.16,3.47-.39,4.24-1.54C115.35,122.9,112.14,124.06,110.93,127.21Zm5.39-46.57c.13,1.61-.93,2.3,0,3.85-.21-1.49,1-1.59,1.15-2.69C116.59,81.91,117.05,80.68,116.32,80.64Zm0,104.3c0,.73-1.27.27-1.16,1.15.68.51,1.68,2.92,2.31,1.16C116.54,187,117.65,184.76,116.32,184.94ZM113.24,83c0-1-.14-2.2.39-2.69.54.09.64.63,1.15.76V78c-4-4-8.48-9.48-13.47-11.16,1.1.82,1.33,2.51,2.31,3.46.33-.57,1.24-.56,1.92-.77C108.87,73.2,110.17,79,113.24,83ZM104.77,71c.9,4.36,3.86,8.29,5.39,10.78A13.76,13.76,0,0,0,104.77,71Zm8.86,27.71c.14,1.68-1.11,2-1.16,3.46a2.55,2.55,0,0,0,1.93-.38C114.14,100.78,114.23,99.4,113.63,98.73Zm.38-4.62c-.4-4.73-1.6-1.29-.77,1.15C113.33,94.72,113.87,94.62,114,94.11ZM110.93,71.4c-.23,1.8,2,.87,2.31,0C112.44,70.56,112.14,71.6,110.93,71.4ZM110.16,83c-1.83-1.44-4.09-7.61-6.16-8.85-2-4.2-3.77-11.3-9.23-9.63,1,.72,1.34,2.25,2.31,1.93,3,8,8.91,14.87,11.16,22.32-.79.15-1.95-2.11-1.93-.38a108.87,108.87,0,0,1-1.15,12.31c2-1,.78,1.07.77,2.31a6.26,6.26,0,0,0,2.69-.77,34.06,34.06,0,0,1,.77-15.39c1.21,3.82-1.9,10.19.39,13.85C112,95.12,113.65,87.42,110.16,83Zm2.31,40.41c-2.71-.15-4.1,1-5.77,1.92.45.06,1.09-.06,1.15.39-.89.13-1.66.39-1.92,1.15h3.46C110,125.26,111.79,124.86,112.47,123.36ZM97.08,32.53c5.82-.26,10.3.37,15-1.15C106.22,31.45,101.94,31.15,97.08,32.53Zm14.62,69.66c-.58-1.44.55-4.59,0-5.77C111.29,97.55,109.94,101.41,111.7,102.19ZM104.77,66.4c1.13,1.21,4.69,0,6.16-.77C109.38,66.39,106.2,65.52,104.77,66.4ZM85.15,163.77c-.43-6.5,6.31-9.05,8.85-13.85-1-.65-2.45-.89-3.47-1.54-2.86,3.8-7.29,6-8.85,11.16,1.36.31,2.4-1.68,3.08-.77-1.39.78-2.39,2-4.23,2.31.5-6.81,6.23-8.4,8.85-13.09-1.74-.06-2.25-1.34-3.85-1.54-1.45,3.42-5.2,4.55-5.77,8.85,1.22,0,2.76-1.57,3.08-1.15a7.26,7.26,0,0,1-4.24,2.31c-1.37-1.67,1.6-3.92,1.16-4.62-.84.59-3,2.62-3.85.77,1.31-3.69,4.43-5.57,6.16-8.85-1.12-.3-1-1.83-2.7-1.54-1.36,2.36-4.58,4.91-4.62,7.31.11-.35,1.71-1,1.54-.38-.57.57-1.62.68-1.92,1.54,5.55,12.27,12.26,23.4,29.25,24.24.75-6.43,2.26-12.1,5.39-16.16-4.84,3.12-7,8.87-12.7,11.16.1-6.27,6.23-9.61,8.85-14.63-8-1.36-8.8,7.59-11.93,12.32.57.07,1.42-.14,1.54.38-1.42.4-2.42,2.78-3.85,1.93,1.87-3.48,3.32-7.77,5.39-11.16,1.17-1.92,4.51-3.62,2.69-6.16-4.55,3.27-8.62,7-10.39,13.09,2.12.19,2.48-1.37,3.85-1.93-1.35,1.21-1.79,3.35-4.62,3.08-.48-1.91.71-4.15.38-4.62A5,5,0,0,1,85.15,163.77Zm25-8.47c-.61,1-2.69.16-3.46,0-3,4.1-6.93,7.19-8.85,12.32A45,45,0,0,0,110.16,155.3ZM97.85,126.82a13.58,13.58,0,0,0,8.46-3.08C102.25,123.53,100.16,125.29,97.85,126.82Zm.77-53.49c-1.17-4.23-3.09-7.69-6.55-9.62,4.21,8.87,9.37,16.8,12.7,26.55-1.45.74-2.07-2.33-2.31-.38-.53,4.3-1.16,7.94-1.92,13.85a34,34,0,0,0,3.85-.38C105.84,90.59,106,80.39,98.62,73.33ZM99,62.94c1.21.33,1.63,1.45,3.08,1.53a15.22,15.22,0,0,0,2.31-2.3C102.29,62.12,100.28,62.17,99,62.94Zm-5.39-6.55c5.77,1.19,7.4-2.46,10.39-5C99.1,51.53,96.35,53.35,93.61,56.39Zm4.62,66.2c2.09-.22,4.66,0,5.39-1.54C101.4,121.14,99.49,121.54,98.23,122.59ZM95.92,60.24c.74.71,3.88,1,4.62-.38C98.64,59.41,97.22,59.4,95.92,60.24ZM87.07,32.53c-2.68,0-1.64,1.23-3.08,2.31,4.53-.15,10.23.09,15.78,0-.53-.88,1-1.45,0-1.54C96.44,33.68,89.22,34.62,87.07,32.53Zm.38,92c2.74-.35,5.84-.33,6.93-2.32-1.5.09-4.26,1.81-4.62-.38,3.3-.81,6.93-1.29,10-2.31C96.24,116.74,89.11,120.65,87.45,124.52ZM99,124.13c-1,.37-3.06.83-3.46-.39-.24,1.31-2.46.62-2.31,2.31C95.67,125.93,97.69,125.38,99,124.13ZM95.15,150.3c-2.93,4.12-7.54,6.57-9.23,11.93,5.47-.7,7.58-8.06,12.31-10.78C97.18,150.3,96.33,151.32,95.15,150.3ZM93.61,128c.92-.24,2.79.48,3.08-.39-1.2.12,1-1.11-.38-1.15C95.81,127.36,93.81,126.76,93.61,128ZM90.92,52.93c.09-.55.63-.65.77-1.15-4.59-.74-6.71,3-10,2.3-.1-1.51,1.65-1.17,1.54-2.69-2.69-.74-4.88.23-5.77,2.31,4.39.64,8.19,3.71,11.93.77-.09.55-.64.65-.77,1.15,2.61.86,7-.93,7.31-3.07C94.22,53.64,93.1,50.91,90.92,52.93Zm-.77,72.35c-.41,1,1.3,1.71,1.54.77-1.2.12,1-1.11-.39-1.15C91.24,125.35,90.69,125.32,90.15,125.28Zm-7.31,19.63c-1.94,2.42-4.41,4.32-5.78,7.31,4-.73,6-3.52,7.7-6.54C84,145.52,83.79,144.85,82.84,144.91ZM75.91,34.46c2-.21,3.34,1,5.39,0C79.67,34.26,77,32.87,75.91,34.46Zm0,103.14c-.79,2.46-3.37,4.87-2.31,6.93-2.9-2.52,1.46-6.05,2.31-8.47a30.08,30.08,0,0,1-2.69-11.93c-.91,0-1.14.66-2.31.39-1.25,8,.52,16.38,2.31,23.47C77.58,146.39,79.86,139.27,75.91,137.6ZM74.37,48.7c-.59,1.18,2.51,1.18,1.92,0Zm-1.93,72.35c.34,1.24-1.26.53-1.15,1.54a8.71,8.71,0,0,1,2.31.77c-.06-1,.6-1.19.77-1.92C73.46,120.94,73.65,121.49,72.44,121.05ZM72.06,48.7c.89.93,1.33-.31,1.92-.77C73.41,47.31,72.36,47.94,72.06,48.7Zm-6.54-3.08c1.89.67,3.12,2,5,2.69,1,0,1.35-.7,1.92-1.15C69.35,47.05,68.34,44.94,65.52,45.62Zm.77,1.15c-.51-.39-1.42-.38-1.93-.77a14,14,0,0,0-1.92,4.62c1,1,1.43-.83,2.69-.77-.12.91-1.33.72-1.15,1.93,1.49,1.06,4.2.93,6.16,1.53.35-1.44,1.56-2,1.92-3.46-2.5-1.47-3.28,1.76-6.16,1.16C64.3,49.38,66.28,48.8,66.29,46.77Zm1.15,1.16c-.16.73-.83,1-.77,1.92,1.47.18,2.4-.16,2.7-1.15C68.63,48.53,68.4,47.87,67.44,47.93Zm-6.16-6.55a6.7,6.7,0,0,0-.77,3.85C64.65,46,63.71,41.93,61.28,41.38Zm-1.15,6.55c1.27-.14,1.67-1.16,2.31-1.93C60.61,45.56,58.9,46.51,60.13,47.93ZM59,42.15c.5-.78,1.87-.7,1.54-2.31C59.7,40.08,58.15,41.55,59,42.15Z" style="fill: #c5c8b2;fill-rule: evenodd"/>
    <path d="M246.79,149.15c-.93,1-2.77,1.07-3.47,2.3,0-1.79,3.54-3.39,5.78-4.23-3.12,6-11.12,10.43-16.94,15C235.35,157.72,243,154.37,246.79,149.15Z" style="fill: #c5c8b2;fill-rule: evenodd"/>
    <path d="M245.25,143.76c-8.57,8.23-18,15.63-26.94,23.47,3.07-4.71,7.85-7.95,12.31-11.54,4.28-3.43,8-8,12.32-11.16A2.76,2.76,0,0,1,245.25,143.76Z" style="fill: #c5c8b2;fill-rule: evenodd"/>
    <path d="M226.39,74.48a1.82,1.82,0,0,0,1.15.39c0,1.42-.56,1-1.53.77.47,1.74-1.34,4.22-1.93,6.16C222.05,79.43,226,76.91,226.39,74.48Z" style="fill: #c5c8b2;fill-rule: evenodd"/>
    <path d="M219.08,6.75c-1.32,1.49-5,1.93-7.31,3.46-5.53,3.69-12.44,17.55-13.47,25.4-.68,5.14.93,7.35,3.46,10-2-7.5,2.5-15.45,6.16-20.79-1.8,6.07-7.83,13.07-4.62,20.4.72.37,1.28-1.15,1.54,0,1.26-2.84,1.45-6.76,3.08-9.23,1.85,1,1.06,4.8.38,6.54-1.18-.84.37-2.17,0-3.47-1.56,1.4-1.82,4.08-1.92,6.93.65-.63.48-2.08,1.15-2.69,1.41.32-.42,2.17-.38,3.46,3.09-2.25,2.9-8.21,6.16-9.23,1,1.19-.66,2.81-1.93,1.92-.79,3.22-2.34,8.92-5,11.55-1.16.38-.68-.86-.77-1.54-6.17.39-5.49-6.06-8.85-8.47C199.22,24.6,203.79,10.31,219.08,6.75ZM201.76,46c.44,1.87,1.76,2.86,3.85,3.08,0-.45.68-.87,0-1.15C204.62,47.66,203.45,46.65,201.76,46Z" style="fill: #c5c8b2;fill-rule: evenodd"/>
    <path d="M150.19,177.63c.93,1,2.83,1,4.62,1.15,1.43-4.39,5.37-9.47,10.39-11.55-2.49,3.55-6.51,5.55-8.47,9.62.8.9,2.13-.92,3.46-.76-.64,1.66-2.64,2-4.23,2.69a8.7,8.7,0,0,0,5.39.39c0-.84.29-3.17,1.54-3.85-.33-1-2,1.8-2.31.77,3.09-2,5.53-4.73,8.08-7.32-.06,3.44-4.91,5.32-5.77,9.24.38.52,1.3.5,1.54,1.16,2.44-1.54,2.83-5.13,6.16-5.78-1.42,1.79-3.12,3.3-4.24,5.39.43,1.24,2.68.65,3.85,1.16.07-1.48-.31-.15-1.15-.39,3.6-2,4.83-6.46,9.23-7.7-1.92,2.57-4.84,4.14-6.16,7.32,4.53-1,7.36-3.68,10.4-6.16.16,2.6-4.15,4.06-5,6.93,1.08.92,2.53-1.05,3.85-1.16.4,1.44-3.24,2.13-4.62,3.08.39,1,1.78,1,2.31,1.92,2.44-4.41,5.19-6.12,8.85-9.23.8,3.06-6.16,4.8-6.92,8.85,7,1.1,8.92-6.22,14.62-7.7-2.84,3.84-7.58,5.76-10,10,5.65-.89,10.14-6.28,15.39-8.86-2.79,3.76-7.28,5.81-9.62,10,4.63-.75,8.1-6,12.7-8.08-1.43,4.23-8.75,5.86-10.39,11.16,5.23-.3,7.85-6.5,13.08-8.08-1.39,3.63-7,6.28-10,9.62,4.78,1.13,8.32-5.48,12.7-7.31-1.79,4.24-6.51,5.55-8.86,9.23,5,.71,6.64-5.16,10.78-6.54a2.55,2.55,0,0,1-.38,1.93c2.8-.85,3.71,1.42,5.77,0,.38.51.36,1.43,1.15,1.54-1.26,3.35-3.51,5.72-5.77,8.08-1.69-1.74-2.92.33-5.39,0-.39-.51-.37-1.42-.77-1.93-11,.92-13.38-8.62-22.32-8.46-5.94-4.14-11.93-6.8-20-7.31-7.79-.51-15.32,0-22.32-1.16-4.45-.72-16.76-5.36-18.09-6.93-.33-.38.11-1.33-.39-1.54a2.52,2.52,0,0,0-1.92-.38c-.76-7.47,5.38-11.26,11.16-13.47a6.26,6.26,0,0,0-.77,2.69c.49.83,1.54-.59,1.92.77-1.28,3.72-5.69,4.31-6.54,8.47.11.92,1-.43,1.16-.77,1.23,1.13-1.75,1.31-1.16,3.08,3.69-1.89,3.68-8.81,9.24-10.39-1.08,3.55-6.45,5.41-6.54,10.77,5.07-1.48,5.64-9.47,10.39-10-2.15,3.62-5.84,5.71-6.93,10.39,3.69-.94,5.38-5.49,8.47-8.08,3.79-3.19,8.17-7.35,12.7-10-3.44,3.62-8.06,6.06-10.39,10.78-3.42,1.33-7.17,5.31-8.47,10,5.29-1.89,5.65-8.72,11.16-10.39-2.06,4.23-6.26,6.31-8.08,10.78,5,.21,6.39-6.44,10.39-8.47-.17-.73-1.1-.7-.77-1.92,3.94-3.76,7.66-7.74,13.47-9.63-4.2,3.37-9.68,5.46-12.32,10.4.71,1.09,1.17-2.6,2.31-1.16-2.23,4.31-6.46,6.62-8.85,10.78,1.07,1.16,2.69-.37,3.46-.77.23,1.26-2.7,2.67-5,2.69a1.06,1.06,0,0,1,0-1.54c-.58.45-1.57.48-1.92,1.15,2.25,1.29,8.89,2.52,10,.39.07-.83-1.36-.17-1.92-.39-.67-1.82.63-1.88,0-3.46,3.9-1.09,4-6,8.08-6.93-2,3.49-5.48,5.56-6.93,9.63,3.67-3.14,5-8.63,10.39-10,.35,1.76-1.26,1.56-2.3,1.92-2.31,1.81-3.78,4.44-5.39,6.93.25,1.12,2.8-2,1.92-.77C152.2,175.53,150.42,175.81,150.19,177.63Zm53.11,17.31c1.16.49,2-1.28,1.15-1.54C204.3,194.15,203,193.71,203.3,194.94Zm-16.17-8.08c.5.54,1.82.24,2.31.77.42-1.52,2.85-3,2.31-4.23C190.68,185,188.21,185.24,187.13,186.86Zm-5-1.54a2,2,0,0,0,3.08-1.54C184.12,184.23,182.67,184.32,182.13,185.32Zm-8.85-4.61a8.71,8.71,0,0,1,2.31.76c-.09-1.5.83-2,1.15-3.08A5.75,5.75,0,0,0,173.28,180.71Zm-41.57-6.55c-.22-.68.47-2.26-.38-2.31-.35,1.07-2.2.62-2.31,1.93,1.92,0,2.47,1.38,4.62,1.15-.37-.72,1.15-1.28,0-1.54C133.58,174.23,132.67,174.22,131.71,174.16ZM124,170.31c.2-1.1,2-2.58,1.15-3.46C124.77,167.75,123.32,169.59,124,170.31Z" style="fill: #c5c8b2;fill-rule: evenodd"/>
    <path d="M212.54,65.25c.6.13-.34.67.38.76-3.91,3.54-6,8.88-10.39,11.94C205,72.8,209.19,69.47,212.54,65.25Z" style="fill: #c5c8b2;fill-rule: evenodd"/>
    <path d="M205.61,148c-2.33,2.83-5.24,7-8.08,8.08C200.23,153.39,202.37,150.14,205.61,148Z" style="fill: #c5c8b2;fill-rule: evenodd"/>
    <path d="M189.06,69.48c-5.9,5.2-8.89,15.7-4.23,24.25C178.36,87.94,182.16,72.23,189.06,69.48Z" style="fill: #c5c8b2;fill-rule: evenodd"/>
    <path d="M185.6,136.83c-3.75,3.06-8,5.56-11.55,8.85.06.45.7.33,1.15.39-.35.67-1.2.85-2.3.77C175.18,141.55,180.72,139.52,185.6,136.83Z" style="fill: #c5c8b2;fill-rule: evenodd"/>
    <path d="M174.43,156.84a92.5,92.5,0,0,1-9.62,8.09A33.22,33.22,0,0,1,174.43,156.84Z" style="fill: #c5c8b2;fill-rule: evenodd"/>
    <path d="M164,157.61c-1.6,2.89-4.82,4.16-6.54,6.93C157.87,162,161.25,159.06,164,157.61Z" style="fill: #c5c8b2;fill-rule: evenodd"/>
    <path d="M79.76,14.83C77.59,17.17,68.7,21,65.13,25.61c1.92-4.24,8.21-7.45,13.09-10-10.29.73-16.08,7-23.09,12.31a23.51,23.51,0,0,1,.38,5c-.91.63-1.46,1.62-2.69,1.92-.29-1.88,2.65-3,1.15-6.54C66.43,12.68,93.51,8.39,119.78,9.06,108,10.17,93.3,9.77,84,14.44c-1.09.32-1-.54-1.92-.38C81.42,14.22,80.34,15.87,79.76,14.83Z" style="fill: #c5c8b2;fill-rule: evenodd"/>
    <path d="M90.92,26.37c-3.17,1.06-4.94,2.43-8.08,2.31C85.64,26.5,87.22,27.3,90.92,26.37Z" style="fill: #c5c8b2;fill-rule: evenodd"/>
    <path d="M81.3,87.57c-.17.73-.14,1.66-1.16,1.54.94-1.41-1.1-2.59-1.54-3.85C80.35,85.18,79.68,87.52,81.3,87.57Z" style="fill: #c5c8b2;fill-rule: evenodd"/>
    <path d="M66.29,72.94C63.92,77,60.49,83.31,55.51,86,59.79,82.58,62.76,75.87,66.29,72.94Z" style="fill: #c5c8b2;fill-rule: evenodd"/>
    <path d="M59,109.12c.9,1.19-.94,4-1.53,5.77-2.35-4.17.48-11.13,1.15-17.32.11-1-.38-2.42.38-3.46,1.86,4.42-1.8,11.61-1.53,18.09C57.78,111,59,110.73,59,109.12Z" style="fill: #c5c8b2;fill-rule: evenodd"/>
    <path d="M57.82,116.82c-8.9,1.33-17.93-.54-25.79-1.54.11-.88-.09-1.45-.77-1.54-.07-.33.16-.36.39-.39C39.53,116.32,49.26,116.13,57.82,116.82Z" style="fill: #c5c8b2;fill-rule: evenodd"/>
    <path d="M49.74,112.2c1.84-7,1.21-14.26,3.08-19.63,1.41,3.07-1.65,11.28-1.54,17.7.35,1,1.41-.32,1.54-.77.81.38-1.8,3.2,0,3.47-2,1.37-5-1.31-6.93.77-5.18-3.21-16.61-1.39-21.17-4.62.24-1.71,3.26,1.55,4.23.38-.86-2.72-5.69-1.48-7.31-3.46,1.11-3.66-1.26-8.82,1.16-13.08,0,3.78-.72,9.08.38,12.7,1,1.48,3.8,1.08,5.39,1.92,2.43-5.66,1.27-13.27,2.69-18.86-.13-.6-.67.34-.77-.38,6-3.74,12.87-6.64,18.86-10.39-1.26,1.88-5,4.08-8.08,5.77s-6.82,2.89-9.62,4.62c.46,5.74-1,12.88-1.54,18.86.95.19,1.45.81,3.08,1.15,1.32-7,1.89-14.79,4.23-20.78.4,4.31-3.26,13.29-2.69,20.78,1.41.13,1.16-1.4,1.54-2.31,1.14.56-.51,1.5,0,2.7.54.74,2,.57,2.69,1.15C39.58,106,40.22,99,40.89,94.11c.2-1.5-.62-4,1.15-4.23-1.29,6.49-.79,15-1.54,20a12.52,12.52,0,0,0,3.85.77c.8-5,.42-12.22,0-17.32C48,96.9,44.31,106,45.89,111,48.32,109.64,46.31,112.43,49.74,112.2Zm-14.63-2.31c1.32,1.31,3.59,1.32,5.39.77C38.16,111,37.24,109.82,35.11,109.89Zm-4.23-.77c.12,1.29,1.74,1.08,3.08,1.15C33.81,109,32.07,109.34,30.88,109.12Z" style="fill: #c5c8b2;fill-rule: evenodd"/>
    <path d="M51.66,81.41c-1.82,1.38-3.38,3-6.16,3.46C47.8,84,49.06,82,51.66,81.41Z" style="fill: #c5c8b2;fill-rule: evenodd"/>
    <path d="M37.42,74.1c-.84-.25-1.22,1.09-1.15-.39A57.18,57.18,0,0,1,19,83.72c0-2.56,2.49-1.77,3.85-2.31,4.13-1.64,7.43-4.78,11.54-6.93C34.91,74.19,37.1,71.76,37.42,74.1Z" style="fill: #c5c8b2;fill-rule: evenodd"/>
    <path d="M7.4,95.65c.55.45-.53,2.53-1.15,3.08-2.37-.28-2.14-4.49-1.54-6.54.86,1.15-.58,4,1.15,5C7,97.25,6.83,96.1,7.4,95.65Z" style="fill: #c5c8b2;fill-rule: evenodd"/>
    <path d="M343.39,151.45c-4,7.08-16.34,4.12-23.86,8.09a12.33,12.33,0,0,0-9.24-1.54c-.16-2.86-3.27-1.66-5.39-2.7-4.75-8.79,6.69-11.53,14.63-12.31,6.69-.66,11.68-4.49,18.47-6.54,8.85-2.68,19.4-2.7,28.1-6.16,1.79-.72,3.19-2,5-2.7s4.16-.82,6.16-1.54c4.07-1.45,7.06-4,12.7-4.23,3.43,3.79,7.46,10.22,4.23,15-2.62,3.89-10.68,4-16.93,5.39-5.91,1.33-11.94,5-17.71,6.54-3.61,1-6.54,1.27-8.46,3.46-2,.23-.25-1.58-1.16-1.92-2.89-1-4.18,4-6.93,3.08A2.55,2.55,0,0,1,343.39,151.45Zm6.54-5.38c5.89-2.46,7.16-9.52,13.47-11.55-1.11,3.12-3.66,4.81-5,7.7,6.15-1.18,7.53-9.13,12.7-10-1.28,2.45-3.43,4-4.62,6.54,5.83-2,6.69-9,12.32-11.16-1.78,3.74-5,6-6.93,9.62,7.54-.54,6.78-9.37,12.7-11.54.81,2.67-3.48,5.46-2.69,8.08,2.48-2.79,5.13-7.4,8.46-8.08-.68,3.81-3.57,7.46-3.46,10.78,1.22-1,3.67-3,5-1.54A26.59,26.59,0,0,1,390,138c6.16-2,3.19-11.14,0-14.24-15.34,2.47-24.92,9.59-40,11.54-4,6.43-9.27,11.51-12.7,18.47,7.63-4.94,11.46-15.74,20-18.47C355.51,139.33,350.89,142.53,349.93,146.07ZM385.34,138c-1.25-3.49,2.81-6.91,2.31-9.63a75.74,75.74,0,0,0-7.31,9.24c1.49-.21,1.87.69,3.46.39.09.72-.43.84-.39,1.54,2.85,0,5.93-1.77,5.78-3.47C388.48,137.28,386.68,137.4,385.34,138Zm-8.08-.78c1.89-1.82,4.22-5.27,4.23-7.69C380.08,131.87,377.15,134.62,377.26,137.21Zm-3.08,2.7c.64-.64,2.81.24,2.69-1.16C375.5,138.67,374.57,139,374.18,139.91Zm-15,6.54c.42-1.12,1.52-1.56,2.31-2.31C360.11,144,357.75,146.33,359.17,146.45Zm-5-2.31c2-.54,4.73-4.15,3.84-5C357.2,141.28,355.21,142.24,354.17,144.14Zm1.15,3.08a4.06,4.06,0,0,0,2.69-2.31C356.57,145.06,354.59,146.11,355.32,147.22Zm-10.78.77c3.94-.81,7.63-7.25,9.24-10.39A92.4,92.4,0,0,0,344.54,148Zm.77-8.85c0,.43-.56.6,0,.77.26-1.67,1.27-2.59,1.93-3.85-6.25,3-9.51,11-13.09,15.39C338.51,148.24,341.68,141.79,345.31,139.14Zm-18.09,14.24c4.61-5.41,11-11.09,14.63-16.17C333.58,139,331,148.47,327.22,153.38Zm3.47,1.15c2-5.16,6.15-8.22,8.85-12.7-5.31,4.31-9.1,10.14-14.24,14.63,3.4-.32,6-1.45,9.62-1.54,1.51-3,4.58-6.46,5.39-8.85C337.36,148.89,334.8,154.15,330.69,154.53ZM324.92,143c-2.57,4.62-6.09,8.28-8.47,13.08,6.66-3.21,8.66-11.1,15-14.62.94.51-.69,1.16.38,1.54-.09-1.4,2.21-2.39,1.54-3.08C331.23,141.61,328,142.25,324.92,143Zm5.38,3.46c.34-1,2.22-2.38,1.54-3.08C331.73,144.57,329.28,145.41,330.3,146.45ZM320.3,158a13.26,13.26,0,0,0,3.85-1.16c-.21-2.44,2.22-5.09,3.84-6.92.12-.76-.51-.77-.77-1.16,1-.9,2.7-3.2,2.31-4.23-2.87,3.67-8,7.14-8.85,11.54a35,35,0,0,1,6.54-6.15C325.34,153,322.33,155,320.3,158ZM318,144.14c-3.88,3.14-11.45.53-12.32,6.93,3.47,2.06,4.05-3.72,7.32-4.23,0,1.74-4.14,3.81-3.85,5.77,3.18-2.1,6.29-5.37,9.23-6.54-1.77,3.61-5.81,5-6.15,10,1-.23,2.76-1.72,1.92.39,3.49-3.69,5.67-8.7,8.85-12.7C321.09,143.56,319.08,144.76,318,144.14Z" style="fill: #c5c8b2;fill-rule: evenodd"/>
    <path d="M313.76,122.59c2.36-.76,6.46-3.73,8.46-2.31,1.47-2.09,7.43-5.83,11.55-3.08,11.32-1.93,29.92-6,45-7.31,5.06-.42,15.59,1.1,18.47,3.08s3.07,6.48,5.39,9.62c-2.91-1.31-2.91-5.17-5-7.31-5.56-5.7-23.21-3.45-32.33-2.31-10.73,1.34-20.61,3.45-28.48,5-.68.73.48,1.78,1.15,2.31-1,1.09-1.66-1.39-2.69-1.54-2.71.76-5,2-7.7,2.7-1.35-.66,1-.78.77-1.54-2.18.77-5.16.74-6.54,2.3.31,1.36,2.78-1.33,2.69.78-7.35-.35-12.85,2.9-18.09,5.77.17-1.11,1.66-.91,1.93-1.93-8,2.57-15.26,12.29-15.4,21.56-.05,3.13,2.13,4.75.77,6.54-.93-1.12-1.79-2.31-2.69-3.47,1.14-10.15,4.64-17.93,11.16-22.7-3.1,1.39-5.94,3-8.85,4.62,5.16-4.86,12.25-7.31,18.47-10.78s12-7.55,18.09-10.78c1-.31,1.22-1.34,1.92-1.92h2.31C328.1,114.87,320.21,118,313.76,122.59Zm10.77-2.69c2.48-.86,5.63-1.05,7.31-2.7A8.21,8.21,0,0,0,324.53,119.9Zm-11.16,4.62c2.45-1.79,6.4-2.07,8.47-4.24C319,121.42,314.29,122.74,313.37,124.52Z" style="fill: #c5c8b2;fill-rule: evenodd"/>
    <path d="M251.41,208.41C239.87,216,227.88,223.12,216,230.35c-.57.91-.81.72-.39,1.93-2.79.41-3.72,2.69-6.54,3.08,2.65-3.87,7.23-6.31,11.16-8.86s8.44-5,12.7-7.31C238.77,215.28,244.43,211.18,251.41,208.41Z" style="fill: #c5c8b2;fill-rule: evenodd"/>
    <path d="M84,89.49C82.36,86.68,82.52,81,80.53,76c-1.78.73-.44,1-.39,2.7a1.07,1.07,0,0,1-.77-1.16c-2.22,1.52-.63,5.31,0,7.31-1.06-1-2.12-2-1.92-4.23-2.44.77-3.34,3.08-5,4.62.67.66,1-.06,2.31.38-.42,1-2.06.76-3.46.77.63-3.85,4-5,5.77-7.69-1.22-.6.12-3.79,0-4.62.87.28.15,2.16.39,3.08,2.14.34.88-2.72,2.31-3.08C83.08,77.31,83.68,83.26,84,89.49Z" style="fill: #c5c8b2;fill-rule: evenodd"/>
  </g>
</svg>
