<svg id="0ab008c6-2280-4564-9dac-b60dc13b40ef" data-name="Layer 1" xmlns="http://www.w3.org/2000/svg" viewBox="0 0 17.64 19">
  <title>calendar</title>
  <path d="M17.64,4.07V17.64A1.37,1.37,0,0,1,16.29,19H1.36a1.31,1.31,0,0,1-1-.4,1.31,1.31,0,0,1-.4-1V4.07a1.29,1.29,0,0,1,.4-1,1.32,1.32,0,0,1,1-.41H2.71v-1A1.64,1.64,0,0,1,3.21.5,1.64,1.64,0,0,1,4.41,0h.68a1.64,1.64,0,0,1,1.2.5,1.64,1.64,0,0,1,.5,1.2v1h4.07v-1a1.6,1.6,0,0,1,.5-1.2A1.63,1.63,0,0,1,12.55,0h.68a1.64,1.64,0,0,1,1.2.5,1.64,1.64,0,0,1,.5,1.2v1h1.36a1.31,1.31,0,0,1,.95.41A1.29,1.29,0,0,1,17.64,4.07ZM1.36,9.84H4.41v-3h-3Zm0,4.07H4.41V10.52h-3Zm0,3.73H4.41V14.59h-3ZM5.43,4.75v-3a.33.33,0,0,0-.1-.24.33.33,0,0,0-.24-.1H4.41a.33.33,0,0,0-.24.1.3.3,0,0,0-.1.24V4.75a.34.34,0,0,0,.34.34h.68A.33.33,0,0,0,5.33,5,.37.37,0,0,0,5.43,4.75ZM5.09,9.84H8.48v-3H5.09Zm0,4.07H8.48V10.52H5.09Zm0,3.73H8.48V14.59H5.09Zm4.07-7.8h3.39v-3H9.16Zm0,4.07h3.39V10.52H9.16Zm0,3.73h3.39V14.59H9.16ZM13.57,4.75v-3a.3.3,0,0,0-.1-.24.33.33,0,0,0-.24-.1h-.68a.33.33,0,0,0-.24.1.33.33,0,0,0-.1.24V4.75a.37.37,0,0,0,.1.24.33.33,0,0,0,.24.1h.68a.34.34,0,0,0,.34-.34Zm-.34,5.09h3.06v-3H13.23Zm0,4.07h3.06V10.52H13.23Zm0,3.73h3.06V14.59H13.23Z" style="fill: #332e20"/>
</svg>
