<svg id="05ed32dd-0636-4ef0-af52-2c144cecd50c" data-name="Layer 1" xmlns="http://www.w3.org/2000/svg" viewBox="0 0 16.29 16.29">
  <title>clock</title>
  <path d="M15.19,4.06a7.93,7.93,0,0,1,1.1,4.08,8,8,0,0,1-1.1,4.09,7.93,7.93,0,0,1-3,3,8,8,0,0,1-4.09,1.1,7.93,7.93,0,0,1-4.08-1.1,8,8,0,0,1-3-3A8,8,0,0,1,0,8.14,7.92,7.92,0,0,1,1.09,4.06a8.13,8.13,0,0,1,3-3A7.92,7.92,0,0,1,8.14,0a8,8,0,0,1,4.09,1.09A8,8,0,0,1,15.19,4.06Zm-2,7a5.83,5.83,0,0,0,0-5.79A5.79,5.79,0,0,0,11,3.15a5.62,5.62,0,0,0-2.9-.77,5.59,5.59,0,0,0-2.89.77,5.72,5.72,0,0,0-2.1,2.1,5.59,5.59,0,0,0-.77,2.89A5.62,5.62,0,0,0,3.15,11a5.79,5.79,0,0,0,2.1,2.1,5.83,5.83,0,0,0,5.79,0A5.87,5.87,0,0,0,13.14,11ZM9.5,4.41V9.16a.33.33,0,0,1-.1.25.32.32,0,0,1-.24.09H5.77a.31.31,0,0,1-.34-.34V8.48a.32.32,0,0,1,.09-.24.33.33,0,0,1,.25-.1H8.14V4.41a.34.34,0,0,1,.34-.34h.68a.34.34,0,0,1,.34.34Z" style="fill: #332e20"/>
</svg>
