<svg id="57a5a0a2-3acd-43c8-9e60-522db773e705" data-name="2fbdbebe-bedd-4981-bc73-a04522db9be8" xmlns="http://www.w3.org/2000/svg" viewBox="0 0 19.03 10.41">
  <title>hand-short</title>
  <path d="M18.93.92A1.4,1.4,0,0,0,17.52,0H0V10.4H4c.73,0,.7.15.83-.7h7.72a1.29,1.29,0,0,0,.44,0A1.41,1.41,0,0,0,14,8a4.49,4.49,0,0,0-.23-.61,1.45,1.45,0,0,0,.27-2.58c.5-.7.53-.93.22-1.93l.47,0H17.5a1.91,1.91,0,0,0,1-.32A1.32,1.32,0,0,0,18.93.92ZM4.2,9.85H2.8V.53l1.4,0ZM9,9.13H4.8V.53H9.46a1.75,1.75,0,0,1,1.68,1.82V4.43a1,1,0,0,1-.87,1,.29.29,0,0,1-.13,0,.93.93,0,0,1-.87-1V2.74c0-.15-.14-.29-.22-.44-.11.12-.33.22-.33.36A2.83,2.83,0,0,1,6.85,4.52c-.23.07-.45.15-.67.24S6,5,5.93,5.08a1.19,1.19,0,0,0,.38.16,4.11,4.11,0,0,0,2.11-1.1c.08-.07.12-.18.25-.24-.08.65.35,1.22.13,1.87-.15.46,0,.75.54,1.36A1.5,1.5,0,0,0,9,9.13Zm3.67,0H10.18a.87.87,0,0,1-.87-.86.86.86,0,0,1,.81-.86h2.64a.8.8,0,0,1,.76.85A.84.84,0,0,1,12.7,9.15ZM14.18,6.2a.77.77,0,0,1-.78.64H10.15a.75.75,0,0,1-.26,0,.77.77,0,0,1-.45-1,.41.41,0,0,0,.11.07,1.47,1.47,0,0,0,2-.6.55.55,0,0,1,.3-.16h1.3C13.89,5.08,14.35,5.56,14.18,6.2ZM11.76,3.07c0-.08.16-.22.26-.22a7.75,7.75,0,0,1,1.18,0h0a.83.83,0,0,1,.76.89h0a.85.85,0,0,1-.88.82H11.7A10.29,10.29,0,0,1,11.76,3.07ZM18.44,1.6a.76.76,0,0,1-.71.59H11.8L11.07.54h6.37C18.17.54,18.58,1,18.44,1.6Z" style="fill: #332e20"/>
</svg>
