<svg id="2fbdbebe-bedd-4981-bc73-a04522db9be8" data-name="Layer 1" xmlns="http://www.w3.org/2000/svg" viewBox="0 0 21.58 10.41">
  <title>hand</title>
  <path d="M16.84,2.83c.31,1,.28,1.23-.22,1.93a1.45,1.45,0,0,1-.27,2.58,3.47,3.47,0,0,1,.23.61A1.41,1.41,0,0,1,15.11,9.7c-1.17,0-2.34,0-3.51,0H7.39c-.13.85-.1.7-.83.7h-6c-.54,0-.55,0-.55-.54C0,6.75,0,3.63,0,.52,0,.14.11,0,.51,0H20.08a1.39,1.39,0,0,1,1.41.92,1.31,1.31,0,0,1-.43,1.56,2,2,0,0,1-1,.32c-.92,0-1.83,0-2.75,0ZM7.36.53v8.6h4.23a1.5,1.5,0,0,1,.31-2c-.52-.61-.69-.9-.54-1.36.22-.65-.21-1.22-.13-1.87-.13.06-.17.17-.25.24A4.15,4.15,0,0,1,8.87,5.24c-.11,0-.25-.1-.38-.16.08-.11.14-.26.25-.32a5.35,5.35,0,0,1,.67-.24,2.85,2.85,0,0,0,1.87-1.86c0-.14.22-.24.33-.36.08.15.22.29.22.44,0,.57,0,1.13,0,1.69a.94.94,0,0,0,1,1,1,1,0,0,0,.87-1c0-.69,0-1.38,0-2.07A1.75,1.75,0,0,0,11.87.54c-.69,0-1.38,0-2.07,0Zm-2,0V9.85h1.4V.56Zm9,1.66-.07,0,0,0c2,0,4,0,6,0A.77.77,0,0,0,21,1.6C21.14,1,20.73.54,20,.54c-2.07,0-4.14,0-6.2,0h-.17ZM14,9.15h0c.42,0,.84,0,1.26,0a.84.84,0,0,0,.82-.85.81.81,0,0,0-.79-.86q-1.31,0-2.61,0a.85.85,0,0,0-.81.86.88.88,0,0,0,.87.86ZM12,5.78a.78.78,0,0,0,.71,1.06c1.09,0,2.17,0,3.25,0a.78.78,0,0,0,.78-.64c.17-.64-.29-1.12-1.05-1.11-.43,0-.87,0-1.3,0a.49.49,0,0,0-.3.16A1.46,1.46,0,0,1,12,5.78Zm2.31-1.2h1.37a.85.85,0,0,0,.88-.83.83.83,0,0,0-.8-.9,7.75,7.75,0,0,0-1.18,0c-.1,0-.26.14-.26.22C14.25,3.55,14.26,4,14.26,4.58Z" style="fill: #332e20"/>
</svg>
