<svg id="0c33b04a-46e5-4ded-a224-0ef5eaf4aadc" data-name="Layer 1" xmlns="http://www.w3.org/2000/svg" viewBox="0 0 534.1 534.1"><title>map--capitol</title><path d="M108,393H30.46q2.23,4,4.61,8H108Z" transform="translate(2.94 3.45)" style="fill:#d4cd9f"/><rect x="142.94" y="396.42" width="237" height="8" style="fill:#d4cd9f"/><path d="M497.77,393H409v8h84.14C494.74,398.33,496.27,395.66,497.77,393Z" transform="translate(2.94 3.45)" style="fill:#d4cd9f"/><rect x="142.94" y="127.42" width="237" height="237" style="fill:#d4cd9f"/><path d="M409,361H512.85a267.56,267.56,0,0,0-21.07-237H409Z" transform="translate(2.94 3.45)" style="fill:#d4cd9f"/><path d="M409,92h59.68A268.54,268.54,0,0,0,409,39.25Z" transform="translate(2.94 3.45)" style="fill:#d4cd9f"/><path d="M108,433H57.64A268.08,268.08,0,0,0,108,480.27Z" transform="translate(2.94 3.45)" style="fill:#d4cd9f"/><path d="M377,433H140V500.1a267.42,267.42,0,0,0,237,5.56Z" transform="translate(2.94 3.45)" style="fill:#d4cd9f"/><path d="M140,92H377V21.54A267.42,267.42,0,0,0,140,27.1Z" transform="translate(2.94 3.45)" style="fill:#d4cd9f"/><path d="M409,433v55a268.1,268.1,0,0,0,61.57-55Z" transform="translate(2.94 3.45)" style="fill:#d4cd9f"/><path d="M108,92v-45A268.31,268.31,0,0,0,59.54,92Z" transform="translate(2.94 3.45)" style="fill:#d4cd9f"/><path d="M108,361V124H36.45A267.47,267.47,0,0,0,15.38,361Z" transform="translate(2.94 3.45)" style="fill:#d4cd9f"/><path d="M297.48,341.47c-.92,2.16-1.32,2.53-3.22,3,.43,2.95-1.55,4.71-4.27,4a8,8,0,0,1-.48,1.38,3.2,3.2,0,0,1-5.11.84c-2-1.7-4-3.43-6-5.15l-6.47-5.53-.77-.66c-1.46,1.27-1.19,1.06-2.45,0-3.46-2.93-6.89-5.88-10.33-8.82-.92-.79-.92-.83-.14-1.74,4.57-5.36,9.16-10.7,13.72-16.07.55-.66.95-.73,1.63-.15q16.8,14.4,33.63,28.78a3.15,3.15,0,0,1,1.07,3.67,3,3,0,0,1-3,2,4.55,4.55,0,0,1-2.21-.92c-1.64-1.27-3.17-2.67-4.74-4Zm-12.92-17.88-12.64,14.77,7.28,6.22a3.35,3.35,0,0,1,3.43-2.94c0-1.81.14-2.57,1.08-3.13,1.33-.8,1.42-2.41,2.52-3.41a2,2,0,0,0-.78,0,9.31,9.31,0,0,1-5.21-1.25c-.23-.13-.29-.55-.43-.83a2.4,2.4,0,0,1,.91-.19,12.67,12.67,0,0,1,1.51.58,6.39,6.39,0,0,0,5.94-.46c.28-.18.73-.09,1.09-.12-.08.37-.05.82-.26,1.09-.78,1-1.64,1.94-2.46,2.92a2.14,2.14,0,0,0,.19,3.26,2.2,2.2,0,0,0,3-.51c1-1.18,2.05-2.35,3-3.56a4,4,0,0,0-.49-5.85c-1.17-1-2.37-2-3.55-3Zm-3.47-2.9-13.66,16,2.4,2.06,13.67-16Zm13,16.07-.17-.05s0,.07,0,.09c3.4,2.92,6.78,5.86,10.21,8.75a1.73,1.73,0,0,0,2.29-.06c1.14-.87,1.08-2.24-.17-3.32l-10.66-9.11c-.14-.12-.28-.22-.31-.24Zm-10.77,11.41h0c.72.62,1.43,1.26,2.18,1.85a1.9,1.9,0,0,0,2.64-.27,1.82,1.82,0,0,0-.08-2.64q-2.19-2-4.49-3.84a1.92,1.92,0,0,0-2.66.31,2,2,0,0,0,.24,2.73C281.87,347,282.6,347.55,283.33,348.17Zm1.41-8.81a1.76,1.76,0,0,0-.33,2.86c1.82,1.63,3.68,3.23,5.55,4.81a1.76,1.76,0,0,0,2.28.05c1.23-.85,1.16-2.35-.17-3.45-.76-.63-1.51-1.27-2.3-1.86a1,1,0,0,0-.73-.16C286.76,342,285.74,341.5,284.74,339.36Zm5.73,1.32c.87.74,1.61,1.39,2.36,2a1.93,1.93,0,0,0,2.74-.15,1.89,1.89,0,0,0-.05-2.73,19.72,19.72,0,0,0-2-1.73.81.81,0,0,0-.77,0C292,338.9,291.26,339.76,290.47,340.68Z" transform="translate(2.94 3.45)" style="fill:#332e20"/><path d="M184.81,375.63v9.5a.7.7,0,0,1-.68.68.66.66,0,0,1-.48-.21l-4.75-4.75a.66.66,0,0,1,0-1l4.75-4.75a.69.69,0,0,1,.48-.2.67.67,0,0,1,.48.2A.66.66,0,0,1,184.81,375.63Z" transform="translate(2.94 3.45)" style="fill:#898f65"/><path d="M203.09,383.63l1.52,1.5a6.89,6.89,0,1,1-.19-9.4l-1.54,1.5a4.57,4.57,0,0,0-3.38-1.47,4.76,4.76,0,0,0,0,9.5A4.75,4.75,0,0,0,203.09,383.63Z" transform="translate(2.94 3.45)" style="fill:#898f65"/><path d="M211.94,373.86h2.32l5.17,13.3h-2.3L215.91,384h-5.62l-1.22,3.15h-2.3Zm-.84,8.06h4l-2-5.19Z" transform="translate(2.94 3.45)" style="fill:#898f65"/><path d="M222.66,373.86h4.52a4.26,4.26,0,1,1,0,8.52h-2.24v4.78h-2.28Zm6.61,4.26c0-1.25-.82-2.09-2.38-2.09h-1.95v4.18h1.95C228.45,380.21,229.27,379.37,229.27,378.12Z" transform="translate(2.94 3.45)" style="fill:#898f65"/><path d="M235.39,373.86h2.28v13.3h-2.28Z" transform="translate(2.94 3.45)" style="fill:#898f65"/><path d="M245,376h-3.66v-2.17h9.61V376h-3.67v11.13H245Z" transform="translate(2.94 3.45)" style="fill:#898f65"/><path d="M266.62,380.51a6.73,6.73,0,1,1-6.72-6.87A6.62,6.62,0,0,1,266.62,380.51Zm-2.32,0a4.42,4.42,0,1,0-4.4,4.72A4.44,4.44,0,0,0,264.3,380.51Z" transform="translate(2.94 3.45)" style="fill:#898f65"/><path d="M270.38,373.86h2.28V385h5.67v2.16h-7.95Z" transform="translate(2.94 3.45)" style="fill:#898f65"/><path d="M291,373.86l4.33,6.69,4.33-6.69h2.11v13.3h-2.28v-8.93l-4.16,6.33-4.16-6.33v8.93h-2.28v-13.3Z" transform="translate(2.94 3.45)" style="fill:#898f65"/><path d="M310.17,373.86h2.32l5.17,13.3h-2.3L314.14,384h-5.62l-1.22,3.15H305Zm-.84,8.06h4l-2-5.19Z" transform="translate(2.94 3.45)" style="fill:#898f65"/><path d="M320.89,373.86h2.28V385h5.66v2.16h-7.94Z" transform="translate(2.94 3.45)" style="fill:#898f65"/><path d="M332.1,373.86h2.28V385H340v2.16H332.1Z" transform="translate(2.94 3.45)" style="fill:#898f65"/><path d="M188.15,422.63l1.52,1.5a6.9,6.9,0,1,1-.19-9.41l-1.54,1.51a4.49,4.49,0,0,0-7.81,3.28,4.52,4.52,0,0,0,4.43,4.75A4.73,4.73,0,0,0,188.15,422.63Z" transform="translate(2.94 3.45)" style="fill:#898f65"/><path d="M197,412.86h2.32l5.17,13.3h-2.3L201,423h-5.62l-1.21,3.15h-2.3Zm-.83,8.06h4l-2-5.19Z" transform="translate(2.94 3.45)" style="fill:#898f65"/><path d="M207.72,412.86h4.52a4.26,4.26,0,1,1,0,8.51H210v4.79h-2.28Zm6.61,4.26c0-1.26-.82-2.09-2.37-2.09h-2v4.18h2C213.51,419.21,214.33,418.37,214.33,417.12Z" transform="translate(2.94 3.45)" style="fill:#898f65"/><path d="M220.45,412.86h2.28v13.3h-2.28Z" transform="translate(2.94 3.45)" style="fill:#898f65"/><path d="M230,415h-3.66v-2.17H236V415h-3.67v11.13H230Z" transform="translate(2.94 3.45)" style="fill:#898f65"/><path d="M251.68,419.51a6.73,6.73,0,1,1-6.72-6.88A6.62,6.62,0,0,1,251.68,419.51Zm-2.31,0a4.42,4.42,0,1,0-4.41,4.71A4.44,4.44,0,0,0,249.37,419.51Z" transform="translate(2.94 3.45)" style="fill:#898f65"/><path d="M255.45,412.86h2.28V424h5.66v2.17h-7.94Z" transform="translate(2.94 3.45)" style="fill:#898f65"/><path d="M276.06,412.86l4.33,6.69,4.34-6.69h2.1v13.3h-2.28v-8.93l-4.16,6.33-4.16-6.33v8.93H274v-13.3Z" transform="translate(2.94 3.45)" style="fill:#898f65"/><path d="M295.23,412.86h2.32l5.17,13.3h-2.3L299.2,423h-5.62l-1.21,3.15h-2.3Zm-.83,8.06h4l-2-5.19Z" transform="translate(2.94 3.45)" style="fill:#898f65"/><path d="M306,412.86h2.28V424h5.66v2.17H306Z" transform="translate(2.94 3.45)" style="fill:#898f65"/><path d="M317.16,412.86h2.28V424h5.66v2.17h-7.94Z" transform="translate(2.94 3.45)" style="fill:#898f65"/><path d="M340.37,419.37a.66.66,0,0,1-.2.48l-4.75,4.75a.65.65,0,0,1-.48.2.63.63,0,0,1-.48-.2.66.66,0,0,1-.2-.48v-9.5a.65.65,0,0,1,.2-.47.63.63,0,0,1,.48-.2.65.65,0,0,1,.48.2l4.75,4.75A.65.65,0,0,1,340.37,419.37Z" transform="translate(2.94 3.45)" style="fill:#898f65"/><path d="M216.27,102.51h2.28v11.13h5.67v2.17h-7.95Z" transform="translate(2.94 3.45)" style="fill:#898f65"/><path d="M239,110.26c-2-.69-4.16-1.75-4.16-4.22,0-1.88,1.67-3.76,4.35-3.76a5.72,5.72,0,0,1,4.33,2.11L241.94,106a3.83,3.83,0,0,0-2.75-1.5,1.83,1.83,0,0,0-2,1.59c0,1.16,1,1.52,2.86,2.2,2,.77,3.73,1.68,3.73,4.09s-2.13,3.7-4.64,3.7a5.81,5.81,0,0,1-4.86-2.71l1.71-1.45a4.06,4.06,0,0,0,3.15,2c1.14,0,2.32-.46,2.32-1.54S240.57,110.81,239,110.26Z" transform="translate(2.94 3.45)" style="fill:#898f65"/><path d="M250.32,104.67h-3.66v-2.16h9.61v2.16H252.6v11.14h-2.28Z" transform="translate(2.94 3.45)" style="fill:#898f65"/><path d="M259.65,102.51H264a4.08,4.08,0,0,1,4.41,4.14,3.85,3.85,0,0,1-3,4l3.33,5.17h-2.66l-3.15-5h-1.05v5h-2.28Zm6.46,4.14c0-1.31-.91-2-2.37-2h-1.81v4h1.81C265.2,108.62,266.11,108,266.11,106.65Z" transform="translate(2.94 3.45)" style="fill:#898f65"/><path d="M274.72,107.9H280v2.17h-5.32v3.57h5.89v2.17h-8.17v-13.3h8.05v2.16h-5.77Z" transform="translate(2.94 3.45)" style="fill:#898f65"/><path d="M286.8,107.9h5.32v2.17H286.8v3.57h5.89v2.17h-8.17v-13.3h8.06v2.16H286.8Z" transform="translate(2.94 3.45)" style="fill:#898f65"/><path d="M299.13,104.67h-3.66v-2.16h9.61v2.16h-3.67v11.14h-2.28Z" transform="translate(2.94 3.45)" style="fill:#898f65"/><path d="M396.74,188.83a2.33,2.33,0,0,1,.06.45,4.41,4.41,0,0,1-4.51,4.51,4.66,4.66,0,0,1,0-9.31,5.89,5.89,0,0,1,2.75.74c.38.21,6.92,4.18,6.92,4.18l-1.18,1.9Zm-4.45-2.05a2.36,2.36,0,1,0,2.38,2.35A2.27,2.27,0,0,0,392.29,186.78Z" transform="translate(2.94 3.45)" style="fill:#898f65"/><path d="M399.15,200.1v-3.67h2.17V206h-2.17v-3.66H388V200.1Z" transform="translate(2.94 3.45)" style="fill:#898f65"/><path d="M401.32,217.38v2.28H388v-2.28h5.72V211.7H388v-2.28h13.3v2.28H395.9v5.68Z" transform="translate(2.94 3.45)" style="fill:#898f65"/><path d="M393.57,235.7c.68-2,1.75-4.16,4.22-4.16,1.88,0,3.76,1.67,3.76,4.35a5.72,5.72,0,0,1-2.11,4.33l-1.56-1.57a3.86,3.86,0,0,0,1.5-2.76,1.83,1.83,0,0,0-1.59-2c-1.16,0-1.52,1-2.21,2.87-.76,2-1.67,3.72-4.08,3.72s-3.71-2.13-3.71-4.63a5.82,5.82,0,0,1,2.72-4.87l1.44,1.71a4.06,4.06,0,0,0-2,3.16c0,1.13.45,2.31,1.54,2.31S393,237.28,393.57,235.7Z" transform="translate(2.94 3.45)" style="fill:#898f65"/><path d="M399.15,247v-3.67h2.17V253h-2.17V249.3H388V247Z" transform="translate(2.94 3.45)" style="fill:#898f65"/><path d="M401.32,256.35v4.37a4.08,4.08,0,0,1-4.14,4.41,3.83,3.83,0,0,1-4-3L388,265.49v-2.66l5-3.15v-1.05h-5v-2.28Zm-4.14,6.46c1.31,0,2-.91,2-2.37v-1.81H395.2v1.81C395.2,261.9,395.87,262.81,397.18,262.81Z" transform="translate(2.94 3.45)" style="fill:#898f65"/><path d="M395.92,271.42v5.32h-2.16v-5.32h-3.57v5.89H388v-8.17h13.3v8.06h-2.17v-5.78Z" transform="translate(2.94 3.45)" style="fill:#898f65"/><path d="M395.92,283.5v5.32h-2.16V283.5h-3.57v5.89H388v-8.16h13.3v8h-2.17V283.5Z" transform="translate(2.94 3.45)" style="fill:#898f65"/><path d="M399.15,295.84v-3.67h2.17v9.61h-2.17v-3.66H388v-2.28Z" transform="translate(2.94 3.45)" style="fill:#898f65"/><path d="M116.79,188.6a5,5,0,0,1,3.08-4.65l1.08,1.9a3,3,0,0,0-2,2.75,2.33,2.33,0,0,0,2.47,2.44c1.42,0,2.47-.86,2.47-2.83a6.55,6.55,0,0,0-1.44-3.58h7.9V193h-2.17v-6.08h-2.6a4.55,4.55,0,0,1-4.16,6.42A4.49,4.49,0,0,1,116.79,188.6Z" transform="translate(2.94 3.45)" style="fill:#898f65"/><path d="M128.15,199.8v-3.67h2.17v9.61h-2.17v-3.67H117V199.8Z" transform="translate(2.94 3.45)" style="fill:#898f65"/><path d="M130.32,217.08v2.28H117v-2.28h5.72V211.4H117v-2.28h13.3v2.28H124.9v5.68Z" transform="translate(2.94 3.45)" style="fill:#898f65"/><path d="M122.57,235.4c.68-2,1.75-4.16,4.22-4.16,1.88,0,3.76,1.67,3.76,4.35a5.72,5.72,0,0,1-2.11,4.33l-1.56-1.58a3.83,3.83,0,0,0,1.5-2.75,1.83,1.83,0,0,0-1.59-2c-1.16,0-1.53,1-2.21,2.87-.76,2-1.67,3.72-4.08,3.72s-3.71-2.13-3.71-4.64a5.81,5.81,0,0,1,2.72-4.86l1.44,1.71a4.06,4.06,0,0,0-2,3.15c0,1.14.45,2.32,1.54,2.32S122,237,122.57,235.4Z" transform="translate(2.94 3.45)" style="fill:#898f65"/><path d="M128.15,246.72v-3.66h2.17v9.61h-2.17V249H117v-2.28Z" transform="translate(2.94 3.45)" style="fill:#898f65"/><path d="M130.32,256.05v4.37a4.08,4.08,0,0,1-4.14,4.41,3.83,3.83,0,0,1-4-3L117,265.19v-2.66l5-3.15v-1.05h-5v-2.28Zm-4.14,6.46c1.31,0,2-.91,2-2.37v-1.81h-4v1.81C124.2,261.6,124.87,262.51,126.18,262.51Z" transform="translate(2.94 3.45)" style="fill:#898f65"/><path d="M124.92,271.12v5.32h-2.16v-5.32h-3.57V277H117v-8.17h13.3v8.06h-2.17v-5.78Z" transform="translate(2.94 3.45)" style="fill:#898f65"/><path d="M124.92,283.2v5.32h-2.16V283.2h-3.57v5.89H117v-8.17h13.3V289h-2.17V283.2Z" transform="translate(2.94 3.45)" style="fill:#898f65"/><path d="M128.15,295.54v-3.67h2.17v9.61h-2.17v-3.66H117v-2.28Z" transform="translate(2.94 3.45)" style="fill:#898f65"/></svg>