<svg id="4f28340f-79f4-4770-84b8-3dfefe41ecb7" data-name="Layer 1" xmlns="http://www.w3.org/2000/svg" viewBox="0 0 534.1 534.1">
  <title>map--capitol</title>
  <path d="M111,404H38.07q-2.37-3.94-4.61-8H111Zm269-8H143v8H380Zm120.76,0H412v8h84.14C497.74,401.33,499.27,398.66,500.77,396ZM143,127V364H380V127ZM412,364H515.85a267.56,267.56,0,0,0-21.07-237H412Zm0-269h59.68A268.54,268.54,0,0,0,412,42.25ZM111,436H60.64A268.08,268.08,0,0,0,111,483.27Zm269,0H143V503.1a267.42,267.42,0,0,0,237,5.56ZM143,95H380V24.54A267.42,267.42,0,0,0,143,30.1ZM412,436v55a268.1,268.1,0,0,0,61.57-55ZM111,95v-45A268.31,268.31,0,0,0,62.54,95Zm0,269V127H39.45A267.47,267.47,0,0,0,18.38,364Z" transform="translate(-0.06 0.45)" style="fill: #d4cd9f"/>
  <path d="M300.48,344.47c-.92,2.16-1.32,2.53-3.22,3,.43,2.95-1.55,4.71-4.27,4a8,8,0,0,1-.48,1.38,3.2,3.2,0,0,1-5.11.84c-2-1.7-4-3.43-6-5.15l-6.47-5.53-.77-.66c-1.46,1.27-1.19,1.06-2.45,0-3.46-2.93-6.89-5.88-10.33-8.82-.92-.79-.92-.83-.14-1.74,4.57-5.36,9.16-10.7,13.72-16.07.55-.66.95-.73,1.63-.15q16.8,14.4,33.63,28.78a3.15,3.15,0,0,1,1.07,3.67,3,3,0,0,1-3,2,4.55,4.55,0,0,1-2.21-.92c-1.64-1.27-3.17-2.67-4.74-4Zm-12.92-17.88-12.64,14.77,7.28,6.22a3.35,3.35,0,0,1,3.43-2.94c0-1.81.14-2.57,1.08-3.13,1.33-.8,1.42-2.41,2.52-3.41a2,2,0,0,0-.78,0,9.31,9.31,0,0,1-5.21-1.25c-.23-.13-.29-.55-.43-.83a2.4,2.4,0,0,1,.91-.19,12.67,12.67,0,0,1,1.51.58,6.39,6.39,0,0,0,5.94-.46c.28-.18.73-.09,1.09-.12-.08.37-.05.82-.26,1.09-.78,1-1.64,1.94-2.46,2.92a2.14,2.14,0,0,0,.19,3.26,2.2,2.2,0,0,0,3-.51c1-1.18,2.05-2.35,3-3.56a4,4,0,0,0-.49-5.85c-1.17-1-2.37-2-3.55-3Zm-3.47-2.9-13.66,16,2.4,2.06,13.67-16Zm13,16.07-.17-.05s0,.07,0,.09c3.4,2.92,6.78,5.86,10.21,8.75a1.73,1.73,0,0,0,2.29-.06c1.14-.87,1.08-2.24-.17-3.32l-10.66-9.11c-.14-.12-.28-.22-.31-.24Zm-10.77,11.41h0c.72.62,1.43,1.26,2.18,1.85a1.9,1.9,0,0,0,2.64-.27,1.82,1.82,0,0,0-.08-2.64q-2.19-2-4.49-3.84a1.92,1.92,0,0,0-2.66.31,2,2,0,0,0,.24,2.73C284.87,350,285.6,350.55,286.33,351.17Zm1.41-8.81a1.76,1.76,0,0,0-.33,2.86c1.82,1.63,3.68,3.23,5.55,4.81a1.76,1.76,0,0,0,2.28.05c1.23-.85,1.16-2.35-.17-3.45-.76-.63-1.51-1.27-2.3-1.86a1,1,0,0,0-.73-.16C289.76,345,288.74,344.5,287.74,342.36Zm5.73,1.32c.87.74,1.61,1.39,2.36,2a1.93,1.93,0,0,0,2.74-.15,1.89,1.89,0,0,0-.05-2.73,19.72,19.72,0,0,0-2-1.73.81.81,0,0,0-.77,0C295,341.9,294.26,342.76,293.47,343.68Z" transform="translate(-0.06 0.45)" style="fill: #332e20"/>
  <text transform="translate(184.35 388.26)" style="font-size: 19px;fill: #898f65;font-weight: 700;letter-spacing: 0.08999794407894737em"><tspan xml:space="preserve"> CAPI</tspan><tspan x="56.24" y="0" style="letter-spacing: 0.07000411184210527em">T</tspan><tspan x="67.72" y="0" style="letter-spacing: 0.09002364309210527em">OL MALL</tspan></text>
  <text transform="translate(188 427.25)" style="font-size: 19px;fill: #898f65;font-weight: 700;letter-spacing: 0.08999794407894737em">CAPI<tspan x="48.94" y="0" style="letter-spacing: 0.07000411184210527em">T</tspan><tspan x="60.42" y="0">OL MALL </tspan></text>
  <text transform="translate(217.81 119.26)" style="font-size: 19px;fill: #898f65;font-weight: 700;letter-spacing: 0.08999794407894737em">L STREET</text>
  <text transform="translate(390.96 187.19) rotate(90)" style="font-size: 19px;fill: #898f65;font-weight: 700;letter-spacing: 0.08999794407894737em">6TH STREET</text>
  <text transform="translate(119.96 186.49) rotate(90)" style="font-size: 19px;fill: #898f65;font-weight: 700;letter-spacing: 0.08999794407894737em">5TH STREET</text>
  <path d="M348.63,420.39a.66.66,0,0,1-.2.48l-4.75,4.75a.68.68,0,0,1-1,0,.66.66,0,0,1-.2-.48v-9.5a.68.68,0,0,1,1.16-.48l4.75,4.75A.69.69,0,0,1,348.63,420.39Z" transform="translate(-0.06 0.45)" style="fill: #898f65"/>
  <path d="M186.35,376v9.5a.68.68,0,0,1-1.16.48l-4.75-4.75a.68.68,0,0,1,0-1l4.75-4.75a.68.68,0,0,1,1.16.48Z" transform="translate(-0.06 0.45)" style="fill: #898f65"/>
</svg>
