<svg id="a1fe751a-4b0d-40a2-9fd8-4a20313e5b23" data-name="Layer 1" xmlns="http://www.w3.org/2000/svg" viewBox="0 0 534.1 534.1"><title>map--alley</title><rect x="132.94" y="302.45" width="237" height="102" style="fill:#d4cd9f"/><path d="M520.38,298.71H390.56v102h94.13A265.28,265.28,0,0,0,520.38,298.71Z" transform="translate(11.38 3.74)" style="fill:#d4cd9f"/><path d="M89.56,163.71H7.83a267.46,267.46,0,0,0,18.82,237H89.56Z" transform="translate(11.38 3.74)" style="fill:#d4cd9f"/><path d="M503.51,163.71H390.56v103H522.68c0-1.13,0-2.26,0-3.4A266.31,266.31,0,0,0,503.51,163.71Z" transform="translate(11.38 3.74)" style="fill:#d4cd9f"/><rect x="132.94" y="167.45" width="237" height="103" style="fill:#d4cd9f"/><path d="M358.56,432.71h-237v61.57a267.53,267.53,0,0,0,237,15.53Z" transform="translate(11.38 3.74)" style="fill:#d4cd9f"/><path d="M390.56,432.71v61.11a268.27,268.27,0,0,0,71.55-61.11Z" transform="translate(11.38 3.74)" style="fill:#d4cd9f"/><path d="M89.56,432.71H49.23A268.36,268.36,0,0,0,89.56,472.4Z" transform="translate(11.38 3.74)" style="fill:#d4cd9f"/><path d="M89.56,131.71V54.22a268.4,268.4,0,0,0-66.3,77.49Z" transform="translate(11.38 3.74)" style="fill:#d4cd9f"/><path d="M121.56,131.71h237V16.82a267.44,267.44,0,0,0-237,15.53Z" transform="translate(11.38 3.74)" style="fill:#d4cd9f"/><path d="M390.56,131.71h97.52A268.34,268.34,0,0,0,390.56,32.8Z" transform="translate(11.38 3.74)" style="fill:#d4cd9f"/><path d="M231,244.18c-.91,2.17-1.32,2.54-3.22,3,.43,3-1.55,4.71-4.27,4a8.42,8.42,0,0,1-.47,1.39,3.21,3.21,0,0,1-5.12.84c-2-1.7-4-3.44-6-5.15l-6.47-5.54-.76-.65c-1.46,1.27-1.19,1.06-2.46,0q-5.18-4.4-10.32-8.82c-.93-.79-.93-.83-.15-1.75q6.87-8,13.72-16.06c.56-.66.95-.74,1.63-.15q16.8,14.4,33.63,28.78a3.17,3.17,0,0,1,1.08,3.67,3,3,0,0,1-3,2,4.69,4.69,0,0,1-2.22-.92c-1.63-1.27-3.17-2.67-4.74-4Zm-12.92-17.87-12.63,14.77,7.27,6.22a3.37,3.37,0,0,1,3.43-3c0-1.81.14-2.56,1.09-3.13,1.32-.79,1.41-2.4,2.51-3.4a2,2,0,0,0-.78.05,9.39,9.39,0,0,1-5.21-1.25c-.22-.13-.29-.55-.42-.83a2.35,2.35,0,0,1,.9-.19,14.56,14.56,0,0,1,1.51.57,6.38,6.38,0,0,0,6-.45c.27-.18.72-.09,1.09-.12-.09.36-.06.81-.27,1.08-.78,1-1.64,1.95-2.46,2.92a2.13,2.13,0,0,0,.2,3.26,2.17,2.17,0,0,0,3-.5c1-1.18,2.05-2.35,3-3.56a4,4,0,0,0-.48-5.85c-1.17-1-2.37-2-3.56-3Zm-3.47-2.9-13.66,16,2.41,2.05,13.66-16Zm13,16.06-.17-.05s0,.08,0,.09c3.4,2.93,6.79,5.87,10.21,8.76a1.74,1.74,0,0,0,2.29-.06c1.14-.87,1.08-2.24-.17-3.32q-5.33-4.57-10.66-9.12a3.65,3.65,0,0,0-.31-.23Zm-10.77,11.42h0c.73.62,1.43,1.26,2.18,1.85a1.91,1.91,0,0,0,2.65-.27,1.84,1.84,0,0,0-.08-2.65c-1.47-1.31-3-2.6-4.5-3.83a1.9,1.9,0,0,0-2.65.31,2,2,0,0,0,.23,2.73C215.43,249.67,216.17,250.27,216.89,250.89Zm1.41-8.81a1.76,1.76,0,0,0-.33,2.86c1.83,1.63,3.68,3.22,5.55,4.8a1.75,1.75,0,0,0,2.29,0c1.23-.84,1.15-2.34-.18-3.45-.76-.62-1.51-1.26-2.29-1.85a1.08,1.08,0,0,0-.74-.17C220.32,244.72,219.31,244.21,218.3,242.08ZM224,243.4c.87.74,1.6,1.39,2.36,2a1.91,1.91,0,0,0,2.73-.14,1.89,1.89,0,0,0,0-2.73,19.81,19.81,0,0,0-2-1.74.81.81,0,0,0-.76,0C225.53,241.61,224.83,242.47,224,243.4Z" transform="translate(11.38 3.74)" style="fill:#332e20"/><path d="M164.19,421l1.52,1.5a6.89,6.89,0,1,1-.19-9.41L164,414.62a4.64,4.64,0,1,0-3.38,8A4.73,4.73,0,0,0,164.19,421Z" transform="translate(11.38 3.74)" style="fill:#898f65"/><path d="M173.05,411.25h2.31l5.17,13.3h-2.3L177,421.4h-5.63l-1.21,3.15h-2.3Zm-.84,8.06h4l-2-5.19Z" transform="translate(11.38 3.74)" style="fill:#898f65"/><path d="M183.76,411.25h4.52a4.26,4.26,0,1,1,0,8.51H186v4.79h-2.28Zm6.61,4.26c0-1.26-.81-2.09-2.37-2.09h-2v4.18h2C189.56,417.6,190.37,416.76,190.37,415.51Z" transform="translate(11.38 3.74)" style="fill:#898f65"/><path d="M196.49,411.25h2.28v13.3h-2.28Z" transform="translate(11.38 3.74)" style="fill:#898f65"/><path d="M206.09,413.42h-3.67v-2.17H212v2.17h-3.66v11.13h-2.28Z" transform="translate(11.38 3.74)" style="fill:#898f65"/><path d="M227.73,417.9A6.73,6.73,0,1,1,221,411,6.63,6.63,0,0,1,227.73,417.9Zm-2.32,0a4.42,4.42,0,1,0-4.41,4.71A4.44,4.44,0,0,0,225.41,417.9Z" transform="translate(11.38 3.74)" style="fill:#898f65"/><path d="M231.49,411.25h2.28v11.14h5.66v2.16h-7.94Z" transform="translate(11.38 3.74)" style="fill:#898f65"/><path d="M253.87,411.25h2.32l5.17,13.3h-2.3l-1.22-3.15h-5.62L251,424.55h-2.3Zm-.83,8.06h4l-2-5.19Z" transform="translate(11.38 3.74)" style="fill:#898f65"/><path d="M267.67,425l-5.95-13.76h2.49l3.53,8.53,3.5-8.53h2.37Z" transform="translate(11.38 3.74)" style="fill:#898f65"/><path d="M279.05,416.65h5.32v2.16h-5.32v3.58h5.89v2.16h-8.17v-13.3h8.05v2.17h-5.77Z" transform="translate(11.38 3.74)" style="fill:#898f65"/><path d="M290.9,411.25l6.65,9.16v-9.16h2.28v13.3h-2.05l-6.65-9.14v9.14h-2.28v-13.3Z" transform="translate(11.38 3.74)" style="fill:#898f65"/><path d="M312.33,411.25h2.28v8.48a5.13,5.13,0,0,1-10.25,0v-8.48h2.27v8.19c0,1.9.95,3.17,2.85,3.17s2.85-1.27,2.85-3.17Z" transform="translate(11.38 3.74)" style="fill:#898f65"/><path d="M321.42,416.65h5.32v2.16h-5.32v3.58h5.89v2.16h-8.17v-13.3h8.05v2.17h-5.77Z" transform="translate(11.38 3.74)" style="fill:#898f65"/><path d="M197.83,142.25h2.28v11.14h5.66v2.16h-7.94Z" transform="translate(11.38 3.74)" style="fill:#898f65"/><path d="M220.55,150c-2-.68-4.16-1.74-4.16-4.21,0-1.88,1.67-3.76,4.35-3.76a5.73,5.73,0,0,1,4.33,2.1l-1.58,1.56a3.83,3.83,0,0,0-2.75-1.5,1.83,1.83,0,0,0-2,1.6c0,1.15,1,1.52,2.87,2.2,2,.76,3.72,1.67,3.72,4.08s-2.13,3.71-4.64,3.71a5.81,5.81,0,0,1-4.86-2.72l1.71-1.44a4.06,4.06,0,0,0,3.15,2c1.14,0,2.32-.45,2.32-1.54S222.13,150.56,220.55,150Z" transform="translate(11.38 3.74)" style="fill:#898f65"/><path d="M231.87,144.42h-3.66v-2.17h9.61v2.17h-3.67v11.13h-2.28Z" transform="translate(11.38 3.74)" style="fill:#898f65"/><path d="M241.2,142.25h4.37a4.08,4.08,0,0,1,4.41,4.14,3.83,3.83,0,0,1-3,4l3.32,5.17h-2.66l-3.15-5h-1.05v5H241.2Zm6.46,4.14c0-1.31-.91-2-2.37-2h-1.81v4h1.81C246.75,148.37,247.66,147.71,247.66,146.39Z" transform="translate(11.38 3.74)" style="fill:#898f65"/><path d="M256.27,147.65h5.32v2.16h-5.32v3.58h5.89v2.16H254v-13.3H262v2.17h-5.77Z" transform="translate(11.38 3.74)" style="fill:#898f65"/><path d="M268.35,147.65h5.32v2.16h-5.32v3.58h5.89v2.16h-8.17v-13.3h8.06v2.17h-5.78Z" transform="translate(11.38 3.74)" style="fill:#898f65"/><path d="M280.68,144.42H277v-2.17h9.61v2.17H283v11.13h-2.28Z" transform="translate(11.38 3.74)" style="fill:#898f65"/><path d="M168.24,277.25h2.28v11.14h5.66v2.16h-7.94Z" transform="translate(11.38 3.74)" style="fill:#898f65"/><path d="M179.71,277.25H182v13.3h-2.28Z" transform="translate(11.38 3.74)" style="fill:#898f65"/><path d="M189.06,282.65h5.32v2.16h-5.32v3.58H195v2.16h-8.17v-13.3h8.06v2.17h-5.78Z" transform="translate(11.38 3.74)" style="fill:#898f65"/><path d="M203.08,285c-2-.68-4.16-1.74-4.16-4.21,0-1.88,1.67-3.76,4.35-3.76a5.7,5.7,0,0,1,4.33,2.1L206,280.69a3.86,3.86,0,0,0-2.76-1.5,1.83,1.83,0,0,0-2,1.6c0,1.15,1,1.52,2.87,2.2,2,.76,3.72,1.67,3.72,4.08s-2.13,3.71-4.63,3.71a5.82,5.82,0,0,1-4.87-2.72l1.71-1.44a4.06,4.06,0,0,0,3.16,2c1.14,0,2.31-.45,2.31-1.54S204.66,285.56,203.08,285Z" transform="translate(11.38 3.74)" style="fill:#898f65"/><path d="M214.41,279.42h-3.67v-2.17h9.61v2.17h-3.66v11.13h-2.28Z" transform="translate(11.38 3.74)" style="fill:#898f65"/><path d="M226.91,277.25h2.32l5.16,13.3h-2.3l-1.21-3.15h-5.62L224,290.55h-2.3Zm-.84,8.06h4l-2-5.19Z" transform="translate(11.38 3.74)" style="fill:#898f65"/><path d="M237.62,277.25h2.28v11.14h5.67v2.16h-7.95Z" transform="translate(11.38 3.74)" style="fill:#898f65"/><path d="M260,277.25h2.31l5.17,13.3h-2.3L264,287.4h-5.63l-1.21,3.15h-2.3Zm-.84,8.06h4l-2-5.19Z" transform="translate(11.38 3.74)" style="fill:#898f65"/><path d="M270.72,277.25H273v11.14h5.66v2.16h-7.94Z" transform="translate(11.38 3.74)" style="fill:#898f65"/><path d="M281.93,277.25h2.28v11.14h5.66v2.16h-7.94Z" transform="translate(11.38 3.74)" style="fill:#898f65"/><path d="M295.42,282.65h5.32v2.16h-5.32v3.58h5.89v2.16h-8.17v-13.3h8.06v2.17h-5.78Z" transform="translate(11.38 3.74)" style="fill:#898f65"/><path d="M310.79,290.55h-2.28v-5.24L304,277.25h2.51l3.25,5.95,3.25-5.95h2.35l-4.54,8.06Z" transform="translate(11.38 3.74)" style="fill:#898f65"/><path d="M382.87,222.65v1.88h-13.3v-2.28h10.26L378,219.91l1.67-1.31Z" transform="translate(11.38 3.74)" style="fill:#898f65"/><path d="M379.26,238.09a3.17,3.17,0,0,1-2.62-1.48,3.3,3.3,0,0,1-3.15,1.86c-2.23,0-4.15-1.67-4.15-4.56s1.92-4.56,4.15-4.56a3.3,3.3,0,0,1,3.15,1.86,3.17,3.17,0,0,1,2.62-1.48,4.2,4.2,0,0,1,0,8.36Zm-5.74-1.92a2.27,2.27,0,0,0,0-4.52,2.27,2.27,0,0,0,0,4.52Zm7.49-2.26a1.78,1.78,0,1,0-1.77,1.92A1.79,1.79,0,0,0,381,233.91Z" transform="translate(11.38 3.74)" style="fill:#898f65"/><path d="M380.7,245v-3.67h2.17V251H380.7v-3.66H369.57V245Z" transform="translate(11.38 3.74)" style="fill:#898f65"/><path d="M382.87,262.32v2.28h-13.3v-2.28h5.72v-5.68h-5.72v-2.28h13.3v2.28h-5.41v5.68Z" transform="translate(11.38 3.74)" style="fill:#898f65"/><path d="M375.12,280.63c.68-1.95,1.75-4.16,4.22-4.16,1.88,0,3.76,1.67,3.76,4.35a5.69,5.69,0,0,1-2.11,4.33l-1.56-1.57a3.83,3.83,0,0,0,1.5-2.76,1.83,1.83,0,0,0-1.59-2c-1.16,0-1.52,1-2.21,2.87-.76,2-1.67,3.72-4.08,3.72s-3.71-2.13-3.71-4.63a5.82,5.82,0,0,1,2.72-4.87l1.44,1.71a4.06,4.06,0,0,0-2,3.16c0,1.14.46,2.31,1.54,2.31S374.57,282.21,375.12,280.63Z" transform="translate(11.38 3.74)" style="fill:#898f65"/><path d="M380.7,292v-3.67h2.17v9.61H380.7v-3.66H369.57V292Z" transform="translate(11.38 3.74)" style="fill:#898f65"/><path d="M382.87,301.29v4.36a4.07,4.07,0,0,1-4.14,4.41,3.83,3.83,0,0,1-4-3l-5.17,3.32v-2.66l5-3.15v-1h-5v-2.28Zm-4.14,6.45c1.31,0,2-.91,2-2.37v-1.8h-3.95v1.8C376.75,306.83,377.42,307.74,378.73,307.74Z" transform="translate(11.38 3.74)" style="fill:#898f65"/><path d="M377.47,316.35v5.32h-2.16v-5.32h-3.57v5.89h-2.17v-8.17h13.3v8.06H380.7v-5.78Z" transform="translate(11.38 3.74)" style="fill:#898f65"/><path d="M377.47,328.44v5.32h-2.16v-5.32h-3.57v5.89h-2.17v-8.17h13.3v8H380.7v-5.77Z" transform="translate(11.38 3.74)" style="fill:#898f65"/><path d="M380.7,340.77V337.1h2.17v9.61H380.7v-3.66H369.57v-2.28Z" transform="translate(11.38 3.74)" style="fill:#898f65"/><path d="M111.87,222.62v1.88H98.57v-2.28h10.26L107,219.89l1.67-1.32Z" transform="translate(11.38 3.74)" style="fill:#898f65"/><path d="M111.87,229.1v9.5l-13.75-7.13,1-1.93L109.7,235V229.1Z" transform="translate(11.38 3.74)" style="fill:#898f65"/><path d="M109.7,244.05v-3.66h2.17V250H109.7v-3.67H98.57v-2.28Z" transform="translate(11.38 3.74)" style="fill:#898f65"/><path d="M111.87,261.34v2.28H98.57v-2.28h5.72v-5.68H98.57v-2.28h13.3v2.28h-5.41v5.68Z" transform="translate(11.38 3.74)" style="fill:#898f65"/><path d="M104.12,279.66c.68-2,1.75-4.16,4.22-4.16,1.88,0,3.76,1.67,3.76,4.35a5.72,5.72,0,0,1-2.11,4.33l-1.56-1.58a3.83,3.83,0,0,0,1.5-2.75,1.83,1.83,0,0,0-1.59-2c-1.16,0-1.52,1-2.21,2.86-.76,2-1.67,3.73-4.08,3.73s-3.71-2.13-3.71-4.64a5.81,5.81,0,0,1,2.72-4.86l1.44,1.71a4.06,4.06,0,0,0-2,3.15c0,1.14.46,2.32,1.54,2.32S103.57,281.23,104.12,279.66Z" transform="translate(11.38 3.74)" style="fill:#898f65"/><path d="M109.7,291v-3.66h2.17v9.61H109.7v-3.67H98.57V291Z" transform="translate(11.38 3.74)" style="fill:#898f65"/><path d="M111.87,300.31v4.37a4.08,4.08,0,0,1-4.14,4.41,3.84,3.84,0,0,1-4-3l-5.17,3.33v-2.66l5-3.15v-1.05h-5v-2.28Zm-4.14,6.46c1.31,0,2-.91,2-2.37v-1.81h-4v1.81C105.75,305.86,106.42,306.77,107.73,306.77Z" transform="translate(11.38 3.74)" style="fill:#898f65"/><path d="M106.47,315.38v5.32h-2.16v-5.32h-3.57v5.89H98.57V313.1h13.3v8H109.7v-5.77Z" transform="translate(11.38 3.74)" style="fill:#898f65"/><path d="M106.47,327.46v5.32h-2.16v-5.32h-3.57v5.89H98.57v-8.17h13.3v8.06H109.7v-5.78Z" transform="translate(11.38 3.74)" style="fill:#898f65"/><path d="M109.7,339.79v-3.66h2.17v9.61H109.7v-3.67H98.57v-2.28Z" transform="translate(11.38 3.74)" style="fill:#898f65"/></svg>