<svg id="04f8ced7-1643-4854-b907-5af03be21b4b" data-name="Layer 1" xmlns="http://www.w3.org/2000/svg" viewBox="0 0 534.1 534.1">
  <title>map--alley</title>
  <g>
    <rect x="132.94" y="302.45" width="237" height="102" style="fill: #d4cd9f"/>
    <path d="M132.94,135.45h237V20.55a267.53,267.53,0,0,0-237,15.53Z" style="fill: #d4cd9f"/>
    <rect x="132.94" y="167.45" width="237" height="103" style="fill: #d4cd9f"/>
    <path d="M514.89,167.45H401.94v103H534.05c0-1.13.05-2.26.05-3.4A266.31,266.31,0,0,0,514.89,167.45Z" style="fill: #d4cd9f"/>
    <path d="M531.76,302.45H401.94v102h94.13A265.39,265.39,0,0,0,531.76,302.45Z" style="fill: #d4cd9f"/>
    <path d="M401.94,135.45h97.52a268.42,268.42,0,0,0-97.52-98.91Z" style="fill: #d4cd9f"/>
    <path d="M369.94,436.45h-237V498a267.44,267.44,0,0,0,237,15.53Z" style="fill: #d4cd9f"/>
    <path d="M401.94,436.45v61.1a268.21,268.21,0,0,0,71.55-61.1Z" style="fill: #d4cd9f"/>
    <path d="M100.94,167.45H19.21A267.46,267.46,0,0,0,38,404.45h62.91Z" style="fill: #d4cd9f"/>
    <path d="M100.94,135.45V58a268.12,268.12,0,0,0-66.3,77.49Z" style="fill: #d4cd9f"/>
    <path d="M100.94,436.45H60.61a268.36,268.36,0,0,0,40.33,39.69Z" style="fill: #d4cd9f"/>
  </g>
  <path d="M242.42,247.92c-.92,2.17-1.32,2.53-3.22,3,.43,3-1.55,4.72-4.27,4a8.46,8.46,0,0,1-.48,1.39,3.2,3.2,0,0,1-5.11.84c-2-1.7-4-3.44-6-5.16l-6.47-5.53-.77-.65c-1.46,1.26-1.19,1.06-2.45,0-3.46-2.92-6.89-5.87-10.33-8.82-.92-.79-.92-.82-.14-1.74,4.57-5.35,9.16-10.7,13.72-16.07.55-.65.95-.73,1.63-.15q16.8,14.41,33.63,28.78a3.16,3.16,0,0,1,1.07,3.68,3,3,0,0,1-3,2,4.57,4.57,0,0,1-2.21-.93c-1.64-1.27-3.17-2.66-4.74-4ZM229.5,230.05l-12.64,14.77,7.28,6.21a3.36,3.36,0,0,1,3.43-2.94c0-1.81.14-2.56,1.08-3.13,1.33-.8,1.42-2.4,2.52-3.41a2.17,2.17,0,0,0-.78.06,9.4,9.4,0,0,1-5.21-1.26c-.23-.12-.29-.54-.43-.83a2.38,2.38,0,0,1,.91-.18,14.56,14.56,0,0,1,1.51.57,6.33,6.33,0,0,0,5.94-.46c.28-.17.73-.08,1.09-.12-.08.37,0,.82-.26,1.09-.78,1-1.64,2-2.46,2.92a2.14,2.14,0,0,0,.19,3.26,2.19,2.19,0,0,0,3-.5c1-1.18,2.05-2.36,3-3.57a4,4,0,0,0-.49-5.84c-1.17-1-2.37-2-3.55-3.05Zm-3.47-2.9-13.66,16,2.4,2.06,13.67-16Zm13,16.06-.17-.05s0,.07,0,.09c3.4,2.93,6.78,5.87,10.21,8.76a1.74,1.74,0,0,0,2.29-.07c1.14-.87,1.08-2.24-.17-3.31q-5.33-4.57-10.66-9.12l-.31-.23Zm-10.77,11.42h0c.72.62,1.43,1.26,2.18,1.86a1.91,1.91,0,0,0,2.64-.27,1.83,1.83,0,0,0-.08-2.65c-1.46-1.31-3-2.6-4.49-3.84a1.92,1.92,0,0,0-2.66.31,2,2,0,0,0,.24,2.74C226.81,253.4,227.54,254,228.27,254.63Zm1.41-8.81a1.76,1.76,0,0,0-.33,2.86c1.82,1.63,3.68,3.22,5.55,4.8a1.73,1.73,0,0,0,2.28.05c1.23-.85,1.16-2.35-.17-3.45-.76-.63-1.51-1.26-2.3-1.86a1.09,1.09,0,0,0-.73-.16C231.7,248.46,230.68,248,229.68,245.82Zm5.73,1.32c.87.74,1.61,1.39,2.36,2a1.94,1.94,0,0,0,2.74-.14,1.89,1.89,0,0,0,0-2.73,19.81,19.81,0,0,0-2-1.74.78.78,0,0,0-.77,0C236.9,245.35,236.2,246.21,235.41,247.14Z" style="fill: #332e20"/>
  <text transform="translate(164.59 428.29)" style="font-size: 19px;fill: #898f65;font-weight: 700;letter-spacing: 0.08999794407894737em">CAPI<tspan x="48.94" y="0" style="letter-spacing: 0.07000411184210527em">T</tspan><tspan x="60.42" y="0">OL </tspan><tspan x="95.38" y="0" style="letter-spacing: 0.010999177631578948em">A</tspan><tspan x="108.47" y="0">VENUE</tspan></text>
  <text transform="translate(207.8 159.29)" style="font-size: 19px;fill: #898f65;font-weight: 700;letter-spacing: 0.08999794407894737em">L STREET</text>
  <text transform="translate(178.21 294.29)" style="font-size: 19px;fill: #898f65;font-weight: 700;letter-spacing: 0.08999794407894737em">LIES<tspan x="43.64" y="0" style="letter-spacing: 0.05301706414473684em">T</tspan><tspan x="54.8" y="0">AL ALLEY</tspan></text>
  <text transform="translate(380.95 222.03) rotate(90)" style="font-size: 19px;fill: #898f65;font-weight: 700;letter-spacing: 0.08999794407894737em">18TH STREET</text>
  <text transform="translate(109.95 222.01) rotate(90)" style="font-size: 19px;fill: #898f65;font-weight: 700;letter-spacing: 0.08999794407894737em">17TH STREET</text>
</svg>
