<svg id="7df6965c-d369-4e67-9a3b-6529c9b97583" data-name="Layer 1" xmlns="http://www.w3.org/2000/svg" viewBox="0 0 533.6 533.6"><title>map--oak</title><path d="M388,401V149.1l-18-18A90.86,90.86,0,0,1,300.12,164H151V401Z" transform="translate(1.94 2.95)" style="fill:#d4cd9f"/><path d="M151,132H300a58.94,58.94,0,0,0,47.23-23.69L237-2A265.13,265.13,0,0,0,151,22.1Z" transform="translate(1.94 2.95)" style="fill:#d4cd9f"/><path d="M388,26.47A265.37,265.37,0,0,0,281.22-2.95L388,103.84Z" transform="translate(1.94 2.95)" style="fill:#d4cd9f"/><path d="M531.66,247.49A265.72,265.72,0,0,0,513,164H448.18Z" transform="translate(1.94 2.95)" style="fill:#d4cd9f"/><path d="M530.68,291.76,420,181.1V401h74.11A265.22,265.22,0,0,0,530.68,291.76Z" transform="translate(1.94 2.95)" style="fill:#d4cd9f"/><path d="M119,433H58.67A268.48,268.48,0,0,0,119,487.15Z" transform="translate(1.94 2.95)" style="fill:#d4cd9f"/><path d="M420,132h77.5A268.34,268.34,0,0,0,420,46.05Z" transform="translate(1.94 2.95)" style="fill:#d4cd9f"/><path d="M388,433H151v72.1a267.46,267.46,0,0,0,237-4.37Z" transform="translate(1.94 2.95)" style="fill:#d4cd9f"/><path d="M420,433v48.15A268.72,268.72,0,0,0,471.55,433Z" transform="translate(1.94 2.95)" style="fill:#d4cd9f"/><path d="M119,132V40A268.47,268.47,0,0,0,32.7,132Z" transform="translate(1.94 2.95)" style="fill:#d4cd9f"/><path d="M119,401V164H17.27A267.46,267.46,0,0,0,36.09,401Z" transform="translate(1.94 2.95)" style="fill:#d4cd9f"/><path d="M365.83,217.38c-.92,2.17-1.33,2.54-3.23,3,.43,2.95-1.55,4.71-4.27,4a8.12,8.12,0,0,1-.47,1.39,3.21,3.21,0,0,1-5.12.84c-2-1.7-4-3.43-6-5.15L340.24,216l-.76-.65c-1.46,1.27-1.19,1.06-2.46,0q-5.17-4.4-10.32-8.82c-.93-.79-.93-.83-.15-1.74,4.58-5.36,9.16-10.7,13.72-16.07.56-.66,1-.73,1.63-.15q16.8,14.4,33.63,28.78a3.17,3.17,0,0,1,1.08,3.67,3,3,0,0,1-3,2,4.69,4.69,0,0,1-2.22-.92c-1.63-1.27-3.17-2.67-4.74-4ZM352.9,199.51l-12.63,14.77,7.27,6.22a3.37,3.37,0,0,1,3.43-2.95c0-1.8.14-2.56,1.09-3.13,1.32-.79,1.41-2.4,2.51-3.4a2,2,0,0,0-.78,0,9.39,9.39,0,0,1-5.21-1.25c-.22-.13-.29-.55-.42-.83a2.35,2.35,0,0,1,.9-.19,14.56,14.56,0,0,1,1.51.57,6.38,6.38,0,0,0,5.95-.45c.27-.18.72-.09,1.09-.12-.09.36-.06.82-.27,1.08-.78,1-1.64,2-2.46,2.93a2.13,2.13,0,0,0,.2,3.25,2.18,2.18,0,0,0,3-.5c1-1.18,2.05-2.35,3-3.56a4,4,0,0,0-.48-5.85c-1.17-1-2.37-2-3.56-3.05Zm-3.47-2.9-13.66,16,2.41,2.06,13.66-16Zm13,16.06-.17,0s0,.08,0,.1c3.4,2.92,6.79,5.86,10.21,8.75a1.74,1.74,0,0,0,2.29-.06c1.14-.87,1.08-2.24-.17-3.32Q369.29,213.52,364,209a2.67,2.67,0,0,0-.31-.24Zm-10.77,11.42h0c.73.62,1.44,1.26,2.18,1.85a1.91,1.91,0,0,0,2.65-.27,1.83,1.83,0,0,0-.08-2.64c-1.47-1.32-3-2.6-4.5-3.84a1.9,1.9,0,0,0-2.65.31,2,2,0,0,0,.23,2.73C350.21,222.87,351,223.47,351.67,224.09Zm1.41-8.81a1.76,1.76,0,0,0-.33,2.86c1.83,1.63,3.68,3.22,5.55,4.8a1.75,1.75,0,0,0,2.29.05c1.23-.84,1.15-2.34-.18-3.45-.76-.62-1.51-1.26-2.29-1.85a1.06,1.06,0,0,0-.74-.17C355.1,217.92,354.09,217.42,353.08,215.28Zm5.74,1.32c.87.74,1.6,1.39,2.36,2a1.91,1.91,0,0,0,2.73-.14,1.89,1.89,0,0,0-.05-2.73,19.72,19.72,0,0,0-2-1.73.79.79,0,0,0-.76,0C360.31,214.81,359.61,215.67,358.82,216.6Z" transform="translate(1.94 2.95)" style="fill:#332e20"/><path d="M186.58,411.54h2.54v8.28h1.47V422h-1.47v2.89h-2.28V422h-7Zm.3,8.28v-5.15l-3.34,5.15Z" transform="translate(1.94 2.95)" style="fill:#898f65"/><path d="M196.8,413.71h-3.67v-2.17h9.62v2.17h-3.67v11.13H196.8Z" transform="translate(1.94 2.95)" style="fill:#898f65"/><path d="M214.09,411.54h2.28v13.3h-2.28v-5.72h-5.68v5.72h-2.28v-13.3h2.28V417h5.68Z" transform="translate(1.94 2.95)" style="fill:#898f65"/><path d="M232.06,411.54h2.32l5.17,13.3h-2.3L236,421.69h-5.62l-1.21,3.15h-2.3Zm-.83,8.06h4l-2-5.19Z" transform="translate(1.94 2.95)" style="fill:#898f65"/><path d="M245.86,425.29l-6-13.75h2.49l3.53,8.53,3.5-8.53h2.37Z" transform="translate(1.94 2.95)" style="fill:#898f65"/><path d="M257.24,416.94h5.32v2.16h-5.32v3.57h5.89v2.17H255v-13.3h8v2.17h-5.77Z" transform="translate(1.94 2.95)" style="fill:#898f65"/><path d="M269.1,411.54l6.64,9.16v-9.16H278v13.3h-2l-6.65-9.14v9.14H267v-13.3Z" transform="translate(1.94 2.95)" style="fill:#898f65"/><path d="M290.53,411.54h2.28V420a5.13,5.13,0,0,1-10.26,0v-8.47h2.28v8.19c0,1.9.95,3.17,2.85,3.17s2.85-1.27,2.85-3.17Z" transform="translate(1.94 2.95)" style="fill:#898f65"/><path d="M299.61,416.94h5.32v2.16h-5.32v3.57h5.89v2.17h-8.17v-13.3h8.05v2.17h-5.77Z" transform="translate(1.94 2.95)" style="fill:#898f65"/><path d="M186.05,144.44a2.43,2.43,0,0,0-2.26,1.61l-2-.93a4.55,4.55,0,0,1,4.24-2.81,4,4,0,0,1,4.29,4,3.34,3.34,0,0,1-1.63,2.79,2.92,2.92,0,0,1,2,3c0,2.42-2,3.94-4.6,3.94a4.73,4.73,0,0,1-4.66-3.08l1.87-1.08a2.91,2.91,0,0,0,2.79,2c1.44,0,2.32-.78,2.32-1.81,0-1.4-1.22-1.88-2.42-1.88H185v-2.09h.72c1.39,0,2.3-.51,2.3-1.86A1.86,1.86,0,0,0,186.05,144.44Z" transform="translate(1.94 2.95)" style="fill:#898f65"/><path d="M194.66,142.54H199a4.07,4.07,0,0,1,4.4,4.14,3.83,3.83,0,0,1-3,4l3.32,5.17h-2.66l-3.15-5h-1v5h-2.28Zm6.46,4.14c0-1.31-.92-2-2.38-2h-1.8v3.95h1.8C200.2,148.66,201.12,148,201.12,146.68Z" transform="translate(1.94 2.95)" style="fill:#898f65"/><path d="M218.31,149.19a6.37,6.37,0,0,1-6.57,6.65h-4.3v-13.3h4.3A6.37,6.37,0,0,1,218.31,149.19Zm-2.32,0a4.22,4.22,0,0,0-4.21-4.48h-2.06v9h2.06A4.23,4.23,0,0,0,216,149.19Z" transform="translate(1.94 2.95)" style="fill:#898f65"/><path d="M233.24,142.54h2.32l5.17,13.3h-2.3l-1.22-3.15h-5.62l-1.21,3.15h-2.3Zm-.83,8.06h4l-2-5.19Z" transform="translate(1.94 2.95)" style="fill:#898f65"/><path d="M247,156.29l-5.95-13.75h2.49l3.53,8.53,3.5-8.53H253Z" transform="translate(1.94 2.95)" style="fill:#898f65"/><path d="M258.42,147.94h5.32v2.16h-5.32v3.57h5.89v2.17h-8.17v-13.3h8.05v2.17h-5.77Z" transform="translate(1.94 2.95)" style="fill:#898f65"/><path d="M270.28,142.54l6.64,9.16v-9.16h2.28v13.3h-2.05l-6.65-9.14v9.14h-2.28v-13.3Z" transform="translate(1.94 2.95)" style="fill:#898f65"/><path d="M291.71,142.54H294V151a5.13,5.13,0,0,1-10.26,0v-8.47H286v8.19c0,1.9.95,3.17,2.85,3.17s2.85-1.27,2.85-3.17Z" transform="translate(1.94 2.95)" style="fill:#898f65"/><path d="M300.79,147.94h5.32v2.16h-5.32v3.57h5.89v2.17h-8.17v-13.3h8.05v2.17h-5.77Z" transform="translate(1.94 2.95)" style="fill:#898f65"/><path d="M409.43,222.64a2.44,2.44,0,0,0-1.62-2.26l.93-2a4.55,4.55,0,0,1,2.81,4.24,4,4,0,0,1-4,4.29,3.34,3.34,0,0,1-2.79-1.63,2.91,2.91,0,0,1-3,2c-2.41,0-3.93-2-3.93-4.6a4.73,4.73,0,0,1,3.08-4.66l1.08,1.86a2.93,2.93,0,0,0-2,2.8c0,1.44.78,2.32,1.8,2.32,1.41,0,1.88-1.22,1.88-2.42v-.95h2.09v.72c0,1.39.52,2.3,1.86,2.3A1.86,1.86,0,0,0,409.43,222.64Z" transform="translate(1.94 2.95)" style="fill:#898f65"/><path d="M397.8,235.41a5,5,0,0,1,3.08-4.66l1.08,1.9a3.06,3.06,0,0,0-2,2.76,2.32,2.32,0,0,0,2.47,2.43c1.42,0,2.47-.86,2.47-2.83a6.52,6.52,0,0,0-1.45-3.57h7.91v8.36h-2.17v-6.08h-2.6a4.55,4.55,0,0,1-4.16,6.42A4.49,4.49,0,0,1,397.8,235.41Z" transform="translate(1.94 2.95)" style="fill:#898f65"/><path d="M409.16,246.6v-3.67h2.17v9.61h-2.17v-3.66H398V246.6Z" transform="translate(1.94 2.95)" style="fill:#898f65"/><path d="M411.33,263.89v2.28H398v-2.28h5.72v-5.68H398v-2.28h13.3v2.28h-5.42v5.68Z" transform="translate(1.94 2.95)" style="fill:#898f65"/><path d="M403.58,282.2c.68-1.95,1.74-4.16,4.21-4.16,1.88,0,3.76,1.67,3.76,4.35a5.7,5.7,0,0,1-2.1,4.33l-1.56-1.57a3.83,3.83,0,0,0,1.5-2.76,1.83,1.83,0,0,0-1.6-2c-1.16,0-1.52,1-2.2,2.87-.76,2-1.67,3.72-4.09,3.72s-3.7-2.13-3.7-4.63a5.82,5.82,0,0,1,2.72-4.87l1.44,1.71a4.06,4.06,0,0,0-2,3.16c0,1.14.45,2.31,1.53,2.31S403,283.78,403.58,282.2Z" transform="translate(1.94 2.95)" style="fill:#898f65"/><path d="M409.16,293.53v-3.67h2.17v9.61h-2.17v-3.66H398v-2.28Z" transform="translate(1.94 2.95)" style="fill:#898f65"/><path d="M411.33,302.86v4.37a4.07,4.07,0,0,1-4.14,4.4,3.83,3.83,0,0,1-4-3L398,312v-2.66l5-3.15v-1h-5v-2.28Zm-4.14,6.46c1.31,0,2-.92,2-2.38v-1.8h-4v1.8C405.21,308.4,405.87,309.32,407.19,309.32Z" transform="translate(1.94 2.95)" style="fill:#898f65"/><path d="M405.93,317.92v5.32h-2.16v-5.32h-3.58v5.89H398v-8.17h13.3v8.06h-2.17v-5.78Z" transform="translate(1.94 2.95)" style="fill:#898f65"/><path d="M405.93,330v5.32h-2.16V330h-3.58v5.89H398v-8.17h13.3v8h-2.17V330Z" transform="translate(1.94 2.95)" style="fill:#898f65"/><path d="M409.16,342.34v-3.67h2.17v9.61h-2.17v-3.66H398v-2.28Z" transform="translate(1.94 2.95)" style="fill:#898f65"/><path d="M139.43,222.06a2.44,2.44,0,0,0-1.62-2.26l.93-2a4.53,4.53,0,0,1,2.81,4.23c0,2.43-1.53,4.3-4,4.3a3.34,3.34,0,0,1-2.79-1.64,2.91,2.91,0,0,1-3,2c-2.41,0-3.93-2-3.93-4.6a4.73,4.73,0,0,1,3.08-4.65l1.08,1.86a2.93,2.93,0,0,0-2,2.79c0,1.45.78,2.32,1.8,2.32,1.41,0,1.88-1.22,1.88-2.41v-1h2.09v.72c0,1.39.52,2.3,1.86,2.3A1.87,1.87,0,0,0,139.43,222.06Z" transform="translate(1.94 2.95)" style="fill:#898f65"/><path d="M141.33,236v2.55H133V240h-2.12V238.5H128v-2.28h2.89v-7Zm-8.29.31h5.15L133,232.91Z" transform="translate(1.94 2.95)" style="fill:#898f65"/><path d="M139.16,246.17v-3.66h2.17v9.61h-2.17v-3.67H128v-2.28Z" transform="translate(1.94 2.95)" style="fill:#898f65"/><path d="M141.33,263.46v2.28H128v-2.28h5.72v-5.68H128V255.5h13.3v2.28h-5.42v5.68Z" transform="translate(1.94 2.95)" style="fill:#898f65"/><path d="M133.58,281.78c.68-2,1.74-4.16,4.21-4.16,1.88,0,3.76,1.67,3.76,4.35a5.73,5.73,0,0,1-2.1,4.33l-1.56-1.58a3.83,3.83,0,0,0,1.5-2.75,1.83,1.83,0,0,0-1.6-2c-1.16,0-1.52,1-2.2,2.86-.76,2-1.67,3.73-4.09,3.73s-3.7-2.13-3.7-4.64a5.81,5.81,0,0,1,2.72-4.86l1.44,1.71a4.06,4.06,0,0,0-2,3.15c0,1.14.45,2.32,1.53,2.32S133,283.36,133.58,281.78Z" transform="translate(1.94 2.95)" style="fill:#898f65"/><path d="M139.16,293.1v-3.66h2.17v9.61h-2.17v-3.67H128V293.1Z" transform="translate(1.94 2.95)" style="fill:#898f65"/><path d="M141.33,302.43v4.37a4.08,4.08,0,0,1-4.15,4.41,3.83,3.83,0,0,1-4-3L128,311.57v-2.66l5-3.15v-1.05h-5v-2.28Zm-4.15,6.46c1.32,0,2-.91,2-2.37v-1.81h-3.95v1.81C135.21,308,135.87,308.89,137.18,308.89Z" transform="translate(1.94 2.95)" style="fill:#898f65"/><path d="M135.93,317.5v5.32h-2.16V317.5h-3.58v5.89H128v-8.17h13.3v8h-2.17V317.5Z" transform="translate(1.94 2.95)" style="fill:#898f65"/><path d="M135.93,329.58v5.32h-2.16v-5.32h-3.58v5.89H128V327.3h13.3v8.06h-2.17v-5.78Z" transform="translate(1.94 2.95)" style="fill:#898f65"/><path d="M139.16,341.91v-3.66h2.17v9.61h-2.17v-3.67H128v-2.28Z" transform="translate(1.94 2.95)" style="fill:#898f65"/><path d="M353.89,85.79l3,3c1.54,1.53,2.29,3.71.31,5.69a2.74,2.74,0,0,1-2.71.75,3.09,3.09,0,0,1-.74,3.66c-1.65,1.66-4.15,1.42-5.92-.36l-3.39-3.38Zm-1.74,11.52c.89-.89.58-1.92-.31-2.81l-1.72-1.72-2.5,2.5L349.34,97C350.23,97.88,351.27,98.19,352.15,97.31Zm.89-4.68c.9.9,1.75,1.08,2.57.26s.53-1.78-.26-2.57L354,88.94l-2.31,2.31Z" transform="translate(1.94 2.95)" style="fill:#898f65"/><path d="M363,94.93,366.11,98a4.07,4.07,0,0,1,.19,6,3.83,3.83,0,0,1-4.92.73l-1.3,6-1.88-1.88,1.32-5.77-.74-.74L355.23,106l-1.61-1.62Zm1.64,7.5c.93-.93.75-2.05-.28-3.08l-1.28-1.28-2.79,2.8,1.27,1.27C362.62,103.18,363.73,103.35,364.66,102.43Z" transform="translate(1.94 2.95)" style="fill:#898f65"/><path d="M376.33,117.65a6.73,6.73,0,1,1,.11-9.62A6.61,6.61,0,0,1,376.33,117.65ZM374.7,116a4.42,4.42,0,1,0-6.45.21A4.45,4.45,0,0,0,374.7,116Z" transform="translate(1.94 2.95)" style="fill:#898f65"/><path d="M386.22,118.13l1.64,1.64-5.75,13.06-1.62-1.63,1.37-3.09-4-4-3.09,1.37-1.62-1.63Zm-6.28,5.11,2.82,2.82L385,121Z" transform="translate(1.94 2.95)" style="fill:#898f65"/><path d="M396.78,138.09a6.36,6.36,0,0,1-9.35.06l-3-3,9.4-9.4,3,3A6.35,6.35,0,0,1,396.78,138.09Zm-1.64-1.63a4.23,4.23,0,0,0,.19-6.16l-1.45-1.45-6.34,6.34,1.45,1.45A4.23,4.23,0,0,0,395.14,136.46Z" transform="translate(1.94 2.95)" style="fill:#898f65"/><path d="M402.57,153.93l4.23-9.87-9.91,4.19,6-13.43,1.83,1.83-3.66,7.63,7.78-3.51,1.33,1.33-3.55,7.74,7.69-3.6,1.68,1.68Z" transform="translate(1.94 2.95)" style="fill:#898f65"/><path d="M420,152l1.64,1.64-5.75,13L414.3,165l1.37-3.09-4-4-3.09,1.37L407,157.7Zm-6.29,5.1,2.82,2.82,2.26-5.07Z" transform="translate(1.94 2.95)" style="fill:#898f65"/><path d="M421.34,172.06l-1.61-1.61,3.71-3.71,2.48-8.91,1.78,1.78-1.91,6.5,6.5-1.91,1.67,1.67-8.91,2.48Z" transform="translate(1.94 2.95)" style="fill:#898f65"/></svg>