<svg id="b6f03071-f7e3-4573-9525-8af24d69ea33" data-name="Layer 1" xmlns="http://www.w3.org/2000/svg" viewBox="0 0 534.1 534.1">
  <title>map--weatherstone</title>
  <path d="M370,404H133V167H370ZM101,167H19.27A267.46,267.46,0,0,0,38.09,404H101Zm301-32h97.52A268.34,268.34,0,0,0,402,36.09Zm-269,0H370V20.1A267.53,267.53,0,0,0,133,35.63ZM402,404h94.13A267.46,267.46,0,0,0,515,167H402Zm-32,32H133v61.56a267.44,267.44,0,0,0,237,15.53ZM101,135V57.51A268.27,268.27,0,0,0,34.7,135ZM402,436v61.11A268.27,268.27,0,0,0,473.55,436Zm-301,0H60.67A268.36,268.36,0,0,0,101,475.69Z" transform="translate(-0.06 0.45)" style="fill: #d4cd9f"/>
  <path d="M340.8,277.49c-.92,2.17-1.32,2.54-3.22,3,.42,2.95-1.56,4.71-4.27,4a9.11,9.11,0,0,1-.48,1.39,3.2,3.2,0,0,1-5.11.84c-2-1.7-4-3.43-6-5.15l-6.46-5.54-.77-.65c-1.46,1.27-1.19,1.06-2.46,0q-5.17-4.4-10.32-8.82c-.92-.79-.93-.83-.15-1.74,4.58-5.36,9.17-10.7,13.72-16.07.56-.66,1-.73,1.64-.15q16.8,14.4,33.62,28.78a3.17,3.17,0,0,1,1.08,3.67,3,3,0,0,1-3,2,4.69,4.69,0,0,1-2.22-.92c-1.63-1.27-3.16-2.67-4.74-4Zm-12.93-17.87-12.63,14.77,7.27,6.22a3.37,3.37,0,0,1,3.44-2.95c0-1.8.13-2.56,1.08-3.13,1.33-.79,1.41-2.4,2.52-3.4a2,2,0,0,0-.79.05,9.41,9.41,0,0,1-5.21-1.25c-.22-.13-.28-.55-.42-.83a2.35,2.35,0,0,1,.9-.19,14.73,14.73,0,0,1,1.52.57,6.36,6.36,0,0,0,5.94-.45c.27-.18.72-.09,1.09-.12-.08.36-.06.82-.27,1.08-.77,1-1.64,1.95-2.46,2.93a2.13,2.13,0,0,0,.2,3.25,2.18,2.18,0,0,0,3-.5c1-1.18,2.05-2.35,3-3.56a4,4,0,0,0-.48-5.85c-1.17-1-2.37-2-3.56-3.05Zm-3.46-2.9-13.67,16,2.41,2.06,13.66-16Zm13,16.06-.16,0s0,.08,0,.1c3.39,2.92,6.78,5.86,10.21,8.75a1.74,1.74,0,0,0,2.29-.06c1.14-.87,1.08-2.24-.18-3.32q-5.31-4.57-10.66-9.11c-.13-.12-.28-.22-.3-.24ZM326.64,284.2h0c.72.62,1.43,1.26,2.17,1.85a1.91,1.91,0,0,0,2.65-.27,1.83,1.83,0,0,0-.08-2.64c-1.47-1.32-3-2.6-4.49-3.84a1.91,1.91,0,0,0-2.66.31,2,2,0,0,0,.23,2.73C325.18,283,325.92,283.58,326.64,284.2Zm1.42-8.81a1.75,1.75,0,0,0-.33,2.86c1.82,1.63,3.68,3.22,5.54,4.8a1.75,1.75,0,0,0,2.29.05c1.23-.84,1.15-2.34-.18-3.44-.75-.63-1.51-1.27-2.29-1.86a1,1,0,0,0-.73-.17C330.07,278,329.06,277.53,328.06,275.39Zm5.73,1.32c.87.74,1.6,1.39,2.36,2a1.91,1.91,0,0,0,2.73-.14,1.87,1.87,0,0,0-.05-2.73,20.72,20.72,0,0,0-2-1.73.81.81,0,0,0-.77,0C335.28,274.92,334.58,275.78,333.79,276.71Z" transform="translate(-0.06 0.45)" style="fill: #332e20"/>
  <text transform="translate(208.74 428.29)" style="font-size: 19px;fill: #898f65;font-weight: 700;letter-spacing: 0.08999794407894737em">I STREET</text>
  <text transform="translate(206.02 159.29)" style="font-size: 19px;fill: #898f65;font-weight: 700;letter-spacing: 0.08999794407894737em">H STREET</text>
  <text transform="translate(380.95 223.11) rotate(90)" style="font-size: 19px;fill: #898f65;font-weight: 700;letter-spacing: 0.08999794407894737em">21ST STREET</text>
  <text transform="translate(109.95 220.19) rotate(90)" style="font-size: 19px;fill: #898f65;font-weight: 700;letter-spacing: 0.08999794407894737em">20TH STREET</text>
</svg>
