<svg id="1f83465a-5a36-431d-9685-ee3ad74a752b" data-name="Layer 1" xmlns="http://www.w3.org/2000/svg" viewBox="0 0 533.6 533.6">
  <title>map--oak</title>
  <path d="M153,405V168h149.1A90.86,90.86,0,0,0,372,135.08l18,18V405Zm0-269H302a58.94,58.94,0,0,0,47.23-23.69L239,2A265.13,265.13,0,0,0,153,26.1ZM390,30.47A265.37,265.37,0,0,0,283.22,1.05L390,107.84Zm143.64,221A265.72,265.72,0,0,0,515,168H450.18Zm-1,44.27L422,185.1V405h74.11A265.22,265.22,0,0,0,532.68,295.76ZM121,437H60.67A268.48,268.48,0,0,0,121,491.15ZM422,136h77.5A268.34,268.34,0,0,0,422,50.05ZM390,437H153v72.1a267.46,267.46,0,0,0,237-4.37Zm32,0v48.15A268.72,268.72,0,0,0,473.55,437ZM121,136V44A268.47,268.47,0,0,0,34.7,136Zm0,269V168H19.27A267.46,267.46,0,0,0,38.09,405Z" transform="translate(-0.06 -1.05)" style="fill: #d4cd9f"/>
  <path d="M367.83,221.38c-.92,2.17-1.33,2.54-3.23,3,.43,2.95-1.55,4.71-4.27,4a8.12,8.12,0,0,1-.47,1.39,3.21,3.21,0,0,1-5.12.84c-2-1.7-4-3.43-6-5.15L342.24,220l-.76-.65c-1.46,1.27-1.19,1.06-2.46,0q-5.17-4.4-10.32-8.82c-.93-.79-.93-.83-.15-1.74,4.58-5.36,9.16-10.7,13.72-16.07.56-.66,1-.73,1.63-.15q16.8,14.4,33.63,28.78a3.17,3.17,0,0,1,1.08,3.67,3,3,0,0,1-3,2,4.69,4.69,0,0,1-2.22-.92c-1.63-1.27-3.17-2.67-4.74-4ZM354.9,203.51l-12.63,14.77,7.27,6.22a3.37,3.37,0,0,1,3.43-2.95c0-1.8.14-2.56,1.09-3.13,1.32-.79,1.41-2.4,2.51-3.4a2,2,0,0,0-.78,0,9.39,9.39,0,0,1-5.21-1.25c-.22-.13-.29-.55-.42-.83a2.35,2.35,0,0,1,.9-.19,14.56,14.56,0,0,1,1.51.57,6.38,6.38,0,0,0,5.95-.45c.27-.18.72-.09,1.09-.12-.09.36-.06.82-.27,1.08-.78,1-1.64,2-2.46,2.93a2.13,2.13,0,0,0,.2,3.25,2.18,2.18,0,0,0,3-.5c1-1.18,2.05-2.35,3-3.56a4,4,0,0,0-.48-5.85c-1.17-1-2.37-2-3.56-3.05Zm-3.47-2.9-13.66,16,2.41,2.06,13.66-16Zm13,16.06-.17,0s0,.08,0,.1c3.4,2.92,6.79,5.86,10.21,8.75a1.74,1.74,0,0,0,2.29-.06c1.14-.87,1.08-2.24-.17-3.32Q371.29,217.52,366,213a2.67,2.67,0,0,0-.31-.24Zm-10.77,11.42h0c.73.62,1.44,1.26,2.18,1.85a1.91,1.91,0,0,0,2.65-.27,1.83,1.83,0,0,0-.08-2.64c-1.47-1.32-3-2.6-4.5-3.84a1.9,1.9,0,0,0-2.65.31,2,2,0,0,0,.23,2.73C352.21,226.87,353,227.47,353.67,228.09Zm1.41-8.81a1.76,1.76,0,0,0-.33,2.86c1.83,1.63,3.68,3.22,5.55,4.8a1.75,1.75,0,0,0,2.29.05c1.23-.84,1.15-2.34-.18-3.45-.76-.62-1.51-1.26-2.29-1.85a1.06,1.06,0,0,0-.74-.17C357.1,221.92,356.09,221.42,355.08,219.28Zm5.74,1.32c.87.74,1.6,1.39,2.36,2a1.91,1.91,0,0,0,2.73-.14,1.89,1.89,0,0,0-.05-2.73,19.72,19.72,0,0,0-2-1.73.79.79,0,0,0-.76,0C362.31,218.81,361.61,219.67,360.82,220.6Z" transform="translate(-0.06 -1.05)" style="fill: #332e20"/>
  <text transform="translate(181.83 427.79)" style="font-size: 19px;fill: #898f65;font-weight: 700;letter-spacing: 0.08999794407894737em">4TH <tspan x="46.89" y="0" style="letter-spacing: 0.010999177631578948em">A</tspan><tspan x="59.98" y="0">VENUE</tspan></text>
  <text transform="translate(182.65 158.79)" style="font-size: 19px;fill: #898f65;font-weight: 700;letter-spacing: 0.08999794407894737em">3RD <tspan x="47.25" y="0" style="letter-spacing: 0.010999177631578948em">A</tspan><tspan x="60.34" y="0">VENUE</tspan></text>
  <text transform="translate(399.96 220.25) rotate(90)" style="font-size: 19px;fill: #898f65;font-weight: 700;letter-spacing: 0.08999794407894737em">35TH STREET</text>
  <text transform="translate(129.96 219.68) rotate(90)" style="font-size: 19px;fill: #898f65;font-weight: 700;letter-spacing: 0.08999794407894737em">34TH STREET</text>
  <text transform="translate(345.42 97.16) rotate(45)" style="font-size: 19px;fill: #898f65;font-weight: 700;letter-spacing: 0.08999794407894737em">BR<tspan x="25.71" y="0" style="letter-spacing: 0.07401315789473684em">O</tspan><tspan x="41.86" y="0">A</tspan><tspan x="56.45" y="0" style="letter-spacing: 0.06799958881578948em">D</tspan><tspan x="70.66" y="0" style="letter-spacing: 0.01801500822368421em">W</tspan><tspan x="89.68" y="0" style="letter-spacing: 0.030016447368421052em">A</tspan><tspan x="103.13" y="0">Y</tspan></text>
</svg>
