<svg id="dc4e1218-b0be-4657-80c3-0f32f65a849a" data-name="Layer 1" xmlns="http://www.w3.org/2000/svg" viewBox="0 0 37.82 30.71">
  <title>social--twitter</title>
  <path d="M37.82,3.65a16.08,16.08,0,0,1-3.89,4c0,.23,0,.56,0,1A22,22,0,0,1,33,14.89a22.51,22.51,0,0,1-2.77,6,23.26,23.26,0,0,1-4.43,5,19.69,19.69,0,0,1-6.19,3.51,22.68,22.68,0,0,1-7.75,1.3A21.53,21.53,0,0,1,0,27.23a15.19,15.19,0,0,0,1.87.1A15.14,15.14,0,0,0,11.49,24a7.76,7.76,0,0,1-7.24-5.38,9.77,9.77,0,0,0,1.46.12,7.82,7.82,0,0,0,2-.26A7.67,7.67,0,0,1,3.3,15.83a7.48,7.48,0,0,1-1.76-4.94V10.8a7.64,7.64,0,0,0,3.5,1A7.61,7.61,0,0,1,2.52,9a7.56,7.56,0,0,1-.94-3.69A7.63,7.63,0,0,1,2.64,1.42,22,22,0,0,0,9.71,7.14a21.57,21.57,0,0,0,8.91,2.39,8.49,8.49,0,0,1-.19-1.78A7.44,7.44,0,0,1,20.7,2.27a7.76,7.76,0,0,1,11.14.18A15.23,15.23,0,0,0,36.76.58a7.52,7.52,0,0,1-3.41,4.27A15.48,15.48,0,0,0,37.82,3.65Z" style="fill: #cfa455"/>
</svg>
