<svg data-name="Layer 1" xmlns="http://www.w3.org/2000/svg" viewBox="0 0 15 20.79"><g fill="#898f65"><path d="M7.7 0c.17.21.34.42.52.62l1 1.14a.19.19 0 0 0 .25.06l2-.77h.11l.21 1.09c.06.36.13.72.19 1.08a.18.18 0 0 0 .16.17l2 .54.15.05c-.11.31-.22.61-.34.92s-.27.74-.42 1.11a.23.23 0 0 0 .06.27c.44.46.87.93 1.31 1.4a.36.36 0 0 1 .08.09l-.82.65-.75.58a.16.16 0 0 0-.07.2c.17.62.33 1.24.51 1.89l-.72.14c-.47.08-.93.17-1.4.27a.24.24 0 0 0-.14.12 1.23 1.23 0 0 0 .05 1c.9 2.07 1.78 4.16 2.66 6.24a2.07 2.07 0 0 1 .08.2L13 19l-1.54-.07a.38.38 0 0 0-.31.11L9.4 20.69l-.1.1-.88-2.9c-.3-1-.59-1.92-.88-2.88L5.9 20.79l-.49-.45-1.57-1.48a.23.23 0 0 0-.25-.07c-.83.23-1.68.44-2.52.66H.89c0-.15.09-.28.14-.41l2.4-6.77a.41.41 0 0 0 0-.22c0-.21-.1-.41-.14-.61a.19.19 0 0 0-.17-.16l-1.92-.46h-.1l.29-1c.08-.3.16-.6.25-.9 0-.09 0-.14-.07-.21L.1 7.41 0 7.3a.71.71 0 0 0 .17-.11c.47-.44.93-.9 1.41-1.34a.22.22 0 0 0 .06-.27C1.42 5 1.22 4.47 1 3.92v-.17l1-.27c.37-.11.74-.22 1.12-.3a.29.29 0 0 0 .24-.26c.14-.66.28-1.32.43-2a1 1 0 0 1 0-.11l.4.15L6 1.68a.19.19 0 0 0 .26-.05C6.7 1.08 7.19.54 7.67 0zm-.2 11.46a4.29 4.29 0 1 0-4.26-4.32 4.29 4.29 0 0 0 4.26 4.32zm5.86 6.89v-.1l-2-4.5a.28.28 0 0 0-.16-.12L9.27 13a.18.18 0 0 0-.22.05c-.29.31-.59.62-.89.92a.26.26 0 0 0-.07.28c.46 1.51.9 3 1.35 4.54.07.22.13.43.2.67l.12-.1L11 18.22a.35.35 0 0 1 .22-.08l.85.09zm-7.73.89V19.23Q6.31 16.77 7 14.3a.2.2 0 0 0 0-.18l-1.15-1.2a.15.15 0 0 0-.21 0l-1.7.74a.3.3 0 0 0-.12.15l-1.7 4.31a1.55 1.55 0 0 0 0 .15l.2-.07 1.52-.53a.2.2 0 0 1 .26.06c.21.23.43.46.65.68z"/><path d="M7.52 3.73a3.44 3.44 0 1 1-3.43 3.43 3.45 3.45 0 0 1 3.43-3.43z"/></g></svg>