<svg data-name="Layer 1" xmlns="http://www.w3.org/2000/svg" viewBox="0 0 377.4 245.44"><g fill="#c5c8b2"><path d="M229.09 100.68c.76-.71.76.44 1.21.49.07.1.13.24.22.27a6.81 6.81 0 012.18.84.18.18 0 00.29-.08c.09-.22.07-.6.47-.46s-.07.5.18.68c.05.25-.51.61.14.75l.34.13a6.12 6.12 0 011.69 2.73c.26.53.76.91 1 1.49a.67.67 0 001 .21 2.93 2.93 0 001.39-1.84c.09-.41.09-.79.68-.85.24 0 .42-.38.52-.73a2.42 2.42 0 011.6-1.75c.47-.1.83 1 1.38.13h.05c1.22-.18 2-1.24 3.12-1.62 1.33-.12 2.66-.28 4-.5a3 3 0 011.55.07 16.88 16.88 0 003.06.52 11.43 11.43 0 002.55.25c.45 0 .92.15 1 .71 0 .35.05.48.45.3s1.23.26 1.07.79c-.21.72.17 1 .71 1 2.32.11 3.62 1.75 4.9 3.31.35.41 1 1.14 1 1.34-.12.85.67 1.53.32 2.36-.14.33 0 .55.19.86a2.17 2.17 0 01.57 1.94v.17c.81.94.55 2.15.66 3.21.18 1.61 1.08 3.11.71 4.79.66.84.48 1.89.7 2.83a12.65 12.65 0 01.45 3.07 4.7 4.7 0 00.31 1.55 4.59 4.59 0 01.12 2.86 1.21 1.21 0 000 .6 16.52 16.52 0 01-.07 5.48 20.13 20.13 0 01-.08 2.19c-.09.33-.55.58-.27 1a3.17 3.17 0 01-.25 1.64 2.55 2.55 0 000 1.57c.12.79-.31 1.52-.29 2.28 0 .43-.33 1 .35 1.29.23.1.09.31 0 .45a17.54 17.54 0 00-2.23 4.66h-.12v.08l.1-.07.18.19c-.65.46-.38 1-.1 1.51a.38.38 0 01-.06.34c-1 .92-1 2.29-1.61 3.32s-1.08 2-2.28 2.3c-.05 0-.13.05-.14.09-.31 1.44-1.82 2.27-1.83 4 0 .86-.1 2.1-1.47 2.47-.49.13-.58 1-1.21 1.27-.26.11-.48.39-.82.43a.5.5 0 00-.27.16c.23.61-.41.77-.64.85-1.53.55-2.49 1.86-3.77 2.73a47.65 47.65 0 01-4.79 2.9 10.28 10.28 0 01-4 1.27c-.47 0-.61.5-1.05.58a16.39 16.39 0 00-3 .86 8.7 8.7 0 01-2.47.13 8.65 8.65 0 00-2.12.32 21.29 21.29 0 01-2.9.46 18 18 0 01-8-.24 18.6 18.6 0 01-3.83-1.57c-1.43-.74-3-1.28-4.45-1.93a5.86 5.86 0 01-2.73-2.57 9 9 0 01-1.23-2.23c-.1-.37-.6-.12-.76-.33a6.62 6.62 0 01-1.23-1.8 2.71 2.71 0 00-1.25-1.86c-.12-.06-.18-.22-.27-.34a6.5 6.5 0 00-1.69-2.09c-.81-.51-.86-1.55-1-2.41a4.14 4.14 0 00-.35-1.26 30.94 30.94 0 01-1.15-3 7.77 7.77 0 00-1.28-1.59c-.28.24-.68 1.34-.8-.08 0-.14-.32-.24-.48-.37s-.53-.39 0-.7a.74.74 0 00.12-1 1.22 1.22 0 01.06-1.45c.66-.94.58-1.13-.52-1.63-.43-.2-.12-.66-.38-1s.22-.22.36-.31c.6-.39.59-.94 0-1.3-.29-.16-.64-.54-.58-.69.35-.87-.34-.52-.81-.56a3 3 0 00.34-2.86c-.06-.2.06-.31.21-.43a.76.76 0 00.28-.8c-.78-1.65.16-3.26.08-4.89 0-.56-.45-.74-1.23-.58a16.85 16.85 0 01-4.46.68 1.74 1.74 0 01-.69-.15c-1.9-.94-4.05-.79-6-1.35a18.35 18.35 0 01-2.43-.49.84.84 0 01-.44-.39c-.91-1.57-1.65-1.6-2.79-.09A17 17 0 00183 138c-.44.77-1.16 1.41-1.14 2.41 0 .1-.07.29-.14.3-1 .2-.95 1.17-1.39 1.78-.06.08 0 .3-.16.24-1.09-.4-1 .51-1.09 1a1.71 1.71 0 01-.64 1.2.71.71 0 00-.27.44c-.18 1.38-1.21 2.25-1.91 3.33a3.31 3.31 0 00-.54 2.25c.05.37.12.85-.22 1-.77.28-1 1.14-1.69 1.45-.26.11-.11.29-.18.42s0 .36-.31.31c-.89-.18-1.29.48-1.83 1-.77.72-1.39 1.69-2.57 1.85a.64.64 0 00-.44.25c-.58.66-1.11 1.39-2.16 1.22-.22 0-.25.19-.26.38 0 .65-.38.64-.84.4 0-.49-.32-.67-.64-.92-.26.94-.26.94.66.91-.23.58-.49 1.11-1.28.85a.51.51 0 00-.57.29c-.31.83-1.21.84-1.75 1.34s-1 .54-1.36-.52c0 1.34-1 1.08-1.58 1.48a7.34 7.34 0 01-1.19.88c-.34.17-.56.49-1 .33a.33.33 0 00-.31.08c-.79.75-.79.75-2.38.68-.15 0-.28.12-.32.33-.07.37-.21.73-.31 1.09s-.37.5-.47.27c-.3-.71-.53-.11-.64 0a1.67 1.67 0 01-2.24.7.92.92 0 00-1 .09c-.37.26-.75.62-1.29.46a.33.33 0 00-.3.15c-.48 1.32-1.81 1-2.81 1.57.1-1 .84-1.08 1.4-1.05s.66-.35.79-.72-.18-.61-.49-.71a2.78 2.78 0 00-2.46.14c-.42.26-1.11 0-1.62.31-.13.07-.37.07-.4.15-.27 1-1.12.45-1.69.63-.11 0-.44.12-.43-.13 0-.47-.12-.6-.56-.42s-.53.41-.24.79c0 0 0 .15-.08.27-.43-.1-.34-.55-.61-.78-.93-.77-1.66-.1-2.42.2-.5.2-.95-.12-1.48.08a.89.89 0 01-1.28-.7c-.06-.27-.42-.44-.59.07-.31.94-1.29 1-2 1.38s-1.06-.16-1.33-.72-.41-.8-.85-.22a.34.34 0 01-.54.07c-.56-.52-1.32-.76-1.85-1.33-.35-.38-.8.07-1.22 0-.2 0-.43 0-.58-.15a1.57 1.57 0 00-1.37-.47c-.46.06-.78-.17-.62-.69s-.11-.72-.4-1l-2.27-1.94c-.1-.09-.2-.18-.29-.09-.81.76-.68-.22-.79-.48a1.45 1.45 0 00-1-1 1.87 1.87 0 01-1-.79c-.7-1.23-2.06-1.83-2.8-3.07-.33-.56-.7-1.3-1.48-1.54-.19-.06-.19-.34-.25-.54a1.57 1.57 0 00-.37-.79c-1.06-.83-1.18-2.12-1.74-3.2-.39-.73-.93-1.44-1.37-2.18-.25-.42-.66-.76-.64-1.33a.45.45 0 00-.19-.37c-1.34-.48-.71-1.51-.7-2.38 0-.3.44-.77-.28-.89-.26 0-.12-.3-.06-.44a4.07 4.07 0 00-.17-2.71 2.29 2.29 0 010-1.55c.32-.64-.31-1.52.54-2-.08-.13-.26-.12-.33-.32a7.16 7.16 0 01-.08-2.65.48.48 0 01.37-.45c.11 0 .28-.1.29-.16.22-1.42 1.36-2.37 1.92-3.63.68-1.53 1.46-3 2.29-4.53a25.63 25.63 0 001.14-2.75 1.86 1.86 0 011.22-1.27c.44-.14.53-.86.71-1.35s.59-.86 1.19-.45h.06-.08c.06-.11.18-.21.17-.31-.12-1.46 1-1.87 2-2.34a8.83 8.83 0 002.87-2.57 24.76 24.76 0 015.15-4.48 2.91 2.91 0 001.11-1.91c.15-.7.53-.86 1.06-.65a1.11 1.11 0 001.27-.31c.44-.38.85-.83 1.54-.56a.33.33 0 00.38-.16c1.07-1.56 2.79-2.28 4.31-3.21a15.8 15.8 0 012.49-.75 3.59 3.59 0 001.49-1 .83.83 0 011.1-.26c.82.42 1.48-.14 2.2-.31.34-.09.28-.42.33-.67.21-1 .94-1.33 1.79-.73a1.36 1.36 0 001.68.11c.54-.32.58-.58.27-1a9.2 9.2 0 01-1.4-2.8 9.56 9.56 0 01-.69-2.66c0-1-.13-2 0-3a9.55 9.55 0 01.7-2.49c.2-.54.18-1.16.32-1.66a8.59 8.59 0 011.64-3.56.93.93 0 00.33-.59 4.15 4.15 0 011.15-2c.43-.58.85-1.16 1.3-1.73a19.82 19.82 0 013.75-3.57c.85-.65 1.58-1.44 2.35-2.16 0 0 .05-.15.07-.15 1.3 0 1.73-1.36 2.84-1.69.49-.14.81-.71 1.28-1s.84-.73 1.54-.64c-.22-.54-.3-1-.88-1.13a.34.34 0 01-.2-.44c.05-.17.2-.19.36-.16.68.15 1.43-.1 2 .71a1.08 1.08 0 001.51.14 3.62 3.62 0 012.29-.75c.53.09.75.06.92-.45s.36-.68.71-.11c.21.35.31-.13.54-.12 1.2 0 2.52-.43 3.56-.19 1.3.3 1.72-.66 2.55-.89a7.14 7.14 0 012.37-.22c1.45.12 2.91.23 4.36.33.08 0 .17-.14.25-.22.53-.09 1.16.26 1.56-.37l.53.22c.1 1 1 .59 1.37.57a11.51 11.51 0 013.37.21c.65.16 1.25.4 1.84-.11.08-.07.25-.16.31 0 .31.65 1 .43 1.46.57 1.19.35 2.21 1.39 3.64 1a1.15 1.15 0 01.92.21c.79.87 2 .6 2.94 1.2.19.12.51.56.9.23a.42.42 0 00.53 0l.29.21c0 .19.15.25.32.24l.35.07a28.76 28.76 0 003.58 2.27 24.73 24.73 0 013.54 2.9 15.51 15.51 0 002.35 2 14.15 14.15 0 012.11 1.93c.22.25.09.73.56.81.65.11.77.65.89 1.14 0 .21 0 .41.24.52.71.35 1.05 1.06 1.55 1.62a35.33 35.33 0 014 6.68c1 1.94 2.32 3.81 2.72 6 .26 1.41 1 2.68 1.06 4.13.09.21.28.46.23.64-.16.52-.09 1 .48.86s.84.49 1.25.06a.87.87 0 011.06-.13.93.93 0 001.05-.13zm-93 39c.68 0 .87-.46.9-1 .05-.94 0-1.76-1.28-1.7 0 0-.1-.05-.14-.09-.93-.76-1.32-.71-2.13.21-.17.2-.43.35-.33.67s.52.06.77.17c-.74.78-.69 1 .25 1.5.62.34 1.37-.2 2 .33-.19-.16-.3 0-.38.12s.08.14.13.14.22-.22.26-.35zm25.66-19.46a5.57 5.57 0 002.48.11c1.53-.4 1.71-1.83 2.48-2.8.11-.13 0-.39 0-.35-.42.33-.84-.19-1.27 0a2.33 2.33 0 01-1.67.35 3.21 3.21 0 00-1.66.36c-.25.1-.68.33-.32.88.25.38.09.94 0 1.42-.06-.07-.12-.07-.16 0s0 0 0 .07zm80.55 13.68h-.3a.2.2 0 00.26.14c-.27.39.21.79 0 1.2-.11.19-.23.51.09.6a.57.57 0 00.72-.33 14.62 14.62 0 011.58-2.22c1-1.23 1.79-2.59 2.81-3.79a.71.71 0 00.1-1 2.49 2.49 0 01-.24-1.11c-.13-.77.17-1.64-.54-2.39-.47.86-.61 1.81-1.33 2.43a.42.42 0 00-.1.33c.18.34 0 .37-.27.55a7.44 7.44 0 00-2.1 3c-.35.79-.27 1.77-.63 2.59zm18.88-20.48c-.31 1 .94 1.36.87 2.34.86-.59 1.44-.38 1.82.49.3-.36.49-.76.19-1a6.84 6.84 0 00-2.91-1.8c.07-.71-.56-.9-1-1.07a8.54 8.54 0 01-3.65-2.64c-1-1.34-2-.35-2.9-.73.43-1.1 2-.92 2.65-1.86a2.73 2.73 0 00.27.14c.43.13.9.71 1 .69 1.19-.19 1.4.87 1.91 1.46a2.09 2.09 0 001.94.76c.26-.07.38-.18.17-.42a17.18 17.18 0 00-2.91-2.41 6.17 6.17 0 00-2.16-1c-.94-.23-1.5-1.27-2.6-1.16-.2 0-.47-.34-.25-.7.51-.81.5-.81-.51-.89a1.77 1.77 0 01-.52-.08 9.66 9.66 0 00-4.68-.34c-.42.05-.84.59-1.29-.06-.14-.2-.29.13-.4.3s-.08.71-.54.7-.66.29-.73.7a1.39 1.39 0 01-.59 1 .63.63 0 00-.31.71c.08.62-.76.68-.93 1.14s-.4.54-.83.32-.71-.09-.57.46c0 .14.29.25.05.43s-.3-.06-.45-.1a1.67 1.67 0 00-1.33.34c-.19.11 0 .52.24.67.53.33.79.68.43 1.33-.13.25.27.4.41.6.46.65 1.47 1.11.89 2.19-.38.73-.08.94.66 1s1 .23.51.93c-.38.55-.15.72.33.71.82 0 .71.44.56.95-.36 1.22.87 0 1 .61a.44.44 0 00.35-.49 18 18 0 01-.18-1.93c-.14-2.35-.88-4.6-1-7-.05-1 .45-1.61 1.45-1.37.79.18 1.43.42 1.35 1.49-.05.75.29 1.51.31 2.27 0 1.26.8 2.44.38 3.75-.07.2.11.34.22.46.58.6.38 1.29.2 1.94-.08.28-.14.57 0 .74a2.61 2.61 0 01.39 1.43 4.94 4.94 0 00.39 2 2.38 2.38 0 01.5 1.35 1.84 1.84 0 00.72 1.45c.36.33 1 .65 0 1-.18.07-.16.31-.16.48v1.67a40.3 40.3 0 01.27 5.49c-.05 1.12-.26 2.25-.28 3.37a22.39 22.39 0 01-.65 5.54 6.06 6.06 0 00-.05 1.41c0 .78.35 1.52-.12 2.37a3.82 3.82 0 00-.53 1.82c.05 1.23-.26 2.42-.14 3.65.05.47.49.95.15 1.39a4.74 4.74 0 00-.71 1.87c-.1.37 0 1-.75 1-.13 0-.14.23-.1.38.2.69.48 1.37-.11 2-.09.1.11.3.19.45a9.09 9.09 0 01.85 3.61 10 10 0 001.06 3.07c.32.68.95 1.28.4 2.12-.12.18 0 .31.05.48a2.44 2.44 0 010 2 3.48 3.48 0 00-.27.94c-.07.39 0 .58.47.34 1.4-.74 1.65-2.23 2.14-3.48.59-1.48 0-3-.51-4.4a7.74 7.74 0 01-.37-2.13c0-.6.47-.65.78-.78a.7.7 0 01.89.25 10.71 10.71 0 011.13 2.4 13.59 13.59 0 01.62 3.12 1.15 1.15 0 001 1c.43 0 .32-.53.4-.84a1 1 0 00.06-.52c-.48-1.24.18-2.47 0-3.74a11.62 11.62 0 00-.61-2.89 9.67 9.67 0 01-1.14-3.26c0-.64-.12-1.26-.19-1.89-.05-.46.26-.61.59-.75.24.58 1 .51 1.28 1.16a28.55 28.55 0 001.83 4.36 7.41 7.41 0 01.56 4.3c0 .44-.34 1.14.21 1.26s.78-.59.95-1.09c0-.08 0-.18.05-.26a6 6 0 00.15-3.13 7.34 7.34 0 00-.21-2.32c-.54-1.29-.87-2.66-1.3-4a6 6 0 00-1.47-2.64 3.92 3.92 0 01-1.2-1.39 10.4 10.4 0 00-1.18-2.06c-.16-.29-.6-.59-.38-.86a.84.84 0 011.05 0 8.32 8.32 0 002.27 1.38c.63.35.55 1.33.85 1.34.88 0 .91.67 1.18 1.17a27.77 27.77 0 001.23 2.79c.14.21.16.54.51.56a.21.21 0 00.23-.22c0-.29.05-.62-.29-.77a.55.55 0 01-.37-.45c-.05-1-.76-1.7-1-2.61-.08-.33-.53-.14-.59-.68a4.48 4.48 0 00-1.21-2.13 2.47 2.47 0 01-.78-1.64 1.16 1.16 0 00-.47-1.13c-.19-.13-.32-.28-.18-.5a1.42 1.42 0 012.15.17c.16.34.2.88.46 1 1.14.59 1.41 1.73 1.88 2.74s1.17 2.3 1.78 3.43c.36.65.32 1.47.91 2.09.43-1.65-.26-3.1-.7-4.45a19.31 19.31 0 00-2.1-4.67c-1.21-1.86-2.25-3.82-4.05-5.2-.23-.18-.37-.37-.23-.68s.26-.8.64-.77c1 .06 2.09.11 2.78 1.1a12.85 12.85 0 001.41 1.85 5.62 5.62 0 011.38 2.4 1.69 1.69 0 00.36.72 2.22 2.22 0 01.9 1.9c0 .53.55.78.91.79s.24-.53.26-.83a1.43 1.43 0 00-.25-.75c-.92-1.52-1-3.36-2-4.89-.74-1.13-1.11-2.46-1.91-3.62a15.62 15.62 0 00-4.17-3.9c-.36-.25-.74-.49-1.09-.75a.32.32 0 01-.12-.4c0-.05.19-.1.22-.07.43.44.53.09.7-.25a.42.42 0 01.73-.08c.18.19.35.4.59.28.74-.36 1.23.18 1.62.56a8.39 8.39 0 001.44 1 4.52 4.52 0 011.73 1.57c.83 1.5 1.77 2.94 2.65 4.41a4.28 4.28 0 01.58 3.34c.69-.39.82 0 .89.56s0 .42.41.72a2.41 2.41 0 00-.09-2.09 8.4 8.4 0 01-.6-2.37c-.2-1.58-1.42-2.69-2-4.12-.21-.51-.6-1.07-.87-1.59-.41-.81-1.23-1.32-1.48-2.21a.29.29 0 00-.31-.25c-.66.14-.67-.39-.81-.79-.7.41-.7.42-.94-.37-.12-.43-.45-.54-.82-.72-.79-.38-1.6-.79-1.86-1.76-.08-.29-.14-.73-.59-.61-.74.2-.62-.41-.66-.73-.06-.54.41-.38.7-.36a1.81 1.81 0 01.91.23c1.28.83 2.77 1.26 3.91 2.4.93.92 2.28 1.36 3.28 2.25a1.8 1.8 0 001.19.44 1.66 1.66 0 00-.19-1.32c-.77-1-1-2.27-1.82-3.26a7.73 7.73 0 00-2.33-2.26c-.33-.17-1-.41-1-.49.09-1.13-.53-.59-1-.44 0-.26.26-.55 0-.74-.44-.3-.3.28-.5.38-.37.18-.53 0-.71-.29s-.44-.9-.89-.91a.82.82 0 01-.83-.59c-.18-.63-.49-.4-.84-.21-.1-.27.06-.55-.18-.77s-.8 0-.49-.59a1.66 1.66 0 011.24-.92 4.81 4.81 0 012.22.6c.42.14 1.1.16 1.11 1 0 .22.41.88.71.9.91.06 1.4.74 2.08 1.13a1 1 0 001.13 0c.29-.27-.13-.62-.31-.83-1-1.19-1.55-2.7-2.75-3.74-.79-.68-1.48-1.69-2.39-2a19.14 19.14 0 01-4.67-2.12 1.19 1.19 0 01-.52-1.19c.12-.44.82-.46 1.2-.77.26.77 1.3.42 1.52.87.33.68.87.62 1.36.72s.53.62 1 .42 1 .09 1.44.4a2.67 2.67 0 001.74.57zm-102.76-10c-.51-.13-.89.33-1.4.28s-.93-.58-1.25-1a.74.74 0 01.22-1c.71-.43.66-1.19.86-1.83.12-.37-.17-.64-.59-.42a1.46 1.46 0 00-.72.83c-.28.72-.27 1.5-.6 2.2-.42.87-1.21 1.52-1.46 2.47a1.9 1.9 0 01-1.28 1.27c.14-.66 0-1-.64-.75a.62.62 0 01-.67-.1c-.23-.24.07-.43.17-.61.8-1.42.67-3.19 1.75-4.5l-.12-.14a1.81 1.81 0 01-1 .26c-.65-.11-.93.18-1 .81s-.56.82-1.13.63-.62 0-.65.44a24.74 24.74 0 01-1.1 4.41c-.09.32-.14.74-.51.73s-.93.06-1.08-.54c-.05-.2-.07-.47-.34-.44-.67.08-.56-.31-.58-.75a1.26 1.26 0 00-.81-1.16c-.38-.14-.84 0-.89.37a13.59 13.59 0 01-.92 2.23 19.68 19.68 0 00-.24 2.53.87.87 0 01-.69.78c-.47.13-1.16 0-1.16-.14 0-.63-.59-.5-.89-.75.1-.27.56-.32.41-.75a2.92 2.92 0 01.5-2.25c.05-.11.28-.27.19-.34-.76-.64.19-.92.29-1.37s.32-.61.18-1c-.86-.1-1 .65-1.46 1.09a5.76 5.76 0 00-1.34 3.06c-.24 1.09-.28 2.23-.45 3.63-.34-.56-.55-.59-1-.39-.69.32-1.47-.63-1.14-1.33s.15-1.66.41-2.49c.17-.56.58-1.25.29-2-.18.08-.41 0-.52.27-.31.7-.65 1.38-1 2.07-.17.38 0 1-.79.9-.15 0-.23.24-.09.33.84.56.34 1.34.15 1.87-.4 1.12-.61 2.28-1 3.39-.13.34-.09.91-.47 1-.54.07-.45-.58-.64-.91a3.39 3.39 0 00-.27-.43 1.34 1.34 0 01-.25-1.54c.67-1.22.35-2.55.47-3.83.05-.5-.18-.66-.62-.35l-2 1.38a2 2 0 00-.91 1.77A18.66 18.66 0 01128 116a33.81 33.81 0 01-1.43 3.93.48.48 0 01-.68.24c-.7-.3-.39-1.46-1.32-1.6a1.93 1.93 0 010-.25 11.3 11.3 0 01.86-2.41c.31-.48 1-.65.37-1.4-.23-.29.26-.66.4-1 .08-.19.16-.41 0-.59s-.37-.26-.47-.14c-.57.7-1.61.86-2 1.79-.14.34.24.72 0 .93-.91.82-.85 2.07-1.41 3a6.57 6.57 0 00-.6 1.73c-.21.86.07 1.84-.86 2.48-.19.12 0 .74-.56.45s-.91-.44-.83-.91a14.13 14.13 0 01.79-3.69c.11-.23.35-.53 0-.68s-.51.08-.66.42a2.55 2.55 0 01-1.27 1.36c-.62.28-.93 1.85-.83 2.55a7.29 7.29 0 01.36 2.24c-.29 1.15.49 2.23 0 3.33-.07.16.07.33.19.48.52.66.34 1.47.42 2.22 0 .18-.16.19-.32.2a2.08 2.08 0 01-2.2-1.67c-.15-.47-.14-1.36-.75-1.34s-.72.81-.87 1.36c-.47 1.75.21 3.34.66 5 .22.76 1.09 1.52.21 2.41-.17.18.08.37.2.53s.42.4.19.69-.47.15-.73.14a1.31 1.31 0 01-.85-.42c-.21-.19-.57-.36-.72.06a1.57 1.57 0 00-.14 1.29 4.41 4.41 0 01.51 1.19c.12 1.18 1 2.13.87 3.38 0 0 .07.11.11.11.51 0 .18.19.2.41 0 .45-.44 1-.09 1.28.8.65.84 1.69 1.5 2.45s-.36 2 .62 2.88c.44.41.26 1.43 1.19 1.61a.37.37 0 01.2.27c0 1 .9 1.33 1.45 1.87 1 1 2.37 1.49 3.28 2.71a7.22 7.22 0 01.55-1.76 11.33 11.33 0 00.45-3 .78.78 0 00-.12-.33c-.26-.46-.85-.75-.77-1.41 0-.17-.13-.1-.25-.09-.89.06-1-.09-.54-.95.18-.32.22-.59 0-.79s-.58 0-.69.18c-.43.53-.53.27-.73-.17s-.45-1.05-1.13-1.24c-.36-.1-.66-.65-.27-.9 1.31-.85.71-2.14.43-3-.45-1.35-.27-2.73-.66-4-.23-.76.46-1 .58-1.62.17-.82.44-1.61.58-2.44a7.65 7.65 0 011.52-3.14c.47-.67 1-1.32 1.54-1.92a3.67 3.67 0 013.24-1.26 1.15 1.15 0 001.37-.69 1.57 1.57 0 012.35-.89 1.22 1.22 0 001.39.18c.44-.21 1.06-.14 1.43-.41a13.28 13.28 0 012.54-1.51 7.58 7.58 0 003.07-2.6 17.22 17.22 0 011.3-1.53c.77-.8 1.7-1.43 2.41-2.25s1.06-1.69 2.17-2.22a9.41 9.41 0 002.45-2 3.59 3.59 0 011.26-.83c1-.41 2-.8 2.37-2 .19-.61 1.53-.61 1.89 0a.61.61 0 00.84.32 7.46 7.46 0 011.56-.06c.67 0 1.62.5 2-.67a.69.69 0 01.92-.28c.78.44 1.58 1 2-.43 0-.05.15-.08.24-.1 1.26-.27 1.76-1.54 2.85-2.11s2.08-1.76 3.21-2.49 2.48-1.26 3.72-1.88a4.13 4.13 0 00.42-.31.79.79 0 00.3-.94c-.13-.46-.5-.33-.81-.26s-.47 0-.47-.3c0-1-.56-2 .31-2.85 0 0 0-.09-.05-.15a.75.75 0 00-.86.49 23.61 23.61 0 01-1.46 2.66c-.19.35-.22.36-.54.14a18.72 18.72 0 00-1.76-1c.2 0 .72.08.38-.51-.13-.24.09-.44.2-.65.28-.52.38-1.13.7-1.65.23-.36 0-.5-.38-.52-.87 0-1.09.43-1.46 1.18a31.46 31.46 0 00-1.55 3.39 3.76 3.76 0 00-1.11-.31c-.42 0-1.05-.28-1-.91a6 6 0 01.88-2.79c.15-.24.26-.44 0-.58s-.84-.39-.86-.21c-.08.79-1.06.84-1.14 1.62a3.37 3.37 0 01-.81 1.75 2.33 2.33 0 00-.5 1.54zm70 0a4.23 4.23 0 00-2.7 0 14.38 14.38 0 00-1.69.53c-.71.26-1.68-.08-1.93 1-.05.2-.32.1-.47.16-1.19.47-2.55.57-3.45 1.64a20.08 20.08 0 01-2.36 2.16c-1.18 1-2.24 2.17-3.37 3.24-.55.51-.34 1.21-.79 1.66-1.67 1.63-1.91 4.07-3.35 5.82a.34.34 0 00-.05.26 2.76 2.76 0 01-.36 2c-.2.42.31.9-.06 1.15a1.54 1.54 0 00-.57 1.24c-.27 1.71-.81 3.37-1.14 5.07 0 .18-.2.4.16.54.28-.92 1.33-1 1.87-1.65.18-.22.92-.13 1.32-.05.61.12.28.63.09 1-.41.83-1.28 1.26-1.75 2s-.5 1.61-1 2.25c-1.07 1.51-.8 3.36-1.49 4.93 1.41-.64 1.9-2.38 3.75-2.86-1.43 3.48-3.08 6.68-3.69 10.23.14-.31.67-.45.4-.94a.35.35 0 01.12-.3 3 3 0 001.7-2c.1-.25.14-.66.51-.78a3.33 3.33 0 001.59-1.18c.14-.17.26-.36.42 0s.41.26.69.17.78-.29 1.06.07 0 .8-.2 1.13a8.69 8.69 0 01-2.07 2.37c-.18.14-.32.28-.22.51a.47.47 0 00.26.22c.27.08.4-.1.45-.31.11-.47.36-.44.78-.4a1.56 1.56 0 001.07-.11c.31-.19.61 0 .92.23.58.49.25 1.28.74 1.84.26.3-.57.36-.76.68a3 3 0 00-.33.72c-.09.37-.14.83-.7.86-.1 0-.27.14-.26.17.27.76-.22 1.26-.51 1.89a27.1 27.1 0 00-1.18 3.46c-.09.29-.24.68.08.91s.24.57.1.84a7 7 0 00-.7 2.4c-.13 1-.5 1.8 0 3a16.34 16.34 0 002.28 3.55 36.14 36.14 0 012.89 3.85c.09.15.06.48.39.28.18-.11.38-.32.27-.51-.68-1.25-.25-2.55-.07-3.79a7 7 0 01.32-2.4c.22-.42.91-.78.21-1.36a.55.55 0 01.15-.39c.63-.43.53-1 .41-1.62a1.48 1.48 0 01.14-1 3.34 3.34 0 00.52-1.75.93.93 0 01.58-1c.73-.29 1.44-.63 2.18-.85.25-.08.71.23.94.48s.16.52-.24.7c-.25.11-.24.45-.2.72.15.91-.45 1.68-.47 2.57 0 .18-.19.28-.41.24-.49-.07-.39.25-.33.53a7.52 7.52 0 01-.15 3.09c-.2.93-.31 1.89-.54 2.82-.05.18-.17.55-.06.73.6.92.27 1.91.27 2.88 0 .26-1.1.75-1.32.59-.06 0 0-.22 0-.33v-.08a.79.79 0 01-.53.75c-.64.25-.41.83-.14.93.6.2.66.71.94 1.1a4.26 4.26 0 001 1.13 19 19 0 006 2.88 34.25 34.25 0 003.75 1.18c2.25.29 4.36-.21 6.54-.37.23 0 .58 0 .62-.38s-.38-.41-.55-.44c-1.29-.17-1.43-1.29-1.71-2.17-.5-1.61-.76-3.3-1.23-4.93a1.38 1.38 0 01.37-1.63 2 2 0 011.8-.07.57.57 0 01.28.31c.19.5.64.7 1 1 .19.13.55.22.47.47a2.07 2.07 0 00.61 2c.1.12.09.37.34.4s.34-.15.44-.35a1.62 1.62 0 011.35-.85 1.19 1.19 0 001.22-1c.27-1.31-.29-2.5-.61-3.71-.09-.33 0-.8-.28-1-.9-.73-.51-2-1.14-2.82-.28-.39-.39-1.07-.68-1.58-.44-.82-1.09-1.54-1.46-2.36a18.2 18.2 0 00-1-1.85c-.47-.79-1.22-1.57-1.14-2.46s-.62-1.33-1-2c-.11-.21-.5-.28-.27-.65.63-1-.4-1.94.17-2.9-.45-.05-.43.54-.77.3s-.18-.47-.11-.74.32-.39.13-.57c-.51-.47-.23-1-.11-1.48a5 5 0 000-2.89 1.61 1.61 0 010-1.12c.37-.63.08-1.3.22-1.94a8.22 8.22 0 00-.17-1.92c0-1.39.54-2.77.07-4.17 0-.07.13-.18.16-.29a4 4 0 00.27-1 9.66 9.66 0 01.42-3.25c.34-.94 0-2 .32-2.89a3.38 3.38 0 00-.25-2.32c-.21-.5 0-.67.23-1a1.29 1.29 0 00.22-1.8c-.19-.27-.08-.46-.06-.71.05-1 .34-2-.73-2.67-.14-.09-.23-.3-.43-.2s-.07.26-.08.4a1.84 1.84 0 01-1.45 1.71 4.91 4.91 0 01-3.07-1.74c-.73-1.31-1.52-2.55-3.18-2.86a7 7 0 00-1.54-.32c-.6 0-1.19-.73-.88-1s.44-.71.91-.81c.72-.14.35-.52.05-.67a2.18 2.18 0 01-1.21-1.63c-.09-.5.15-.7.46-.55a1.92 1.92 0 001.87-.24.58.58 0 01.58-.07 25.77 25.77 0 014.22 2.53 11.33 11.33 0 011.36 1.74c.21.23.37.69.73.4s.07-.6-.13-.86a6.11 6.11 0 01-1-1.82 5.5 5.5 0 00-1.63-2 5.64 5.64 0 00-2.32-1c-.6-.15-.85-.74-1.45-.88-.28-.07-.21-.41.08-.5a2.58 2.58 0 01.68 0c0-.11 0-.21-.09-.27-.68-.8-.63-1 .29-1.51a1 1 0 00.62-.79c0-.67.37-.77.91-.46.22.13.46.28.53-.11s.36-.36.55-.18c.43.45.65.22.98-.16zm-12.17-14.53a8.13 8.13 0 01-.63-1.9c-.08-.24 0-.46-.39-.43-.6.06-1.14-.65-1.78-.14h-.08c-1.08-.41-2.27.1-3.34-.39-.05 0-.16 0-.23.06a1.63 1.63 0 01-2.11-.26 1.88 1.88 0 01-.17-2c.3-.65.9-.54 1.28-.91s1-.68 1.2.25c.06.24.31.28.5.31a9.88 9.88 0 003 .32c-.18-.6-.62-.67-1.09-.66s-.64-.17-.36-.58 0-.6-.14-.88c-.2-.56-1-.64-1.12-1.05-.52-1.36-1.8-.39-2.54-.95-.59.62-1.42.23-2.07.51-1 .45-1.78-.67-2.75-.47v-.08c-.09-.51-.55-.57-.92-.73s-.59-.28-.58-.6.38-.56.6-.57c1 0 2-.38 2.91 0a4.77 4.77 0 002.35.06c-.69-1.08-1.61-1.78-2.19-2.75a.52.52 0 00-.72-.1c-1.11.73-2.49.61-3.68 1.21-.47.23-1.31-.06-2 .19-.32.11-.81-.26-1.22-.41-.19-.06-.47 0-.38-.35s-.05-.64.36-.72c.21 0 .42 0 .62-.07s.31 0 .35-.21-.13-.26-.25-.3c-.4-.11-.7-.38-.61-.75s.58-.23.9-.27c.76-.09 1.52-.14 2.28-.26a.94.94 0 00.55-.41c.1-.19-.12-.39-.28-.5-.45-.28-.92-.54-1.39-.79a.37.37 0 00-.54.14 1.33 1.33 0 01-1.73.45 4.91 4.91 0 00-2.57.29 4.18 4.18 0 01-3.76-.57c-.15-.12-.36-.19-.19-.38.36-.4.65-1 1.26-1 1.23.08 2.48-.31 3.69.1.22.07.45.09.51-.17s-.21-.38-.41-.32c-.42.14-.88-.38-1.28.09-.61-.66-1.51-.51-2.26-.78-.36-.13-.67-.73-1-.4s-.21.77-.31 1.17c0 0-.07.08-.09.1-.39.08-.52-.7-.89-.32-.75.76-2 .59-2.66 1.48h-.25c-.58-.27-1.26-.08-1.82-.56a5.66 5.66 0 00-1.83-1.02.61.61 0 01-.43-.77c.1-.4.3-.41.66-.29s.46-.17.55-.44-.15-.36-.38-.44a5.94 5.94 0 00-2.5-.31c-1.87.23-3.73-.3-5.61.19a21 21 0 01-3.58.68 25 25 0 00-2.94.41c-.64.12-1.29.51-1.89.36s-1.05.42-1.6.52c-.31.06-.12.34 0 .51a1.78 1.78 0 002.56.24.51.51 0 01.29-.19c1-.13 2-.57 3-.23 1.35.5 2.57-.09 3.84-.16s1.51-.16 2.11.76a.82.82 0 00.28.19c.61.44.6.7-.05 1a10.13 10.13 0 01-3 .91c-1.28.25-2.64.13-3.88.67a.46.46 0 01-.56-.15c-.38-.56-.83-.21-1.23-.11-1.27.33-2.45.92-3.75 1.19-.48.1-1.11 0-1.45.48a10.6 10.6 0 01-1.68 1.47c-.62.56-.79 1.58-1.82 1.72-.05 0-.07.17-.14.22-.44.33-.62 1-1 1.19-.69.42-.47 1.1-.75 1.6 0 0 .1.19.19.25s.27.07.29-.07c.08-.59.44-.62.94-.61.2 0 .57-.35.45-.65s-.09-.54.28-.64c.22-.06.45 0 .56.15s-.16.49-.27.73c.06-.42.59-.41.69-.83a1.65 1.65 0 011.73-1.27c.41 0 1-.1 1.16-.48a2 2 0 012.33-.88 1.56 1.56 0 001.6-.54 20.45 20.45 0 013.31-1.73.57.57 0 01.84.2c.29.49.56.32.78-.06s.31-.56.46-.84c.24.15.44.62.51.52.53-.73.68 0 .87.22.48.53.78.29 1.18-.32 0 .59.38.74.52 1.09.07.16.36.37 0 .49-.49.19-.61.61-.78 1-.09.22-.28.36-.5.21-.62-.44-1.28 0-1.65.25a5.89 5.89 0 01-2 .7c-.66.13-1.09 1-1.92.59-.06 0-.26.14-.32.26-.18.31-.46.33-.76.38a4.32 4.32 0 00-1.2.31c-.36.17-.73.64-.6.94s.51-.15.81-.15c0 0 .1 0 .15.07a1.76 1.76 0 00.13 1.85c.12.21.11.58.49.48s.38-.35.42-.69a1.57 1.57 0 011.93-1.57c.27.06.45.12.6-.15.34-.65.83-.5 1.33-.23.16.08.32.25.48.08.52-.57 1.41-.6 1.95-1.47-.42 1.25.82.44.9 1l.32-.81c.09-.2 0-.48.26-.61a1 1 0 01.41 1.31c-.05.15-.27.33 0 .44.88.34 1.4 1.24 2.34 1.46.3.07.26.29.2.49-.28 1 0 1 .78.51.35-.24.6 0 .77.31s0 .61-.19.57c-.7-.2-.82.5-1.23.7a24.29 24.29 0 01-3.91 1.89 3.87 3.87 0 00-1.87 1c-.52.83-1.62.62-2 1.52a1.74 1.74 0 01-1.16.84 1.56 1.56 0 00-1.6 1.06c-.24.52-.2.75.17 1s.95.66 1.35.94a.25.25 0 01-.19-.27.26.26 0 01.39-.22c.49.2.83-.15 1.24-.25.8-.19 1.07-1 1.8-1.3a6.31 6.31 0 002.1-1.24c.5-.5.72-1.17 1.43-1.63 1-.67 1.85-1.54 3.2-1.1.21.06.23-.18.34-.2.44-.11.81.17 1.18.31s.13.6 0 .8-.61.85-.86.72c-1-.56-1.49.42-1.87.78-.89.84-1.81 1.68-2.71 2.51-1.65 1.54-3.84 2.38-5.52 3.92-.34.31-.68.65-.43 1a.75.75 0 01.11.85c-.2.51.38.59.59.87s.46 0 .58-.14c.78-.77 2-1 2.33-2.32 0-.08.16-.15.26-.21.65-.34.85-1.08 1.35-1.56s.36-1.43 1.3-.63h.33a2.74 2.74 0 012.48-.96.2.2 0 00.08 0 5.06 5.06 0 012.43-.9 9.5 9.5 0 001.69-.4c.69-.23 1-.16 1.23.42a1.25 1.25 0 00.55.5c-.38.32-.89.22-1.32.59a6 6 0 01-2.3 1.41c-1 .26-2.1.56-2.07 2 0 .24-.22.48-.32.72-.37.87-1.35 1.39-1.46 2.42 0 .08-.2.13-.26.22a3.16 3.16 0 00-.67 1.33 23.4 23.4 0 004.61-4.72c.17-.2.24-.4.61-.34a2.94 2.94 0 003-1.17c.3-.39.82-.94 1.49-.33.25.24.6.12.94 0-.15.65-.72 1-1 1.43-.47.93-.65 2.07-2 2.22a.27.27 0 00-.2.17c-.14 1.08-1.75.77-1.81 1.92a8.55 8.55 0 00-2.85 3.15c-.13.2-.24.41-.53.43s-.67.18-.54.52.5.36.83.11.42-.27.62-.43c.58-.46.75-1.2 1.31-1.65s1.32-.85 1.24-1.8c0 0 .06-.61.41-.4.6.35.66-.13.85-.46a1.63 1.63 0 01.84-.75 5.25 5.25 0 001.17-.62c.67-.51.88-.5 1.14.37.15.5.62.57.92.84s.27-.34.45-.49a1.16 1.16 0 011.37-.23c.55.29.21.56 0 .85s.11.43.27.56c.6.52.28.86-.23 1.13-.14.08-.33.06-.42.25-.64 1.32-2 2-2.87 3-1 1.22-2.69 1.51-3.61 3a1.77 1.77 0 000 2c.14.33.37.39.81.09.68-.48.89-1.37 1.66-1.72a1.29 1.29 0 00.75-1 4 4 0 012.26-2.5c.42-.23 1.2.19 1.06-.81 0-.19.28-.22.43-.11.38.31.28-.4.59-.25 0 .3 0 .68.21.82.49.26.3.64.31 1 0 .19-.19.42.05.57s.47 0 .66-.1c.87-.49 1.25-1.42 1.88-2.12.16-.18.17-.58.47-.56s.59.32.57.45c-.06.42.39.68.29 1.06-.16.61.37.59.53.42.7-.7 1.15.09 1.54.33a.93.93 0 01.36 1.39.73.73 0 00-.07.59 3.76 3.76 0 01-.68 2.31c-.3.64-.69 1.27-1 1.91-.67 1.27-.66 2.74-1.12 4.08-.24.71.42.87.93 1s.63-.08.83-.56c.34-.79.42-1.64.76-2.45 1.05-2.45 1.74-5 2.58-7.59 0-.09-.11-.34.17-.23.49.19.78-.13 1.06-.42s.74-.12 1.08-.08c.79.09.27.63.28 1a.2.2 0 010 .08c-.16.33-.29.84 0 .93a.84.84 0 001.13-.45c.09-.24.44-.66.87-.5s1 .14 1 .59 0 .92-.65 1c-.27 0-.24.31-.25.51a2.63 2.63 0 01-.38 1.37c-.32.52.23 1.19-.09 1.77.13 0 .32.16.4.11a4.7 4.7 0 011.68-.44.66.66 0 00.43-.7c0-.41-.05-1 .28-1.17.55-.33.36-.66.28-1.11s0-1.08 0-1.61c0-.34.17-.58 1-.88a6 6 0 011.19-.22c.1 0 .3.1.29.14-.06.67.41 1.26.27 1.94a5.63 5.63 0 00-.35 2.34c0 .2-.24.48.06.63s.45-.13.6-.29a16.4 16.4 0 012.3-2.2.34.34 0 000-.55c-.56-.41-.64-1.11-1-1.63-.2-.26-.55-.82-.24-.88.58-.13.76-1 1.38-.75a3 3 0 011.82 1.18.6.6 0 00.67.3c.42 0 .49-.4.66-.64s-.21-.3-.33-.42-.33-.49-.69-.5-.4-.23-.41-.49 0-.6.33-.66c.51-.09.56-.33.33-.72s-.25-.58.06-.77a.82.82 0 01.92-.11c.2.13.53.38.59.33.78-.68.94.28 1.3.52a3.62 3.62 0 001.1.7c.26.06.47.39.77 0a.65.65 0 00.06-.81c-.45-.83-.77-1.69-1.89-2-1.3-.32-2.13-1.53-3.4-2-.39-.14-.39-.64-.15-1s.47-.58.85-.33c.19.12.26.19.41 0 .34-.42.77-.21 1 0a5.56 5.56 0 001.3.53c.23.09.5.27.73 0s0-.51-.1-.74a8 8 0 01-.8-1.76.28.28 0 00-.31-.26c-.64.06-1-.46-1.44-.74s-.79-.76-1.35-.79c-1 0-1.61-.88-2.55-1-.12 0-.18-.13-.17-.26.05-.62-.42-.78-.86-1s-.75-.22-.63-.69.47-.49.87-.6c.71-.19 1.47.63 2.12-.15 0 0 .21.08.32.11zm-56.9 67.93c-.87.2-1 .17-1.1-.21-.19-.65.2-1 .88-.82.38.11.55.3.69-.38a40.77 40.77 0 001.08-6.87c0-.38.06-1.14.46-1.14.92 0 .76-.59.85-1.12a8.1 8.1 0 01.42-1.26c.15-.4.4-.36.54 0s.29.31.34.44c.32.76 1.28 1.19.91 2.36s-.4 2.49-.7 3.74a10.8 10.8 0 01-1 2.94 1.6 1.6 0 00.23 1.89 2.41 2.41 0 011.78-1.37c.32 0 .75-.46.3-.71a.85.85 0 01-.28-1.26 11.33 11.33 0 00.93-3.27 16.12 16.12 0 00-.13-4.39 1.32 1.32 0 01.5-1.23c.34-.16.78.22.62.81 0 .11.13.17.26.16.5 0 1-.73.76-1.17-.48-.89.11-1.12.76-1.43 0 .47-.37.83-.08 1.3.33-.33.75-.6 1.09-.14a1.76 1.76 0 01.4 1.78 10.33 10.33 0 01-1.25 3.15c-.48.58 0 1.45-.71 1.89a3.32 3.32 0 00.43.9c.16.27.38-.21.6-.32s.38-.5.69-.72a4.1 4.1 0 001.56-3.16 13.19 13.19 0 01.28-2c.14-.52.59-1 .05-1.53-.1-.1-.08-.42.1-.46.71-.17.59-.77.75-1.25a10.2 10.2 0 00.49-2.32c0-.44.39-.81.78-.47a2.92 2.92 0 011 1.43 15.32 15.32 0 010 2.44c0 .31.13.66.42.67s.69-.25.71-.42c.1-.94.84-1.68.87-2.59 0-1.31.54-2.52.66-3.8s1.24-2.38 1.52-3.71c0-.21.2-.53.35-.56.31-.06.51.26.69.47a1.55 1.55 0 01.2.57c.16.45.63.56 1 .67s.2-.39.3-.6a18.13 18.13 0 001.62-5.49 2.32 2.32 0 011.19.85c.22.4.29.26.53 0a2.22 2.22 0 00.53-1.75c0-.92-.12-2 .88-2.68.28-.19-.21-.93.29-.9s.21.76.48 1.1c.05.07.05.17.11.23s.08.55.44.42.19-.32.21-.53a3.35 3.35 0 01.85-2.06 2 2 0 00.7-1.33 7.24 7.24 0 00-.32-3.42c-.22-.47-.46-.92-.69-1.39-.68.45-1-.18-1.41-.45s-1 .08-1.09-.6c0-.12-.2-.07-.31 0-1.12.7-2.29.36-3.43.1-.95-.21-1.22-.12-1.18.8 0 .57-.23.57-.58.59a6.86 6.86 0 01-2.26-.24c-.47-.13-.63 0-.81.4a7.83 7.83 0 01-1.68 2.48c-.3.26-.76.83-.33 1.15s.44.39.32.79a.44.44 0 00.3.58c.41.09.43.36.31.67s-.42.23-.73.15a1.88 1.88 0 00-2.48.81c-.19.34-.51.6-.59 1 0 .21 0 .46-.4.6s-.39.81-.93 1c-.26.09-.14.55.16.73a1.72 1.72 0 01.71 2c-.08.59-.41.84-1 .74a16.87 16.87 0 01-2.77-.62c-.44-.16-.48-.08-.69.25-.74 1.15-2 1.7-3 2.53-.18.15-.47.07-.2.46s.28.81-.37.82a.39.39 0 00-.43.45c0 .65-.36.54-.76.4a1.83 1.83 0 00-2.43.68 1.53 1.53 0 01-1.28.71c-.63 0-.91.63-1.51.71-.24 0-.24.38 0 .55.63.42.34.72 0 1.19-.53.68-1.24.17-1.77.44-.77.38-1.56 0-2.31 0s-.91.12-1.08.66-.14.5-.51.14c-.14-.13-.25-.1-.39 0s-.42.34-.52.29c-.94-.51-.92.43-1.28.76.11.36.73-.06.65.55a1.1 1.1 0 001 1.26c-1.09.84-1.3.87-2.32.16-.37-.25-.62-.13-.64.21 0 .51-.35.43-.67.57a4.71 4.71 0 01-2.34.22c-1.2-.07-2.41.14-3.58.07s-1.75.86-2.68 1.19c.57 0 1 .44 1.54.42a5 5 0 014.32 1.92c.27.34.66.85.24 1.34a.81.81 0 01-1 .28 7.66 7.66 0 00-5.28-.4c-1.49.38-3 .95-4.48 1.29-.73.17-1.57-.06-2.4.09s-.66-.75-.66-1.27a3.17 3.17 0 01.9-1.88c.13-.18.19-.39 0-.55s-.4-.15-.47 0c-.24.57-.76.43-1.19.51s-.88.26-.5.86a.51.51 0 01-.06.65c-.19.2-.39 0-.56-.1a2.46 2.46 0 00-1.44-.26l.38-.79c-1.32 0-1.14 1.37-1.78 1.79 0 .5 1 .12.58.65-.52.74.11 1.22.14 1.81 0 .31.3.3.56.24s.41-.26.7-.08c0 .38-.35.56-.59.8s-.53.2-.37.49.46.09.68 0 .17-.27.4-.05c-.47.55-.18 1.16-.07 1.77a1.88 1.88 0 01-.21.94 8.33 8.33 0 00-.4 2.58c0 .15 0 .31.14.38s.32-.08.39-.25a6.65 6.65 0 00.86-2.11 3.59 3.59 0 01.6-1.84c.1-.15.31-.39.36-.29.25.58 1.09.41 1.26.95a7.33 7.33 0 01.55 2.31c-.06 1.14.17 2.42-.7 3.43a.26.26 0 000 .32 1.48 1.48 0 01-.38 1.67 1.33 1.33 0 00-.42 1c.28.14.58-.15.85.1.43.39.54 0 .64-.31.56-1.8.58-3.75 1.64-5.4.11-.18 0-.41 0-.57 0-.85-.08-1.8.8-2.38.3-.2.54-.26.71.13a4 4 0 00.65.88 2.25 2.25 0 01.62 1.66 18.14 18.14 0 00-.3 2.54c0 .15 0 .41-.16.34-.77-.43-.45.35-.62.55a2.82 2.82 0 00-.72 2.63c.07.28-.32.39-.28.68.32-.07.6-.15.88-.2.63-.1 1.05-.3 1.09-1.09a7.08 7.08 0 01.51-2.82c.73-1.41.73-3 1.16-4.42.28-.94 1-.86 1.55-1.26.3-.25.7.25.83.58.26.67.83 1.29.75 2s-.37 1.61-.5 2.45a9.63 9.63 0 01-1.24 3.26c-.16.27 0 .53.35.67a1.38 1.38 0 001.9-1.12c.21-1.75 1-3.45.69-5.24-.14-.86.63-1.39.41-2.17.51-.06.71.36 1.05.52.58.26.88.23.84-.47 0-.37.06-.68.44-.75s.62.26.74.54c.25.61.22 1.4 1.15 1.53.16 0 .08.31.05.48a7 7 0 01-1.63 3.95c-.14.14-.35.29-.22.53a2.12 2.12 0 01-.05 1.64c-.14.53.09.7.57.87.8.29 1.13-.38 1.65-.65s.07-.63.07-.94a4.27 4.27 0 01.22-1.13c.18-.74.43-1.47.58-2.21a11.81 11.81 0 011.23-3.6c.11-.19.32-.33.27-.62-.14-.8.54-1.43.47-2.22 0-.15.18-.3.31-.22.37.21.49-.05.72-.25.6-.51 1.07-.39 1.29.41a5.1 5.1 0 01.51 2.09 5.65 5.65 0 01-1.32 3.39 2.88 2.88 0 00-.87 2c0 .32.2.64-.12 1s.51 1.45.76 1.48a1.8 1.8 0 001.78-1.33 14.47 14.47 0 01.75-2.71 2.52 2.52 0 00.06-2c-.18-.54.44-2.93.94-3.17a2.3 2.3 0 001.29-2.41c0-.32 0-.62.54-.6s.76 0 .67.52c-.05.35.19.4.38.51s.27.46.37.74c.35.93-.35 1.62-.41 2.46a6.56 6.56 0 01-1 3.19 2.41 2.41 0 00-.47 1.58c0 .21 0 .42.25.52s.3-.17.42-.31.51-.53.81-.44c1 .29 1-.58 1.27-1.08a4.37 4.37 0 00.26-.88zm84.86 14.73c-.31.22-.79-.26-.88.15s-.17.51-.47.38-.59-.21-.64-.64a8.53 8.53 0 010-1.13c0-.16 0-.3-.21-.35s-.29.11-.33.23a9.39 9.39 0 00-.61 2.24c0 .66.3 1.43-.56 1.95-.4.24-.84 0-1.06.17-.83.8-1.43.1-2-.27-.46-.28-.58 0-.69.29a5.51 5.51 0 01-.51 1.23c-.14.22-.53.48-.14.72s.71.44 1 .07a1.18 1.18 0 01.52-.25 3.94 3.94 0 012-.18c1 .11 1.71-.47 2.6-.44a3 3 0 001.68-.46 3.58 3.58 0 011.53-.57c1.59-.11 2-.55 1.67-2.07-.48.08-.92.65-1.46.06-.15-.16-.37-.07-.58 0s-.65.4-.87.12a1 1 0 01.01-1.25zm-6.29-45.39c0 1 .41 1.37 1.26 1.29a1.17 1.17 0 011.21.55c.26.35.49.81 1 1 .21.08.34.18.5-.1.75-1.28 1.53-2.53 2.28-3.81s.66-1.14 1.91-.76c.43.14.92.37.79-.57a15.42 15.42 0 01-.51-2.28 6 6 0 00-.71-2.21c-.09-.24-.32-.52-.44-.15a9.75 9.75 0 01-1 1.83 7.13 7.13 0 01-1.5 2.1 3.86 3.86 0 00-1.18 1.38c-.32.8-1.08 1.24-1.39 2a.76.76 0 01-1.07.22 7.87 7.87 0 00-1.15-.49zm-76.39-32.69c1.14-.54 1.4-1.86 2.5-2.23-.1-.81.7-1.16 1-1.76a1.55 1.55 0 011.86-1c.23.09.47 0 .41-.25-.19-1 .82-.83 1.19-1.26s1.15-.27 1.27-1a.49.49 0 01.47-.34c1.46-.19 2.49-1.46 4-1.62.43 0 .6-.64.67-1.07s-.23-.4-.48-.21a5.77 5.77 0 01-2.77 1.07c-.6.1-.69.69-1.25.91a19.09 19.09 0 00-3.78 1.83c-.65.43-.84 1.16-1.47 1.58-.32.22-.7.32-1 .56-1 .71-1.09 1.88-1.73 2.75a3.71 3.71 0 00-.89 2.04zm-6.21 33.61c-.19.09-.15.48-.52.45a.26.26 0 00-.31.25c0 .59-.27 1.16-.23 1.7a1.3 1.3 0 00.8 1.14c.41.13 2-1.42 2.09-1.93a11.2 11.2 0 01.88-3.2c.16-.4.42-1.19-.16-1.38-.37-.12-.72-.28-1.07-.43-.51-.22-.85-.21-.85.46a.64.64 0 01-.45.6.88.88 0 00-.33 1.4c.23.33.15.58.15.94zm2.33-34.9c.17-.21.5-.45.48-.65a1 1 0 01.82-1.22c.23-.08.08-.22.12-.32a14.14 14.14 0 012.34-3.34c.27-.35 1-.25.91-.64a.69.69 0 01.49-.8 3.3 3.3 0 001.74-1.67.32.32 0 01.21-.14 3.43 3.43 0 002.08-1.12c.26-.29.71-.4.83-1-1 .59-2.2.21-3 1.21-.21.26-.37.69-.79.77-1.18.24-1.89 1.23-2.8 1.86-.31.22-1 .25-1.06.79-.11.74-.69 1-1.22 1.38a1.55 1.55 0 00-.63 1.82c.34.68-.48 1.07-.15 1.63-.56.32-.34.91-.37 1.44zm-33.24 44.32c-.32.32-.47.91-.21 1 .7.29.84 1.6 2 1.06.18-.08.53.35.69 0a.75.75 0 00-.15-.92c-.29-.22-.17-.36 0-.56.67-.91.62-1.16-.22-1.86-.23-.19-.76-.47-.57-.66.56-.6.06-1.4.53-2 .29-.38 0-.77-.25-1.08-.12-.14-.42-.25-.56-.07-.25.33-.18.65.09 1s.43 1.51.16 1.62c-1.24.51-1.13 1.63-1.51 2.47zm-.47 5.27a2.22 2.22 0 00.34 1.53c.35.42.32 1 .51 1.42.08.18-.18.47.2.56s.48-.12.68-.38c.45-.59.21-1.24.29-1.87s.74-1.45-.61-1.48c-.07 0-.12-.19-.2-.27-.46-.44-.99-.28-1.21.49zm45.43-17c.12-.39-.53-1.09.52-1 .26 0 .67-.48.61-.81s-.52-.1-.68 0a5.38 5.38 0 01-2.26.55c-1.19 0-1.73 1.3-2.6 2-.18.14 0 .3.18.41.84.65 1.44.53 2.17-.43.52-.65 1.52-1.03 2.06-.7zm24.17-16c-.33 0-.47-.67-.75-.26s-.84.66-.41 1.28a.37.37 0 01-.16.58c-.43.22-.19.45.07.67s.64.46.83.1c.46-.87 1.11-1.63 1.53-2.48s1-1.53 1.47-2.38c-.55-.09-1-.29-1.43.38a10.7 10.7 0 00-1.15 2.14zm-48.19 21.5a3.45 3.45 0 000-1.47 4 4 0 01-.6-2c0-.29-.44-.41-.47-.21-.09.6-.5.61-.91.74s-.23.34-.08.58c.32.49.12.65-.39.54a.57.57 0 00-.7.23c-.45.79-.13 1.31.78 1.38.57 0 1.13.28 1.68-.05.34-.13.41.3.69.29zM174.5 117c-.32.08-.59-.1-.77.11s-.18.47-.55.49c-1.4.08-2.39 1.21-3.75 1.47-.4.08-.41.55-.27 1s.46.17.7.13a3.07 3.07 0 011.45-.06 1.26 1.26 0 001.65-.76c.35-.86 1.09-1.45 1.54-2.38zm71.31 32.6a.65.65 0 00.05-1c-.36-.24-.43.28-.61.47a3.58 3.58 0 00-.78 1c-.21.44-.76.91-.14 1.45.12.11.16.28 0 .38a.3.3 0 01-.4-.11c-.59-.76-.74-.13-1 .29a2.78 2.78 0 00-.27 1.6.76.76 0 001.24.56c.38-.28.85-.63.89-1.13.07-1.31 1.21-2.23 1.02-3.5zm-38.12-2.05a15 15 0 01-.59 2.24c-.35 1.13-1 2.15-1.35 3.26-.11.33-.25.68.14.93.21.13.46.17.34.54a.33.33 0 00.36.46c.26 0 .32-.22.32-.45a12.89 12.89 0 01.09-2.77c.26-1.36.12-1.44 1.19-2.07.07 0 .15-.15.14-.21-.18-.61.31-1.43-.64-1.92zm39.55-11.13a8 8 0 01.14-2 .26.26 0 00-.23-.32.34.34 0 00-.28.15 17.1 17.1 0 01-1.25 1.74 10.17 10.17 0 01-1.27 1.7c-.59.6-.21 1.16-.29 1.71 0 .21.44.39.61.07a10.61 10.61 0 012.26-2.6 3.65 3.65 0 00.31-.44zM168 113.81c.13-.31.23-.54-.12-.84s-.21-.67.32-.65.68-.12.76-.54c0-.25-.12-.28-.3-.34-.38-.13-.79-.23-1 .23a1.94 1.94 0 01-1.12 1 1.23 1.23 0 00-.68 1.23 1.11 1.11 0 001.09.73c.39-.01.98-.16 1.05-.82zM151.25 131c-.69.44-1.31.59-1.59 1.3-.19.47-.34 1.24-1.18.55a.49.49 0 00-.81.33c-.06.36-.33.68.31 1s.87-.29 1.26-.3c1.13 0 1.37-.77 1.56-1.64a9.39 9.39 0 01.45-1.24zm5-11c0 .28-.42.65 0 1s.71 0 1-.22a1.12 1.12 0 01.57-.17 2 2 0 001.43-2.21.44.44 0 00-.51-.38 2.81 2.81 0 00-2.49 1.98zm-15.12 17.14c0 .36-.37.55-.16.85a.45.45 0 00.41.07 8.84 8.84 0 002.86-1.35c.19-.17.68-.25.49-.62a.77.77 0 00-1-.33 1.1 1.1 0 01-.83.08c-.45-.13-.58.09-.46.47.19.59-.32.83-.59 1.14s-.4-.15-.72-.3zm9.87-14.21c.33-.37-.49-.52-.24-1a.75.75 0 00-.27-.93c-.26-.19-.58.16-.81.33-.48.35-1.2.72-1.22 1.24s-.24 1.3.2 1.63.78-.46 1.26-.58c.24 0 .41-.32.71-.33s.28-.14.37-.36zm1.19 3.84c-.15-.19-.72-.06-.53-.66.08-.24-.2-.15-.41 0-.57.34-1 1-1.82.79-.18 0-.27.1-.32.24a2.23 2.23 0 00-.28 1.43c.87-1.17 2.66-.34 3.36-1.8zm48.58-11a.77.77 0 00-.41.59 15.31 15.31 0 01-.94 3c-.41.79-.7 1.64-1 2.45-.09.23-.11.42.17.49s.4-.13.34-.36a1 1 0 01.1-.68 19.47 19.47 0 001.57-4.28c.02-.39.34-.74.17-1.24zm-50.11 22.57c-1-.24-1.77.4-2.6.55a2.18 2.18 0 00-1.46 1c-.1.15-.27.37-.06.44.47.14 1 .5 1.43.24a14 14 0 002.69-2.26zm3.86-2a1.9 1.9 0 00.44-.14 3.53 3.53 0 001.64-1.77c0-.11.12-.24.08-.31a.26.26 0 00-.38-.09 4.71 4.71 0 01-1.65.45c-.29 0-.54.31-.81.47.39.34.29.97.68 1.37zm74.09-30.55c.12.57.72.45.91.66.45.48 1.55.31 1.4 1.39 0 .24.27.39.52.36s.35-.25.31-.53a1.25 1.25 0 00-.9-1.07c-.38-.09-.5-.33-.74-.52-.53-.43-1-1.06-1.87-.76-.25.08-.49.13-.37.45s.17.59.54.24zm-67.23 25.55c0-.73.67-.81 1.08-1.1.24-.17.47-.35.3-.62a.59.59 0 00-.72-.14 4.46 4.46 0 00-1.89 1.21c-.11.13-.27.31-.17.47a.35.35 0 00.54 0c.48-.73.61-.11.86.16zm.43-59.54a25.33 25.33 0 003.09-.88c.25-.06.66-.3.52-.59s-.53-.36-.92-.14a18.56 18.56 0 01-2.17 1.12c-.25.09-.33.29-.52.47zm83.5 70.82c-.23.53-.41 1 .17 1.22a.67.67 0 001-.49 7.56 7.56 0 00.15-2.18c0-.12 0-.24-.17-.26s-.19.07-.26.17c-.39.49-1.08.82-.89 1.52zm20.43 8.58a6.75 6.75 0 00.3-3 1.3 1.3 0 00-.59-1c-.13-.09-.27-.15-.4 0a.2.2 0 000 .31c.57.64.23 1.51.58 2.24a2 2 0 01.11 1.43zm-102.87-28.4a1.46 1.46 0 00-1.4.6 13.32 13.32 0 01-.59 1.32 3.68 3.68 0 001.99-1.92zM130.18 139c.88-.61.53-1.59.8-2.33 0 0 .05-.54-.3-.49s-.53.19-.48.54c.09.64-.4.94-.65 1.34.45.12.45.12.63.94zm5.31-6.47a1.21 1.21 0 01.62.44.92.92 0 00.85.37c.36-.09.3-.46.2-.75s0-.27.18-.33c.46-.23.28-.57.17-1a9.22 9.22 0 01-2.02 1.3zm38-23.25c0-.3-.48-.37-.42-.58.36-1.13-.56-1.26-1.19-1.66-.44-.28-.68.08-.81.26-.28.41.2.3.37.43.52.38 1.24.61 1.23 1.44 0 .37.29.3.49.35s.28 0 .32-.21zm-36.41 19h1.21c.23 0 .51-.13.41-.33-.2-.39.06-1-.39-1.18s-.66.4-.89.73a4.28 4.28 0 00-.35.78zm14.85-10.77c.74-.69.32-1.67.88-2.39-.42.84-.94.83-1.36.44 1.11.16.14 1.25.47 1.95zM177.75 82c0-.22.14-.47-.12-.57a1.24 1.24 0 00-1.33.12 1.48 1.48 0 00-.6 1.38.34.34 0 00.4.26c.18 0 .24-.16.19-.32-.19-.64.23-.52.59-.47a.87.87 0 00.87-.4zm-6.69 30.58c.74 0 1.38-.51 2.12-.42h.09c.21-.2.49-.41.45-.7s-.42-.31-.5-.16c-.34.72-1.11.38-1.6.7-.24.13-.62.12-.56.56zm-18.21 8.71c.45.14.69-.16.83-.59.07-.19.14-.58 0-.5-.59.24-1.4-.32-1.73.27-.24.33.46.53.9.8zm7.88-47.72c-1.65.47-1.65.47-1.9 1.43.79-.29 1.66-.41 1.9-1.45zm-27.29 56.92c1.11 0 1.3-.56 1.27-1.31-.82-.06-.86.67-1.27 1.29zm109.82 13.89a.8.8 0 01.72.59c0 .13.19.28.34.17a4.85 4.85 0 00.74-.6.18.18 0 00-.11-.28c-.53-.01-1.08-.62-1.69.1zm-45-21.57a2.32 2.32 0 00-.77 1.43c0 .15 0 .31.18.35s.33.07.39-.1c.15-.49.71-1 .17-1.7zm69.3 12.19c.23-.6 0-1.23 0-1.85 0-.14-.11-.21-.23-.21a.34.34 0 00-.2.08c.22.66-.37 1.47.43 1.98zm-137.49 7.64a7.18 7.18 0 00-.73.47c-.15.13-.46 0-.46.32 0 .1.18.23.3.29.28.17.4-.11.57-.24a.85.85 0 00.32-.83zm2.45-.49c-.2-.08-.45-.28-.53 0s.17.6.46.76a.36.36 0 00.56-.24c.1-.39-.21-.46-.49-.51zm108.94-21.08a1.67 1.67 0 010-.19c.12-.31.24-.78-.08-.85s-.39.39-.43.7a2.06 2.06 0 000 .26c0 .21-.28.51.07.59s.35-.3.44-.5zm-53 9.55c-.34.47-1.07.62-1.12 1.31a2 2 0 001.15-1.3zM209 113.16c-.41-.13-.37-.86-1-.71-.26.07-.13.28-.07.44.17.49.51.58 1.07.27zm-46.87 43.77c.12.46-.38.87-.06 1.34.79-.38.69-.84.02-1.34zm79.29-9.49c.1-.17.11-.33-.06-.39-.35-.12-.55.1-.67.39s-.2.46.06.53.36-.43.63-.53zm-86.44-31.35a1 1 0 00.78-.85.37.37 0 00-.22-.1c-.63.06-.42.62-.6.95zm18.47-15.34c.23.34.42.55.7.42a.48.48 0 000-.47c-.22-.32-.41.11-.74.05zM266.72 131c.21-.5-.1-.77-.55-1s-.36.22-.41.37a.77.77 0 00.49 1c.29.21.4-.05.47-.37zM168 92.62c.16 0 .38 0 .45-.12.12-.31-.14-.47-.36-.61s-.36-.1-.44.09.08.47.35.64zm67.8 22.08c-.31.26-.56.42-.32.74a.22.22 0 00.31.07c.31-.23.03-.46.01-.81zm-30.69-2.49l-.58.86c.3-.17.9-.07.58-.86zm-95.24 33.88c-.15 0-.32 0-.32.18a.49.49 0 00.36.46.21.21 0 00.26-.18c.07-.25-.08-.38-.3-.46zm123.69-35.2c.19-.33.23-.63-.11-.85a.24.24 0 00-.23.07c-.17.36 0 .6.34.78zm-94.14 52.3c-.19-.06-.35 0-.42.18s-.13.36.13.41.47.1.57-.1-.11-.37-.28-.49zm64.48-57a1 1 0 00-.33 1.08 1 1 0 00.33-1.13zm-54.72 34.68c.16-.17.06-.2 0-.23s-.23 0-.28.14 0 .13.05.2zm18.23-51.67v-.06-.06l-.06.1zm89.3 30.23c.12-.15 0-.18 0-.24s-.16.08-.18.14 0 .13.06.19zm-34.82-8.86a.61.61 0 000-.15.76.76 0 00-.21 0 .88.88 0 000 .14zm18.49.14c.17 0 .25-.07.23-.2s-.1-.12-.15-.17a2.29 2.29 0 00-.21.23s.1.06.13.09zm-85.42 6v-.06c0-.06 0 0 0 0v.06c0 .06.04-.07.04-.07zM.74 137.35c.24-.81.46-1.63.7-2.44a8.75 8.75 0 00.24-2.47 6.32 6.32 0 011-3.86 3.93 3.93 0 00.32-1.17 3.84 3.84 0 011.41-2c.24-.21.56-.34.44-.76a.33.33 0 01.09-.24c.8 0 .67-1 1.26-1.25A9.58 9.58 0 008.91 121a11.83 11.83 0 013.42-2.4c1.08-.47 1.91-1.4 3.13-1.58.08 0 .19-.13.23-.11 1 .56 1.27-.37 1.82-.75.09-.07.22-.2.29-.18 1.08.33 1.85-.5 2.66-.86a16 16 0 013.82-1.26c1.48-.25 2.61-1.42 4.14-1.37.38 0 .49-.28.69-.43a1.51 1.51 0 011.49-.34c.7.17 1.43-.44 2.08-.81a3.54 3.54 0 011.16-.43c.6-.12 1-.64 1.56-.94 1.74-1 3.4-2.32 5.43-2.34.94 0 1.25-.57 1.83-.87 1.5-.8 3.14-1.18 4.69-1.83.72-.3 1.39-.75 2.12-1a28.18 28.18 0 013.53-1.27 12.39 12.39 0 013.29-.81.22.22 0 00.15-.08c.81-1.21 2.13-.87 3.26-1.16s2-.51 3-.81a5.68 5.68 0 012.32 0c1.9.22 3.8.28 5.72.31a15.35 15.35 0 011.9.31 9.38 9.38 0 013 1.07 3.15 3.15 0 011.52 1.08 2.33 2.33 0 001.58 1.16c.9.19 1.17.68 1 1.56 0 .11-.07.24 0 .32 1 .7 1.34 1.92 2.42 2.59a3 3 0 011 2.07 2.17 2.17 0 00-1.83-.35c-.3.1-.42.21-.3.49s-.07.57 0 .52c.48-.34.54 0 .71.31s.31.07.38 0c.24-.43.73-.57 1-1 .07.1.2.21.19.28a14.86 14.86 0 00.19 4.21c0 .56 0 .93-.8.48.38.71 1.2.78 1.36 1.16s0 1.08.31 1.54.37.89.9 1.11.4.62.34 1a1.28 1.28 0 00.36 1c.9 1.2 1.94.64 3.15.25-.36 1.36.66 2.32.8 3.54 0 .37.51.75.65 1.1.45 1.07.49 2.35 1.11 3.27.48.72.21 1.21.28 1.82a18.25 18.25 0 01-.06 4.67 7.14 7.14 0 01-.45 2c-.71 1.48-.89 3.15-1.84 4.55a24.34 24.34 0 00-2.87 4.87 4 4 0 01-1.41 2.22c-.63.41-.59 1.2-.89 1.8s-.42 1.36-1.27 1.77-.83 1.43-1.33 2.14c-.81 1.13-2 1.72-2.9 2.7a11.44 11.44 0 00-1.6 1.72A4.06 4.06 0 0176 160a37.63 37.63 0 00-4 2.39c-.71.57-1.65.76-2.19 1.52a.63.63 0 01-.53.24 9.62 9.62 0 00-3 1.16 10.77 10.77 0 01-1.54.31 28.41 28.41 0 00-4.89 2.16 5.73 5.73 0 01-3.75.41c-.26 0-.55-.21-.43-.44.4-.8-.38-.54-.69-.82.11.43.26 1-.3.93s-1.18-.14-1.23-.9a4.21 4.21 0 01.07-1.06c.06-.28.15-.58.51-.65l2.61-.53c0-.4-.48-.75-.06-1.2.1-.11-.15-.34-.33-.29-.87.25-1.84-.23-2.64.3s-1.64.88-1.81 2c-.06.41-.15 1.09-.94.8a.18.18 0 00-.27.14c-.16.88-.77.64-1.37.62a16.28 16.28 0 01-2.13.12 1.1 1.1 0 00.68.88c.7.41.81 1.1.16 2a1 1 0 01-1.51.39c-.4-.29-.47-.08-.79.16a2.41 2.41 0 01-2.19.31c-.33-.1-.54-.17-.78.23s-.66.22-1 .11-.94-.43-1.5.15a1.82 1.82 0 01-1.72.12.75.75 0 00-.29 0 35.22 35.22 0 01-8.85-1.73 45.77 45.77 0 01-4.37-1.9 5.82 5.82 0 00-1.35-.4 7.89 7.89 0 01-2.78-1.46 29.64 29.64 0 00-3.39-1.57c-.36-.17-.72-.42-.87.22a.26.26 0 01-.46.15c-.24-.61-.77-.38-1.19-.48a3.82 3.82 0 01-2.38-1.58c-.67-1.12-1.74-1.66-2.57-2.51a18.61 18.61 0 01-3-3.5 27.49 27.49 0 00-2.22-3.29c-.26-.32-.62-.31-1-.39-.57-.12-.68-.44-.3-.87s.22-.78.31-1.17a3.22 3.22 0 00-.89-2.75c-.71-.87-.3-2.09-1.19-2.79-.25-.2-.06-.48 0-.64.25-.83-.62-1.67 0-2.48a.21.21 0 00-.05-.31c-.18-.09-.27 0-.35.17s-.13.47-.41.35c-.11-.05-.14-.3-.2-.46-.48-1.42-.14-2.94-.71-4.4.46 0 .36.27.42.41s-.11.64.29.62.36-.42.41-.7 0-.66-.4-.73zm67-31.24l-.1-.09.09-.06v.15c0 .38.94 1.94 1.28 1.9s.68.57 1 .06-.2-.68-.39-1c-.07-.12-.26 0-.31 0-.46-.38-1.14-.43-1.53-.96zm-6.84 4.55c.21.55.44 1.1.62 1.66.1.34.12.68-.32.89-1.33.64-2 .33-2.8-1-.49-.85-.57-2.09-1.89-2.35-.3-.06-.5-.57-.36-.91s0-.7-.4-.86a1.45 1.45 0 01-.59-.51 3.19 3.19 0 00-3.55-1c-.2.09-.42.14-.49.34s0 .47.18.34c.62-.38 1-.43.95.46 0 .18.2.18.35.17a1.23 1.23 0 01.78.36c.93.74 1.46 1.86 2.49 2.51.21.14.34.6.54.89.33.48-.2.74-.31 1.11s-.4.33-.74.33c-1.43 0-2-1.22-2.74-2.05s-1.69-1.95-3.15-1.95c-.17 0-.4 0-.45-.23-.23-.79-.64-.5-1-.15s-.61.15-.85.34c.49 1 1.55.57 2.25 1a1.71 1.71 0 011 1.45 1.41 1.41 0 01-1 1.22 1.32 1.32 0 01-1.51-.67 1.4 1.4 0 00-1.13-.75c-.72 0-1.38-.33-2.08-.38-.86-.06-1.43-.4-1.49-1.31-.74.52-.43 1.25-.5 2 .49-.36.86-.35 1.19.12a2.05 2.05 0 001 .77c.65.21 1.12.66.89 1.3s-1 .67-1.53.53a6.27 6.27 0 01-2.61-1.48 6.27 6.27 0 00-2.31-1.56c-.73-.2-.63 1-1.14 1.38a1.26 1.26 0 000 .16 8.79 8.79 0 011 .39c1.17.63 2.34 1.18 2.83 2.66a1.38 1.38 0 01-.43 1.67c-.21.22-1.7-.17-1.85-.49a4.75 4.75 0 00-1.72-1.95 4.79 4.79 0 00-4.13-.84c.26.27.6.24.9.32s.86.23 1 .65c.4 1 1.38 1.57 2 2.47 1 1.58.72 2.18-.45 3-.53.38-.87.23-1.25-.26a21.19 21.19 0 01-1.4-2.56c-.67-1.14-.83-1.29-2-.73-.2.1-.38.16-.36.42s.17.25.29.37a3.74 3.74 0 011.59 2.63c0 .2.09.39-.17.53a2.7 2.7 0 01-2.76-.56c-.51-.62-.74-1.43-1.5-1.88a1.89 1.89 0 00-1.71-.11c-.28.21-.07.5 0 .48.82-.21.87.66 1.32.89.86.46 1.2 1.32 1.71 2 .21.3.38.92-.25 1.07a2.15 2.15 0 01-1.76-.12c-.59-.34-.74-.91-1.11-1.28a8.6 8.6 0 00-2.24-1.6.68.68 0 00-1 .29c-.26.45.12.59.41.69s.37.36.53.57c.57.73-.24 1.44.1 2.14.1.19-.25.36-.51.32a1.78 1.78 0 01-1.53-1 2 2 0 00-2.47-1.01c-.24.12-.88.45-.33.7s.84.85 1.4 1.14a1 1 0 01.6 1.1.79.79 0 01-.94.53 4.24 4.24 0 01-2-.76 3.41 3.41 0 00-1-.62c-.62-.26-1 .07-1.22.63s-.49.91.39 1c.34 0 .48.5.54.82s-.22.48-.47.59a1.86 1.86 0 01-2.15 0c-.22-.18-.49-.32-.71-.12a5.59 5.59 0 00-.83 1c-.05.07.07.23.2.23a.55.55 0 01.54.74c-.1.34-.52.38-.91.39s-1.12 0-1.35.26a10.72 10.72 0 00-2 2.86c-.18.48.06.63.45.6a6.54 6.54 0 012.61.55c.56.17.87.92 1.56.78a3.86 3.86 0 011.87.38c1 .28 1 .27 1-.75a3 3 0 011.83-2.55c.07 0 .13-.14.18-.21a7.9 7.9 0 013.32-2.49c.46-.2 1.1-.51.94-1.31-.08-.41.3-.34.56-.36a6.44 6.44 0 002.6-.44 32.69 32.69 0 014.76-1.69 6.31 6.31 0 001.79-.56 28.52 28.52 0 013.07-1.67c.42-.23.86-.52 1.31-.75 1.15-.57 2.56-.83 3-2.38a1.34 1.34 0 011.17-1c.51 0 .74.27.81.74a.56.56 0 00.22.27A1.36 1.36 0 0144 122a.48.48 0 00-.18.62c.08.23.28.17.44.09.55-.24 1.22-.23 1.52-.92.19-.44.66-.14.68 0 .19 1.12 1 .57 1.68.79-.47-.67-.47-.67-.13-1.3a1.51 1.51 0 00.19-.86c-.15-1.82.33-2.41 2.16-2.57a2 2 0 001.29-.51 1.56 1.56 0 011.22-.45 6.27 6.27 0 001.93-.23.52.52 0 01.56 0 .87.87 0 001.15-.07 1.25 1.25 0 011.55 0 1.27 1.27 0 001.41 0 3.31 3.31 0 012.4-.31 26.18 26.18 0 004 .52c1.15.13 2.35-.52 3.45.21s2.69.13 3.57 1.41a1.3 1.3 0 001.33.51c.63-.07 1.15.7 1.71.57s.82.16 1.24.36.59-.7 1.18-.73a5.91 5.91 0 01.77.12c1 0 1.66.79 2.51 1.14.34.15.81 0 1 .41v.08h.06c.11-.24.15-.5-.06-.67-.58-.47-.62-1.24-1-1.8s-.54-1.43-1.16-2.06c-.31-.33-.53-.84-1-1.13a.91.91 0 01-.41-1c.07-.35 0-.76-.44-.84a2.38 2.38 0 01-2.25-1.79.59.59 0 010-.08c-.08-.22-.21-.14-.32 0s-.15.14-.06.29a3.28 3.28 0 01-.18 3.59c-.18.33-.47.88-.93.61s-1.46-.13-1.47-1.11a19.33 19.33 0 00-.52-2.4c-.06-.4-1.77-1-2.07-.68a.41.41 0 00-.11.32c.13.32 0 .67.07.94.19.44.27.87-.22 1s-.58.59-.93.7c-.52.17-1.73-.72-1.77-1.31a8.8 8.8 0 00-1.17-3.16c-.11-.23-.24-.35-.46-.34s-.48.29-.65.53-.1.43 0 .47c1 .3.63 1.25.93 1.87.1.19.14.46-.09.55-.77.3-1.53.94-2.41.43a1.63 1.63 0 01-.85-1.68c.08-.65-.64-.87-.77-1.44 0-.11-.64.06-1 .25s-.48.13-.45-.28zM85.13 138c-.07.07-.07.13 0 .17s.08 0 .08 0 0-.14-.12-.13a39.24 39.24 0 001.1-4c.24-.78 0-1.77 1.05-2.16.12 0 .21-.22.25-.35.46-1.41-.25-2.69-.53-4-.15-.69-.9-1.28-1.44-1.86-.31-.33-.72-.77-1.18-.69a4.22 4.22 0 01-3.37-.78c-.13-.1-.35-.22-.48 0a.6.6 0 00-.12.49c.23.75 1 1 1.42 1.66.07.12.56 0 .55.38s-.4.29-.58.44c-.76.69-1.85.13-2.71.92a1.52 1.52 0 01-2.5-.53c0-.07-.12-.13-.2-.16a1.82 1.82 0 01-1-1.87c0-.22.2-.54-.19-.51a3.7 3.7 0 00-1 .37s-.06.11.09.22c.39.27 1 .57.85 1.21-.14.49.3 1.49-.9 1.25a.33.33 0 00-.39.28c-.21.82-.87.35-1.24.31s-1-.12-.83-.88c.09-.31 0-.82-.32-.84-.79-.06-1.39-1-2.29-.46a.35.35 0 01-.26 0 1 1 0 00-1.33.46c-.24.51.12 1 .61 1.33a1.57 1.57 0 01.54 1.65c-.11.46-.75.63-1.27.64-.31 0-.84.28-.77-.45 0-.17-.19-.22-.33-.24-.9-.13-1.16-.79-1.35-1.55a1.06 1.06 0 00-1-.87c-.46 0-.59.21-.62.63s-.28.59-.6.31-.46-.52-.71-.77c-.51-.5-.42-.57-1.09-.16a4.42 4.42 0 01-.63.27 3.34 3.34 0 01.28.76c.18.68.24 1.54.84 1.88s.88 1.15 1.56 1.46c.35.15.29.47.18.77s0 .45-.35.41c-1.23-.15-.7.48-.47 1 .11.27.52.61 0 .87s-.76.67-1.37.07a7.41 7.41 0 01-1.64-2.91c-.43-1.22-1.37-2.08-1.75-3.27-.09-.3-.41-.54-.54-.88a2.24 2.24 0 00-2-.66c-.89.45-.78 1.24-.66 2a1.57 1.57 0 01-1.58 2.06c-.49.06-.78 0-.85-.61-.09-.74.07-1.47 0-2.21 0-.22.18-.65-.41-.49a2.06 2.06 0 01-1-.07c-.24-.06-.43-.36-.69 0s-.37.54-.2.89c.07.17.22.39.16.5-.53 1 0 1.93.1 2.88a1.29 1.29 0 01-.61 1.19.86.86 0 01-1.13 0A2.21 2.21 0 0147 131.2a4.31 4.31 0 00-.08-1.13.86.86 0 00-1-.72c-.45.05-.56.47-.37.9a1.39 1.39 0 010 .7 12.87 12.87 0 00.13 4 4 4 0 010 1.75.78.78 0 01-.84.62 2.87 2.87 0 01-2.18-2.67 17.89 17.89 0 01.24-2.08c.12-.59 0-1.23-.56-1.15-.74.12-1.62-.17-2.25.47a.5.5 0 000 .49c.65.62.23 1.26.14 1.92a22.13 22.13 0 00-.18 2.7 5.25 5.25 0 00.27 2.9c.24.43-.34 1-.85.92a4 4 0 01-2.12-2.13.28.28 0 010-.09c0-.92 0-1.85.05-2.76a7.84 7.84 0 00.08-1.74c-.08-.71-.42-.9-1.07-.56a.88.88 0 01-.57.06c-1.89-.11-2.34.41-2.36 2.07a14.56 14.56 0 00.29 4.27c.18.63 0 1.09-.57 1.08s-1.36 0-1.47-.85a8.41 8.41 0 00-.07-1.34c-.3-.92.44-1.72.07-2.73-.28-.75-.69-.77-1.09-.72s-1 .32-.74 1.09a2.11 2.11 0 01.19 1.29 5.62 5.62 0 00-.13 3.12c.09.38.05.79-.34.89s-.87-.05-.91-.37c-.12-1-1.21-1.64-.85-2.74a2.53 2.53 0 00-2.25 1 10.07 10.07 0 01-1.27 1.42c-.15.13-.24.33-.5.29s-.15-.33-.16-.5-.16-.36-.37-.51c-.71-.49-1.34-1.06-2.2-.27 0 .05-.23 0-.34 0-.5-.16-.69.13-.83.54a13.49 13.49 0 00-1.09 3.67 2.41 2.41 0 01-.66 1.33c-.24.29-.46.36-.8 0a20.4 20.4 0 01-1.52-1.9c-.75-.91-.33-1.49-.11-2.24.07-.24.5-.42.23-.68s-.55.07-.77.22c-.88.56-1.71 1.23-2.62 1.72a1.63 1.63 0 00-.8.75c-.24.56-.43 1.15-.63 1.73a.5.5 0 000 .42c.65.68.09 1.29-.29 1.61a1.06 1.06 0 00-.38 1.49c.18.45.57.53.79.85s.39-.19.64-.21c.67-.06 1.35-.56 2 .11a.26.26 0 00.39 0c.57-.74 1.53-.68 2.25-1.14s1.24 0 1.2.83c0 .17 0 .32.14.4a6.35 6.35 0 011.55 1.83 1 1 0 001.75 0 .72.72 0 011.09-.11 1.19 1.19 0 01.18 1.65c-.54.71-1.05 1.45-1.59 2.18a.47.47 0 00-.08.49.31.31 0 00.3.1 5.72 5.72 0 002.87-1.35 26.42 26.42 0 002.52-3.69c.42-.73.8-.75 1.4-.38.81.5.95 1 .56 1.69s-1 1-.66 1.78c0 .06-.09.23-.17.29-.51.34-.61.91-.88 1.39-.43.76.25 1 .61 1.29a.81.81 0 001.11-.13c.66-.66.76-1.59 1.22-2.34s1.17-1.11 1.39-1.92a3.12 3.12 0 011.34-1.69c.81-.59 1.21-.47 1.77.41a16.38 16.38 0 011.07 1.59c.36.7 1.12.18 1.6.62.18.17.44-.49.5-.79.14-.8 1-1.08 1.19-1.85a.23.23 0 01.34-.17c.37.3 1.59-.46 1.14.88 0 0 0 .1.09.14.88.82.65 1.5-.21 2.19a.81.81 0 00-.23 1c.21.35.57.19.88.12a1 1 0 01.25-.08c.43 0 .62.25.78.6a.55.55 0 01-.29.81c-.72.1-1.18.74-2 .76-.48 0-1.31-.21-1.62.52s-1 1.35-1.42 2.14c.58.09 1.24 0 1.61.52s.54.6.94.31a.77.77 0 00.19-1.15c-.33-.56 0-1 .65-1.08a1.35 1.35 0 00.86-.41c.77-.76 1.7-1.39 2-2.57.14-.69 1-1.06 1-1.78a14.25 14.25 0 011.25-3.11c.22-.56.49-1.61 1.4-.48.07.08.29.07.43 0 1.07-.21.9 1.13 1.65 1.31-.42.42 0 1-.3 1.48-.64 1-.89 2.17-1.91 2.9-.15.11-.52.42-.25.65s.72.33 1 0 .47-.23.76-.23c.6 0 1.21 0 1.47-.74a1.58 1.58 0 01.66-.7 1.42 1.42 0 00.66-1 4.27 4.27 0 011.93-3.07c.61-.42 1.42-.84 1.7-1.42.39-.8.93-.6 1.44-.6a1.34 1.34 0 011 1.57 13.16 13.16 0 01-1.73 3.08c-.16.2-.31.63.06.59a5.71 5.71 0 001.76-.59 4.57 4.57 0 001.69-1.64c.7-1 .77-2.34 1.8-3.11v-.17a15.7 15.7 0 011.19-2.44.85.85 0 011.31-.17c.39.26 1.05.31 1 1.12a7.09 7.09 0 01-.86 2.53c-.26.66.09 1.42.69 1.25a4.47 4.47 0 002.19-1.2c.6-.67.93-1.6 2-1.85.48-.11.51-.6.62-1s.13-.71.22-1c.16-.56.19-.58.65-.17.19.17.07.05.11 0 .23-.5.94-.3 1.21-.84.06-.12.75 0 1 .38.58 1.13 1.13 1.27 2.16.55a4.61 4.61 0 011.47-.91 3.18 3.18 0 002-1.27c.37-.61 1.18-.84 1.36-1.54.25-1 .47-1.8 1.6-2.16.66-.22 1.26-.14 1.21.53-.1 1.31.49.5.86.33.86-.41 1.49-1.22 2.42-1.49a1.15 1.15 0 00.74-.77zm-78.45-1.56c.77.16.6.69.49 1.09a4.24 4.24 0 01-.62 1.17c-.2.29-.36.48.06.68s.61.25.77-.21a1.73 1.73 0 011.14-1.08 1.36 1.36 0 011.51.26c.38.38.06.88-.32 1.23-.18.17-.52.35-.23.64s.68.49.95.23c.66-.61 1.85-.47 2.16-1.58.1-.33.19-.45-.18-.6a5.93 5.93 0 01-3.12-2.78c-.42-.85-.84-.88-1.48-.17 0 .07 0 .23-.09.25-.44.13-.33.92-1.04.87zm39.84 22.3c-.25-.05-.47 0-.7-.09A1.49 1.49 0 0044 159c-1.25 1.05-1.62 2.79-3 3.85.81-.28 1.84.27 2.35-.74.35-.71.68-.78 1.18.31a4.24 4.24 0 011.99-3.68zm13.14-.54c.13-.61-.19-1-.7-1.3-.3-.2-.49-.15-.56.06-.43 1.3-2.21 1.52-2.4 3 0 .1-.23.17-.34.27-.27.25-.53.52-.79.78.33.32.69 0 1 0a5.63 5.63 0 00.71 0c.77-.13 1.78.11 1.85-1.18 0-.22.27-.48.48-.61.44-.22.49-.65.75-1.02zm-38 2.85c.7 0 1.43.61 2.2 0 .21-.17.32-.45.64-.53.48-.12.9-.52.52-.94s-.69-1.11-1.42-.42a4 4 0 01-2 1.12c-.24.05-.64-.12-.67.24s.35.4.68.53zm27.33.62c2.23-.16 2.84-2.08 4.07-3.59-2.65.02-2.78 2.46-4.12 3.59zm-16.36 2.92a5.52 5.52 0 002.18.12c.41-.09.5-.28.24-.68s-.71-.39-1-.61-.18-.8-.74-.5-1 .39-.92 1.16c-.08.31-.13.45.19.51zm-13.8-6.35a.71.71 0 00-.12-.75c-.25-.24-.47-.11-.71 0a1.1 1.1 0 01-1.11.27 1.56 1.56 0 00-1.28.41c-.7.68.25.59.48.88.48.61 1 .35 1.44.09s.99-.36 1.25-.9zm44-52.57c.54.67.52 1.79 1.67 1.91.26 0 .3.81.74.54s-.06-.69-.07-1.06c0-.22-.24-.39-.33-.56-.5-.86-1.46-.39-2.05-.83zm-29.24 49.5c-.43-.12-1.21.62-1.43 1.24-.16.45.15.53.41.63.68.24 2-.24 2.09-.86s-.66-.81-1.11-1.01zm17.88-33.8l.08.29c1.11-.37 2.23-.73 3.34-1.12a.31.31 0 00.12-.46c-.14-.22-.31-.06-.45 0a1.86 1.86 0 01-1.05.38 3.73 3.73 0 00-2.08.91zm-24.4 41.47a1.75 1.75 0 002-.54 1 1 0 00-.14-1.13c-.19-.27-.64 0-.8.28-.26.42-.74.54-1 .94s-.19.41-.06.45zM59.84 107c-.34-.16-.52 0-.5.44 0 .78.68 1 1.2 1.37.11.07.45-.16.65-.3a.24.24 0 000-.38c-.44-.35-.65-.98-1.35-1.13zm-21.17 61.2c-.12-.19-.23-.28-.25-.38-.09-.79-.42-1.07-1.16-.59a.38.38 0 01-.26 0c-.32 0-.52-.06-.53.41s.05.6.45.68a5.33 5.33 0 001.75-.12zM89 134.06c-.23-.57.42-.78.5-1.23a.82.82 0 00-.14-.63c-.08-.16-.16-.09-.27 0-1.09.43-1.1.47-.35 1.42a2.11 2.11 0 01.26.44zM76.81 106c-.16-.64-.88-.3-1.17-.7s-.4-.1-.52.18c-.37.82.55.47.77.8s.6-.07.92-.28zM14.4 123.07c-.09.3-.46.73.18.79s.75-.47.94-.9c.11-.25.17-.5-.21-.5s-.96-.13-.91.61zM72 108.81c0-.51-.51-.61-.84-.84-.09-.07-.56-.15-.53.17a1.16 1.16 0 00.83 1c.35.14.45-.04.54-.33zM11.94 123c.56.48 1.05.33 1.46.47s.17-.51.47-.72-.11-.28-.31-.37c-.76-.38-.88.62-1.62.62zm58.79 35.75c.29 0 .57-.05.86-.06a.77.77 0 00.67-.49.18.18 0 00-.13-.27c-.3 0-.66-.14-.83.26a1.29 1.29 0 01-.57.53zm-6.38-55.78c.73.78 1.32.33 2 0-.71-.5-1.29-.09-2-.03zM25.58 139a1.34 1.34 0 00.91-.77.42.42 0 00-.37-.58c-.35 0-.83.09-.84.58-.01.21-.06.56.3.77zm-14.29-12c.19-.21.51.48.67-.06.09-.33-.1-.58-.48-.72s-.64.2-.72.44.29.19.53.28zm18.65 39.2c0 .73.52.8 1 .83.21 0 .43 0 .44-.28a.35.35 0 00-.37-.4c-.33-.01-.64-.24-1.07-.21zM82 113.59a3 3 0 01.62-.93.57.57 0 00.1-.67.35.35 0 00-.46-.14.48.48 0 00-.29.59 5.81 5.81 0 01.03 1.15zm0 29.92c.26.33.5.43.79.11.11-.13.23-.23.06-.34-.29-.2-.46.35-.8.23zm-20.08 11.15c0-.14 0-.33-.08-.31-.42.1-.94.05-1.17.56-.07.14-.07.35.09.35a1.78 1.78 0 001.16-.6zm8.46-28.46h-.08v.08l.09-.07zM167.59 2.09h.52a1.55 1.55 0 001.67.6c1.16.92 2.29 1.89 3.49 2.76a12.4 12.4 0 012.8 3.17c.57.84 1 1.85 1.59 2.66a5.42 5.42 0 01.75 2.38 13.78 13.78 0 01.63 4.56 2 2 0 000 1.37 7 7 0 01-.32 2.92 1.12 1.12 0 00.1.84 1.68 1.68 0 00-.14 1.08c-.11.23-.25.46-.11.73a.2.2 0 000 .17c-.28.22-.79.36-.33.86l-.14.68A9.08 9.08 0 00177 30a14.35 14.35 0 01-1.48 4.12c0 .07-.1.17-.17.18-.8.2-.7.65-.35 1.19-.49.2-.37.72-.55 1.08-.48.52-.54 1.33-1.22 1.72a.73.73 0 00-.32.77.39.39 0 00-.26.33c-.33.7-1.09 1.13-1.16 2-.49 0-.61.39-.65.8l-.19.46c-.78.41-.89 1.3-1.39 1.91a3.32 3.32 0 00-.38.78.45.45 0 00-.4.47c-1.2 1.48-2.53 2.85-3.7 4.37-1 1.34-2.26 2.56-3.41 3.83-.1.1-.27.18-.31.3a3.77 3.77 0 01-2.13 2.32c-.33.17-.34.64-.51.94-1.17 2.12-3.4 3.19-4.87 5-.23.28-.7.34-1 .62-1 .8-1.67 1.91-2.87 2.48-.35.16-.21.84-.66 1a13.08 13.08 0 00-2.43 1.6q-2 1.17-4.07 2.31a10.1 10.1 0 01-1.75.85 4.48 4.48 0 00-1.86 1 2 2 0 01-1.74.61 4.27 4.27 0 00-2.47.69c-1.16.64-2.42.45-3.63.65a22.07 22.07 0 01-2.72.47 3.61 3.61 0 01-1.35-.15c-.32-.1-.73-.37-.92.22 0 .08-.26.14-.39.13-1.79-.14-3.68.18-5.17-1.36 0-.18.4.09.45-.24-.24-.21-.92-.1-.72-.77 0 0-.24-.24-.33-.22-.76.14-1.28-.59-2-.5-.15 0-.49-.08-.47-.32 0-.67-.47-.53-.87-.7 0 .42 0 .86-.31 1s-.61-.35-.87-.39a8.7 8.7 0 01-2-1 17.05 17.05 0 01-3-1.41 10.71 10.71 0 00-1.45-1c-.45-.21-.26-.68-.4-.91-.58-.16-.09.63-.56.46-.73-.26-1.66-.29-2-1.15-.17-.43-.25-.76-.8-.68-.19 0-.26-.11-.18-.29s.2-.25.33-.12a.66.66 0 00.91.08c-.63-.7-1.14-1.49-2.24-1.52a.84.84 0 01-.76-.62 1 1 0 00-1.41-.67c-.63.23-1 .15-.89-.63.06-.5-.52-.58-.7-1-.3-.7-.49-1.45-.75-2.17-.34-.93-1-1.66-1.29-2.63a1.87 1.87 0 00-.89-1.34c-.45-.23.41-.73-.09-1.05.3-.42-.09-.67-.21-1-.28-.78-.47-1.59-.69-2.39a5.69 5.69 0 01.42-2.51c.14-.77.32-1.53.43-2.31.06-.45.07-1.43 1-1.62.4-.08.75-.42.44-.86s0-.64.33-.66c.54 0 .64-.35.83-.75a12.53 12.53 0 001-2.49 1.5 1.5 0 00.07-.86.55.55 0 01.16-.65c.55-.38.69-1 1-1.53a27 27 0 011.92-2.94c.91-1.2 1.92-2.34 2.9-3.46s2-2.62 3.58-3.21c0-.8.83-1.16 1-1.81.28-.86 1.11-1.15 1.65-1.72 1.13-1.2 2.38-2.29 3.48-3.54a10.47 10.47 0 012.58-2.11c1.3-.75 2.61-1.5 3.87-2.3.58-.37.92-1.12 1.79-.93 0 0 .14 0 .14-.09.19-.94.78-.87 1.5-.65.39.12.44-.28.55-.55a1 1 0 01.9-.8c.5-.1.83-.7 1.37-.92 1.59-.65 2.81-1.92 4.4-2.65A23 23 0 00137 7a24.2 24.2 0 012.83-1.52c1.59-.77 3-2 4.66-2.48a2.62 2.62 0 011.81-.13c.35-.9 1.29-.58 1.93-.89a6.56 6.56 0 013-.89 3.21 3.21 0 001.22-.35c.14-.06.13-.25 0-.36.33.74.9 0 1.37.22.89.34 1.79-.29 2.73-.27.25 0 .64-.14.88 0A1.25 1.25 0 00158.6 0h.07a8.65 8.65 0 002.9.72c1.46.23 2.87.66 4.32.9a2.44 2.44 0 00.52-.06l.63.26c.1.31.31.33.55.27zm-2.52 4.26c.63.7 1.33.41 2.07.23.32-.08.35-.57.7-.44s.58-.09.61-.44-.26-.51-.62-.53c-.59 0-1.17-.09-1.36-.83 0-.12-.39-.34-.43 0-.08.64-.4.51-.8.37a.64.64 0 00-.8.36c.8.49.86.62.65 1.29-.25 0-.58-.31-.65.21a.35.35 0 00.41.43c.48 0 .21-.4.22-.65zm-61.26 37.8v-.13.08c0 .53 0 1-.78 1-.23 0-.3.17-.24.36.32 1-.53 1.71-.85 2.51a15.35 15.35 0 00-.91 3.36c0 .18 0 .28.2.33s.28-.08.31-.28a15.63 15.63 0 01.66-2.11 4.77 4.77 0 012.31-3c.28-.16.54-.35.42-.69-.22-.58.13-.9.44-1.32s1.18-.64 1.31-1c.2-.58.66-.95.85-1.49.09-.26.53-.47.27-.75s-.52.12-.77.22a1 1 0 00-.48.39 13.38 13.38 0 01-1.76 2.07 1 1 0 01-.98.45zm42.83-36.33c-.06-.05-.13-.14-.17-.13s-.13.15-.05.26c-.69 0-1.35.42-2.09 0a1.48 1.48 0 00-1.33-.13 2.47 2.47 0 001 1c.56.27.57.87.75 1.35a.16.16 0 01-.18.23c-.62-.11-1.24.34-1.8.14-1.47-.55-2.9-.12-4.36 0a1.8 1.8 0 00-1.47 1c-.14.21-.26.61.32.79a1 1 0 01.51 1.45 1.08 1.08 0 01-1.28.62 5.21 5.21 0 00-.55-.18c-.44.82-1.27.61-2 .77-.36.08-.12.38 0 .47s.42.14.53.29c.23.33.7.6.41 1.13s-.63.27-1 .24a15.24 15.24 0 00-1.79 0c-.27 0-.59 0-.69.3s.26.35.41.5.39.38.34.68a.53.53 0 01-.6.42c-.9-.17-1.69.46-2.62.28a10.92 10.92 0 00-1.75.14c-1.64 0-2.93 1.08-4.24 1.95a3.25 3.25 0 00-.94.61 2.7 2.7 0 01-1.73 1.35c-.12 0-.24.08-.21.22s.11.2.15.19l2.28-.62v-.08c.13-.81.78-.81 1.39-.9a15.62 15.62 0 003.53-1.42.51.51 0 01.48 0c.92.29 1 1.32 1.7 1.81.25.17-.06.47-.26.52-1.29.38-2.48 1-3.73 1.48-1.07.37-2 1.19-3.22 1.1a.44.44 0 00-.17.06 12.29 12.29 0 00-3.21 3.54c.46-.36 1 .06 1.56-.14A7.29 7.29 0 00123.4 27c.13-.15.12-.42.4-.43a9.2 9.2 0 011.44 1.67 5.7 5.7 0 01-4 3.27 2.29 2.29 0 00-1.72.95c-.1.13-.23.42 0 .44.58 0 .23 1.43 1.21.79a1.09 1.09 0 01.29.41 1.45 1.45 0 00.88.91c.16.07.41.1.37.31-.19.88 0 1.87-.77 2.56-.32.27-.49.54 0 .81s.4.78.6 1.17-.44.14-.51.48-.39.48-.45.74a5.78 5.78 0 01-1.22 2.26c-.44.61-.29 1.46-1 2-.2.16-.25.81-.47 1.23a1 1 0 00.51 1.32.67.67 0 001-.34 27.61 27.61 0 013-5c.7-.9.91-2.09 1.81-2.91a3.9 3.9 0 001.65-2.74c0-.43.37-.31.67-.3.89 0 1.22.81 1.85 1.37.07-.49.13-.89.63-.91.82 0 2 1.24 1.79 2a8.25 8.25 0 01-.53 1.59 1 1 0 00.33 1.4c.55.47 1.35.29 2 .53.15.06.23-.12.26-.28a13.48 13.48 0 00.48-2.09c0-.32.08-.85.58-.65s1.29 0 1.14.91a22.84 22.84 0 01-.67 2.42c-.15.52.09.94 0 1.4-.22.92-.39 1.84-.65 2.74-.11.36 0 .64.22.75.42.18.36-.27.43-.47.73-2.08.92-4.31 1.72-6.38a.36.36 0 00-.08-.32c-.33-.35-1.37-.81.16-.84.08 0 .2-.22.22-.35.08-.59.6-.88 1-1.19s1.06 0 1.52.3a.57.57 0 01.1.9c-.43.46-.33 1.1-.6 1.61-.73 1.34-.62 2.89-1 4.31 0 .15-.15.44.09.56s.24-.2.36-.3.28 0 .34 0c.47-.41 1.26-.56 1.34-1.27.15-1.27.33-2.54.46-3.81a7.53 7.53 0 011.08-3.8c.26.11.28.35.41.48.32.32.88.63 1.13.18.46-.84 1-.69 1.69-.47.4.14 1.48-.24.71.88 0 .05.11.21.1.31-.05.73.86 1.14.63 1.87-.13.44.12.8.06 1.22 0 .22.12.51.43.21a1.42 1.42 0 011.09-.42c.4 0 .72-.29.67-.85a23.8 23.8 0 00-.78-4.19 7.32 7.32 0 01-.14-1.92c0-.45.25-.6.71-.56s.77.54 1.18.57c1.09.06 1 .78.92 1.49-.06.53.1 1.3.33 1.4.68.31.43.73.38 1.16-.2 1.57-.19 1.61.86 2.09a8.05 8.05 0 00-.58 2.8.65.65 0 00.8.52 1.63 1.63 0 001.42-2 22.16 22.16 0 00-.59-3.17c-.19-.58-.21-1.19-.44-1.78-.43-1.11-.85-2.24-1.2-3.38-.07-.22-.12-.76.4-.81 1-.07 1.73.64 2.6.94.54.2.19.79.34 1.12a37 37 0 011.24 4.43c.25.79 0 2 1.17 2.34a.76.76 0 010 .49c-.69 1.39 0 2.78 0 4.16a.44.44 0 00.25.44c.21.07.3-.13.44-.24.65-.51.32-1.22.41-1.85a24.08 24.08 0 00-.23-4.16c0-.46.27-.85.17-1.27-.19-.8-.87-1.53-.25-2.41v-.17a8.51 8.51 0 01-.45-2.86c.08-1-.86-1.69-.84-2.68 0-.45-.23-1 .28-1.22.74-.32 1.67-.42 2.1.33.53.94 1.32 1.82 1.17 3.08a2.1 2.1 0 000 1.19 7.84 7.84 0 01.81 3.45 28.15 28.15 0 00.42 3.32c0 .26.24.57.54.29s.81-.71.86-1.11a15 15 0 00.34-2.79 36.77 36.77 0 00-.88-5.72c-.16-.64-.57-1.31-.75-2a1.34 1.34 0 00-1.2-1.09c-.75-.13-.91-.65-1-1.34s.25-1.43-.64-1.85c-.26-.13.16-1.55.46-1.53.63 0 1.36-.29 1.87.23.75.78 1.75 1.23 2.18 2.45a19.66 19.66 0 001.35 2.93 6.56 6.56 0 01.81 3.32 3.14 3.14 0 00.94 2.3 15.29 15.29 0 000-3c-.29-2-1.22-3.77-1.34-5.76 0-.42-.41-.35-.56-.57.06-.2.23-.45.17-.58-.7-1.28-.49-2.75-.93-4.1-.24-.72-.38-1.63.75-2 .19-.06.33-.37 0-.63a3 3 0 01-.91-1.84c-.11-.5.11-.88.8-.75a24.63 24.63 0 012.39.93.47.47 0 01.26.32c.21 1.07 1.81 1.33 1.56 2.67 0 0 .18.17.27.17.64 0 .83.45 1.05.91a16.12 16.12 0 001 1.55c.41.63.53.71-.24 1.15a1.6 1.6 0 001.41.22c.35 0 1.16-.11 1-.81a5.47 5.47 0 00-.55-1.43c-.7-1.38-1.7-2.56-2.48-3.89a3.66 3.66 0 00-1.59-1.43c-.68-.32-1.56-.7-1.76-1.56-.15-.65 0-1.37-1-1.39 0 0-.07-.19-.1-.3-.17-.77-.55-.34-.78-.09a1.41 1.41 0 00-.23.74c-.09.73-.54.72-1 .46s-.8-.54-.65-1.11c.06-.22.06-.48-.16-.54-.94-.27-1.45-1.17-2.32-1.54-.66-.29-1.55-.3-1.74-1.26 0-.14-.16-.14-.28-.15-.87-.07-1.84 0-2.08-1.17 0-.07-.22-.19-.27-.16-.7.41-1.17-.57-1.87-.3-.11 0-.34-.27-.52 0s0 .32.08.49c.28.68.12.92-.61.85-.55-.06-1.15 0-1.48-.62a.42.42 0 00-.54-.21c-1.6.64-3.02-.02-4.47-.33zm20.11 12.81a4.18 4.18 0 00.13 2.84 14.07 14.07 0 011.28 3.73c0 .38-.34.68-.1 1a5.67 5.67 0 01.89 2.43c.28 1.2.8 2.33.1 3.54-.06.09-.09.28 0 .33.41.38.28.75.1 1.2s.18.77.47 1.06.42.1.44-.17c.1-1.11.56-2.21.22-3.36a18.26 18.26 0 01-.75-2.79c-.14-1 .25-2-.67-2.84-.06 0 .06-.32.09-.49a5.62 5.62 0 00.22-.76c0-2.25-1.17-3.92-2.42-5.72zm-39.84 21.26a4.27 4.27 0 01-.76 1.49 7.75 7.75 0 00-1.46 1.77c-.66 1.42-1 3-2.25 4.15a.94.94 0 00-.19.44c-.13.53-.08 1.18-.73 1.48-.1 0-.2.32-.15.38.39.53-.07.86-.26 1.26a5.81 5.81 0 00-.33.91c0 .18 0 .38.18.45s.24-.09.35-.2a10 10 0 002.35-3.83 23.58 23.58 0 011.51-3.27c.61-1.24 1.11-2.56 1.69-3.83a1.39 1.39 0 00.05-1.2zm25.45 4.36a.47.47 0 01.42.54c-.11.48-.33 0-.51 0s-.38.24-.14.49.13.52-.17.7a1.93 1.93 0 00-.82 2.05 1.36 1.36 0 010 1.49.36.36 0 00.12.54c.21.17.29-.05.42-.15a5 5 0 002.21-3 10.77 10.77 0 00-.17-2.92c0-.13-.24-.25-.36-.37a2.32 2.32 0 01-.07.38c-.18.48-.57.36-.93.25zM113 33a3.06 3.06 0 01.23-2.22c.15-.29.46-.61.19-.85s-.37.22-.55.37-.28 0-.42.06c-.36.06-.59.19-.54.64s-.13.94-.38.9c-.58-.1-.7.41-1 .53a5.75 5.75 0 00-2.31 2c-.81.91-1.62 1.81-2.36 2.79-.23.31-.22.56 0 .77s.48-.09.61-.33a17.34 17.34 0 012.09-2.58 11.59 11.59 0 012-1.53v-.07c.14-.2.29-.38.57-.26 0-.31.22-.46.36-.68a1.31 1.31 0 011-.43c.51-.11.7.19.51.89zm13.4 16.89a1 1 0 01.73 1.11c0 .18 0 .39.22.43s.27-.23.34-.4c.22-.61.41-1.24.65-1.84a29.93 29.93 0 012.06-4.22c.25-.42.82-.67.27-1.27-.19-.2-.18-.53-.63-.35s-.46.27-.38.7a1.34 1.34 0 01-.73 1.62.78.78 0 00-.37.37 14.09 14.09 0 00-1.07 2.91c-.1.37-.2.89-1.08.91zm19.53 2.67c-.1.58-.21 1.15-.3 1.74 0 .29 0 .58.33.72.53.2 1.74-.3 1.85-.84.21-1 .33-2 .48-3 0-.17 0-.36-.26-.34a3.43 3.43 0 00-2.09 1.69zM131.55 55l-.55 1.76c-.11.34 0 .49.36.54s.42.23.52-.18c.22-.9.87-1.62 1.12-2.53.13-.45.06-1 .61-1.39.17-.11 0-.65-.29-.68s-.74-.15-.83.26c-.19.88-.99 1.51-.94 2.22zm7.79 13.33c-.05-.41-.35-.47-.53-.39-.79.32-1.68.17-2.45.57-.15.08-.3.26-.47.14-1-.71-1.17.51-1.73.82-.12.07-.14.33 0 .49s.3.15.48.11a6.12 6.12 0 001.92-.46 3.38 3.38 0 011.63-.59c.44.03.57-.72 1.15-.66zM136.19 59c.15-.36.1-.55-.09-.69s-.27-.08-.3 0c-.12.47-.5.29-.79.35s-.92.4-.92.64a5.15 5.15 0 01-.92 2.56c-.09.18-.19.45.13.49s.37.23.63-.16.21-1.4 1.19-.89c0 0 .26-.19.27-.3a3.14 3.14 0 01.8-2zm-23.14-11.77a18.83 18.83 0 00-4.38 5.77c.35.15.55.06.87-.31.75-.87 1.27-1.91 2-2.78.28-.31.77 0 .88-.45.21-.72.97-1.23.63-2.23zm25.64 4.9a.69.69 0 000-.84c-.23-.28-.49 0-.74 0a1.87 1.87 0 00-.53.05c-.67.2-1.37.47-1.37 1.29a3.11 3.11 0 01-.45 1.68c-.08.13-.18.28 0 .4s.35 0 .45-.11a2.38 2.38 0 011.34-1.08c.84-.11 1.02-.69 1.3-1.39zm.95 6.5c1.89-.44 2.76-1.44 2.86-3.14 0-.23 0-.59-.28-.54-.52.09-1.11 0-1.5.57-.6.93-.55 2.04-1.08 3.11zm7-14.37c-.15.48-.06.86-.22 1.23s0 .72.59.64c.86-.11 1.26-.79 1.68-1.33s0-1.22-.21-1.83c-.05-.2-.3-.11-.37 0-.53.46-1.35.62-1.52 1.29zM110.38 54c-.53 1.37-1.42 2.55-1.7 3.95-.09.45-.66 1.09-.35 1.19.71.24.52-.65.74-1a13.56 13.56 0 001.51-3.28.68.68 0 00-.2-.86zm27.78 11.2c.13-.62.57-.76 1.09-.73.24 0 .51 0 .6-.19.25-.51.43-1.06.65-1.58a.29.29 0 00-.16-.43c-.22-.08-.45-.08-.5.19a.92.92 0 01-1 .74c-.86 0-.82.63-.83 1.08a1.59 1.59 0 00.15.92zm25.15-60.3c-.1-.49-.59-1-.42-1.65.08-.3-.2-.39-.48-.23a.93.93 0 00-.47.7 2.3 2.3 0 01-1 1.64c-.2.12-.4.25-.19.46s.35.35.67.13c.58-.39 1.25-.69 1.89-1.05zm-26.47 44.6a1.06 1.06 0 00.83.12 1.65 1.65 0 001.74-1.62c0-.38-.25-.4-.47-.26-.75.48-1.67.8-2.1 1.76zm10.23 9.86c.06-.23.13-.48-.09-.65a.34.34 0 00-.52.16c-.17.29-.46.19-.7.28a2.44 2.44 0 00-1.41 1.32c-.21.43-.07.66.45.64a3.87 3.87 0 002.27-1.75zm-3.32-12.73c-.76-.23.29-.78-.4-1s-.82.25-1 .66a.55.55 0 00-.07.25 2 2 0 01-.31 1.28c-.2.31 0 .43.4.4 1.01-.1.28-1.47 1.38-1.59zm-17.87 18.95a2 2 0 01.2-1.08c0-.13.17-.3-.07-.34a.33.33 0 00-.37.18 13.83 13.83 0 00-1.51 3.12.63.63 0 00.26.76c.33.17.42-.14.53-.4.33-.76.21-1.7.96-2.24zm31-11.71c0-.51 0-.93.61-1.11.32-.1.39-.6.74-.81.17-.1.08-.36-.05-.55s-.31-.33-.52-.24a2.22 2.22 0 00-1.29 1.72c-.17.48.13.68.46.99zm.32-48c.16.07.29 0 .32-.08a3.78 3.78 0 01.73-1.44c.17-.24-.07-.44-.21-.62s-.33-.11-.44.05c-.22.33-.56.27-.88.3-.14 0-.35 0-.33.19.03.66.61 1.06.76 1.63zm12.94 9.6c.63 0 .9-.31 1.25-.48s.36-.44.09-.68a2 2 0 01-.41-.63c-.19-.41-.68-.39-1.08-.45a.21.21 0 00-.27.15.48.48 0 00.28.62c.89.31.71.84.09 1.5zm-27 25.21c-.07.21-.15.55-.49.57.28.49-.26 1.21.29 1.52a.81.81 0 001.12-.5 1.47 1.47 0 00-.97-1.56zm-9.91 25.94c-.16-.35-.26-.47-.24-.56a.72.72 0 00-.73-.88c-.36 0-.46.44-.42.82a.84.84 0 01-.08.34c-.07.2-.15.44.09.54s.28-.12.38-.27c.18-.34.47-.41.95.04zm34-55.84c.69-.28 1.65.2 2.51-.25-1.58-.9-2.46-.72-2.58.28zm-63.78 51.44c.41.31.91.2.89 0 0-.41.14-1.06-.46-1.19-.32-.07-.84-.51-1.07.08s-.25 1.26.64 1.11zm67.16-54.41c.25.22.5.1.69-.09a.83.83 0 00.26-.54c0-.26-.33-.17-.52-.16s-.3-.11-.43-.23a.53.53 0 00-.79 0c-.3.33.13.51.26.73s.34.17.53.29zm-10-4c.09.27-.54.7.08.91.81.26.22-.52.46-.7v-.08c.3-.36.57-1 .18-1.13s-.49.52-.68.97zm.65 43.51c-.24.32-.26.59 0 .71a.44.44 0 00.67-.19 4 4 0 01.29-.43c.15-.24.72-.39.28-.73s-.79 0-1.08.26a.74.74 0 00-.12.35zm-1.04-40.66c-.47 0-1-.12-1.19.42-.07.17 0 .3.19.27.43-.05 1 .11 1-.69zm5.34 13.69c.29 0 .48-.08.44-.25-.1-.39.06-.91-.54-1.06-.24-.07-.43 0-.46.21-.07.52.54.67.56 1.1zM122 74.06a.59.59 0 00.79-.28c.15-.33-.28-.44-.52-.56a.5.5 0 00-.73.26c-.16.3.1.52.46.58zm28.88-17.48c.17.34-.63.77.11 1 .18.07.41.27.52 0 .17-.52-.33-.71-.67-1zm15.34-14.7c.08-.2.62 0 .9-.36-.27-.17-.51-.45-.83-.3s-.07.59-.11.66zm5.45-33.47c.58.06 1 .21 1.2-.09s-.15-.4-.28-.47c-.59-.24-.48.34-.96.56zm-61.51 37.51c.06-.23 0-.43-.21-.51s-.38-.12-.45.1a.51.51 0 00.26.6c.16.1.33 0 .4-.19zm45.58 8.47a2.72 2.72 0 00.41.42c.15.09.34.15.43-.16zm19.35-37.23c-.2 0-.42-.05-.44.09-.06.34.23.55.42.77s.45.05.42-.09a2.81 2.81 0 00-.4-.77zM111.4 64.35c0 .4-.3.71.08 1a.28.28 0 00.43-.17c.09-.44-.22-.54-.51-.83zm59.76-40.13v.05l-.06-.06zm-69 37.93v-.07h-.07l.06.09zM164 245c-.24-1.1-1.41-1-2.05-1.63s-1.72-1-2.36-1.82a.84.84 0 00-.74-.16c-.55.23-1.13-.19-1.66.12a.32.32 0 01-.23 0c0-.7-1.13-.86-.82-1.71.14-.37-.14-.37-.39-.39s-.63-.18-.9-.22c-1.73-.25-2.8-1.89-4.53-2.06-.11 0-.28-.1-.29-.16-.12-1.25-1.09-.91-1.82-1h-.09c-.73-.83-1.94-.84-2.7-1.6-.25-.25-.12-.65-.47-1a33.15 33.15 0 00-3.29-2.36 9 9 0 01-2.88-3.08c-.06-.1-.07-.32-.09-.32-1.53.13-1.52-1.41-2.13-2.15a9.34 9.34 0 01-1.57-3c-.28-.88-1-1.58-1-2.56 0-.07-.13-.15-.12-.2.42-1.47-.62-2.66-.82-4a13.07 13.07 0 01-.06-3.64 4.67 4.67 0 00.11-1.9 1.48 1.48 0 01.24-1.09 1.4 1.4 0 00.14-1.47c-.19-.39.06-1 .22-1.52.34-1.14.19-2.43.91-3.45.92-1.29 1.08-3 2.25-4.13.05 0 .11-.09.12-.13.13-1.93 2-2.29 3.08-3.37a68.24 68.24 0 005.17-5.45 6.37 6.37 0 011.49-1.17 38.47 38.47 0 003.48-2.65 14.84 14.84 0 013.48-2.05c.79-.35 1.61-.75 2.42-1.11a13.34 13.34 0 012.57-.57c.48-.1 1 0 1.31-.58.17-.3.24.05.35.13s.37.37.61.2a.44.44 0 00.18-.62c-.15-.23-.17-.5.09-.61s.43.18.53.43.1.45.4.35c.64-.21 1.39.11 2-.42s1.14 0 1.7 0c.81 0 1.59.28 2.3-.42a1.25 1.25 0 011.07-.18c.8.28 1.75-.25 2.45.47a.08.08 0 00.08 0c1.36-.79 2.65.5 4 .13a3.33 3.33 0 00.4-.16 2.08 2.08 0 011.42-.11c.55.16 1.09.9 1.73.15.16.43.68.27.9.56.6.78 1.57.81 2.37 1.09a7.77 7.77 0 012 .94c.75.55 1.73.47 2.57.82.36.15.66.1 1 .51a2 2 0 001.37.73c1.24.11 2.13 1.11 3.34 1.27.08 0 .12.2.2.28a5.37 5.37 0 002.63 1.83 1.21 1.21 0 01.74.44c.4.77 1.22 1 1.84 1.36a13 13 0 011.85 1.68 3.45 3.45 0 001.63 1.08 1.25 1.25 0 01.88.66c.72 1.09 2 1.67 2.57 2.84.44.93 1.31 1.46 1.82 2.37a14.25 14.25 0 001.71 2.13.76.76 0 00.53.25c.18 0 .5.24.49.3-.23 1 .84 1.64.57 2.65-.14.51.48.93.78 1.28a8.07 8.07 0 011.62 4.3 12.82 12.82 0 00.6 1.94c.46 1.55-.15 2.94-.37 4.38a34.21 34.21 0 01-1.82 5.57 6 6 0 01-1 1.51c-.73.95-1.1 2.13-1.89 3a11.05 11.05 0 01-1.87 2.09 4.53 4.53 0 00-1.88 1.92 4.4 4.4 0 01-1.79 2c-.82.51-1.31 1.44-2.09 2.05a14.21 14.21 0 01-2.14 1.79 2.89 2.89 0 00-1.59 1.36c-.17.35-.36-.49-.74-.09a13.3 13.3 0 01-1.77 1.28 10.68 10.68 0 01-1.89 1.07c-.72.34-1.66.5-2.1 1.28-.31.57-.87.3-1.29.56a10.52 10.52 0 01-2.32 1.17 1.28 1.28 0 01-.94 0c-.43-.28-.67-.14-1.07.08-1.09.61-2.25 1.08-3.37 1.63-.7.36-1.38-.11-2.06 0-1.32.2-2.67-.36-4 .26-.38.17-1-.16-1.2.45a.39.39 0 01-.22-.05c-.44-.7-.95-.35-1.46-.11a2.23 2.23 0 01-2.17-.39c-1-.6-2-.07-3-.11a4.24 4.24 0 01-.87-.12 2.76 2.76 0 00-2.39.35zm45-43.42c-.22 0-.3.16-.2.36s.27.14.39 0 .18-.16.11-.29-.15-.12-.3-.07zm-66.69 22.35c.17 0 .36-.07.35-.31a.23.23 0 00-.28-.25c-.19 0-.22.15-.18.32-.11 0-.23.07-.17.22s.22.09.32.02zm45.69-11.8a13.64 13.64 0 00-5.5-1.36c-2.08-.2-4.11-.65-6.19-.85a24.5 24.5 0 00-4.54-.41 5.85 5.85 0 01-2.93-.3c-.59-.25-1.43.07-2.15.17a.49.49 0 00-.38.55c.07.54-.38 1-.35 1.42.06.81.9.06 1.26.45.06.06.16.08.23.14.6.47 1.17.17 1.68-.14a6.49 6.49 0 00.9-.84c.43-.39 1-.78 1.48-.38a7.9 7.9 0 001.64.83 4.69 4.69 0 011.29.69c.81.76 1.2.78 2 0 .32-.3.61-.63 1 .09.2.39.45.65.33 1.12a.44.44 0 00.44.61c.76 0 1.37 0 1.62-1s.52-1 1.25-.32c.19.17.24.43.39.58s.65.64.94-.05c.14-.35.32-.35.74-.22.75.25.54 1.27 1.39 1.42.46.07.76.55.66 1.19a2.36 2.36 0 012-1.3.42.42 0 00.29-.57c-.21-.5 0-.69.46-.78.18 0 .23-.24.16-.44.27.1.41 0 .33-.27s-.24-.16-.44-.03zm-33-1.75v.13h.13l-.11-.09c.18-.22.17-.68.68-.46s.8.23 1.17.43c.75.4 1.18.08 1.7-.48s1.18-.74 1.7-1.23c.12-.12.41 0 .64.13.7.42 1.46.76 2.19 1.12.32.16.7.21.83-.16s-.26-.51-.52-.62c-.46-.19-1-.19-1.4-.53-1.08-1-2.41-.84-3.64-.77-1 .06-2 .13-3.06.1-.27 0-.64.05-.78-.29-.22-.53-.38-.31-.67 0a.86.86 0 00-.3.77.22.22 0 01-.18.26.27.27 0 01-.33-.23 1.75 1.75 0 00-1.63-1.55c-.86-.15-1.09-.73-.8-1.59s.61-1.05 1.48-.58a7.63 7.63 0 002.39.4 1.33 1.33 0 001.16-.51c.34-.77 1-.9 1.65-1.25.95-.55 1.9-1.09 2.85-1.66a1.71 1.71 0 012.6 1.1c0 .13-.23.3 0 .36a.54.54 0 00.43-.24c.09-.78.32-1.22 1.15-.64.52-.81 1.51-.44 2.14-.85.89-.57 1.43-.64 2.22.17.1-.53.08-1.19.91-.84.14.06.19-.09.26-.18.33-.41.68-.35 1.1-.12.19.11.44.42.71 0s.52-.87 1.14-.47c.19.12.22-.1.27-.23.42-1 .5 0 .71.17.24-.29.47-.93.67-.75.51.45 1.41.08 1.68 1s1 1 1.43.51c.64-.67.69-.3.74.32s.46 1.06.78 1a2.26 2.26 0 012.06 1c.6.76 1.47.87 2.13 1.39a1.18 1.18 0 00.5.16.26.26 0 00.28-.18.21.21 0 00-.06-.4 2.26 2.26 0 01-1.07-2.56c0-.27 0-.57.31-.68s.5.1.62.36.13.42.35.28a2.8 2.8 0 00.81-.72c.08-.11-.25-.28-.42-.39-1.07-.72-2.49-.84-3.34-1.95 0 0-.1-.05-.16-.07-2.33-.49-4.35-2-6.81-2.09-1.13 0-2.27-.59-3.36-.3a6.09 6.09 0 01-3-.25 2.42 2.42 0 00-2.58 1.06c0 .07.09.22-.13.22a13.57 13.57 0 01-2.15-.72 2.42 2.42 0 01.67-2.26c.24-.17.39.41.52 0s.45-.71 1-.47a.38.38 0 00.5-.27 7.51 7.51 0 011.17-2.06c.14-.19.27-.45-.17-.48-1.34-.07-2.66.23-4 .08-.22 0-.26.19-.36.33a14.86 14.86 0 01-1.92 2.52 17.73 17.73 0 00-2.6 2.8c-.27.42-.74.33-.78-.09-.08-.86-1.21-1.47-.59-2.48.07-.12 0-.19-.14-.27a1.85 1.85 0 00-2.87.69.65.65 0 01-.16.21 11.66 11.66 0 00-2.38 3.43c-.22.49-.61.78-1.09.23s-.75-.12-1 .17a25.54 25.54 0 01-1.88 2.13 2.5 2.5 0 00-.79 1.45 1.91 1.91 0 01-1.9 1.61c-.25 0-.75.08-.5.5a20.22 20.22 0 001.51 2.1c.12.16.24 0 .35-.09a20.12 20.12 0 002.1-1.57.76.76 0 011.18.12c.31.33 1.15.39.72 1.24a3.6 3.6 0 01-1.73 1.43 1.2 1.2 0 00-.61 1.79c.21.51.73.57 1 .95s.35.2.49-.17c.46-1.28.89-1.47 2.18-1.23.59.11 1.1.43 1.65.56.92.19 1.46 1.11 2.41 1.29zm51.36 14.15h.26a4 4 0 01.83-2c.59-1 1.46-1.94 1.49-3.43-.21.17-.33.33-.47.38a2.29 2.29 0 01-1.62-.27c-.44-.17-.15-.52-.09-.82a.4.4 0 00-.3-.48c-.26-.07-.44.06-.54.33a10.68 10.68 0 01-1.05 1.62c-.06.11-.09.39-.26.24-.76-.7-.77.1-1 .47-.12.22-.23.41-.5.45s-.2-.28-.26-.42c-.13-.3-.39-.33-.63-.42a4.12 4.12 0 01-1.56-.62 1.5 1.5 0 00-1.67-.18c-.54.18-1 .73-1.63.5-.14-.05-.24.13-.22.3a1.67 1.67 0 01-.31 1.33c-.37.33-.9 0-1.36 0h-.44a.91.91 0 01-1-1.2c.13-.47.31-.93.4-1.41s0-.67.44-.79a2.17 2.17 0 001.5-1.44c-.42-.11-.89-.09-1.18-.39s-.53-.13-.81.12a10.73 10.73 0 00-1.75 1.81c-.34.5-.8 1-1.2 1.51a10.64 10.64 0 01-2.2 1.87c-.41.31-.83 1.12-1.56.4 0 0-.07.11-.12.13-.53.21-.85.21-.86-.56s.55-1.35 0-2.05c-.11-.15.16-.35.34-.46s.47-.08.65.39c0-.53.06-.88-.4-.93s-.59.24-.59.61a1 1 0 01-.77 1.07c-.83.08-1.61 0-1.87 1.1-.07.27-.86.33-1 .63-.39.77-.88.37-1.35.26a1 1 0 01-.76-1.14c0-.31 0-.45-.44-.44a5.18 5.18 0 01-2.6-.29.91.91 0 00-1.22.73c-.1.5 0 .94-.79 1-.44 0-.85.39-1.37.33a.91.91 0 01-.93-1.08c.06-.59-.26-1.17.07-1.78.13-.24 0-.72-.65-.53-.46.14-.58 1.22-1.32.49a1.61 1.61 0 00-.24.36c-.08.26-.09.58-.44.57s-.26-.49-.37-.68a6.18 6.18 0 01-1.2 2.05 1.93 1.93 0 01-2.45.17c-.48-.37-.35-1.28.08-2s1.66-1.09 1.7-2.22h.07a1 1 0 01-.5-.06 1.18 1.18 0 00-1.62.45c-.17.21-.41.56-.6.38-.53-.49-.69.09-.74.29-.2.76-.86 1.22-1.16 1.9-.06.14-.18.43-.36.28-.79-.64-.53.2-.65.45-.25.51-.36 1.17-.75 1.51s-.8-.37-1.29-.36l-.07-.05c-.67-.18-1-.78-.63-1.31a14.41 14.41 0 011.74-2.31 13.06 13.06 0 002.26-2.49c.3-.45 0-.86 0-1.27 0-.11-.47-.22-.72-.24-.53 0-.3.48-.45.73-.41.66-.4 1.49-.86 2.13-.29.4-.65.71-1.08.25s-.71-.31-1.07 0a15.69 15.69 0 00-1.66 1.37 2.08 2.08 0 01-2.22.48c-.14 0-.41 0-.35-.3.16-.73-.13-1.61.86-2.07a3.59 3.59 0 001.08-1.14c.34-.45.08-.74-.35-1-.2-.12-.47 0-.63-.33-.35-.84-1-.87-1.57-.17-.27.34-.47.79-1 .67-.13 0-.25 0-.22.17.09.7-.6.87-.87 1.31-.37.6-.86.39-1.23.27s-.34-.6-.3-1a2.41 2.41 0 011.16-1.87 1.61 1.61 0 00.58-.66.37.37 0 00-.1-.48c-.23-.19-.28 0-.38.17s-.41.3-.56 0-.32-.2-.45 0a2.58 2.58 0 00-.12.42c-.42 1.16-.79 1.3-1.9.79-.64-.3-1.3-.59-1.72.33-.07.16-.21.26-.34.19-.54-.29-.74.14-1.1.38a6.18 6.18 0 00-.82.89c-.51.52-1.59.47-1.77-.08a2.38 2.38 0 01.79-2.73c1.2-1 1.22-1.66.06-2.69-.09-.08-.21-.17-.22-.27-.12-.71-.41-.32-.68-.12a38.28 38.28 0 00-3.12 3c-.19.17-.37.63-.7.33a1.29 1.29 0 01-.6-.92 4.11 4.11 0 01.51-2.12c.34-.64 0-1.64-.66-1.71a2.21 2.21 0 01-2.19-2.25 2.35 2.35 0 00-.06-.65.61.61 0 00-.5-.44c-.34 0-.4.23-.41.47 0 1.49-.38 3 0 4.46a3.25 3.25 0 01-.1 1.79 11.32 11.32 0 00-.32 2.66c0 .64.46 1.12.44 1.73 0 .25-.53.46-.1.74s.67 0 .95-.21a7 7 0 00.68-.54c.61-.52 1.26-.22 1.82 0s.05.67 0 1a1.34 1.34 0 01-1.06 1.24 4.11 4.11 0 00-.78.4c-.06 0-.39.06-.15.23.44.31.24.84.53 1.24a24.27 24.27 0 012.23-1.27c1-.57 2.07-1.17 3.36-.55.56.26.54.43.33.89-.27.63-.86 1-1.13 1.67-.18.46.06.64.3.91s.46 0 .67-.14a10 10 0 001.14-.67c.42-.32 1-.29 1.39-.69 1.15-1.1 2.35-2.25 4.15-1.21a.55.55 0 00.26.06c.64.06.7.44.49.93a1.52 1.52 0 01-.81.91c-1.78.69-3.08 2.26-5 2.73a.43.43 0 00-.2.66 1.18 1.18 0 001.76.15 5.11 5.11 0 012.29-1.34c1.05-.22 1.38-1.17 2.19-1.6.42-.22.65-.39 1-.21a2.38 2.38 0 001.27.34c.41 0 .55.23.43.56a1.63 1.63 0 01-.68 1c-.73.45-1.6.66-2.12 1.58a3.66 3.66 0 01-1.51 1.38c-1.11.52-1.13.58-.33 1.4.31.31.52 1.55 1.35.15.57-1 1.82-1.58 2.77-2.29a24.88 24.88 0 014.15-3c.47-.21.87-.47 1 .3 0 .2.14.5.38.36.51-.3.65.18.79.4s0 .58-.23.87-.87.41-1.06.72c-.65 1.12-1.88 1.46-2.81 2.18a13.87 13.87 0 00-2.91 2.6c-.06.1-.22.13-.13.35.31.78 2 1.54 2.57 1a16.17 16.17 0 001.78-1.65 11.26 11.26 0 012.5-2.43c1.19-1 2.41-2.14 4.25-1.1.57.33.56.49.35 1-.49 1.15-2 1.53-2.26 2.83 0 .09-.26.16-.25.21.05.31-.39.5-.22.78a2 2 0 002.4.59c.28-.14.07-.4.28-.58 1.29-1.11 2.69-2.1 3.88-3.33.1-.09.25-.16.31-.07.31.56.43 0 .66-.08.4-.23 1-.67 1.28-.23a1.59 1.59 0 00.84.63c.23.1.39.18.34.41a5.19 5.19 0 01-1.66 2.8c-.43.41-1 .78-1.49 1.18-.79.66-.75.71.13 1.28.54.35 1.25.92 1.73.26.59-.83 1.45-1.36 2-2.12a15.42 15.42 0 012.06-2.06 2.81 2.81 0 011.62-.84c.47-.06 1.63.13 1.53-1.21 0-.6 1.22.29 1.43-.61.1 0 .24 0 .3.12a.71.71 0 01.1.33c.06.34.31.39.6.4.06.09.11.22.24.12s.06-.18 0-.27c.38.32.73.86.26 1.14-.9.55-1.33 1.76-2.58 1.8-.19 0-.33.24-.34.48s-.23.38-.44.51a3.87 3.87 0 00-1.12 1.19 1.67 1.67 0 01-1.32 1c-.77 0-.87.9-.92 1.42-.06.69.75.34.94.29.61-.17 1.25.2 1.81-.14s.85-1.53 2-1.26c.06 0 .16-.23.27-.33a14.05 14.05 0 011.35-1.21 1.88 1.88 0 00.72-1.08c.2-.8.24-1.68 1.49-1.65.25 0 .67-.15 1-.15s.56-.1.61-.4c.21-1.3 1.32-1.83 2.17-2.57a1 1 0 011.43-.06.77.77 0 00.51.1.66.66 0 01.65 1 13.59 13.59 0 01-1.59 2.19 1 1 0 00-.22.9.59.59 0 00.42.4 4 4 0 002.94-.69c.18-.11.4-.21.37-.46a1.39 1.39 0 01.64-1.27 6.56 6.56 0 002-2.68c.11-.33.47-.42.63-.19.29.43.54.57 1 .34a.46.46 0 01.59.4c.07.46.46.56.8.55a.87.87 0 00.72-.64c.25-1.1 1.36-1.51 1.82-2.43h.21c.21.61.67.38 1.09.35.22 0 .47.2.41.39-.19.62.24.59.61.78.72.37 1.3-.22 2-.15.4 0 .84-.17 1.26 0 .06-.78 1.09-.91 1.17-1.69zM182.61 235a.69.69 0 01-.38.82c-.18.11-.34.17-.27.46.16.71 1.71 1.41 2.27 1 .73-.58 1.08-1.51 1.8-2.12.1-.08.39-.51 0-.68a6.79 6.79 0 00-1.43-.44c-.41-.09-.37.4-.59.56s-.72.49-1.06.77-.43-.1-.34-.37zm-2.32-41.9c.17-.26 0-.47-.19-.72a3 3 0 00-1.77-.74c-1.59-.37-2.29.71-2.4 2 0 .21.1.19.24.26.87.41 1.9.24 2.72.82a.36.36 0 00.22 0c.17-.72.96-.94 1.18-1.66zm-6.43-1.26c.21-.48.26-.85-.33-.87s-1-.73-1.32.22c-.85-.42-1.3.47-2 .64-.47.12-.9.68-.56 1.14a2 2 0 001.28.59c.6-.78 1.29-.29 1.93-.25.43 0 .92-.3.8-.74a.75.75 0 01.2-.77zM143.7 200a3 3 0 002-1.63c.26-.47.46-.91 1.16-.84.33 0 .83-.32.56-.67-.39-.5-.18-1-.24-1.47 0-.21.16-.47-.14-.6s-.44.11-.61.26c-.49.45-.59 1.12-.92 1.66-.63 1.12-1.21 2.23-1.81 3.29zm38.75-4.61c-.53.82.36 1 .64 1.47a1 1 0 001.74-.12c.15-.22.31-.42.48-.63.28-.37.61-1 .31-1.18s-.75-1-1.45-.87c-.32.05-.77 0-.74.53 0 .17-.1.32-.27.24-.64-.24-.55.35-.71.6zm-32.16-1.54c.15-.74.66-1.33.44-2s-.44-.78.37-.85a.59.59 0 00.35-.86c-.19-.28-.48-.14-.75.09a4.71 4.71 0 01-1.13.66c-.24.1-.4.38-.32.45.62.56 0 1.11 0 1.65a4.53 4.53 0 01-.31 2.74.37.37 0 000 .32c.18.17.26-.09.3-.15a4 4 0 001.05-2.01zm-11.1 8.18c-.45.94 0 1.91-.12 2.86 0 .1.31.51.58.11a6.38 6.38 0 001.23-3.29 1 1 0 00-.58-.91c-.38-.16-.46.28-.63.49s-.32.53-.48.78zm19.75 31.77c0 .16-.19.3-.06.5s2.09 1 2.2.78c.29-.46 1-.53 1.09-1.07s-.61-.61-1-.84h-.08c-1.19-.74-1.63-.6-2.15.67zM171 186.49a2.68 2.68 0 00-1.7-.28 18.74 18.74 0 01-2.6.22c-.25 0-.54-.21-.61.21s.28.41.53.46a2.73 2.73 0 001.65 0c.27-.12.64-.34.82-.25.74.42 1.18-.18 1.91-.36zm-8.48.12a2.67 2.67 0 01-2.54-.34c-.33-.36-.6-.57-.61.18 0 0-.06.09-.1.13a.58.58 0 000 .93c.36.33 1.1.74 1.25.54.41-.53.95-.47 1.43-.55s.62-.35.57-.89zm27 5.61a.23.23 0 00-.11-.3 3.15 3.15 0 01-1.34-1.27c-.12-.28-.31-.05-.5 0-.45.13-.57.67-1 .8s-.42.3 0 .49 1 .45 1.5.73 1.35-.02 1.48-.45zm-19.16 11.87c.83.37 1.39.44 1.81-.15.24-.34.47-.27.75-.09.6.39 1.05.06 1.47-.35.22-.22.39-.58.18-.78a.75.75 0 00-1-.17 9.77 9.77 0 01-3.18 1.54zm19.25-6.42c.15-.52.08-.54-.46-.66-1-.22-1.48.59-2.18 1-.2.1-.51.09-.43.42a.76.76 0 00.53.63 2.43 2.43 0 002.57-1.39zm-8.14-10s-.26-.1-.28.09-.27.64.12.88c.21.12.56 0 .54.45 0 .68.33.64.79.41.25-.13.47-.45.78.05.21.35.6 0 .83-.14s.52-.43.37-.74a.61.61 0 00-.85-.23c-.16.08-.37.23-.46.08-.37-.69-1.31-.26-1.81-.85zm-16.21 48.68c-.49-.24-1-.23-.92.24a1.14 1.14 0 00.88.89 12.7 12.7 0 011.74.2c.3.06.57 0 .56-.38s0-.63-.51-.59a2.56 2.56 0 01-1.72-.36zm26.38-41.89c-.26-.21-.49-.18-.6 0a.5.5 0 00.08.71 6 6 0 01.63.6.39.39 0 00.61.06c.23-.2.61-.29.66-.64s-.34-.22-.51-.33a5.08 5.08 0 00-.84-.4zm-39.14-5.86c.11-.19.24-.36.06-.51s-.33 0-.45.13a5.51 5.51 0 00-1.14 1.07c-.1.14-.13.27 0 .39s.36.24.47.09c.34-.44.97-.6 1.09-1.17zm44.16 5.4c0-.42-.62-.12-.68-.48s-.16-.41-.39-.34-.19.28-.13.45a.92.92 0 00.85.65c.17 0 .27-.11.35-.28zm-54.1 33.81c-.21 0-.53-.29-.58.05a.81.81 0 00.51.84c.31.13.4-.18.49-.38.15-.41-.15-.46-.42-.53zm-.51-21.66c0-.09.09-.3-.17-.31a.67.67 0 00-.7.43c-.09.24 0 .4.24.45s.49-.23.63-.59zm41-11.6v-.07h-.06l.06.07zm5.24 18.24v.12h.07a.68.68 0 000-.14zm.61-.72v.11h.07a.52.52 0 000-.11zm-47.5 11v.13h.07a.51.51 0 000-.13zM109.24 128.06c-.45.65-.63 1.56-1.63 1.79.14-.62.57-1.14 1.63-1.79z"/><path d="M118.72 73.54c-.12-.08-.36-.09-.3-.27.15-.38.5-.17.77-.2s.3.12.22.27-.41.2-.69.2zM141.87 168c.56.06.65.33.64.7zM159.55 162.38c-.05.2-.14.28-.25.27s-.24-.24-.21-.4.13-.17.26-.13.21.17.2.26zM152.41.38l-.03-.02h.03v.02zM.72 137.36H.7l.04-.01-.02.01zM292.92 154.87v-.38a1.67 1.67 0 00.23-.93c.11-2.05-.87-4-.36-6.12.08-.33-.38-.51-.22-1s.63-1.16.17-1.81c-.09-.12 0-.29.12-.4a1.27 1.27 0 00.3-1.07c0-.22 0-.51.18-.57.71-.22 1.06-1 1.6-1.22 1-.4.87-1.21.84-1.85a1.59 1.59 0 011-1.54 1.8 1.8 0 001-1.21 2.92 2.92 0 01.45-.72 14.34 14.34 0 001.8-2.92c.08-.18.05-.47.28-.52 1.11-.23 1.2-1.32 1.74-2l.18-.32a10.25 10.25 0 002.4-2.8 10.23 10.23 0 002.32-2.18c1.22-1 2.5-2 3.64-3.15a4.07 4.07 0 01.59-.4c.25-.16.64-.24.73-.47.63-1.42 2.27-1.38 3.2-2.29a11.6 11.6 0 012.85-2c1.64-.87 3-2.19 4.91-2.67.72-.18 1.13-1 1.94-1.27a30.64 30.64 0 004.53-2c1.69-.81 3.55-1.1 5.16-2a2.55 2.55 0 011.76-.42c.74.12 1.21-.59 1.87-.73a13.48 13.48 0 012.1-.32c1-.06 1.92-.37 2.9-.44a16.44 16.44 0 012.9-.18 4.37 4.37 0 001.28-.29c.19.07.44.28.57.14.58-.67 1.3-.37 2-.3 1.64.17 3.3.15 4.91.35 1.15.13 2.34.44 3.51.69.65.15 1.27.39 1.91.56a7.11 7.11 0 012 .5 14.94 14.94 0 003.54 1.25 35.32 35.32 0 013.76 1.69 14.41 14.41 0 012.6 2.86c0 .6.48.75.88 1a.41.41 0 00.21.47c0 1.06 1.07 1 1.61 1.44a.14.14 0 00-.05.16c-.54.74-.49.85.63 1.32-.27.46-1 1 .24 1.17.11 0 .17.19.09.29-.75.95 0 1.23.69 1.42s.62.39.44.88a7 7 0 00-.39 1.53c0 .43 0 1 .7.55a.05.05 0 00.08 0c.24.3-.2.56-.06.86a1.83 1.83 0 00-.29 1c-.15.69-.46 1.42.44 1.86l-.08.31c-.36.12-.44.42-.47.76-.05.49-.11 1-.16 1.47l-.32.84c-.27.61.37.57.59.83h.05-.05c0 .25 0 .68-.27.67-.65 0-.46.46-.54.74a3.5 3.5 0 000 .86.39.39 0 00-.08.1v.07a1.83 1.83 0 00-.2 1.52c.08.27.4.8-.34.82-.23 0-.15.29-.23.42-.61 1-.7 2.16-1.35 3.14-.3.44-1 1-.73 1.51s0 .58-.31.76a.71.71 0 00-.42.43 13 13 0 01-1.63 2.88c-.28.47-.35 1.17-.65 1.42a14.56 14.56 0 01-1.6 1.34c-.6.35-.35.54 0 .81l-.58.21c-.43-.08-.6.28-.88.48-1.13.83-1.56 2.43-3.1 2.81-.07 0-.14.12-.15.2a2.25 2.25 0 01-1.09 1.6c-.69.5-.78 1.8-2.09 1.56h-.08c-1.08 1.34-2.85 1.91-3.76 3.49a7 7 0 01-1.81 1.68c-.8.64-1.69 1.15-2.46 1.82a29 29 0 01-3 2.79c-1.5 1-2.75 2.2-4.17 3.25a18.07 18.07 0 00-3.77 3c-.44.55-.8 1.54-1.83 1.53-.61 1.14-1.87 1.59-2.84 2.17-1.38.82-2.72 1.91-4.41 2.16a.31.31 0 00-.15.1 1.67 1.67 0 01-1.11.55c-.5.05-1 .5-1.47 0 0 0-.21 0-.22.05-.3 1.05-1.33 0-1.78.64-1.2-.43-2.33.27-3.52.24-.51 0-1 .09-1.39-.31-.13-.12-.37-.48-.65-.13s-.78.27-1.14.13a4.18 4.18 0 00-1.9-.27 12.18 12.18 0 01-5-1c-.48-.15-.62-.33-.26-.88-.41.64-.82.32-1.23.25-.73-.13-1.14-.87-1.89-.92a2.15 2.15 0 00-1-.35 1 1 0 00-.95-.55c-.34-.38-.88-.42-1.27-.72-.18-.32-.55-.24-.82-.37a1 1 0 00-.79-.48 4.06 4.06 0 00-1.89-1 .48.48 0 00-.42-.41.88.88 0 00-.7-.24c-.46-.81-1.38-1.06-2-1.63a15.64 15.64 0 01-3.05-3.29c-.09-.14-.09-.4-.21-.46-1.25-.68-1.61-2-2.18-3.1a1.66 1.66 0 00-.61-1.73c-.18-.16-.36-.36-.13-.59s.19-.54 0-.81a4.36 4.36 0 01-.67-2.63.71.71 0 00-.23-.65 1.68 1.68 0 01-.66-2.09 1.08 1.08 0 00-.31-1.3zm51-44h-.36l-.21-.07c-.3.15-.7-.11-1 .21h-.89a.23.23 0 00-.37 0l-.5-.18c-.26-.37-.5-.79-1.07-.49a4 4 0 01-1.61.54c-.15 0-.39.07-.37.3a.56.56 0 00.25.34 4.51 4.51 0 00.65.22.29.29 0 00.31.2l.29.26c.3.33.64.15 1 .06.15 0 .36-.26.36.06 0 .6.49.47.8.62s1 .06 1.34.41a14.17 14.17 0 01-.7 2.55h-.55c-.32-.45-.65-.87-1.09-.11h-.2c-.35-.31-1 0-1.23-.51s-.59-.28-.88 0c-.67.71-.92.66-1.21-.2a.52.52 0 00-.14-.22 2.15 2.15 0 00-2.3.16 2.66 2.66 0 01-1.7-1.67c0 1.24-.61.86-1.16.67-.24 0-.56-.45-.67.15-.33.24-.75.14-1.11.21-1 .2-1.83 1.2-3 .74-.35-.13-.46.32-.53.58s.14.43.42.42.45.27.67.36c.46.18.63.76 1.24.75 1.46 0 2.54 1 3.79 1.48a.63.63 0 00-.09.56c.13.59 0 1.41-.47 1.55a2.71 2.71 0 01-1.88-.15c-1.36-.69-2.77-1.26-4.17-1.87-.55-.23-.77 0-1.11.27a.76.76 0 00-.24.9.69.69 0 00.83.59 4.21 4.21 0 011 .15c-.14-.06-.28-.09-.38.06a.22.22 0 00.11.35c.66.11 1.3.56 2 .2h.05c0 .32-.45.7.11 1h-.35c-.39-.43-1.08-.22-1.43.43-.09.16 0 .54-.26.47-.53-.15-1.1.21-1.6-.19s-.8-.28-.95.16.22.67.66.7a1.63 1.63 0 01-.09 1.73.93.93 0 01-1 .41c-.57-.09-1.16-.47-1.78-.18l-2.48.37c-.41-.53-.83-.41-1.25 0l-.74.14h-.34c-.12-.14-.25-.18-.39 0-.69 0-1.62-.21-2 .15a3.11 3.11 0 01-1.72.71 1.9 1.9 0 00-1.08.81.73.73 0 00-.08.9.65.65 0 00.8.2 4.8 4.8 0 012.27-.44.45.45 0 00.51-.39 4.77 4.77 0 00.8.32 6.21 6.21 0 012.7 1.16c.69.56.21 1.13 0 1.72s-.57.3-1 .17c-1.09-.35-2.12-1-3.35-.73-.54.07-1.15-.29-1.59.3-.18 0-.28.07-.33.24-.26-.15-.46 0-.72.09a4.36 4.36 0 01-1.78.51 2.08 2.08 0 00-1.68.85c-.47.45-.71 1.09-1.35 1.41s-.88.72-.17 1.25a.43.43 0 01.16.55.35.35 0 00-.34.23c-.5.3-.55.9-1.14 1.42a27.58 27.58 0 004-1.57 14.91 14.91 0 013.94-.92 2.36 2.36 0 012.16 1.14c.42.52.24 1-.44 1.09a9 9 0 01-1.37.05 3.87 3.87 0 00-1.74.26c-.36-.12-.59.18-.74.37-.47.59-1.67.21-1.63 1.66a4.39 4.39 0 01-1.55 3.09.33.33 0 00-.1.46c.11.22.29.16.46.11a5.91 5.91 0 012.51.08c.14.35.27.7.42 1 .07.16.2.29 0 .44a2.72 2.72 0 01-1.58.65 4.61 4.61 0 00-1.89.3 2.13 2.13 0 00-1.61 1.56 3.48 3.48 0 01-.91 2.19c-.16.14-.08.34 0 .48a.45.45 0 00.53.23c.22-.08.43-.21.65-.29s.59-.13.65.31a3.53 3.53 0 01-1.46 2.73 4.48 4.48 0 00-1.38 1.19 7.51 7.51 0 00-1.16 2.83c-.12.31-.61.6-.45.78.61.74-.25 1.28-.25 2a15.13 15.13 0 00-.23 2.39c0 .31 0 .44-.25.55a2.89 2.89 0 01-1.51.43c-.55-.08-.82.2-.75.59s-.77 1.25.34 1.5a.71.71 0 01.55.64c0 .45.27.58.64.7a4.8 4.8 0 012.39 2 5 5 0 002.09 1.89 21 21 0 013.86 2.22 19 19 0 003.37 1.64c2.47 1.23 5.24 1.66 7.92 2.32a1.34 1.34 0 00.35.05c.8 0 1.64-.47 2.41.17a.35.35 0 00.34 0c.87-.49 1.82-.2 2.73-.24a8 8 0 003.46-.83 2 2 0 011.53-.27c.28.08.65.26.78-.07.28-.73 1.07-.83 1.52-1.35.16-.19.5-.26.27-.57s-.43-.17-.64 0c-.78.65-1.83.37-2.68.83 0 .24.31.47.12.78-.44-.31-2.05-.36-2.18 0-.21.59-.64.41-1 .49s-1-.51-1.38.23c-1-.39-2.08.21-3.12-.08a36.55 36.55 0 01-3.77-1 2.92 2.92 0 01-1.76-1.28c.28 0 .58-.15.73-.05a3.9 3.9 0 002.3.47c.69 0 1.6.7 2.11-.41.07-.16.25-.1.35 0 .42.6.87.6 1.5.26a3 3 0 011.53-.25 6 6 0 002.92-.71c1.16-.61 2.45-.81 3.61-1.37.58-.28 1-.5 1-1.2a1.74 1.74 0 001.61-.39c.22-.25.52-.63 0-.76-.91-.23-.72-.64-.34-1.18.22-.31.05-.64-.05-.94a1.08 1.08 0 01.73-1.46.83.83 0 00.6-.73 6 6 0 01.45-1.22 9 9 0 001-2.54l.2-.28c.44-.34.28-.86.32-1.29.14-1.43 1.09-2.13 2.41-1.69.15 0 .4.23.39.32-.09.83.33 1.82.05 2.41-1 2-1.8 4.2-3.52 5.81a2.24 2.24 0 00-.69 1.29c0 .23 0 .49.27.41s1-.28 1.05-.52c.19-.9.95-.93 1.53-1.27a6.22 6.22 0 002.54-3.45 5.14 5.14 0 01.35-1 6.1 6.1 0 00.82-2 36.16 36.16 0 01.83-3.93c.24-.81 1-1.67.37-2.63.56-.54-.3-1.65.82-2 .18-.06.26-.43.05-.52-.85-.4-.36-1-.19-1.46a1.07 1.07 0 00-.12-1.05v-.27c.8-.09.75-.89 1.08-1.36.55-.78 1.72-1.12 2.26-.55-.08.53.39.8.57 1.21a1.27 1.27 0 00-.06 1.71l-.05.49a1 1 0 00-.32 1c0 1.15-.36 2.23-.35 3.4a32.32 32.32 0 01-.8 4.34 2 2 0 01-.53 1.3.65.65 0 00-.11 1c.39.38.67-.1 1-.3a1.23 1.23 0 00.26-.36c.39-.67 1-1.15 1.39-1.85a1.55 1.55 0 00.25-1.47 2.19 2.19 0 01.46-2.17 4.6 4.6 0 001-2.11 5.76 5.76 0 01.52-1.72 1.9 1.9 0 000-2.39.66.66 0 00.2-.5c.6-.46.12-1.09.23-1.62a.24.24 0 00.08-.33c.91-.72.91-.72.17-1.33l.22-.92c.6-.54.1-1-.06-1.57.34-.37.25-.69-.09-1 .3-.25.45-.53.17-.89.1-.36.18-.71-.28-.88a.23.23 0 00-.26-.17c.84-1.77.84-1.77 2-2.54l.28-.18a1.29 1.29 0 011.29 1.52c0 .46.39.45.69.53a12.51 12.51 0 010 3.51 2.93 2.93 0 00.11 1.53 39.37 39.37 0 00-.56 3.9c0 .17-.11.36.05.5s.47 0 .65 0 .47-.52.86-.51.38 0 .42-.24a1.37 1.37 0 00.36-1.58c.14-.69.3-1.37.42-2.06.25-1.52.1-3.08.36-4.61.05-.33.41-.61.2-1-.54-.95-.22-2.07-.61-3a2.33 2.33 0 00-.44-2.2l.08-.53c.26-.57-.34-.76-.52-1.14l.76-.72c.35.29.63.33.77-.2a.4.4 0 00.41 0 .76.76 0 00.63.23 1.21 1.21 0 011.43 1.51.58.58 0 00.36.66c.46.14.46.48.57.87s-.23.85-.09 1.06c.74 1.09 0 2.31.43 3.45a4.18 4.18 0 01-.21 3c-.35.76.52.73.35 1.16.5.13.52-.34.73-.58a5.67 5.67 0 01.5-.48A2 2 0 00365 139a4.6 4.6 0 010-2.6.33.33 0 00-.06-.41c-.19-.14-.32 0-.44.14-.32.38-.8.3-1.3.53.18-.45.33-.76.43-1.08.29-.87-.07-2 1.06-2.55.11-.05.13-.4.09-.58-.18-.83.34-1.8-.49-2.5a.29.29 0 01-.06-.24c.4-1.19-.3-1.74-1.23-2.17.05-.18.25-.37 0-.56a2.48 2.48 0 00-.55-2l-.28-.11c.11-.65 0-1.16-.78-1.29l-.34-.72a2.74 2.74 0 011.09-.72c.26-.14.46-.64.81-.39.6.44 1 .16 1.48-.21.08.31.33.43.59.54.11.7.75 1.08 1 1.7.15.33.63.19 1 .19s.26-.19.24-.38c-.17-1.29-1.25-2.09-1.71-3.22 0-.09-.33-.08-.5-.11a1.53 1.53 0 01.1-2.1c.79-.4 1.56-.86 2.38 0a.93.93 0 00.92.21c.3-.09.48.16.68.21.85.19.8 1 1.08 1.5.45.81 1.37 1.45 1.1 2.58a.19.19 0 00.2.23c.19 0 .39-.12.4-.28a1.62 1.62 0 01.58-1.36 7.63 7.63 0 00-.94-2.6 1.14 1.14 0 01-.8-1c-.17-.79-1.44-1-1-2 0 0-.15-.19-.25-.21-.47-.08-.64-.5-.91-.8a7.17 7.17 0 00-4.27-2.61.79.79 0 01-.49-.18c-1.05-1.21-2.64-.73-3.93-1.27a21.72 21.72 0 00-3.36-.67 20.7 20.7 0 00-2.49-.34c-1-.11-2 .06-3-.11a8 8 0 00-1.76.06c.07.59-.52.9-.59 1.43-.16.18 0 .5-.32.61l-.69-.14-.16-.15a.73.73 0 00-.41-.93c-.62-.39-.81.31-1.21.47h-.06c-.65-.35-1.28-.58-1.82.19zm-39.19 30.67c.06-.14.1-.25.14-.36s.33-.44.13-.65a.71.71 0 00-.75-.09 3 3 0 00-1.42.84 15.9 15.9 0 00-1.4 2.72c-.39.69.06.83.49.81a2.52 2.52 0 001.87-1 5 5 0 00.97-2.24zm-6.53 21c.49-1.19.27-2.22.51-3.18a4.77 4.77 0 00.28-1.81c-.06-.57-.43-.66-.83-.75-.6-.14-.28.34-.34.56a.56.56 0 01-.52.41c-.44.08-.59.38-.41.7.32.56 0 1.39.82 1.73a.41.41 0 01.15.48c-.13.64.26 1.11.37 1.9zm1-9.66a4 4 0 001.93-2.4c.24-.68.82-1.32.27-2.12-.12-.17-.12-.41-.41-.31a3.54 3.54 0 00-1.9 2.41 2.67 2.67 0 00.19 2.46zm58-.89c.18-.49 0-.84.16-1.19.34-.63 0-.75-.57-.68a.85.85 0 00-.9.77c0 .25-.08.56-.48.45s-.54.19-.74.52c-.34.57-.07 1.14-.16 1.7a.5.5 0 00.36.62c.34.08.38-.18.48-.39s.34-.31.51-.46a10.57 10.57 0 011.41-1.33zm-61.11-3.42c.38-.21.5-.38.55-.59a3.37 3.37 0 011.21-2.27.42.42 0 00.09-.57.91.91 0 01.13-1.14c.27-.34.07-.57-.25-.68s-.56-.37-.84.07c-.91 1.61-.89 3.35-.82 5.22zm66.15-.93a3.12 3.12 0 00.45.72.36.36 0 00.59-.11c.38-.59.36-1.41 1.08-1.8.11-.06 0-.21-.08-.3a2.6 2.6 0 00-1.25-.79c-.32-.13-.55 0-.51.52s.54 1.26-.21 1.8zm11.26-20.17c.45-.78-.12-1.36-.41-2-.17-.35-.53-.24-.75 0-.72.82-.66 1.32.2 2 .09.07.23.09.3.17s0 .57.36.5.26-.41.37-.63zm-57-5.08c-.7-.34-1.1.26-1.63.53-.23.12-.5.16-.33.46s.29.66.63.47c.57-.32 1.15-.13 1.72-.19.37 0 .77-.19.53-.52s-.33-.72-.86-.71zm3.5-.23a1.45 1.45 0 00-1.48.63c-.1.18-.26.34-.1.55s.37.06.55.09c.84.15 1.5-.44 2.29-.5a.46.46 0 00.41-.58c-.08-.39-.42-.18-.65-.17s-.54.35-.96.02zm48.38 21c.78-.29.65-1.27 1.29-1.69.19-.12.07-.41-.15-.5s-.55-.33-.61-.05c-.12.75-1.12 1.31-.47 2.24zM363 150c.26-.59-.1-.91-.54-1.12s-.52.11-.54.39c0 .49 0 1.09.4 1.34s.6-.32.68-.61zm-8.58 5c.11-.27 0-.4-.25-.48s-.37 0-.43.28-.07.44.2.5.41-.21.51-.39zm7.23-11.59c.33-.21.72-.24.66-.73 0-.16-.1-.32-.28-.22a.77.77 0 00-.35.86zM355.59 232.37c-.49 0-.34-.31-.32-.53s.27-.51.55-.38.56.26.41.62-.31.54-.64.29zM217 152.32c-.84.69-.59 2.26-1.86 3a1.19 1.19 0 00-.27 1.12c.38.87-.23 1.4-.55 2-.1.22-.23.37-.13.64a7.73 7.73 0 01.21 3.28c0 .52 0 1.39-1 1-.2-.07-.31.11-.41.26s-.27.27-.34.09c-.32-.83-1.45-.3-1.76-1.09 0-.07.09-.22.17-.3.52-.52.53-.94-.24-1.21-.34-.13-.2-.38-.12-.59a4.46 4.46 0 00.21-2.4c0-.08-.05-.19 0-.25.82-1.54.74-3.42 1.68-4.88a11.07 11.07 0 013.75-3.67c.24-.14.46-.07.45.17-.11.91.58 1.71.21 2.83zM221.57 170.81c-.28.18-.07.71-.55.71s-.54-.36-.79-.59c-1.38-1.21-.88-2.9-.86-4.28a16.21 16.21 0 01.93-5.33 1.46 1.46 0 011-1c.22-.07.5-.07.66-.21.55-.5.85-.55.8.33 0 .13-.06.35.17.32 1.44-.22.68 1 .58 1.21-.72 1.52-.13 3.08-.27 4.61-.1 1.16.64 2.19.48 3.4a1.61 1.61 0 01-1.09 1.54c-.52.21-.91-.15-1.06-.71zM228.14 163.09a1.58 1.58 0 011.05 2.18c-.29.87.14 1.77-.29 2.65-.11.21.34 1 .58 1.44.05.1.2.14.25.23.28.48.19 1.6 1.25.53.25-.27.66.52.91.89s-.39.57-.33 1c-.69 0-.73.64-.95 1.06s-.71.59-1 .29c-.65-.69-1.23-.26-1.79 0-1.29.56-1.91.18-1.84-1.22a3.21 3.21 0 00-.34-1.3c-.37-1 0-2.11-.11-3.15-.13-1.23.8-2.29.44-3.51-.22-.75.53-.4.68-.66.4-.72.94-.52 1.49-.43zM226.58 120.6a.91.91 0 01-1.27.33c-.07-.07 0-.21-.21-.14a3.64 3.64 0 01-3.45-1 1.54 1.54 0 00-1-.53.63.63 0 01-.57-.48c0-.28.11-.42.41-.56.56-.26 0-.5-.13-.7a1.19 1.19 0 01.32-1.9c.06 0 .14-.09.16-.08.7.57 1.72.19 2.39.76a13 13 0 002.35 1.53c.71.39 1.42.85.86 1.83-.21.41.24.59.14.94zM218.16 132c0 .54-.51.38-.82.49-.71.26-1.4.46-1.9-.4a4 4 0 00-1.5-1.44.48.48 0 01-.21-.61c.09-.38.34-.18.56-.16.88.07 1.64-.51 2.56-.4.74.08 1.52.58 1.5 1.33a8.32 8.32 0 01-.19 1.19zM228.5 125.84c-.46-.34-1.43-.33-1.38-1.4-.82 0-.65-.75-.79-1.23s.29-.36.34-.25c.41.89 1.1.28 1.62.28a2.06 2.06 0 011.89 1.82c-.05.6-.9 1.05-1.68.78zM223.5 148.62c-.2-.27-.52.32-.88 0s-1.09-.75-1-1.39.91-.55 1.36-.86h.09c.65 0 1.7-.35 1.88.11.25.64-.42 1.43-.72 2.14-.11.38-.39.38-.73 0zM209.55 159.52c-.07.13-.14.26-.31.16s-.13-.24-.06-.38a.22.22 0 01.28-.13c.2.06.13.21.09.35zM188.94 78.15a1.06 1.06 0 01-.9-1.27c.16-1.12 1.58-2.09 2.37-1.81 1 .34 1.16 1 .61 2.75-.14.43-1.17.62-2.08.33zM195.22 87.36c.88-.2 1 .41.82 1-.23.87-1.56 1.92-1.94 1.57a5 5 0 00-.91-.8 2.88 2.88 0 01-.27-.22c-.41-.25-1-.55-.83-1s.91-.37 1.29-.3a1.07 1.07 0 001-.25c.32-.36.5-.36.84 0zM183.35 80.74c-.23.42-.49.81-1.09.65-.25-.07-.49-.19-.74.06s-.35.29-.49 0a.45.45 0 010-.56 4.15 4.15 0 012.1-.73c.36.1.31.33.22.58zM136.48 111.34l.08-.07v.07zM158.47 103.48l-.03.01.03-.04v.03zM251.87 118.63c-.45-.15-1.52-1.57-1.43-2.08a2.22 2.22 0 011.07-1.61 1.42 1.42 0 011.6.39 3.63 3.63 0 011.28 1.57.61.61 0 010 .42 3.14 3.14 0 01-2.52 1.31zM256.7 126.53c-.07.06-.11.12-.14.11s-.11-.17-.1-.27.07-.08.1-.12zM242.28 134.07l.06-.2c.19.13.08.13-.06.2zM158.66 89.85c.2 0 .22.14.2.24a.21.21 0 01-.17.13c-.14 0-.19-.13-.18-.24s.11-.1.15-.13zM133.93 137.9l-.01-.04.03.02-.02.02zM66.56 142.28c-.36 0-.4-.32-.57-.47l.06-.07c.32-.38.49-.22.51.54zM44.52 161.45v.08h-.13v-.07zM134.07 31c-.85-.55-2.06-.7-2.42-2a4.83 4.83 0 00-.48-.85c-.34-.61-.16-1.11.58-1.21a1.07 1.07 0 001.06-1.14c.05-.55.36-.49.66-.28a6.73 6.73 0 01.95.74c.29.28.49.66 1 .73A.7.7 0 01136 28a4.9 4.9 0 00-.28 1.08c-.09.45.1 1.36-1.07.87-.75-.3-.16.68-.58 1.05zM144.88 21c.29-.46.63-.88-.14-1.14-.05 0-.1-.13-.1-.2a3.73 3.73 0 011.83-2.33c.62-.17 2.19.85 2.19 1.45s-.66.66-.95 1c-.63.84-2 1-2.14 2.32a.26.26 0 01-.32.22c-.13-.05-.29-.18-.3-.3a10.27 10.27 0 01-.07-1.02zM149.31 14.66c-.35.71-.92 1.33-.46 2.2.08.15-.1.22-.28.2-.55 0-1.1-.14-1.25-.76a1.53 1.53 0 00-.92-1 1.8 1.8 0 01-.77-1.93c.23-.43 1.38-.53 1.94-.34a3.88 3.88 0 011.4.72.85.85 0 01.34.91zM164.32 25.55v.12h-.06l.06-.1zM206.08 224.67c0-.11-.08-.22.07-.28s.2 0 .26.14z"/><path d="M313.83 147c-.24.73-.48 1.45-1.38 1.65a.62.62 0 00-.38.66 3.32 3.32 0 01-.9 2.55c-.44.52-.45 1.37-.95 1.95a5.94 5.94 0 00-1.18 3.23c-.18 1.26-.87 2.44-1.12 3.72a28.65 28.65 0 01-.62 3.45c-.15.46-.08.87-.9 1.11a3.69 3.69 0 01-1.94.21.84.84 0 01-.75-1.07c.34-1.08.22-2.21.51-3.28.1-.35 0-.89.6-.9a2.19 2.19 0 01-.12-1 3 3 0 01.21-1.28 14.62 14.62 0 001.19-3.58c.13-.74.61-1 .9-1.45s.66-1 .05-1.65c-.2-.22.23-1.49.38-1.49 1.29 0 1.4-1.09 2-1.82s.87-1.32 1.35-1.94 1.14-.13 1.62-.5h.24c.09.24.18.48.5.49 0 .27.21.38.37.52-.05.2-.03.42.32.42zM324.85 161.44c-.43.26-.86.44-.5 1.12.14.25-.24.65-.64.61s-.5.27-.45.56a4.77 4.77 0 01-.57 3.25c-.38.63-1.09.5-1.7.48s-.32-.46-.43-.79c-.53-1.71.45-3.24.42-4.88a2 2 0 011-2c.25-.13.38-.51.56-.77.85-.63 1 .2 1.33.64s.23 1.08.78 1.38a.34.34 0 00.2.4zM349.79 133.69c.64-1.63 1-1.79 2.59-1.16a2.5 2.5 0 01.26.07c.3.18.82-.08.93.44s-.41.54-.7.74-.25.35.06.5.48.18.34.51a.57.57 0 01-.65.36 9 9 0 01-2.34-.48c-.44-.24-.9-.43-.49-.98zM322.38 146.44c.47 0 .87.21.93-.51 0-.52.8-.57 1.24-.71s1.07-.11 1.24.49a1.7 1.7 0 01-.53 1.65c-.93.91-2.38.88-2.88-.92zM358.44 116.54c-.73.08-.9-.85-1.6-1-.21 0-.08-.42.25-.55a3.1 3.1 0 013.1.93c.17.2.1.27-.12.45a1.29 1.29 0 01-1.63.17zM334.72 135.3c-.31.87-1.12.92-1.78.9-.43 0-.86-.53-1-1a.66.66 0 01.58-.9 3.53 3.53 0 011.87.21c.42.19.53.4.33.79z"/><path d="M311.11 165.22a1.94 1.94 0 01.74 2.19c-.28.68-1 .81-1.59.91-.79.12-1.78-1.31-1.43-2.22s-.11-1.61.33-2.38c.1-.17-.53-.54-.29-1.09.44-1 .63-2.08 1.14-3 .35-.64-.11-1.16.07-1.78a23.06 23.06 0 001.07-3.23c.12-1 .82-1.91 1-3a2.17 2.17 0 012.08-1.82 3.21 3.21 0 011.74.81c.16.13-.08.81-.21 1.22a20.75 20.75 0 00-1 3.25c0 .12 0 .27-.11.33-1.64 1.27-.73 3.24-1.3 4.81a6.6 6.6 0 01-.3 1.1 7.47 7.47 0 00-1 3c-.13.39-.59.58-.94.9zM316.52 167.52c-.16-.09-.27-.19-.3-.16-.72.54-1.19-.1-1.79-.31a1 1 0 01-.74-1.28c.13-1.19.64-2.28.87-3.42a27.79 27.79 0 01.85-3.79c.3-.88 1.1-1.64 1.28-2.59s1.15-1.26 1.64-2c.22-.32 1.4.43 1.43.92A2.17 2.17 0 00320 156c.12.17.21.52-.28.53s-.35.54-.57.79-.15 1.2-1 1.3c-.14 0-.08.25-.07.39.1.75.05.92-.61 1.41-.3.23-.27.4 0 .49.67.21.57.64.28 1a1 1 0 000 1.29.9.9 0 01.12.76 3.58 3.58 0 000 1.66c.21.77-.5 1.22-.75 1.83-.12.28-.46.07-.6.07zM325.46 165.22c.56-.65.65-1.58 1.34-2.17.52-.45.95-.34 1.15.36a5.79 5.79 0 01-.06 1.81 5.38 5.38 0 00-.11 1.56c.07.28-.13.5-.39.63a1.29 1.29 0 01-.56.23c-.42 0-.86.75-1 .43-.17-.53-.8-1-.38-1.73.18-.26-.24-.72.01-1.12z"/></g></svg>