<svg data-name="Layer 1" xmlns="http://www.w3.org/2000/svg" viewBox="0 0 17.64 19"><path d="M17.64 4.07v13.57A1.37 1.37 0 0116.29 19H1.36a1.31 1.31 0 01-1-.4 1.31 1.31 0 01-.4-1V4.07a1.29 1.29 0 01.4-1 1.32 1.32 0 011-.41h1.35v-1A1.64 1.64 0 013.21.5a1.64 1.64 0 011.2-.5h.68a1.64 1.64 0 011.2.5 1.64 1.64 0 01.5 1.2v1h4.07v-1a1.6 1.6 0 01.5-1.2 1.63 1.63 0 011.19-.5h.68a1.64 1.64 0 011.2.5 1.64 1.64 0 01.5 1.2v1h1.36a1.31 1.31 0 01.95.41 1.29 1.29 0 01.4.96zM1.36 9.84h3.05v-3h-3zm0 4.07h3.05v-3.39h-3zm0 3.73h3.05v-3.05h-3zM5.43 4.75v-3a.33.33 0 00-.1-.24.33.33 0 00-.24-.1h-.68a.33.33 0 00-.24.1.3.3 0 00-.1.24v3a.34.34 0 00.34.34h.68A.33.33 0 005.33 5a.37.37 0 00.1-.25zm-.34 5.09h3.39v-3H5.09zm0 4.07h3.39v-3.39H5.09zm0 3.73h3.39v-3.05H5.09zm4.07-7.8h3.39v-3H9.16zm0 4.07h3.39v-3.39H9.16zm0 3.73h3.39v-3.05H9.16zm4.41-12.89v-3a.3.3 0 00-.1-.24.33.33 0 00-.24-.1h-.68a.33.33 0 00-.24.1.33.33 0 00-.1.24v3a.37.37 0 00.1.24.33.33 0 00.24.1h.68a.34.34 0 00.34-.34zm-.34 5.09h3.06v-3h-3.06zm0 4.07h3.06v-3.39h-3.06zm0 3.73h3.06v-3.05h-3.06z" fill="#332e20"/></svg>