<svg data-name="Layer 1" xmlns="http://www.w3.org/2000/svg" viewBox="0 0 16.29 16.29"><path d="M15.19 4.06a7.93 7.93 0 011.1 4.08 8 8 0 01-1.1 4.09 7.93 7.93 0 01-3 3 8 8 0 01-4.09 1.1 7.93 7.93 0 01-4.08-1.1 8 8 0 01-3-3A8 8 0 010 8.14a7.92 7.92 0 011.09-4.08 8.13 8.13 0 013-3A7.92 7.92 0 018.14 0a8 8 0 014.09 1.09 8 8 0 012.96 2.97zm-2 7a5.83 5.83 0 000-5.79A5.79 5.79 0 0011 3.15a5.62 5.62 0 00-2.9-.77 5.59 5.59 0 00-2.89.77 5.72 5.72 0 00-2.1 2.1 5.59 5.59 0 00-.77 2.89A5.62 5.62 0 003.15 11a5.79 5.79 0 002.1 2.1 5.83 5.83 0 005.79 0 5.87 5.87 0 002.1-2.1zM9.5 4.41v4.75a.33.33 0 01-.1.25.32.32 0 01-.24.09H5.77a.31.31 0 01-.34-.34v-.68a.32.32 0 01.09-.24.33.33 0 01.25-.1h2.37V4.41a.34.34 0 01.34-.34h.68a.34.34 0 01.34.34z" fill="#332e20"/></svg>