<svg data-name="Layer 1" xmlns="http://www.w3.org/2000/svg" viewBox="0 0 18 14.14"><path d="M18 1.61v10.93a1.55 1.55 0 01-.47 1.13 1.53 1.53 0 01-1.14.47H1.61a1.55 1.55 0 01-1.14-.47A1.55 1.55 0 010 12.54V1.61A1.6 1.6 0 011.61 0h14.78a1.57 1.57 0 011.14.47A1.59 1.59 0 0118 1.61zM16.71 2v-.4a.17.17 0 000-.12l-.06-.09a.18.18 0 00-.09-.08.3.3 0 00-.14 0H1.61a.31.31 0 00-.32.32 3.53 3.53 0 001.47 2.83l4 3.18.35.3.46.38.45.31a2.18 2.18 0 00.51.28A1.18 1.18 0 009 9a1.18 1.18 0 00.43-.09 2.18 2.18 0 00.57-.28l.45-.31.46-.38.35-.3 4-3.18a4.68 4.68 0 001-1.16 2.53 2.53 0 00.45-1.3zm0 10.56V4.82a5.38 5.38 0 01-.69.66C14.23 6.86 12.8 8 11.74 8.88c-.34.29-.62.51-.83.67A4.81 4.81 0 0110 10a2.62 2.62 0 01-1 .25A2.62 2.62 0 018 10a4.81 4.81 0 01-.87-.49c-.21-.16-.49-.38-.83-.67C5.2 8 3.77 6.86 2 5.48a5.38 5.38 0 01-.69-.66v7.72a.31.31 0 00.09.22.29.29 0 00.23.1h14.76a.29.29 0 00.23-.1.31.31 0 00.09-.22z" fill="#332e20"/></svg>