<svg data-name="Layer 1" xmlns="http://www.w3.org/2000/svg" viewBox="0 0 18 14.14"><path d="M18 1.61v10.93a1.55 1.55 0 0 1-.47 1.13 1.53 1.53 0 0 1-1.14.47H1.61a1.55 1.55 0 0 1-1.14-.47A1.55 1.55 0 0 1 0 12.54V1.61A1.6 1.6 0 0 1 1.61 0h14.78a1.57 1.57 0 0 1 1.14.47A1.59 1.59 0 0 1 18 1.61zM16.71 2v-.4a.17.17 0 0 0 0-.12l-.06-.09a.18.18 0 0 0-.09-.08.3.3 0 0 0-.14 0H1.61a.31.31 0 0 0-.32.32 3.53 3.53 0 0 0 1.47 2.83l4 3.18.35.3.46.38.45.31a2.18 2.18 0 0 0 .51.28A1.18 1.18 0 0 0 9 9a1.18 1.18 0 0 0 .43-.09 2.18 2.18 0 0 0 .57-.28l.45-.31.46-.38.35-.3 4-3.18a4.68 4.68 0 0 0 1-1.16 2.53 2.53 0 0 0 .45-1.3zm0 10.56V4.82a5.38 5.38 0 0 1-.69.66C14.23 6.86 12.8 8 11.74 8.88c-.34.29-.62.51-.83.67A4.81 4.81 0 0 1 10 10a2.62 2.62 0 0 1-1 .25A2.62 2.62 0 0 1 8 10a4.81 4.81 0 0 1-.87-.49c-.21-.16-.49-.38-.83-.67C5.2 8 3.77 6.86 2 5.48a5.38 5.38 0 0 1-.69-.66v7.72a.31.31 0 0 0 .09.22.29.29 0 0 0 .23.1h14.76a.29.29 0 0 0 .23-.1.31.31 0 0 0 .09-.22z" fill="#332e20"/></svg>