<svg data-name="Layer 1" xmlns="http://www.w3.org/2000/svg" viewBox="0 0 159.48 136.98"><path d="M159.44 133.45V92A79.58 79.58 0 0 0 .29 92v41.47z" fill="#898f65"/><path d="M159.44 133.45V92A79.67 79.67 0 0 0 115 20.57a17.11 17.11 0 0 0 3-1.41c3.63-2.21 3.24-3.31.79-5.29s-9.32-4.66-14.22-6.63-7.82-3.95-13.83-5.61A60.35 60.35 0 0 0 69.34.45C62.79 1.32 54.89 2 50.86 3.37s-6.39 7.42-7.34 13.19a27.75 27.75 0 0 0-.39 4.85A79.65 79.65 0 0 0 .29 92v41.47L0 137h159.48zM156.26 92v4.37c-6-.2-12-.31-18-.47h-2.19a15.65 15.65 0 0 0-7.41-2.56s-1.45-1.05-3.45-2.39l13-.2c6-.16 12-.26 18-.46.02.53.05 1.11.05 1.71zm-6.6 35.16c-.47-1.79-1-3.72-1.59-5.7q4.1-.09 8.19-.23v6.11q-3.26-.12-6.6-.2zm6.6.27v6h-5.14a14.7 14.7 0 0 0-.2-1c-.3-1.4-.69-3-1.15-4.82q3.23-.09 6.49-.2zm-8.35-6.51c-.55-1.85-1.14-3.74-1.75-5.61 3.37-.08 6.73-.16 10.1-.27v6.11c-2.78-.15-5.57-.15-8.35-.25zm-2-6.25c-.62-1.89-1.27-3.74-1.92-5.5 4.08-.1 8.15-.19 12.23-.33v6.11c-3.4-.13-6.83-.21-10.22-.3zm-2.19-6.24c-.74-2-1.49-3.81-2.21-5.4 4.91-.12 9.81-.22 14.71-.38v6.11c-4.13-.16-8.29-.25-12.46-.35zm-2.61-6.26c-.22-.47-.44-.92-.65-1.33a13.43 13.43 0 0 0-3.07-3.91h.82c6-.16 12-.27 18-.47v6.11c-4.99-.19-10.02-.3-15.06-.42zm15.06-12c-6-.2-12-.31-18-.46L123 89.46c-1.6-1-3.32-2.09-4.85-2.91-1-.54-2.17-1.12-3.37-1.7h3.94l19.51-.29c5.87-.16 11.73-.27 17.6-.46.23 1.96.33 4 .38 6.05zm-.38-6.21c-5.86-.19-11.72-.29-17.58-.45l-19.51-.29-7.64-.09-3.52-1.58a9.69 9.69 0 0 0-1.49-2.8c3.84 0 7.67-.07 11.51-.13l19-.29c6.12-.16 12.23-.27 18.34-.49.4 2 .72 4.04.93 6.1zm-2.36-12.35c-6-.22-11.94-.32-17.92-.49L117 70.81l-7-.09a6.15 6.15 0 0 0 .48-2 6.43 6.43 0 0 0-.38-2.38l6.56-.09 18-.29c5.61-.16 11.23-.27 16.84-.47.75 1.97 1.4 4.02 1.97 6.1zm-2-6.21c-5.6-.21-11.21-.31-16.81-.47l-18-.29-7-.1a2.26 2.26 0 0 1 0-.26c0-1.27 1.34-2.61 1.42-3.32a1.27 1.27 0 0 0-.31-.86l4.58-.06 17.61-.29c5.32-.16 10.64-.27 16-.46.91 1.97 1.78 4.01 2.55 6.09zm-2.63-6.22c-5.31-.19-10.61-.29-15.92-.45l-17.61-.29-4.43-.06a3.61 3.61 0 0 0 .16-.42 13.92 13.92 0 0 0 .08-3.08 17.68 17.68 0 0 0 3.71-.71.83.83 0 0 0 .29-.36l15.3-.26c5.05-.15 10.1-.26 15.16-.45q1.79 2.9 3.3 6.06zM145.51 53c-5-.19-10.06-.3-15.09-.46l-15.11-.26a2.87 2.87 0 0 0-.64-1.5c-.57-.67-1.47-2-2.31-3.15l14.46-.26c4.88-.17 9.76-.27 14.64-.48 1.45 1.94 2.8 3.97 4.05 6.11zm-4.1-6.18c-4.86-.2-9.72-.31-14.59-.47L111.25 46l-.37-.49a5.69 5.69 0 0 1-.77-4.13l13.65-.27c4.23-.15 8.46-.26 12.68-.44a76.28 76.28 0 0 1 4.97 6.12zm-5.1-6.23c-4.18-.18-8.36-.29-12.55-.44l-13.35-.26c.47-1.46 1.52-3 1.51-4.77l6.57-.15c3.87-.15 7.74-.26 11.61-.45a77.34 77.34 0 0 1 6.21 6.04zM130 34.37c-3.82-.18-7.65-.29-11.47-.44l-6.77-.15c-.32-1.29-1-3.16-1.61-5q5.94-.19 11.87-.51a76.31 76.31 0 0 1 7.98 6.1zm-21.21-11c.13-.53.82-.93 1.81-1.31a76.71 76.71 0 0 1 11.27 6.15q-6-.33-12.1-.52c-.69-1.96-1.19-3.69-1.02-4.34zm-2.58 51.21a8.06 8.06 0 0 0 2.75-2l8-.1 18.6-.29c6-.17 12-.27 17.94-.49q.82 3 1.43 6.15c-6.11-.21-12.23-.32-18.34-.48l-19-.29q-7.2-.11-14.4-.16a12.05 12.05 0 0 0-3.12-.49l-.33-.81s4.18-.03 6.43-1.06zM43.44 24.86a18.32 18.32 0 0 0 .77 3q-3.12.12-6.24.28c1.77-1.14 3.6-2.26 5.47-3.28zm-5.76 3.47q3.42.18 6.82.31a19.57 19.57 0 0 0 1.07 2.21 6.11 6.11 0 0 0 3.65 2.89l-8.44.19c-3.66.15-7.32.25-11 .42a75.59 75.59 0 0 1 7.9-6.02zm-8.07 6.18c3.72.18 7.45.28 11.17.43l11.64.26a12.45 12.45 0 0 0 1.44 4.26c.07.1.13.21.2.33l-2.86.05-14.51.29c-4.44.15-8.87.26-13.3.46a75.93 75.93 0 0 1 6.22-6.08zm-6.3 6.17c4.46.19 8.92.3 13.38.46l14.51.29 3.78.06c.67 1.28 1.45 2.83 2.24 4.42q-4.42 0-8.85.12l-15.69.29c-4.78.16-9.57.27-14.36.46a74.92 74.92 0 0 1 4.99-6.1zm-5 6.19c4.81.2 9.62.31 14.42.46l15.69.29q4.89.09 9.78.13c.71 1.4 1.41 2.74 2 3.87q.12.21.24.45-7 0-14.05.16l-16.81.29c-5.11.15-10.23.26-15.35.45 1.23-2.1 2.59-4.13 4.03-6.1zm-4.1 6.2c5.13.19 10.27.3 15.4.46l16.81.29q7.5.12 15 .17c.59 1.27 1.21 2.72 1.78 4.25q-9.12 0-18.25.18l-17.6.29c-5.48.16-10.95.27-16.42.47.95-2.09 2.07-4.13 3.23-6.11zm-3.31 6.18c5.48.21 11 .31 16.45.47L44.9 60q9.47.15 18.94.19c.48 1.42.9 2.86 1.22 4.23-6.78 0-13.56.08-20.34.19l-18 .29c-6 .17-12 .27-18 .5 6 .24 12 .34 18 .51l18 .29c6.91.11 13.82.16 20.73.19.08.52.14 1 .18 1.49a9.38 9.38 0 0 1-.19 2.72q-11.44 0-22.91.2l-18.6.29c-5.89.17-11.78.27-17.67.48a75.88 75.88 0 0 1 4.59-12.32zM6.24 71.64c5.9.21 11.79.31 17.69.47l18.6.29q10.9.16 21.8.2a14 14 0 0 0-4.86 2.26 15.25 15.25 0 0 0-1.69 2q-8.07 0-16.13.16l-19 .29c-5.95.16-11.9.27-17.85.47.41-2.09.88-4.13 1.44-6.14zm-1.44 6.2c6 .2 11.91.31 17.86.47l19 .29q7.41.11 14.82.15l-.48.75c-2.65 1.17-6 2.63-8.42 3.62l-6.87.09-19.5.28c-5.77.16-11.54.26-17.31.45.21-2.06.53-4.09.9-6.1zm-.92 6.22c5.77.18 11.55.29 17.33.44l19.5.29h2.7c-3.38 1.48-7.32 3.42-8.46 4a22.28 22.28 0 0 0-5.45.76l-8.29.12c-5.9.15-11.8.26-17.69.45.04-2.02.15-4.06.36-6.06zM3.47 92v-1.73c5.9.19 11.8.29 17.7.45l5.69.08-.12.09a32.32 32.32 0 0 0-5.26 5h-.31c-5.92.16-11.83.27-17.74.46zm0 4.46c5.74.19 11.48.29 17.23.44-.68.85-1.43 1.83-2.29 3-.54.72-1.07 1.49-1.61 2.32-4.44.1-8.89.2-13.33.35zm0 6.2c4.28.13 8.56.23 12.84.33a43.12 43.12 0 0 0-2.84 5.49c-3.33.08-6.67.16-10 .27zm0 6.19c3.25.11 6.49.19 9.74.26a47.31 47.31 0 0 0-1.91 5.62q-3.92.09-7.83.22zm0 6.2c2.56.08 5.13.15 7.69.21a56.15 56.15 0 0 0-1.16 5.7l-6.53.18zm0 6.19c2.16.07 4.31.13 6.47.18-.08.56-.16 1.12-.22 1.69-.14 1.22-.28 2.59-.42 4.06-2 0-3.89.1-5.83.17zm0 6.2l5.79.16c-.18 1.84-.35 3.83-.52 5.87H3.47z" fill="#332e20"/><path d="M57.89 41.35c-2.29-4.26-2.53-7.1-2.29-8.21s3.71-2.76 3.71-2.76a6.08 6.08 0 0 1 .87 3.95c-.31 2.21-.18 3.37.87 4.26s2.11 1.11 2.74.44c.94-1 2.23-2.62 4.45-2.57 3.55.08 5.52 1.1 5.05 3.08a12.9 12.9 0 0 1-2.45 4.26s-2.68-1.73-4.58-.71-2.21 2.06-1.5 5.29 3.23 7.07 4.92 8.16c1.86 1.21 4.64 1.45 4.95.11s-.47-2.34-.31-4.32 1.5-3.95 2.92-4 1.26 4 1.42 6.24-.33 3.9.67 6.47c2 5.13 8.48 6.93 8.54 7.7s-2.31.45-4.11-.19-4.63-3.08-3.84-1.18 3.91 4.94 7.76 6.38C91.27 75.07 98 75.52 98 75.52l.77 2.08S85 86.76 65.14 76.93a13.93 13.93 0 0 0 2.78-8.72c-.25-7.59-2.45-10.43-3.87-13.75s-3.87-8.84-6.16-13.11zm6.49-9.82a3.73 3.73 0 0 0 2-.92 9.72 9.72 0 0 0 2-4L62.89 29v1.24a1.29 1.29 0 0 0 1.49 1.29zm19.1 61.24c-3 .47-1.41 3.88 0 3.63 2.68-.48 3-4.11 0-3.63zM83.32 104c-2.68 1-1.42 4 .16 3.63 3-.63 2.52-4.63-.16-3.63zM82.2 83.45c.13-.38-3.81 1.42-5 2.21-1 .64-2.32.21-3.58-.58-.58-.36-4.64-3.16-5.11-3.32-.32-.11-.71-.09-.5.23a14.65 14.65 0 0 0 2.6 2.67c1 .68 4 3.52 5.14 3.6S78.39 87 79.28 86c.65-.67 2.77-2.08 2.92-2.55zm21.18 4.89c.53 3.74.79 7.15.79 7.15s2-.24 4.78 2.09c-.11-1.68-.25-2.66-.94-7.34a31.57 31.57 0 0 0-2.16-8.24c-.79-1.89-.78-2.46-2.26-3.25a5.48 5.48 0 0 0-2.86-.65 13.93 13.93 0 0 1 1.27 3.61 52.94 52.94 0 0 1 1.38 6.63zm-77.81 23.9c1.68-7.37 2.62-13.6 4-16.93s.64-3.7-2.31-1.6c-2.43 1.74-5.76 6.58-6.67 8.09s-3.18 4.7-4.39 6.82a42.68 42.68 0 0 0-3.49 10.3 141.25 141.25 0 0 0-1.88 14.53h9.27c-1.09-2.41-1.79-4.43-1.63-5 .3-1.06 1.51-1.21 3.63.91a51.32 51.32 0 0 0 4.8 4.07h4.83a28.3 28.3 0 0 0-1.52-2.67c-3.34-5.27-6.06-12.34-4.64-18.52zm91.05 21.21H47.56c1.42-8.08 3.22-17.63 3.22-17.63l2.49-.18c.11-2.47.23-5 .36-6.76.31-4.43 1.73-18.48 2.37-21.8s2-7.82 3.94-10a5.65 5.65 0 0 1 3.71-2.15 71.28 71.28 0 0 0-1.81 7.91c-.79 4.58-1.58 10.11-2.05 16.43-.35 4.59-.77 11.92-1 16.08 5.36-.27 13-.52 21.83-.44 9 .08 18.27.65 24.92 1.16-.08-3.33-.22-7.23-.29-8.48-.1-2-1-10.43-1-10.43s5.21 1 5.74 4.43a50.47 50.47 0 0 1 .42 8.26c0 .87.16 3.91.31 6.65l3.32.3a1.42 1.42 0 0 1 1.29 1.31c.2 2.89.79 10.35 1.29 15.34zm-60.49-22.58c-2 .71-1.06 3 .12 2.71 2.24-.47 1.88-3.41-.12-2.71zm53.15 0c0-.9-1.55-2.11-2.33-.32a1.75 1.75 0 0 0 1.6 2.63c1.07-.36.78-1.41.73-2.3z" fill="#cfa455" fill-rule="evenodd"/><path d="M91.49 50.89a1.16 1.16 0 0 1 1.2-1.34 5.34 5.34 0 0 0 2.08-.22c1.26-.47.09-2.49.81-4 .51-1.09 3.11-.93 4.39-1.17a.2.2 0 0 1 .17.34 5.36 5.36 0 0 0-1.34 3.32 5.26 5.26 0 0 0 1.15 4 1.81 1.81 0 0 1 .35 1.59l-.55 1.23c-.28 1.18.59 2.69 1.12 3.48a.44.44 0 0 1-.31.68 4 4 0 0 1-2.31-.32 19.55 19.55 0 0 1-4.9-3.48 7 7 0 0 1-1.86-4.11zm17.42 10.68c.31-.87-.8-1-1.42-.87-1.51.24-3.48.79-3.64 1.66s1.42.79 2.45.48 2.29-.4 2.61-1.27zm-3.32 4.11a2.75 2.75 0 0 0-1.34 2.32c.16 1.1.23 1.58 1 2.21a2.06 2.06 0 0 0 2.69-.47 2.87 2.87 0 0 0 .39-2.35c-.23-.63-.24-1.93-.71-2.47s-1.32.36-2.03.76zm2.76-11.29c-.39.32-.32 1.48-1 2.25s-2.83 1.47-2.83 2.18 2.59-.33 2.91-.25l1.2.32a2.79 2.79 0 0 0 .85-2.37c-.02-1.19-.73-2.44-1.13-2.13zM97 28.32c1.19 1 3.08 2.06 4 2.93s.45 2.06.87 2.72c.58.9 1.8 1 1.67 1.8s-2.77.75-3.85 1.22c-1.48.64-1.93 1.61-1.41 2.19s5.67-.48 6.54-.33.84 1.42.37 2.35c-.25.47-1 1.26-.71 2s3.31 3.63 4.18 4.9 1.11 4.53 1.11 4.53c.63 0 2.68-.19 2.76-.66s-1.82-3.08-2.68-4.27-2.14-2.6-2.29-4.34a8.9 8.9 0 0 1 .63-4.42c.48-1.18 1.81-2.06 1.73-3.48s-1.89-4.89-2.21-5.84a27.59 27.59 0 0 1-1.1-3.63c-.08-.79-.24-2.29-.24-2.29s-6.55.47-8 .47-4.19-.24-4.19-.24S95.8 27.3 97 28.32zm-4.79 59.47c2.13.55 2.37-.08 3.4-1.18s2.68-2.53 2.68-2.53c.16-1-3.16 1.66-4.18 2.45s-1.82.31-2.37.31-1.66.4.47.95zm-8.61 34.7c3.64 1.41 7.56 4.29 9.35 8.18a21.67 21.67 0 0 1 1 2.78h21.43c-.4-4.95-.78-11.8-1-14.57-.05-.7-.78-1.09-1.47-1.16l-2.22-.19c.12 2.09.22 3.77.22 3.77s.37 2.79-.21 3.47a2.77 2.77 0 0 1-4 .16c-1.63-1.42-1.32-2-1.21-4v-3.76c-6.34-.4-15.46-.84-24.84-.92-11.58-.11-3.39 3.75 2.95 6.24zm42.66-19c2.14.69 7.35 1.24 7.45 5s-2.86 6.31-2.86 8.41c0 2.55 7.7-1.69 10.51 1 3.44 3.25 1.19 8.07-.18 11.44a21.6 21.6 0 0 0-1.29 4.15h9.59a57.11 57.11 0 0 0-1.48-6.17c-1.27-4.11-2.71-9.77-4.4-14.19s-4.72-12.47-6.83-14.15a16.37 16.37 0 0 0-7.07-3.06c-2.63-.14-6.55 6.6-3.44 7.6z" fill="#f1efe1" fill-rule="evenodd"/></svg>