<svg data-name="2fbdbebe-bedd-4981-bc73-a04522db9be8" xmlns="http://www.w3.org/2000/svg" viewBox="0 0 19.03 10.41"><path d="M18.93.92A1.4 1.4 0 0 0 17.52 0H0v10.4h4c.73 0 .7.15.83-.7h7.72a1.29 1.29 0 0 0 .44 0A1.41 1.41 0 0 0 14 8a4.49 4.49 0 0 0-.23-.61 1.45 1.45 0 0 0 .27-2.58c.5-.7.53-.93.22-1.93h3.24a1.91 1.91 0 0 0 1-.32 1.32 1.32 0 0 0 .43-1.64zM4.2 9.85H2.8V.53h1.4zM9 9.13H4.8V.53h4.66a1.75 1.75 0 0 1 1.68 1.82v2.08a1 1 0 0 1-.87 1 .29.29 0 0 1-.13 0 .93.93 0 0 1-.87-1V2.74c0-.15-.14-.29-.22-.44-.11.12-.33.22-.33.36a2.83 2.83 0 0 1-1.87 1.86c-.23.07-.45.15-.67.24S6 5 5.93 5.08a1.19 1.19 0 0 0 .38.16 4.11 4.11 0 0 0 2.11-1.1c.08-.07.12-.18.25-.24-.08.65.35 1.22.13 1.87-.15.46 0 .75.54 1.36a1.5 1.5 0 0 0-.34 2zm3.67 0h-2.49a.87.87 0 0 1-.87-.86.86.86 0 0 1 .81-.86h2.64a.8.8 0 0 1 .76.85.84.84 0 0 1-.82.89zm1.51-2.93a.77.77 0 0 1-.78.64h-3.25a.75.75 0 0 1-.26 0 .77.77 0 0 1-.45-1 .41.41 0 0 0 .11.07 1.47 1.47 0 0 0 2-.6.55.55 0 0 1 .3-.16h1.3c.74-.07 1.2.41 1.03 1.05zm-2.42-3.13c0-.08.16-.22.26-.22a7.75 7.75 0 0 1 1.18 0 .83.83 0 0 1 .76.89.85.85 0 0 1-.88.82H11.7a10.29 10.29 0 0 1 .06-1.49zm6.68-1.47a.76.76 0 0 1-.71.59H11.8L11.07.54h6.37c.73 0 1.14.46 1 1.06z" fill="#332e20"/></svg>