<svg data-name="Layer 1" xmlns="http://www.w3.org/2000/svg" viewBox="0 0 21.58 10.41"><path d="M16.84 2.83c.31 1 .28 1.23-.22 1.93a1.45 1.45 0 01-.27 2.58 3.47 3.47 0 01.23.61 1.41 1.41 0 01-1.47 1.75H7.39c-.13.85-.1.7-.83.7h-6c-.54 0-.55 0-.55-.54C0 6.75 0 3.63 0 .52 0 .14.11 0 .51 0h19.57a1.39 1.39 0 011.41.92 1.31 1.31 0 01-.43 1.56 2 2 0 01-1 .32h-2.75zM7.36.53v8.6h4.23a1.5 1.5 0 01.31-2c-.52-.61-.69-.9-.54-1.36.22-.65-.21-1.22-.13-1.87-.13.06-.17.17-.25.24a4.15 4.15 0 01-2.11 1.1c-.11 0-.25-.1-.38-.16.08-.11.14-.26.25-.32a5.35 5.35 0 01.67-.24 2.85 2.85 0 001.87-1.86c0-.14.22-.24.33-.36.08.15.22.29.22.44v1.69a.94.94 0 001 1 1 1 0 00.87-1V2.36A1.75 1.75 0 0011.87.54H9.8zm-2 0v9.32h1.4V.56zm9 1.66h-.07 6A.77.77 0 0021 1.6c.14-.6-.27-1.06-1-1.06h-6.37zM14 9.15h1.26a.84.84 0 00.82-.85.81.81 0 00-.79-.86h-2.61a.85.85 0 00-.81.86.88.88 0 00.87.86zm-2-3.37a.78.78 0 00.71 1.06h3.25a.78.78 0 00.78-.64c.17-.64-.29-1.12-1.05-1.11h-1.3a.49.49 0 00-.3.16 1.46 1.46 0 01-2.09.53zm2.31-1.2h1.37a.85.85 0 00.88-.83.83.83 0 00-.8-.9 7.75 7.75 0 00-1.18 0c-.1 0-.26.14-.26.22-.07.48-.06.93-.06 1.51z" fill="#332e20"/></svg>