<svg data-name="Layer 1" xmlns="http://www.w3.org/2000/svg" viewBox="0 0 443.41 412.38"><g fill="#c5c8b2" fill-rule="evenodd"><path d="M146.58 182c-1.39 1.68 3 3 3.65 4.64 1.53-1.79-3.12-2.89-3.65-4.64zM430.41 235.63c.43-2.69-1.74-3.57-3.64-4.64 1.57-4.05-3.52-3.47-2.16-7.37-5.32-3.06-6.43-9-11.21-12.48 6.92 7.3 7.93 18.7 17.01 24.49zM284.26 208.8c2.41-3.42 2.53-10.15 3.75-15.27-3.16 3.15-1.65 13-6.07 14.35a3.19 3.19 0 0 0 2.32.92zM307.3 211c3.18-8.71 4.62-17.79 3.24-26.33a153.15 153.15 0 0 1-3.29 23.82c-1 1.47-1-1.21-2.33-.91.22 1.49-.1 3.42 2.38 3.42zM299.75 208.6c5.1-5.91 8.15-22.84 7.19-31.59a144.21 144.21 0 0 1-6.36 29.75c-1.32.42-1.17-2.18-1.85-.84-.16 1.25-.35 2.5 1.02 2.68zM399.87 222.65c5.07-.19 5.62-6.9 7.17-12.16-2.79 2.27-2.69 8.69-5.47 11-1.35.09-.75-1.17-1.18-1.71-2 .15-.14 1.46-.52 2.87zM310.66 206.08l1.45.26c2.16-6 6.3-15.29 5.85-21.37-.08-1.1-.17-3-1.89-3.33.61 6.69-1.07 17.64-5.41 24.44zM338.52 209.11c3.05-2.66 7.74-10 5.2-15a17.71 17.71 0 0 1-.65 6.36c-1.25 3.74-5.07 6.18-4.55 8.64zM358.69 202.28c1.1-.65 1.7-2 2.14-3.6-1.39.22-1.54 2.23-2.14 3.6zM384.79 204c1.4 0 1.31-2.16 2.06-3.12-1.73-.47-1.11 2.45-2.06 3.12zM405.31 200.71a29.16 29.16 0 0 0-10.54-7.88 76.32 76.32 0 0 0 10.54 7.88zM224.81 137.79c.77-.43.16-3.47-1.33-3.73a17.92 17.92 0 0 0 1.33 3.73zM160.43 121.71c-16.06-12.54-26.63-29.62-31.83-50.09-1.67-6.55-1.54-13.84-4.82-20.3 3 26.28 13.93 54.41 33 68.72a7.52 7.52 0 0 0 3.65 1.67zM191.91 112.93c.55.18.88 0 1.05-.31-5.48-10.27-11.56-20.12-19.21-28.88 5.81 9.94 13.62 19.63 18.16 29.19zM184.8 108.16c-.4-.17-.49.1-.57.39-1.23-1.51-1.27-5.71-3.56-5.12 1.33 1.14 1.25 7.42 4.13 4.73zM276.28 123.15c2.48-.68 3.41-3.61 4.59-6.15 1.9.51-.49 4 .58 5.09 3.3.28 3.63-3.7 4.69-6.64-1.94.46-1.35 4.56-3 5.45-3-3.23 1.89-11 1.56-14.17-3.93 3.84-4.41 12.66-8.42 16.42zM295.26 114.61c4.45-4 5.46-16 7.77-21-4.6 6.04-4.31 15.57-7.77 21zM259.41 106.15l1.93.35c.61-.94 1.72-1.16 2-2.63-2.59 1.12-2.94-.69-1.89-3.33-1.92.12-1.36 3.76-2.04 5.61zM264.14 102a7.19 7.19 0 0 0 1.75-4.17 7.13 7.13 0 0 0-1.75 4.17zM302.53 107.45l1.45.26c.7-5 4.53-10.17 4.49-16.63-1.82 3.03-2.72 10.92-5.94 16.37zM293.88 102.9c1.58.65 1.11-1.64 2.28-1.59.16-.39-.11-.48-.4-.57s-.42-.27-.39-.57c-.89.35-.9 1.96-1.49 2.73zM260.62 93.91c4.94-2.23 7.18-11.49 8.52-16.9-3.18 3.52-3.65 13.51-8.31 13-.19 1.36-.83 3.07-.21 3.9zM257.58 85.89c3.6-.49 4-5.59 5.6-9-1.84 2.43-3.43 5.2-5.74 6.94-.22.9.41 1.17.14 2.06zM263.26 76.45c1-1.76 4.07-6.52 2.05-8.6.98 3.15-3 5.25-2.05 8.6z"/><path d="M.45 110.82c19.67 15.89 42.81 29.36 70 40 1.7 1 1.17-1.16 2.59-.53 13.74 6.78 26.44 14.29 40.6 20.77-6-.89-11.86-5.55-18-7.73 4.76 4.86 13.82 6.73 20 10.58 2 .73-.21-1 1.14-.79 1.57 2.1 5.1 3.63 9 5.12-8.25-5.62-15.83-12.23-24.68-17.91-15-9.57-35.95-12.32-50.66-23.08 36.38 15.55 78.45 27.14 105.22 49.36 1.23 1.14.87 1.4 1 2.67 1.36.24-.91-1.52 1.14-.79 17 13.36 28.12 30.86 33.42 52.37 2.25-1.33 4.49-5.55 4.07-8.74 3-.13 3.28-4.19 4.68-6.63 7.34-5.7 13.07-14.77 17.77-26.7 2.29-5.82 5.57-12.7 5.45-16.45-.1-3-3.52-5.31-2.47-8.42 1.46-1 1.09 5.12 2.77 4 1-6.91-2.13-10.91-1.3-17.68-8.66-7.09-15.56-13.09-28.63-18.11-3.36-1.3-6.67-3.57-9.7-4.24-1.76-.39-3.73.4-5.48 0-5.8-1.3-10.72-7-16.42-8.44-5.25-1.36-8.85-3.3-13.61-7.44-13-11.31-17.84-26.36-24.19-42.73-5.14-13.26-5.71-25.93-7.38-39.2 4.32.82 6.29 5.35 9 8.1 19.84 20.12 54.76 31.65 74.78 52.34.45 8.8 8.29 15.85 9.34 25.61-3.39-3.12-3.79-8.84-6-13.55s-4.74-9.39-6.6-13.15a126.61 126.61 0 0 0-12.09-10.13c4.54 9.93 13.18 20.67 17.64 32.08-1.47.31-3.95-3.63-2.51-5.44-3.26-3.25-6-8.7-9-13.58A115.34 115.34 0 0 1 183.45 88c-4-1.88-6.64-4.67-10.8-6.43 0 .55.9.5.79 1.14-2.59-3-9.75-6.45-14.22-9.54.1 2.89 5.59 5.68 6.24 9.6-4.57-7.81-14.54-15.52-24.64-20.89 7.74 10 17 18.86 24.7 28.87-14.93-15.12-27.63-31.75-44.64-45.44-1 2.82.4 3.94 1 5.66-.49 1.6-1.64-1.62-1.62.7a66 66 0 0 0 4.43 25.22c6.22 16.42 10.24 28.47 22 41.33 5.16 5.67 8.25 7.86 16.55 10.45 5 1.57 9.12 6.22 14.09 7.53 3.88 1 7.84-.24 11.59 2.08-5.06-3.24-12-5.19-18-7.73 10.46 1.11 20.81 7.11 30.72 12 10.08 5 21.83 7.5 28.1 15.53 2.31-1.11 3 2.57 4.65 1.84a102.35 102.35 0 0 0-12.17-37.58c-1.71-.25.74 1.78-.74 1.36-2.14-7.94-10.16-11.79-15.25-17.69 21.53 12.63 27.79 35.87 30.8 61.36 2.21-6.58 7.84-10.69 9.89-16.16.86-2.28.79-5.08 1.31-7.24 1.37-5.76 3.77-11.12 4-16.72.39-9.15-2.31-17.66-3.59-27.05-3.22-23.61-5.13-52 5.4-79.76 2.36-6.21 4.69-13.38 8.17-20.45 2.14 3.77.61 8 1.29 12.19 1.55 9.37 6.15 17.44 8.12 26.88 3.1 14.89 2.45 31.07.86 50.48 2.41.54.88-4.41 1.05-5.79 1.94-16.29 15.72-28.72 23.4-38.64.75 10.7 2.51 26.66-4.85 38-.17-3 3.6-8.49 3.14-11.89-2.72 4.39-4.58 10-7.52 14.09-1.23-1.55 2-5.25 1.87-7.64.45-1.67 1 1.94 1.45.26 5.59-9.32 5.81-18.66 4.74-29a79.75 79.75 0 0 0-16.51 22.44c-1.47 3-3.87 6.61-3.27 9.87 3 .23 3.32-4.78 4.29-7.2 3.32-8.3 9.4-16.66 14.17-23.35 1 7.18-1.5 17.23-3.55 25.27-.62-5.75 2.93-13.75 3.08-19.88-7.24 9.23-10.63 24-13.58 39.41 3.72-4 6.9-8.7 11.12-11.95-6 7.93-12.61 15.08-17.81 24.2-2.53-1.75 1.88-3.12 1.52-5.7-4.81 3-5.64 11.72-9 16.81 5-2.86 7.05-7.77 11-11.47s8.72-5.45 13-8.61c1.71-1.26 2.65-3.41 4.34-4.7 2.36-1.81 5.59-2.5 7.8-4.58 2-1.86 3.23-4.57 5.17-6.54 11.27-11.45 22.21-23 32-36.59-3.15 25.62-12.3 53.61-26.78 68.42s-33.72 18.47-53.78 24.7c-12.9 26.81-27.2 51.62-41.64 76.21.94 1.42 4.47-3.6 7.15-3.7 4.57-8.2 12.26-11.92 19-17 7.91-15.16 23.4-19.39 35.52-28.48 4.44-1.22 8.76-3 13.51-3 2.56 0 4.56.67 6.93.25 7.23-1.26 12.32-7.18 19.77-7.4 19-1.39 32.18 10.42 46 15.77 1.68.65 3.7.32 5.31.95 4.32 1.68 6.85 5.41 10.54 7.88 1.44 1.3-2.18 1.48-.91 2.33a79.29 79.29 0 0 1 12.47 7.71c4.46 6.2 11 10.84 15.91 16.82 4.65 5.67 10.2 12 10.78 20.38-2.25-1.12-1.12-3.9-1.94-5.83-2.25-5.24-8.6-11.82-13.8-17.44-7.05-7.61-12.28-15.13-21.35-19.79-3.87-2-9.92-3.45-13.65-4.45-6.51-1.75-13.13-.33-20.14-1.64-5-.93-9.87-5.07-15.4-5.76-3.08-.39-5.65 1.06-8.73 1.41-8.37 1-17.24-.08-25 .48 4.78-2.41 10-.86 15.66-1.16 5.06-.27 10.25-2.91 15.43-2.7 5.74.23 11.08 4.2 16.94 5.54 9.93 2.27 20.4-.11 29.62 4.34-2.73-4-7.29-5.29-12.16-7.17-11.5-4.45-21.58-13.39-37.14-15.17a58.45 58.45 0 0 0-8.38-.51c-7.94.3-13.33 6.59-20.82 7.71-4.9.73-9.8-.74-15.09.77-2.81.8-5.81 3.48-9.5 5.76-7.71 4.75-22.17 10.91-26.21 18.2-.62 1.12-.08 2.61-.69 3.86-1.21 2.47-6.07 6.46-6.92 10.72 5.17-.85 6.51-6.24 10.12-9.14 2.19-1.76 5.4-3 8.28-4.49 5.21-2.76 9.4-5.74 14.38-7.88 1.07-.75.27-1.2.43-2.41 1.19-1 1.54 1.75 3.38.61.81-1.39 3-.81 2.06-3.12 4.08 2 6.46-3.07 11.31-1.94 1.35 1.68-.06 2.64.1 5-1-.31.25-2.15-.53-2.59-3.27 2.11-6.51.63-9.87 2.21-1.19 9.36-4.87 22.58-10.7 29-2.27-1.37 0-5.93-.45-8.55 2.15.9-.69 5.26 1.37 6.23 3.81-7.28 6.6-16 9-25.28-2.39-.61-2.75 1.71-4.78 1.63-3.08 9.14-6.12 18.34-9.78 26.64 3.4-.57 8.3 1 9.07-3.35 1 .4-.55 2.63 1 2.67 5-1.93 4.79-11.34 7.08-17.16.93 5.15-2.05 10.63-3.52 16.81 4.06.21 5.37.11 9.43.2.17-1.67-.8-2.54-.18-4.52 1.19.59.5 2.47 2 2.85 2.66-8.61 7.08-24.59 4.87-32.51.89-1.14 2.74-.92 4.21-1.23-.25 1.46-1.92.9-3.16.92 2.23 11.93-2.31 22.13-4.73 34.53 3.42.94 3.44-2 2.8-4.48 2.12-.06 0 2.82 2 2.85 1.94-9.52 2.58-16.79 4-25.18 1.11 8.83-1.75 18.9-3.34 26.8 3.54 1.26 6.46-.29 8.78 1.09-7.8 3.08-23.25-4.22-29.39 2.67-2.63 1.39-1.55-3.25-3.6-2.14-10.52.88-21 1.74-30.43 3-4 .53-9 1-12.15 3.79-1.62.29-2.06-.68-3.94-.21-7.2 6.86-13.89 14.46-20.85 21.65-4.81 17.16-8.69 33.39-12.82 49 1.81.18 2.12-1.81 4.61-.67.92-2.89-.87-3.9-.32-6.53 3.13 1.34 5 3.56 6.94 5.73.61-1.56-3.07-3.77-2.82-6.48 4-.5 2.07.44 3.6 2.14a54 54 0 0 1 5.67 4.51c-1-1.89-2-8.88-6.11-7.58 5.31-3.93 14.09-.9 21.53-.61 9.6.38 17 .48 28.83 3.21 15.28 3.51 30.13 10.43 45.42 16.15s29.71 11.79 42.36 19.51c26.2 16.06 52.74 30.85 69.16 50.33 8.44 4.65 13.22 13.26 18.76 20.33 5.3 6.75 13.45 13.2 14.29 23-7.46-4.07-21.76-5.89-34.49-7.71-13.22-1.89-26.33-6.83-38.17-9.37-3.94-.84-7.89-.94-11.58-2.09C350.11 390.39 341 385.4 333 381c-15.91-8.64-28.68-20.32-41.68-31.43-6.43-5.5-11.64-12.06-17.74-17.65-4.07-3.73-8.59-6.91-12.92-11.3a129.93 129.93 0 0 0-12.91-11.29c-11.33-8.76-23.21-16.38-39.42-19.06-2.56-.71-.34 1.7-1.88 2.15-4.74-1.07-4.49-5.61-8.7-7.05 2.41 3.56.59 5.28-.55 11.36-.77-.6-.8-1.7-.45-3.07-9.89 5.76-14.82 16.17-19.56 28.37 5.15-7.59 8.95-17.11 15.14-23.19-1.31 4.44-4.67 8.47-7.26 12.65-7.37 11.87-14.35 27.72-19.76 43.28-5.48 15.78-10.67 31.88-19.76 43.28-2.71 3.4-6.34 7.4-10.51 8.57-2-3.75 2.72-7.64 3.93-10.76.74 1.3-1.17 4-1.92 5.14 6.76-6.57 12-22.37 18-33.63a1.37 1.37 0 0 0-1.23 1.28c-.71-2.23 2.08-3.7 2-5.62-9.31 11.68-13 30.9-24.72 40.39-2.57-1.56.24-5 1.61-6.18.9 1.62-.76 1.55-1.17 3.77 8.78-7.75 12.77-22 19.55-33.85-6.17 8.65-12.48 17.95-18.73 26.52-2.13 2.92-3.51 6.33-6.48 8.3-1.83-2.58 1.85-3.58 2.58-6 .88-2.34-2.43 2.78-4 2.77 3.39-6.24 8.61-13.09 13.09-20.07 2.26-3.54 4.43-6.95 6.82-10.23 2.12-2.9 5.58-6 5.21-9.53-4.29 5.21-7.06 11-10.94 16.47-5.13 7.22-10.51 13.44-15.37 21.65 3.76-12.42 14.14-20.58 20.18-31.74 6.07-12.52 12.33-28.86 19.31-46.35 5-12.56 10.6-25.21 13.45-35.95.88-3.32 1.19-10.62 1.08-14.26-.42-13.19-14.09-20.31-27-24.3-7.94-8.48-17.65-8.73-29.27-11.75-13.92-3.62-24-12.46-35-18.76-6.6-3.81-12.85-6.85-18.88-11.38-15.34-11.52-34-28-43.54-43.22-2-3.26-3.28-7.41-5-10.87s-3-7.63-5.11-10.39c-1.24-1.66-3.25-2.16-4.3-3.77-.5-.76-1.45-6.51-4-11.18C3 119-.21 118.42 0 113.23zm242.63 102.52c-1.5-.14-2.36.65-3.64.84.35.82 3.47.57 3.64-.84zm-103.17 188.2c7.21-6.83 12.28-16.75 16.88-27.35-4.93 7.69-10.94 19.09-16.88 27.35zm-9.91-8.76c3.14-2 5.9-9.16 9.28-12.77-3.63.99-6.06 9.07-9.28 12.77zm31.23-32.24c-3.75 2.87-5.45 8.3-7.84 13s-4.17 10.12-7 14.18c.63 1.32 2.88-3.05 3.85-4.79a248.66 248.66 0 0 0 11.01-22.39zm-21.47 19.55c4.95-5.23 8.75-12.13 12.43-19.19a63 63 0 0 0-12.41 19.19zm11.42-21.86c4-4.19 4.88-12.83 7.42-19.09-3.68 4.59-4.38 13.51-7.4 19.09zm161.59-.78c.27.93 1.28 1.68 0 2.5-4.81-3.7-9.37-7.57-14.45-11.07.93-1.29 1.51 1.15 2.81 1-13-12.25-28.34-22.82-42.69-34.1 10.29 10.65 21.79 22.21 34.4 33.1 16 13.85 30.44 26.14 52.25 36.33 6 2.82 10.93 5.54 18.61 7.34 16 3.74 32.19 8.57 48.88 10.8 8.08 1.08 16.53 2.23 25 5-9.06-4.26-22.94-8.21-35.15-12.31-13.29-4.46-26.8-7.4-41.83-14-.61 1.41.58 1.57 0 3-10.47-.92-15.76-6-22.43-11 2.28-.86 4.74 1.76 5.93 3.06-5.94-11.21-16.43-22.93-20.24-37 2.14.2 2.83 1.41 3.52 2.63-.34.67-.59-.31-1.45-.27 4.74 12.19 11 23.3 20 32.52-.23 1.44.83 2.61 1.72 4.29 4.53 2.31 6.68 3.25 10.1 4.81-.48-1.88-.23-2.05 1.13-.79-1.37-3.7-3.49-1.71-6.23-4.11.9-1.88 2.53 0 3.38.61 1.52-1.11-.85-2.28-1.41-3.25-5.19-8.84-12.29-19.25-16.15-29.31 7.21 11 12.93 23.11 20.85 33.65 3.07.68 4.8 2.3 7.94 2.93-1.72-4-5.23-6.79-7-10.74 2.82 1.42 4.86 7 8.26 9.46-5.52-11.08-11.87-21.59-17-33 4.17 2.25 5.07 8 7.25 12.27a208.34 208.34 0 0 0 10.65 18.37c-.27 1.87 1.23 2.52.66 4.6 21.45 7.66 41.71 13.55 65.52 20.78.63-2.17-1.92-4.11-3.38-6.1-5.3-7.2-11.89-17.78-17.19-23.52-10.63-7.56-21.18-18.78-33-26.88 10.67 5.54 19.87 15.75 29.69 23.29-8.7-12-22.67-21.77-38.13-31.79-20.89-13.55-42.85-26.94-68.83-38.31-6.42-2.82-13.53-4.92-20.06-7.61a196.08 196.08 0 0 0-34-10.6c-2.69-.61-5.3-2.23-8-2.44-1.57-.13-3.86 1-5.65 1-7.62-.28-13.24-2-20.14-1.64.47 3.9 5 5 8.21 7-.38-1.71-.68-3.47-1.06-5.18 5.12-.4 6.25 5.47 11.28 6.52a8.07 8.07 0 0 0-5.31-6.44c21.85 6.15 48 17 70.44 26.65-15.87-5-34.48-14.35-53.19-20 16.54 9.65 40 18.09 57.11 28.72-10.37-4.76-23.44-11.3-34.86-16.74.78 1.57 3.36 1.89 3.83 3.68-11.48-5.56-22.1-13.91-35.34-16.83-2.16-.38.8 1.61-.61 3.37-5.5-1.1-7.13-4.89-11.2-7 1.17 8.72 13 8.07 19.5 13.48 1.12-.94-2.66-2.07-2.29-3.9 1.94-1 3.82 1.55 5.05 2.41-.24 1.86-.43.1-1.53.22 4 4.86 12.87 8.57 19.67 12.51 16.89 9.8 35.08 21.94 46.86 35.85-16.18-14.8-37.38-29.76-59.77-41.66a301.52 301.52 0 0 1 54.43 49.17c.32-1.92-3.18-4.82-3-8 5.7.76 8.67 6.4 12.12 10.16 3.7 4 6.85 8.4 10.81 11.91-3.77-11.17-14.42-21.23-20.05-32.51 8.54 10.67 16.71 21.6 22.77 34 2.92 1.34 4.72 3.47 7.6 4.86-2.34 2.24-4.34-4.28-8-2.45a101.18 101.18 0 0 0-17.59-13.3zM155.45 354c7.79-8 10-24 15-36.16-5.26 11.7-11.72 21.66-15 36.16zm4.2-1.23c1.17-2.24 2.33-1.44 3.91-2.29 3.12-9.84 8-22.49 10.91-32.91-7.47 9.06-9.47 22.77-14.82 35.21zm277.21 49c-1.65-4.2-6.66-9.72-10.46-13.84 2.47 5.28 6.97 9.19 10.46 13.8zm-130-55.81c1.41 7.19 7.56 11.08 13.19 15.34.79.32 1-.22 1.14-.8-5.43-4.41-8.01-10.78-14.3-14.58zm-12.81-6.29c-8.62-9.42-22.77-23.14-37.25-31.13-3.2-3.29-9.53-6.86-15.19-9.71 17.3 13.72 35.59 26.76 52.47 40.8zm-18.54-13.31c-.14 1.52 4 3.7 6.07 5.08 1.52.56-4.65-3.6-6.04-5.12zm-100.3-18.57c3.33-4.33 4.7-11.48 6.69-17.73-2.41 5.2-5.59 12.49-6.66 17.69zm94.07 14.46c-9.53-8.16-19.79-15.81-30.17-23.38-1.79-.37.31-1.89-.62-2.1-5.72-3.21-11.42-6.42-18.35-8.79-.7 1.75.18 2.41-.21 3.95 20.96 6.95 32.52 20.46 49.38 30.28zm-89.39-18.15c2.56-5.47 7.31-12.44 5.8-18.39-2.78 5.14-3.94 10.98-5.8 18.39zm-3.65-4.64c2.61-5.95 7.55-14.68 7.47-22.08-1.99 4.37-5.25 14.33-7.47 22.08zm9.52-.28c2.67-1.32 5-3.91 5.25-7-2.44 1.32-4.1 3.82-5.25 7zm1-13.77c1.89-.12 1.33-3.77 2-5.62-1.83 1.35-.49 3.66-2.02 5.62zm20.76 3.73c-.38-1.05-3.13-4.31-3.52-2.62 2 .27 1.05 2.64 3.5 2.62zm8.77 1.09c-1-3.07-4.58-4.42-6.76-6.7 1.57 2.69 1.15 6.79 6.74 6.7zm.83-1.85c.52-2.47-2.77-5.94-4.48-8.28-1.34.72-3.94-.39-5.88-.56a73.74 73.74 0 0 1 10.34 8.84zm3.25-1.4c0-1.53-2.43-1.42-2.46-2.94-1.05.6.55 2.96 2.44 2.96zm-34.23-9.16l1.45.26c1-5.78.44-10.44-1.43-14.21-1 3.64-.57 9.95-.04 13.95zm-3.52-8.11c.58-2.24.05-7.35-2.39-8.9.57 3.11.4 6.75 2.37 8.9zm6.75 1.22c1.32-1.93 3.82-11.16-.32-12 .11 3.97.39 7.85.3 12zm4.73-4.13a10.15 10.15 0 0 0 1.84-4.66c-2.01-.42-1.13 3.27-1.86 4.66zm-69.8-38.49c.4-1-2.15-3.56-3.65-4.65-.15 1.66 1.89 1.79 1.89 3.33-2-2.94-6.44-.27-8.25-4-1.38 2 4.89 4.47 2.73 7 5.62 3.42 14.46 2.54 20.89 5.76-.13-1.59-2.24-1.82-2.37-3.42 1.32-1.49 2.62 3.53 3.29 1.09-1.29-5-7.39-8-6.6-13.14a262.52 262.52 0 0 1-25.54-32.51c10.5 12.27 20.1 25.17 30.63 37.41-2.23 4.42 5 6.74 2.43 11.4 3.48 1.81 7 3.61 10.5 5.38 0-2.7-1.67-4.19-2.34-6.4 2.78.26 3.11 5.67 4.49 8.28 6.37 2.49 16.35 6.08 20.32 11.64.58-.38 1.15-.78 1.71-1.19 2.65 1.69 3 5 4.1 7.72 1.89-2 .16-5.17.33-7.42 3.82 1.44 3.17 6 4.89 8.86.93-3.93 2.11-9.27-.81-12.11.62-1.58 1.22 2.41 1.84.83.09-4.57-3-6.91-2.91-11.49-8.71-16.75-22.43-30-33.19-45.34-3.4-1.15-6.35-5.15-10.71-6.92-6.82-8.81-19.39-11.22-30.82-17-.4 1.12 2.25.13 1.18 1.71-4.73-1.36-9.13-6.6-16.59-7.48.41-.43 1.2-.3 1.23-1.27-4.14-2.33-8.31-4.64-12.16-7.18-1.47-.69-1.63.5-2.59.53-12.44-7.15-27.1-12.73-40.4-19.25-1.47-.5-1.58 1-2.28 1.58-7.61-5.41-15.74-10.46-21.87-16.9 4.48 9.84 19.08 16.31 26.84 25.27-4.68-1.38-8.45-5.53-12.39-8.71s-7.78-7-11.64-10.07c13.07 16 31 28.58 44.9 44-15-7.86-29.3-19.89-38.91-32.92 9.87 17.2 27.16 32.92 42.18 48a3.15 3.15 0 0 1 0 2.5Q82 204.24 97.64 218.52c-.11-6.47-12-13.75-12.62-21.21 4 6.27 10.4 14.06 15.69 20.77 1.73.66 2.22-.45 4 .21-2.3-3.21-7.24-7.8-10.33-11.83 4.76 2.19 7.82 9.21 13.22 12.35-9-12.21-19.07-23.62-27.34-36.32 2.53-1.59 2.92 3.68 4.48 2.8 3 6.72 10.28 15.8 15.43 22.22 5.39 6.7 10.91 15.11 19.07 15.89.28-4.24-4.09-6.52-6.34-9.11-2.39-2.77-4.17-5.91-6.41-8.63-4.58-5.58-10.08-10.46-13.41-16.87-2.42-.43-3-2.13-3.82-3.68 13.36 12.39 23 27.37 35.59 40.3-3.56-14.87-18.87-26.54-27.61-40.35 11.9 12.7 24.48 28.59 35.56 43.28-2.66.7-3.85-3.23-6.24-4.12 3.41.32-1.42-4.12-3-5.52 1 4.37 4.74 6.84 4.27 12.23-1.89.56-4.14-1.76-4.87-3.37.65.08 1.34.17 1.32.75zm66.28 30.38c3.24-4.6-1.28-10.86-3.35-14.56.25 3.75.57 11.12 3.33 14.56zm4.92.38c2 .43 1.1-3.26 1.83-4.65a10 10 0 0 0-1.85 4.65zm-9.32-9.15c1-4.63-3.15-9.35-4.49-13.76-.37 4.18 4.31 8.55 4.47 13.76zm14 0c.76-.35 1.95-5.29 2.44-8-3.34.47-1.31 5.13-2.51 8.02zm-11-5.46c1.76-2.51-.09-6.13-.46-8.56-2.62-.14-3.25-1.68-4.47-2.8-.17 3.35 3.54 7.67 4.89 11.38zM115 230.12c1.22.24.65-.25.65-.88-3.18-3.14-6.64-6.08-9.23-9.63l-5.3-1c.12 1.76 3.88 3.2 2.11 4.86 3.01 2.87 8.19 4.2 11.77 6.65zm84.19 11.18c1.48.32 1.7-1.19 2-2.63l-1.93-.35c-.26 1.14.53 1.57-.08 2.98zm-86.79-16.13c2.1-.64-2.54-3.47-3.08-5-1.32 1.6 3.13 2.83 3.07 5zm-13.74-4c-1.81-2.55-5.18-4-6.76-6.7-14.82-6-24.81-15.42-36-23.94 9.32 11.95 27.83 21.19 42.75 30.67zm102.74 10.57c-.55-.18-.25-1-.22-1.54-1.72 1.42-3.5 5.58-2.36 7.55 3.39-7 10.67-10.52 12.25-18.22a1.34 1.34 0 0 1 1.28 1.22c10.12-17.09 20.43-35.24 30.65-53.75-10.6 11.9-17.12 29.67-26.3 43.6-6.53 5-9.51 15.09-15.3 21.14zm-.08 6c1.72.24 4.55-3.17 5.17-6.54-1.29 2.8-4.49 2.88-5.17 6.5zm-13.74-4c-1.44-4.76-2.61-9.72-6.11-13.06a1.35 1.35 0 0 0 .34-1.93c-1.61 2-2.15-1.5-3-2.54-.89 1.05-3.27 1.74-3.94-.21 2.04 5.73 5.44 14.2 12.71 17.73zM86.05 211c-7.29-8.45-20.18-16.66-29.34-25.22 1.4-1.22 2.8 1.13 3.69 1.67-14.15-15.76-30.38-31.15-42.32-50-4.79-7.55-9.42-14.56-14-22-.86 1.82 2.07 5.13 3.52 8.11 4 8.1 6.26 13.05 11.75 20.55 7.39 10.1 14 23.64 22.47 32.95C54 190.54 71 200.13 86.05 211zm86.47 9.6c0-2.14-3.79-7.49-5.45-8.45 1.48 3 3.67 5.56 5.45 8.4zm8.11-3.52c-1.41-1.83-1.53-4.56-4-5.69 1.37 1.86 1.8 4.36 4 5.61zM175 215c.55-2.22-4.18-4.4-5.23-6.92-.31 2.08 3.37 5 5.23 6.92zm39.27 6.08c.59 1 2.82-.76 3.33-1.89-1.73-.25-2 1.59-3.32 1.91zm-47.52-10c-3.7-6.44-7.93-12.52-13.8-17.44 3.16 4.36 7.96 12.36 13.81 17.41zm9-.37c1-1.34-2-4.52-3.78-6.66A78.29 78.29 0 0 0 157.6 190c5.09 7.54 13.13 13.08 18.19 20.68zm-2.32-.92c-5.08-6-10.19-12.07-16.87-17a179 179 0 0 0 16.91 16.97zm49.66 6.46c.94-.47 2.08-.66 2.37-2.07-2.35-.79-3.67.64-2.33 2.04zm11.91-4.87c1.18 1.26 2.43-2.56 4.38-2.2-1.29-1.37-3.15 1.57-4.38 2.2zm-7.07-2.27c1.7.41 4.67-2.58 5.87-4.93a65.18 65.18 0 0 0-5.9 4.93zm19.79 3.56c1.69 1.6 4.52-.35 6.53-.32-1.89-1.63-.3-5.7.12-8.94-2.13 3.26-3.56 7.48-6.68 9.26zm-5.93-3.06c0 .68 1.14.62 1.84.83.23-1.5 1-2.2 1.58-3.2-.8-1.07-2.14 2.19-3.45 2.37zm3.38.61a29 29 0 0 1 3.47.13c3.8-6 6.94-9.27 8.83-15.85-4 1.18-6.74 4.07-9.68 6.72.18 1.69 1.05-.36 1.53-.22s.4.57.88.66c-1.56 3.07-4.01 4.81-5.06 8.56zm11.58 2.09a30.74 30.74 0 0 0 3.64-.84c-.66-.95.13-2.9.3-4.43a15.75 15.75 0 0 0-3.97 5.27zM35 170.85c-3.82-7.34-9.81-16.83-15-24.62 2.06 8.54 8.87 17.47 15 24.62zm196 9.92c-5.5 5.45-7.78 15.54-12.46 22.17 1.38.77 2.71-3.29 4-5.76 3.01-5.58 5.67-10.46 8.46-16.41zm24 29.74c5.12-3 6.86-10.8 9.19-17.78.83 5.85-4.36 12-2.26 18 5.31-5.53 7-16.22 10.4-24.53a9 9 0 0 0-7.09 6.19c-2-.13.38-1-.05-2.5-7.08 2.45-11.04 13.31-10.14 20.62zm-110.49-30.88c-1.16-.07.32 1.39.14 2-1.76-.05-.88-1.93-2.64-2 .1-.47.66-.27 1.05-.31-.23-.46-2.13-2.13-1.93-.35-.87-.66-.37-2.27-2.06-2.36-.07.47.52.48.88.65-.25 1.06-2.09-.16-3 0 4.32 4.34 10.61 9.5 15.81 11.82 0-1.16-1.29-1.35-1.58-2.28 1-.94 1.91 1.75 3.12 2.06-2.23-3.78-6.7-6.02-9.79-9.23zm-4.77 7.11c2.33-.66-2.56-3.16-2.59-5-4.23-1.7-7.3-4.22-10.8-6.43-1.27 1.74 6.05 3.38 4.52 5.3 2.75 2.22 6.61 3.63 8.87 6.13zM52.6 167.05c-8.5-10.27-20.17-18.36-29.3-28.2 5.83 10.45 17.7 20.4 29.3 28.2zm81.52 12.2c0-1.22-4.57-4.89-6.63-4.68 1.06 2.36 4.87 2.8 6.63 4.68zm87.7 13.81c-.57 1.22 1.81-2.79 2.23-4.08-1.5.27-1.97 2.02-2.23 4.08zm-83.23-16.49c-4.1-3.63-10.35-5.76-15.94-8.35 5.46 2.83 9.18 8.92 15.94 8.35zm-12.29-3.71c-.23-1.25-1.71-1.63-3.12-2.06.01 1.4 2.17 1.31 3.12 2.06zm-3.6-2.14c-3.68-4.86-9.47-5.74-15.37-8.75 4.55 3.31 10.14 5.9 15.37 8.75zm101 17.69c1.51-1.07 3.44-4.75 2.75-7-2.33 1-1.66 5.86-2.79 7zm3-8.43c1.43.44 1.29-1.39 1.88-2.15-1.67.32-.09-1.63-1.75-1.31-.26 1.28-.71 2.72-.16 3.48zm-5.34-22.89c.58 0 .56-.8.74-1.36 2.84.85 1 5 4 5.7.67-2-1.22-2.25-.76-4.12 2.11.65 2 2.8 2.69 4.47.66-.06.91-.72 1.62-.71-2.31 5.84 2 11.56 1.13 18.64 1.71-1.63 0-4.46.73-6.84 1.95 0-.73 3.32 1.41 3.24 3.38-17.55-10.35-23.21-24.22-28.78 2.41 2.79 8.05 7.03 12.63 9.76zm5.21 17.91c2.09-2.72-.43-5.88-.45-8.55-.66 1.72.59 5.76.45 8.55zm8.07-.54c1.93-3.44.7-8.66.34-12.89-2.07 2.43.34 8.63-.34 12.87zm3.81-7.28l1 .17c4.6-2.53 4-8.43 7.83-13-3.75 3.1-6.18 8.11-8.83 12.81zm6.61-6.29c2.24-2.66 4.59-5.15 5.69-9.44a62.35 62.35 0 0 0-5.69 9.42zm7.25-18.12c2.05-3.69 1.13-8.94 1.3-12.73-1.2 3.08-.9 8.77-1.3 12.71zm2.54-3c5.53-12.69-1.57-33.18-3.58-46.49-3.53-23.47-2-46.36 5.5-74.76-13.77 30.19-8.77 67.34-4.32 95.85 1.35 8.69 4.13 16.09 2.4 25.35zm6.18-3.87c.4.16.49-.11.57-.4 29.93-4.51 54.11-17.65 66.2-49.36 4.15-10.88 8.72-22.51 9.73-34.63-9.85 10.49-17.45 24.27-29.21 32.06-12.87 17.58-36.37 22.27-44.45 44.82 1.47 1.21 4.65-2.74 7.06-3.22 3.24-.64 6.09.37 8.46 0a23.13 23.13 0 0 0 7.46-2.64c8.12-4 15.19-7.83 21.73-15.52 4.86-5.71 9.17-13.05 13.08-20.07A191.66 191.66 0 0 0 332.59 65a123.1 123.1 0 0 1-23.22 43.15c-6.11 7.28-13.1 13.09-22 17-6.39 2.78-14.09.9-20.7 4.24-.03 4.61-4.4 1.97-5.67 6.46zm-3.63-79.44c-2.76-5.31 2.19-13 3.26-20.84.66-1.68-.52-1.9-.49-.09-1.17 3.17-1.45 7.63-3.67 9.31-2.84-1.4.51-7.11.38-10.4-.75.51-1.91.31-1.84-.83-9.84 36.67 1.11 65.83 2.91 97.2 3.78-7.46 5.85-16 8.25-26.42 2.37-.37-1.91 3.45.84 3.64 5.87-29.77 8.07-56.74.63-78.12-2.87 7.62 2.44 15.89.25 23.46-1 3.6-3.94 7.19-5.46 11S261 73 257.08 74.84c2.9-9.18 12.12-21.24 9.86-32.61-3.66 8.53-4.86 17.78-9.75 23.66-1.64-2.08 1.62-4.21 2.67-6.5s2-6.09 3.19-9.39c2.09-5.91 4.56-9.66 2.61-14.48-2.58 3.02-4.88 15.21-8.26 20.94zm15.12 46.08c2.1-1.14.48-3.85 2-5.62-2.09-.18-1.18 3.96-2 5.62zm1.7-1.19l1 .17c6.81-7 7.27-29.91 13.84-40.86-8.88 10.2-12.06 25.74-14.84 40.69zm-4.73-1.35c2.31 0 2.42-4.72 2.18-6.59-1.32 1.35-1.03 5.01-2.18 6.59zm-11.88-47.49c3.24-9 8.8-19.4 6.32-26.77-1.99 7.69-4.12 17.69-6.32 26.77zm0-13.95c2.12-2.42 2.27-12.94 6.17-14.83-1-3.12-1.22-6.76-2.21-9.87-1.68-.36-1.41 4-2.19 6.58 1.13.4.13-2.24 1.71-1.18.42 6.24-2.88 12.44-3.46 19.3zm2.55-27.94c1.18-.48 2.68-2.53 1.75-4.17a7.13 7.13 0 0 0-1.73 4.17z"/><path d="M374.45 377.53c-.18.55-.95.25-1.54.22-.21 1.67 2 3 3 2.54-4.85-8.31-8.61-17.38-15.56-24.23a141.23 141.23 0 0 0 14.1 21.47zM380.72 348.26c0-2.83-5.79-5.26-8.61-7.53 1.89 3.17 6.66 4.39 8.61 7.53zM306 309.39c5.64 3.3 11.06 6.45 16.51 7.95 2.73.76-1.42-1.13-1.76-1.31-4.31-2.29-9.98-4.32-14.75-6.64zM243.28 284.13c16.25 7.17 37.53 14.45 54.21 22.73-.48-2.26-4.15-3.14-6.72-4.2-7.79-3.23-17.68-7.08-25.5-10.58 11.8 2.93 25.26 10.6 36.34 14-11.42-4.29-23.27-12.29-36.08-15.47-2.1-.52-4.33-.12-6.36-.64-5.6-1.44-10.23-6.05-15.89-5.84zM161.7 233.55c.29 4.62 5.11 9.67 6.83 14.69-1.83 0-1.67-1.38-3.21-1.58.79 1.44 2.45 4 4.39 3.29-4.48-13.5-12.76-24.35-19.92-36 2.02 6.21 7.02 13.99 11.91 19.6zM170.72 247.14a3.28 3.28 0 0 0 2.46 2.93c-2-15.22-9.09-26.9-17.08-38 4.92 10 13 21.4 15.76 34.24-.03 2.21-.86-.53-1.14.83zM157.07 242.69c1.32.83 2.07 3.63 4 2.71-4.58-10.75-11.1-20.15-18.16-29.19q7.48 12.56 15.48 24.72c-.19.96-1.39.37-1.32 1.76zM181 245.5c1.16.5-1.06-3.32-1.15-4.69-2.26 1.72 1.27 3.02 1.15 4.69zM148 235.07c-2.28-5.35-4.58-11.07-8.19-15.43-6.91-8.37-12.39-17.08-18.59-26.77 5.5 12.22 13.14 23 21.41 33.26l-.43 2.41c3.92-.47 3.04 4.88 5.8 6.53zM110.66 215.39c-1-4.27-7.3-8.44-10.15-12.79 1.01 4.22 7.49 8.29 10.15 12.79zM92.18 204.58c1.43-.89-1.64-2.22-1.89-3.33-1.99 1.27 2.34 1.75 1.89 3.33zM99.06 202.33c.13-2.48-4.41-5.37-6-8.06-.28 2.58 4.32 5.43 6 8.06zM365.14 202.44c0 4-3.59 7.74-5.07 11.55 1.8.16 4.2 1.18 5.39.47-.55-.74-.1-2.18.13-3.46 2.06.67-.83 4.79 2.11 4.86 2-1.46 3.23-4.31 4.29-7.2 1.31-3.59 1.73-9.27 4.33-10.18-1.82 5.36-3.71 11.92-6.69 17.73l5.8 1c-.23-.34-.72-2.49.43-2.41-.17 1.24-.36 2.5 1 2.67 3.36-3.48 5.12-9.24 8.32-12.95-1.78 5.54-4.74 9.39-7.44 13.61a33.5 33.5 0 0 1 7.16 1.87c3.92-4.09 5.92-10.93 8.14-17.47-.28 7.57-3.74 12-6.69 17.73a40.35 40.35 0 0 0 7.24 1.3c3.24-4 4.83-10.48 8.49-13.92-1 4.68-5.58 9.36-7.61 14.58 4.57.91 9.69 1.43 13.43 2.92 1.65-2.29 1.24-7.53 4-8.26.49 1.17-2.21 6.07.24 7 .37-.88.54-2 1.79-1.67-.72 1.6-1.31 3.38-3.11 3.43-.56-.74.22-2.4-1-2.68l-.52 2.9c4.66 3.3 14.7 1.95 15.93 8.35-7.25.23-10.74-5.75-17.07-7.56-.76 1.57-5.1 3.41-5.09.58 1.39-2 2.8 2.1 3.73-1.32-13.4-1.78-27.28-8-40.37-8.27-.72-1.9-3.64-2.26-6.5-2.67a2.45 2.45 0 0 1-2.36 2.07c-.34-4.8-8-1.93-11.24-4-.86.78-1.16 2.38-2.45 2.55 0-1.2 1.07-.89.92-2.33-8-.77-16.94-2.9-22.81-.62-1.68-.45 1.94-1 .26-1.45-3.23.43-5-.1-8.16 1a30.75 30.75 0 0 0 7-16.68c2 4.74-2.3 10.81-3.66 14.79 2.31-.19 4.12.19 6.93.25 2.13-4 1.69-11.75 3.84-15.75.88 4.65-3.22 12.86-1.91 16.1.42-.61 1.88.26 2.11-.62-1.22-.13-1.38-1-1.67-1.79 5.33-1.86 4.34-11.59 5.94-16.37 1.74 5.67-2.88 15.05-3.88 18.73 2.72.49 3.49-1.59 5.57-.49 2-5.06 2.88-11.51 4.41-16.15.21 6.25-2.46 11.57-3 16.9 3.57.48 6.59.17 10.3.86 2.93-3.7 4-10 7.75-12.56.46 1.79-3 9.83-1.38 13.21 3.16-.71 3.4-5.64 5.82-7.43-.46 3.59-2.64 4.71-3.41 7.86l2.41.43c.94-1.4-.67-3.12.61-3.37.76 1-.63 3.53 1.32 3.72 2.33-3.22 3.61-8.07 5.95-11.39zm-17.71 9.77l3.38.61c-.27-3.42 1.17-5.63 1.08-8.78-1.89 2.18-3.13 5.21-4.46 8.17zM287.22 192.39c2.15-1.69 2.36-4.78 2.62-9-1.79 2.83-1.26 6.61-2.62 9zM413.49 210.66a17.58 17.58 0 0 0-8.26-9.46c3.29 2.8 5.2 6.51 8.26 9.46z"/><path d="M365.09 199.94c1 1.57 1.65-2.45 2.54-3-1.21-1.94-1.39 2.81-2.54 3zM218.32 140.61c4.61-1.14 6.06 7.32 8.35 9 .12-6-6.93-10.66-9.55-16.17-5.82-2.21-9.63-8.32-15.81-11.82-9.15-5.2-19.66-8.4-28.27-14.56-8.35-6-14.33-13.33-21.21-17.78 14 21.21 48.39 28.31 65.17 47.62 1.18.71 0 3.1 1.32 3.71zM227 139.67c-.44-.4-.3-1.2-1.28-1.22.36 2.53-.1.26-1.22 1.27-.05 2.46 2.77 1.76 3.11 2.06 1.05-4.49-2.49-10.81-4.71-15.3-.52-1.06.64-2.63-1.59-2.28 2.04 5.03 4.41 9.86 5.69 15.47zM218.21 130.12c-.7 1.13-1-1.53-1.67-1.79-1 1.38 1.67 5.74 3.56 5.12-1-6.47-6-10.19-8.09-15.91-1.29 3.25 5.08 8.22 6.2 12.58z"/><path d="M223.57 133.58c-2-6.16-5.82-13-8.32-17.44-.9 3.86 4.46 7 4.36 11.75 2.22 1.27 1.6 4.51 3.96 5.69zM179.7 103.25c1.71-2.32-4.17-6.27-5.28-9.42-.42 2.95 4.63 5.79 5.28 9.42zM170.35 97.08c1-1-1.44-3.21-2.77-4 .25 1.81 2.42 2.28 2.77 4zM173 93.57c1.18-.58-.84-2.49-1.41-3.24-1.59.83 1.41 2.06 1.41 3.24zM168.45 88.27c1.62-1-1-3-1.63-4.78-1.53 1.36 1.69 3.03 1.63 4.78zM288.23 109.35c1.2-.69 1.53-2.66 1.84-4.65-2.41.3-.35 3.3-1.84 4.65zM148.62 82.2c-7.1-7.17-11.94-15.91-19.3-22.91-1-.08.13 3.09.36 3.56 2.08 4.26 7 13.06 10.68 15.38-2-4.57-5.62-5.58-5.89-11.53 4.36 5.41 8.53 10.94 14.15 15.5z"/></g></svg>