<svg data-name="Layer 1" xmlns="http://www.w3.org/2000/svg" viewBox="0 0 470.79 419.34"><path d="M174 123.63c-24.9 9.25-45 24.07-53.83 50.28-.78 2.32-1.4 4.66-2 7-6.22 27 3 55.72 23.66 76.6a6.87 6.87 0 006.82 1.65 54.76 54.76 0 0012.1-5.23c13.89-8.12 21.66-21.41 27.18-36.06 1.23-3.24 2.32-6.51 3.3-9.79a13.8 13.8 0 00-1-10.12 32.3 32.3 0 01-3.3-17.05 36.89 36.89 0 011.17-6.9c4-14.94 17.1-25.21 33.31-26.41 21.67-1.6 41.58 4 60.38 14.38 16.47 9.1 30.16 21.6 43 35.12 1.6 1.68 2.91 4.15 6 2.68 2.92-1.39 1.67-3.82 1.35-5.82-3.82-23.93-7.84-47.82-11.51-71.77-.66-4.33-1.94-5.46-6.18-4.28-9.65 2.65-19.57 3-29.48 2.14-12.08-1-24.12-2.39-36.21-3.34-25.24-1.97-50.45-2.11-74.76 6.92zM450.09 290.29a24.55 24.55 0 00-14-9.19 47.2 47.2 0 00-29.07 1c-6 2.19-10.68 6-13.36 11.94a24.92 24.92 0 00-1.9 12.54c.66 8.18 4.55 14.27 11.7 18.22 6 3.33 12.61 4.26 19.41 4.58 3.32-.39 6.66-.64 9.94-1.21a29 29 0 0012.74-5.34 21.6 21.6 0 008.73-17c.25-5.59-.81-10.9-4.19-15.54zm-17.2 25.17c-2 3.83-5.08 6.21-9.52 6.37a10.46 10.46 0 01-9.56-5.1 19.61 19.61 0 01-2.95-9.36c-.42-4.95-.14-9.83 2.19-14.35 2-3.84 5-6.24 9.47-6.4 4.85-.18 8.19 2.23 10.38 6.38a21.82 21.82 0 012.23 8.34c.09 1 .11 2 .16 2.92-.09 3.95-.56 7.74-2.4 11.2zM404.74 269.14a10 10 0 01.31-1.86c.71-4.2 1.45-8.39 2.11-12.6.07-.47-.28-1-.43-1.51a5.17 5.17 0 00-1.47.47c-1.68 1.22-3.27 2.59-5 3.77-6.49 4.43-13.41 7.53-21.53 6.9-6-.46-10.61-3.17-13.26-8.55-3.82-7.73-3.82-15.84-1.12-23.88 2.6-7.73 8.57-11.69 16.72-11.6a25.15 25.15 0 0113 3.7c3.86 2.37 7.44 5.2 11.17 7.8.41.28 1.11.58 1.43.41s.37-.92.51-1.41a1.3 1.3 0 00-.05-.43c-.47-3.21-.93-6.42-1.41-9.63s-1-6.39-1.43-9.44c-3.21.13-6.17.46-9.1.31-5.46-.27-10.9-1-16.36-1.23a52.75 52.75 0 00-20.17 2.75c-8.44 2.93-14.95 8.07-18.49 16.5a34.4 34.4 0 00-2.17 16.83c.79 8.4 4.16 15.46 11 20.61 6.36 4.78 13.72 6.88 21.48 7.62a104.66 104.66 0 0030.92-2.1c2.08-.42 3.42-1.12 3.34-3.43zM468.17 336.8c-3.87-4-11.79-4.33-16.12-.68a9 9 0 000 14.16c2.2 1.81 4.83 2.32 8.52 2.54a29.14 29.14 0 004.8-1.34 9.08 9.08 0 002.8-14.68z" fill="#cfa454"/><path d="M189.46 298.69c42.48-10.55 72.16-36.36 88.07-77.49a170.07 170.07 0 009.33-35.61 6.57 6.57 0 00-3.25-6.68l-1.75-1c-18.8-10.39-38.71-16-60.38-14.37a40.86 40.86 0 00-5.26.73 9.06 9.06 0 00-7.12 8.36c-1.08 18.92-3.94 37.56-10.74 55.6-5.53 14.65-13.29 27.94-27.19 36.05-25.56 14.93-55.35 6.6-71.3-19.38C89.16 227.45 84.6 208 82.47 188c-3.27-30.66-3.41-61.33 3.21-91.67 3.2-14.69 7.92-28.85 17-41.1 23.64-31.83 66.81-29.74 87.55 4.15 8.34 13.64 12.7 28.48 15.44 43.81 14.25-1.44 28.69-.92 43.16.21 11.86.93 23.68 2.29 35.52 3.28-.34-1.6-.64-3.21-1-4.79-11.71-46.22-38.58-79.09-84.76-93.82C166.93-2 134.53-2.3 102.25 5.2c-41 9.54-71.44 33.11-87.33 72.35-20.66 51-19.71 102.72 1.9 153.21 14 32.68 39.49 54 73.43 65 32.75 10.5 66.04 11.16 99.21 2.93z" fill="#cfa454"/><path d="M313.51 267.76a152.76 152.76 0 00-29.39-20c-12.73 25-31.54 43.2-56.1 54.64 11.33 4.77 22 10.78 31.06 19.7 10.12 10 13.88 22.16 10.69 36-3.54 15.42-17 25.63-36.12 27.16-25.65 2.04-49.83-3.26-72.05-16.51-18-10.73-32.35-25.34-43.7-42.94-1-1.49-1.44-4.09-4.4-3-2.13.81-2.42 2.14-2.11 4.26q6.15 42.57 12.09 85.17c.47 3.42 1.69 4.08 5 3.64 15.28-2 30.61-1.79 46-.61 17.52 1.33 34.94 4 57.77 4 17.72-.36 40.43-2.21 61.94-11 26.43-10.83 45.68-28.4 50.57-57.84 5.55-33.34-6.24-60.68-31.25-82.67z" fill="#cfa454"/></svg>