<svg data-name="Layer 1" xmlns="http://www.w3.org/2000/svg" viewBox="0 0 430 106.57"><path d="M430 0H0v72h62.91v34.6h302.43V72H430z" fill="#332e20"/><g fill="#d4cc9a"><path d="M85.62 93h-2.44V81.13h3.67c3 0 4.54 1.31 4.54 3.75a3.42 3.42 0 0 1-2.82 3.59L91.85 93h-3l-3.27-4.73zm1.11-6.16c1.39 0 2.18-.68 2.18-1.87a1.78 1.78 0 0 0-2-1.86h-1.29v3.73zM104.28 82.9a6.2 6.2 0 1 1-10.78 4.25 6.15 6.15 0 0 1 6.25-6.25 6.08 6.08 0 0 1 4.53 2zM96 87.11a3.67 3.67 0 1 0 3.68-3.94A3.72 3.72 0 0 0 96 87.11zM110.17 91l-.72 2h-2.58L111 81.13h3L118.09 93h-2.68l-.67-2zm2.28-6.93L110.79 89h3.3zM121.7 89.56v.16a1.48 1.48 0 0 0 1.62 1.39 1.42 1.42 0 0 0 1.57-1.26 1.16 1.16 0 0 0-.48-.95 4.88 4.88 0 0 0-1.44-.66c-2.61-.93-3.54-1.91-3.54-3.73 0-2.16 1.59-3.61 3.93-3.61a3.72 3.72 0 0 1 4 3.64h-2.46a1.41 1.41 0 0 0-1.55-1.48 1.29 1.29 0 0 0-1.46 1.25 1.24 1.24 0 0 0 .73 1.13A8.67 8.67 0 0 0 124 86a6.7 6.7 0 0 1 2.48 1.32 3.1 3.1 0 0 1 1 2.3c0 2.18-1.65 3.62-4.11 3.62s-4-1.43-4-3.71zM134.25 93h-2.45v-9.87H129v-2h8.11v2h-2.82zM141.29 86.06h4.17v2h-4.17v3h4.17v2h-6.62V81.13h6.62v2h-4.17zM150.93 93h-2.44V81.13h3.67c3 0 4.54 1.31 4.54 3.75a3.43 3.43 0 0 1-2.82 3.59l3.28 4.53h-3l-3.27-4.73zm1.07-6.12c1.39 0 2.18-.68 2.18-1.87a1.78 1.78 0 0 0-2-1.86h-1.32v3.73zM161.3 89.56v.16a1.48 1.48 0 0 0 1.62 1.39 1.42 1.42 0 0 0 1.57-1.26 1.19 1.19 0 0 0-.48-.95 4.85 4.85 0 0 0-1.45-.66c-2.6-.93-3.53-1.91-3.53-3.73 0-2.16 1.59-3.61 3.93-3.61a3.72 3.72 0 0 1 4 3.64h-2.46a1.41 1.41 0 0 0-1.5-1.48 1.3 1.3 0 0 0-1.47 1.25 1.26 1.26 0 0 0 .73 1.13 9.43 9.43 0 0 0 1.4.59 6.7 6.7 0 0 1 2.48 1.32 3.09 3.09 0 0 1 .94 2.3c0 2.18-1.64 3.62-4.1 3.62s-4-1.43-4-3.71zM177.37 88.37a1.32 1.32 0 1 1-1.3-1.34 1.27 1.27 0 0 1 1.3 1.34zM189.5 81.13a5.09 5.09 0 0 1 3 .68 3.1 3.1 0 0 1 1.14 2.52 2.84 2.84 0 0 1-.75 2 2.67 2.67 0 0 1-1.25.72 2.69 2.69 0 0 1 1.41.64 2.79 2.79 0 0 1 .86 2.14 3.1 3.1 0 0 1-1.24 2.61 4.51 4.51 0 0 1-2.66.57h-4.39V81.13zm-1.39 5.06h1c1.45 0 2.13-.52 2.13-1.63a1.48 1.48 0 0 0-.72-1.34A3.74 3.74 0 0 0 189 83h-.86zm0 5h1.19a2.53 2.53 0 0 0 1.59-.32 1.42 1.42 0 0 0 .59-1.27 1.46 1.46 0 0 0-.68-1.36 3 3 0 0 0-1.64-.28h-1zM198.57 91l-.71 2h-2.59l4.11-11.91h3.05L206.5 93h-2.68l-.68-2zm2.29-6.93L199.2 89h3.3zM210.92 93h-2.44V81.13h2.44v5.18l3.38-5.18h2.83l-3.85 5.74 3.85 6.13h-2.87l-3.34-5.3zM221.39 86.06h4.18v2h-4.18v3h4.18v2H219V81.13h6.62v2h-4.18zM231 93h-2.45V81.13h3.68c2.94 0 4.53 1.31 4.53 3.75a3.42 3.42 0 0 1-2.76 3.59l3.27 4.53h-3L231 88.31zm1.1-6.16c1.39 0 2.18-.68 2.18-1.87a1.78 1.78 0 0 0-2-1.86H231v3.73zM241.4 89.56v.16a1.49 1.49 0 0 0 1.6 1.39 1.42 1.42 0 0 0 1.57-1.26 1.19 1.19 0 0 0-.48-.95 5 5 0 0 0-1.45-.66c-2.61-.93-3.53-1.91-3.53-3.73 0-2.16 1.58-3.61 3.92-3.61a3.73 3.73 0 0 1 4 3.64h-2.47a1.4 1.4 0 0 0-1.55-1.48 1.29 1.29 0 0 0-1.46 1.25 1.26 1.26 0 0 0 .73 1.13 9.13 9.13 0 0 0 1.39.59 6.53 6.53 0 0 1 2.48 1.32 3.06 3.06 0 0 1 1 2.3c0 2.18-1.64 3.62-4.11 3.62s-4-1.43-4-3.71zM257.48 88.37a1.32 1.32 0 1 1-1.3-1.34 1.27 1.27 0 0 1 1.3 1.34zM267.86 91l-.72 2h-2.59l4.11-11.91h3L275.78 93h-2.68l-.67-2zm2.28-6.93L268.48 89h3.3zM280.21 93h-2.45V81.13h3.68c2.94 0 4.53 1.31 4.53 3.75a3.42 3.42 0 0 1-2.82 3.59l3.29 4.53h-3l-3.26-4.73zm1.1-6.16c1.39 0 2.18-.68 2.18-1.87a1.78 1.78 0 0 0-2-1.86h-1.32v3.73zM293 93h-2.44v-9.87h-2.86v-2h8.1v2H293zM300.24 93h-2.44V81.13h2.44zM305.3 89.56v.16a1.48 1.48 0 0 0 1.62 1.39 1.41 1.41 0 0 0 1.57-1.26 1.16 1.16 0 0 0-.48-.95 4.88 4.88 0 0 0-1.44-.66c-2.57-.93-3.57-1.91-3.57-3.73 0-2.16 1.59-3.61 3.93-3.61a3.72 3.72 0 0 1 4 3.64h-2.46a1.41 1.41 0 0 0-1.47-1.48 1.29 1.29 0 0 0-1.46 1.25 1.26 1.26 0 0 0 .73 1.13 8.67 8.67 0 0 0 1.39.59 6.7 6.7 0 0 1 2.48 1.32 3.1 3.1 0 0 1 .95 2.3c0 2.18-1.65 3.62-4.11 3.62s-4-1.43-4-3.71zM315.61 91l-.71 2h-2.59l4.1-11.91h3.06L323.54 93h-2.68l-.68-2zm2.29-6.93L316.24 89h3.3zM328 93h-2.44V81.13h2.41l5 7.43v-7.43h2.45V93H333l-5-7.53zM340.44 89.56v.16a1.49 1.49 0 0 0 1.63 1.39 1.42 1.42 0 0 0 1.57-1.26 1.19 1.19 0 0 0-.48-.95 5 5 0 0 0-1.45-.66c-2.6-.93-3.53-1.91-3.53-3.73 0-2.16 1.59-3.61 3.92-3.61a3.73 3.73 0 0 1 4 3.64h-2.46a1.41 1.41 0 0 0-1.56-1.48 1.29 1.29 0 0 0-1.46 1.25 1.26 1.26 0 0 0 .73 1.13 9.13 9.13 0 0 0 1.39.59 6.53 6.53 0 0 1 2.48 1.32 3.06 3.06 0 0 1 .95 2.3c0 2.18-1.64 3.62-4.1 3.62s-4-1.43-4-3.71z"/></g><g fill="#f1efe1"><path d="M382 34.43a5.12 5.12 0 0 0-9.34 0 12.1 12.1 0 0 0-1 6.76A9.23 9.23 0 0 0 373 45.6a4.92 4.92 0 0 0 4.5 2.4 5.09 5.09 0 0 0 4.5-3 11.42 11.42 0 0 0 1.13-5.27c0-.43 0-.91-.08-1.38a10.07 10.07 0 0 0-1.05-3.92zM123.8 27c-2.57-1.22-5.32-1.14-8.11-1.09v18.62a2.1 2.1 0 0 0 2.31 2.2 16.7 16.7 0 0 0 2.55-.13c3.81-.55 6.42-2.58 7.52-6.33a14.6 14.6 0 0 0 .08-8A7.8 7.8 0 0 0 123.8 27zM217.87 26.36a6.75 6.75 0 0 0-9.87 2.86 14.62 14.62 0 0 0-1.47 6.91 14.27 14.27 0 0 0 1.94 7.87 6.59 6.59 0 0 0 7.29 3 7 7 0 0 0 5-4.68 17.25 17.25 0 0 0 .34-11.15 8.15 8.15 0 0 0-3.23-4.81zM43.2 25.35a6.92 6.92 0 0 0-6.8 4.72 16.92 16.92 0 0 0-1.06 7.48 13.48 13.48 0 0 0 1.82 6.39 6.68 6.68 0 0 0 11.51 0 14.15 14.15 0 0 0 1.91-7.25c0-3.53-.62-6.17-2-8.25a6.41 6.41 0 0 0-5.38-3.09z"/><path d="M6 6v59.94h418V6zm46.16 44.31A25.6 25.6 0 0 1 43 51.73c-4.29 0-8.48-.6-12.3-2.73a13.24 13.24 0 0 1-7.08-10.32 15.38 15.38 0 0 1 1.74-10 14.26 14.26 0 0 1 7.48-6.1A28.93 28.93 0 0 1 46.3 21a23.36 23.36 0 0 1 7.17 1.73c4.77 2.08 8 5.55 8.71 10.81 1.11 7.7-2.04 13.97-10.02 16.77zM97.7 48c-.16 1.09-.32 2.18-.47 3.14h-30.9l-.16-.31c.16-.24.27-.58.5-.73a5.53 5.53 0 0 0 2.51-4.76c.1-2 .12-4 .12-6 0-3.91 0-7.82-.1-11.73a5.81 5.81 0 0 0-2.66-5.32c-.17-.11-.22-.41-.38-.73h17.56c-.22.34-.31.64-.5.76a5.51 5.51 0 0 0-2.66 5c-.07 5.48-.07 11-.1 16.44a5.27 5.27 0 0 0 .1.89 2 2 0 0 0 2.12 1.78c5.83.15 10.91-1.61 15-5.92a2.25 2.25 0 0 1 .43-.44.82.82 0 0 1 .55-.07c.09 0 .16.3.14.45-.37 2.55-.74 5.05-1.1 7.55zm41.42-5.52a12.86 12.86 0 0 1-6.72 6.31A27.18 27.18 0 0 1 121.33 51c-6.5.06-13 0-19.5 0h-.53c.13-.31.16-.63.32-.72 2.23-1.3 2.78-3.44 2.8-5.76V28.21a13.51 13.51 0 0 0-.33-2.6 4.94 4.94 0 0 0-2.22-3.15 3.69 3.69 0 0 1-.64-.8c.39 0 .52-.06.66-.06 6.82 0 13.65 0 20.47.06a25.47 25.47 0 0 1 10.38 2.14 12.3 12.3 0 0 1 7.66 11.27 15.35 15.35 0 0 1-1.28 7.43zm47.68 6.75a19.64 19.64 0 0 1-10.07 2.37c-3.39 0-6.78-.42-10.18-.55-1.74-.07-3.5.06-5.25.12-.33 0-.65.06-1.05.1-.27-1.2-.55-2.38-.81-3.57-.46-2.07-.92-4.14-1.36-6.22a1.94 1.94 0 0 1 .11-.66c.23.08.52.1.67.25A20.51 20.51 0 0 0 171.64 47a29.27 29.27 0 0 0 4.49 0 5.09 5.09 0 0 0 1.7-.53 2.29 2.29 0 0 0 1.48-2.16A2.23 2.23 0 0 0 178 42a20.66 20.66 0 0 0-4.17-1.4c-3.43-.66-6.86-1.25-10-2.92a9.58 9.58 0 0 1-5-5.25c-1.38-3.92.3-7.63 4.32-9.63a19.91 19.91 0 0 1 7.4-1.91 46.5 46.5 0 0 1 9.06.36 16.44 16.44 0 0 0 7.4-.39c.78 3.11 1.52 6.1 2.27 9.11-.31.41-.61.33-1 .07A27.7 27.7 0 0 0 180 25.9a16.93 16.93 0 0 0-7.93-.62 4.66 4.66 0 0 0-1.74.79 2.29 2.29 0 0 0 .19 3.9 15.19 15.19 0 0 0 3.91 1.28 51.11 51.11 0 0 1 8.81 2.1 14.43 14.43 0 0 1 5.58 3.52 8 8 0 0 1-2.02 12.38zm46.82-12.13a13.42 13.42 0 0 1-5.22 10.5 17 17 0 0 1-7.46 3.33c-2.21.41-4.47.62-6.7.93v-.19a24.9 24.9 0 0 1-12.41-2.85 13.1 13.1 0 0 1-6.83-9.67 15.61 15.61 0 0 1 1.14-9.55c1.94-4 5.31-6.33 9.44-7.59a29.88 29.88 0 0 1 16.74-.17 15.71 15.71 0 0 1 8.15 5 14.4 14.4 0 0 1 3.15 10.26zm41.6-14.88c-2.58 1.46-3.08 3.9-3.11 6.54v11a11 11 0 0 1-2.94 7.85 12.65 12.65 0 0 1-6.54 3.42 31.91 31.91 0 0 1-10.41.36 21.31 21.31 0 0 1-5.52-1.28c-4-1.57-6.45-4.47-6.74-8.82-.22-3.34-.09-6.7-.16-10 0-1.76-.1-3.51-.27-5.26a4.81 4.81 0 0 0-2.3-3.62 3.48 3.48 0 0 1-.57-.68l.16-.16h17.36c-.17.31-.24.61-.42.72-2 1.23-2.68 3.19-2.71 5.38-.06 3.91-.08 7.82 0 11.73.06 3.28 1.72 5.43 4.65 6.2a9.46 9.46 0 0 0 4.87 0 5.87 5.87 0 0 0 4.61-5.93c.09-3.89 0-7.78 0-11.66a11.11 11.11 0 0 0-.29-2.06 5.5 5.5 0 0 0-2.52-3.59c-.21-.14-.33-.43-.6-.8h13.77c-.14.28-.17.58-.32.66zm35.66 18.45c-.47 3.32-1 6.63-1.44 9.94 0 .2-.07.4-.09.49h-31.1c.17-.46.18-.8.34-.9 2.34-1.36 2.77-3.63 2.81-6q.08-5.81 0-11.59c0-2.15-.1-4.3-.26-6.44a4.86 4.86 0 0 0-2.33-3.75 2.48 2.48 0 0 1-.53-.69l.16-.15h17.38c-.2.33-.28.64-.47.76a5.52 5.52 0 0 0-2.69 5c-.06 5.6 0 11.19 0 16.79 0 1.55.79 2.25 2.35 2.28a19 19 0 0 0 15-6.16c.16-.18.49-.2.74-.3a2.69 2.69 0 0 1 .13.72zm26.94 1.79a7.07 7.07 0 0 0 6.24 4c3.82.3 7.08-1.16 10.13-3.25.81-.55 1.56-1.19 2.35-1.77a2.53 2.53 0 0 1 .69-.22c.07.24.24.49.2.71-.31 2-.65 3.95-1 5.93a4.48 4.48 0 0 0-.14.88c0 1.09-.6 1.41-1.56 1.61a49.14 49.14 0 0 1-14.56 1 19.45 19.45 0 0 1-10.11-3.59 13 13 0 0 1-5.19-9.7 16.21 16.21 0 0 1 1-7.92 13.72 13.72 0 0 1 8.7-7.77 24.75 24.75 0 0 1 9.5-1.3c2.57.14 5.13.46 7.7.58 1.38.07 2.77-.08 4.29-.14.21 1.43.44 2.94.67 4.44l.66 4.53a.76.76 0 0 1 0 .21c-.07.23-.09.58-.24.66s-.48-.06-.67-.19c-1.76-1.22-3.45-2.56-5.27-3.68a11.75 11.75 0 0 0-6.11-1.73 7.61 7.61 0 0 0-7.87 5.46 14.31 14.31 0 0 0 .59 11.25zm54.24-2a10.12 10.12 0 0 1-4.11 8A13.65 13.65 0 0 1 382 51c-1.54.27-3.12.38-4.68.57a20.35 20.35 0 0 1-9.14-2.16 10.2 10.2 0 0 1-5.51-8.57 11.82 11.82 0 0 1 .9-5.91 10.49 10.49 0 0 1 6.29-5.62 22.21 22.21 0 0 1 13.68-.46 11.64 11.64 0 0 1 6.6 4.33 11.14 11.14 0 0 1 1.92 7.28zM404 50.91a13.89 13.89 0 0 1-2.26.63 6.51 6.51 0 0 1-4-1.2 4.26 4.26 0 0 1 0-6.66 6 6 0 0 1 7.59.31 4.28 4.28 0 0 1-1.33 6.92z"/></g></svg>