<svg data-name="Layer 1" xmlns="http://www.w3.org/2000/svg" viewBox="0 0 533.6 533.6"><path d="M152.94 403.95v-237h149.1a90.86 90.86 0 0 0 69.9-32.92l18 18v251.92zm0-269h149a58.94 58.94 0 0 0 47.23-23.69L238.94.95a265.13 265.13 0 0 0-86 24.1zm237-105.53A265.37 265.37 0 0 0 283.16 0l106.78 106.79zm143.64 221a265.72 265.72 0 0 0-18.64-83.47h-64.82zm-1 44.27L421.94 184.05v219.9h74.11a265.22 265.22 0 0 0 36.57-109.24zM120.94 435.95H60.61a268.48 268.48 0 0 0 60.33 54.15zm301-301h77.5A268.34 268.34 0 0 0 421.94 49zm-32 301h-237v72.1a267.46 267.46 0 0 0 237-4.37zm32 0v48.15a268.72 268.72 0 0 0 51.55-48.15zm-301-301v-92a268.47 268.47 0 0 0-86.3 92zm0 269v-237H19.21a267.46 267.46 0 0 0 18.82 237z" fill="#d4cd9f"/><path d="M367.77 220.33c-.92 2.17-1.33 2.54-3.23 3 .43 2.95-1.55 4.71-4.27 4a8.12 8.12 0 0 1-.47 1.39 3.21 3.21 0 0 1-5.12.84c-2-1.7-4-3.43-6-5.15l-6.5-5.46-.76-.65c-1.46 1.27-1.19 1.06-2.46 0q-5.17-4.4-10.32-8.82c-.93-.79-.93-.83-.15-1.74 4.58-5.36 9.16-10.7 13.72-16.07.56-.66 1-.73 1.63-.15q16.8 14.4 33.63 28.78a3.17 3.17 0 0 1 1.08 3.67 3 3 0 0 1-3 2 4.69 4.69 0 0 1-2.22-.92c-1.63-1.27-3.17-2.67-4.74-4zm-12.93-17.87l-12.63 14.77 7.27 6.22a3.37 3.37 0 0 1 3.43-2.95c0-1.8.14-2.56 1.09-3.13 1.32-.79 1.41-2.4 2.51-3.4a2 2 0 0 0-.78 0 9.39 9.39 0 0 1-5.21-1.25c-.22-.13-.29-.55-.42-.83a2.35 2.35 0 0 1 .9-.19 14.56 14.56 0 0 1 1.51.57 6.38 6.38 0 0 0 5.95-.45c.27-.18.72-.09 1.09-.12-.09.36-.06.82-.27 1.08-.78 1-1.64 2-2.46 2.93a2.13 2.13 0 0 0 .2 3.25 2.18 2.18 0 0 0 3-.5c1-1.18 2.05-2.35 3-3.56a4 4 0 0 0-.48-5.85c-1.17-1-2.37-2-3.56-3.05zm-3.47-2.9l-13.66 16 2.41 2.06 13.66-16zm13 16.06h-.17v.1c3.4 2.92 6.79 5.86 10.21 8.75a1.74 1.74 0 0 0 2.29-.06c1.14-.87 1.08-2.24-.17-3.32q-5.3-4.62-10.59-9.14a2.67 2.67 0 0 0-.31-.24zm-10.77 11.42c.73.62 1.44 1.26 2.18 1.85a1.91 1.91 0 0 0 2.65-.27 1.83 1.83 0 0 0-.08-2.64c-1.47-1.32-3-2.6-4.5-3.84a1.9 1.9 0 0 0-2.65.31 2 2 0 0 0 .23 2.73c.72.64 1.51 1.24 2.18 1.86zm1.41-8.81a1.76 1.76 0 0 0-.33 2.86c1.83 1.63 3.68 3.22 5.55 4.8a1.75 1.75 0 0 0 2.29.05c1.23-.84 1.15-2.34-.18-3.45-.76-.62-1.51-1.26-2.29-1.85a1.06 1.06 0 0 0-.74-.17c-2.27.4-3.28-.1-4.29-2.24zm5.74 1.32c.87.74 1.6 1.39 2.36 2a1.91 1.91 0 0 0 2.73-.14 1.89 1.89 0 0 0-.05-2.73 19.72 19.72 0 0 0-2-1.73.79.79 0 0 0-.76 0c-.78.81-1.48 1.67-2.27 2.6z" fill="#332e20"/><text transform="translate(181.83 427.79)" font-size="19" fill="#898f65" font-weight="700" letter-spacing=".09em">4TH <tspan x="46.89" y="0" letter-spacing=".011em">A</tspan><tspan x="59.98" y="0">VENUE</tspan></text><text transform="translate(182.65 158.79)" font-size="19" fill="#898f65" font-weight="700" letter-spacing=".09em">3RD <tspan x="47.25" y="0" letter-spacing=".011em">A</tspan><tspan x="60.34" y="0">VENUE</tspan></text><text transform="rotate(90 89.855 310.105)" font-size="19" fill="#898f65" font-weight="700" letter-spacing=".09em">35TH STREET</text><text transform="rotate(90 -44.86 174.82)" font-size="19" fill="#898f65" font-weight="700" letter-spacing=".09em">34TH STREET</text><text transform="rotate(45 55.428 465.539)" font-size="19" fill="#898f65" font-weight="700" letter-spacing=".09em">BR<tspan x="25.71" y="0" letter-spacing=".074em">O</tspan><tspan x="41.86" y="0">A</tspan><tspan x="56.45" y="0" letter-spacing=".068em">D</tspan><tspan x="70.66" y="0" letter-spacing=".018em">W</tspan><tspan x="89.68" y="0" letter-spacing=".03em">A</tspan><tspan x="103.13" y="0">Y</tspan></text></svg>