<svg data-name="Layer 1" xmlns="http://www.w3.org/2000/svg" viewBox="0 0 534.1 534.1"><path fill="#d4cd9f" d="M132.94 302.45h237v102h-237zM531.76 302.45H401.94v102h94.13a265.28 265.28 0 0 0 35.69-102zM100.94 167.45H19.21a267.46 267.46 0 0 0 18.82 237h62.91zM514.89 167.45H401.94v103h132.12v-3.4a266.31 266.31 0 0 0-19.17-99.6zM132.94 167.45h237v103h-237zM369.94 436.45h-237v61.57a267.53 267.53 0 0 0 237 15.53zM401.94 436.45v61.11a268.27 268.27 0 0 0 71.55-61.11zM100.94 436.45H60.61a268.36 268.36 0 0 0 40.33 39.69zM100.94 135.45V57.96a268.4 268.4 0 0 0-66.3 77.49zM132.94 135.45h237V20.56a267.44 267.44 0 0 0-237 15.53zM401.94 135.45h97.52a268.34 268.34 0 0 0-97.52-98.91z"/><path d="M242.38 247.92c-.91 2.17-1.32 2.54-3.22 3 .43 3-1.55 4.71-4.27 4a8.42 8.42 0 0 1-.47 1.39 3.21 3.21 0 0 1-5.12.84c-2-1.7-4-3.44-6-5.15l-6.47-5.54-.76-.65c-1.46 1.27-1.19 1.06-2.46 0q-5.18-4.4-10.32-8.82c-.93-.79-.93-.83-.15-1.75q6.87-8 13.72-16.06c.56-.66.95-.74 1.63-.15q16.8 14.4 33.63 28.78a3.17 3.17 0 0 1 1.08 3.67 3 3 0 0 1-3 2 4.69 4.69 0 0 1-2.22-.92c-1.63-1.27-3.17-2.67-4.74-4zm-12.92-17.87l-12.63 14.77 7.27 6.22a3.37 3.37 0 0 1 3.43-3c0-1.81.14-2.56 1.09-3.13 1.32-.79 1.41-2.4 2.51-3.4a2 2 0 0 0-.78.05 9.39 9.39 0 0 1-5.21-1.25c-.22-.13-.29-.55-.42-.83a2.35 2.35 0 0 1 .9-.19 14.56 14.56 0 0 1 1.51.57 6.38 6.38 0 0 0 6-.45c.27-.18.72-.09 1.09-.12-.09.36-.06.81-.27 1.08-.78 1-1.64 1.95-2.46 2.92a2.13 2.13 0 0 0 .2 3.26 2.17 2.17 0 0 0 3-.5c1-1.18 2.05-2.35 3-3.56a4 4 0 0 0-.48-5.85c-1.17-1-2.37-2-3.56-3zm-3.47-2.9l-13.66 16 2.41 2.05 13.66-16zm13 16.06l-.17-.05v.09c3.4 2.93 6.79 5.87 10.21 8.76a1.74 1.74 0 0 0 2.29-.06c1.14-.87 1.08-2.24-.17-3.32q-5.33-4.57-10.66-9.12a3.65 3.65 0 0 0-.31-.23zm-10.77 11.42c.73.62 1.43 1.26 2.18 1.85a1.91 1.91 0 0 0 2.65-.27 1.84 1.84 0 0 0-.08-2.65c-1.47-1.31-3-2.6-4.5-3.83a1.9 1.9 0 0 0-2.65.31 2 2 0 0 0 .23 2.73c.76.64 1.5 1.24 2.22 1.86zm1.41-8.81a1.76 1.76 0 0 0-.33 2.86c1.83 1.63 3.68 3.22 5.55 4.8a1.75 1.75 0 0 0 2.29 0c1.23-.84 1.15-2.34-.18-3.45-.76-.62-1.51-1.26-2.29-1.85a1.08 1.08 0 0 0-.74-.17c-2.23.45-3.24-.06-4.25-2.19zm5.75 1.32c.87.74 1.6 1.39 2.36 2a1.91 1.91 0 0 0 2.73-.14 1.89 1.89 0 0 0 0-2.73 19.81 19.81 0 0 0-2-1.74.81.81 0 0 0-.76 0c-.8.82-1.5 1.68-2.33 2.61z" fill="#332e20"/><path d="M175.57 424.74l1.52 1.5a6.89 6.89 0 1 1-.19-9.41l-1.52 1.53a4.64 4.64 0 1 0-3.38 8 4.73 4.73 0 0 0 3.57-1.62zM184.43 414.99h2.31l5.17 13.3h-2.3l-1.23-3.15h-5.63l-1.21 3.15h-2.3zm-.84 8.06h4l-2-5.19zM195.14 414.99h4.52a4.26 4.26 0 1 1 0 8.51h-2.28v4.79h-2.28zm6.61 4.26c0-1.26-.81-2.09-2.37-2.09h-2v4.18h2c1.56 0 2.37-.84 2.37-2.09zM207.87 414.99h2.28v13.3h-2.28zM217.47 417.16h-3.67v-2.17h9.58v2.17h-3.66v11.13h-2.28zM239.11 421.64a6.73 6.73 0 1 1-6.73-6.9 6.63 6.63 0 0 1 6.73 6.9zm-2.32 0a4.42 4.42 0 1 0-4.41 4.71 4.44 4.44 0 0 0 4.41-4.71zM242.87 414.99h2.28v11.14h5.66v2.16h-7.94zM265.25 414.99h2.32l5.17 13.3h-2.3l-1.22-3.15h-5.62l-1.22 3.15h-2.3zm-.83 8.06h4l-2-5.19zM279.05 428.74l-5.95-13.76h2.49l3.53 8.53 3.5-8.53h2.37zM290.43 420.39h5.32v2.16h-5.32v3.58h5.89v2.16h-8.17v-13.3h8.05v2.17h-5.77zM302.28 414.99l6.65 9.16v-9.16h2.28v13.3h-2.05l-6.65-9.14v9.14h-2.28v-13.3zM323.71 414.99h2.28v8.48a5.13 5.13 0 0 1-10.25 0v-8.48h2.27v8.19c0 1.9.95 3.17 2.85 3.17s2.85-1.27 2.85-3.17zM332.8 420.39h5.32v2.16h-5.32v3.58h5.89v2.16h-8.17v-13.3h8.05v2.17h-5.77zM209.21 145.99h2.28v11.14h5.66v2.16h-7.94zM231.93 153.74c-2-.68-4.16-1.74-4.16-4.21 0-1.88 1.67-3.76 4.35-3.76a5.73 5.73 0 0 1 4.33 2.1l-1.58 1.56a3.83 3.83 0 0 0-2.75-1.5 1.83 1.83 0 0 0-2 1.6c0 1.15 1 1.52 2.87 2.2 2 .76 3.72 1.67 3.72 4.08s-2.13 3.71-4.64 3.71a5.81 5.81 0 0 1-4.86-2.72l1.71-1.44a4.06 4.06 0 0 0 3.15 2c1.14 0 2.32-.45 2.32-1.54s-.88-1.52-2.46-2.08zM243.25 148.16h-3.66v-2.17h9.61v2.17h-3.67v11.13h-2.28zM252.58 145.99h4.37a4.08 4.08 0 0 1 4.41 4.14 3.83 3.83 0 0 1-3 4l3.32 5.17h-2.66l-3.15-5h-1.05v5h-2.24zm6.46 4.14c0-1.31-.91-2-2.37-2h-1.81v4h1.81c1.46-.02 2.37-.68 2.37-2zM267.65 151.39h5.32v2.16h-5.32v3.58h5.89v2.16h-8.16v-13.3h8v2.17h-5.77zM279.73 151.39h5.32v2.16h-5.32v3.58h5.89v2.16h-8.17v-13.3h8.06v2.17h-5.78zM292.06 148.16h-3.68v-2.17h9.61v2.17h-3.61v11.13h-2.28zM179.62 280.99h2.28v11.14h5.66v2.16h-7.94zM191.09 280.99h2.29v13.3h-2.28zM200.44 286.39h5.32v2.16h-5.32v3.58h5.94v2.16h-8.17v-13.3h8.06v2.17h-5.78zM214.46 288.74c-2-.68-4.16-1.74-4.16-4.21 0-1.88 1.67-3.76 4.35-3.76a5.7 5.7 0 0 1 4.33 2.1l-1.6 1.56a3.86 3.86 0 0 0-2.76-1.5 1.83 1.83 0 0 0-2 1.6c0 1.15 1 1.52 2.87 2.2 2 .76 3.72 1.67 3.72 4.08s-2.13 3.71-4.63 3.71a5.82 5.82 0 0 1-4.87-2.72l1.71-1.44a4.06 4.06 0 0 0 3.16 2c1.14 0 2.31-.45 2.31-1.54s-.85-1.52-2.43-2.08zM225.79 283.16h-3.67v-2.17h9.61v2.17h-3.66v11.13h-2.28zM238.29 280.99h2.32l5.16 13.3h-2.3l-1.21-3.15h-5.62l-1.26 3.15h-2.3zm-.84 8.06h4l-2-5.19zM249 280.99h2.28v11.14h5.67v2.16H249zM271.38 280.99h2.31l5.17 13.3h-2.3l-1.18-3.15h-5.63l-1.21 3.15h-2.3zm-.84 8.06h4l-2-5.19zM282.1 280.99h2.28v11.14h5.66v2.16h-7.94zM293.31 280.99h2.28v11.14h5.66v2.16h-7.94zM306.8 286.39h5.32v2.16h-5.32v3.58h5.89v2.16h-8.17v-13.3h8.06v2.17h-5.78zM322.17 294.29h-2.28v-5.24l-4.51-8.06h2.51l3.25 5.95 3.25-5.95h2.35l-4.54 8.06zM394.25 226.39v1.88h-13.3v-2.28h10.26l-1.83-2.34 1.67-1.31zM390.64 241.83a3.17 3.17 0 0 1-2.62-1.48 3.3 3.3 0 0 1-3.15 1.86c-2.23 0-4.15-1.67-4.15-4.56s1.92-4.56 4.15-4.56a3.3 3.3 0 0 1 3.15 1.86 3.17 3.17 0 0 1 2.62-1.48 4.2 4.2 0 0 1 0 8.36zm-5.74-1.92a2.27 2.27 0 0 0 0-4.52 2.27 2.27 0 0 0 0 4.52zm7.49-2.26a1.78 1.78 0 1 0-1.77 1.92 1.79 1.79 0 0 0 1.76-1.92zM392.08 248.74v-3.67h2.17v9.67h-2.17v-3.66h-11.13v-2.34zM394.25 266.06v2.28h-13.3v-2.28h5.72v-5.68h-5.72v-2.28h13.3v2.28h-5.41v5.68zM386.5 284.37c.68-1.95 1.75-4.16 4.22-4.16 1.88 0 3.76 1.67 3.76 4.35a5.69 5.69 0 0 1-2.11 4.33l-1.56-1.57a3.83 3.83 0 0 0 1.5-2.76 1.83 1.83 0 0 0-1.59-2c-1.16 0-1.52 1-2.21 2.87-.76 2-1.67 3.72-4.08 3.72s-3.71-2.13-3.71-4.63a5.82 5.82 0 0 1 2.72-4.87l1.44 1.71a4.06 4.06 0 0 0-2 3.16c0 1.14.46 2.31 1.54 2.31s1.53-.88 2.08-2.46zM392.08 295.74v-3.67h2.17v9.61h-2.17v-3.66h-11.13v-2.28zM394.25 305.03v4.36a4.07 4.07 0 0 1-4.14 4.41 3.83 3.83 0 0 1-4-3l-5.17 3.32v-2.66l5-3.15v-1h-5v-2.28zm-4.14 6.45c1.31 0 2-.91 2-2.37v-1.8h-3.95v1.8c-.03 1.46.64 2.37 1.95 2.37zM388.85 320.09v5.32h-2.16v-5.32h-3.57v5.89h-2.17v-8.17h13.3v8.06h-2.17v-5.78zM388.85 332.18v5.32h-2.16v-5.32h-3.57v5.89h-2.17v-8.17h13.3v8h-2.17v-5.77zM392.08 344.51v-3.67h2.17v9.61h-2.17v-3.66h-11.13v-2.28zM123.25 226.36v1.88h-13.3v-2.28h10.26l-1.83-2.33 1.67-1.32zM123.25 232.84v9.5l-13.75-7.13 1-1.93 10.58 5.46v-5.9zM121.08 247.79v-3.66h2.17v9.61h-2.17v-3.67h-11.13v-2.28zM123.25 265.08v2.28h-13.3v-2.28h5.72v-5.68h-5.72v-2.28h13.3v2.28h-5.41v5.68zM115.5 283.4c.68-2 1.75-4.16 4.22-4.16 1.88 0 3.76 1.67 3.76 4.35a5.72 5.72 0 0 1-2.11 4.33l-1.56-1.58a3.83 3.83 0 0 0 1.5-2.75 1.83 1.83 0 0 0-1.59-2c-1.16 0-1.52 1-2.21 2.86-.76 2-1.67 3.73-4.08 3.73s-3.71-2.13-3.71-4.64a5.81 5.81 0 0 1 2.72-4.86l1.44 1.71a4.06 4.06 0 0 0-2 3.15c0 1.14.46 2.32 1.54 2.32s1.53-.89 2.08-2.46zM121.08 294.74v-3.66h2.17v9.61h-2.17v-3.67h-11.13v-2.28zM123.25 304.05v4.37a4.08 4.08 0 0 1-4.14 4.41 3.84 3.84 0 0 1-4-3l-5.17 3.33v-2.66l5-3.15v-1.05h-5v-2.28zm-4.14 6.46c1.31 0 2-.91 2-2.37v-1.81h-4v1.81c.02 1.46.69 2.37 2 2.37zM117.85 319.12v5.32h-2.16v-5.32h-3.57v5.89h-2.17v-8.17h13.3v8h-2.17v-5.77zM117.85 331.2v5.32h-2.16v-5.32h-3.57v5.89h-2.17v-8.17h13.3v8.06h-2.17v-5.78zM121.08 343.53v-3.66h2.17v9.61h-2.17v-3.67h-11.13v-2.28z" fill="#898f65"/></svg>