<svg data-name="Layer 1" xmlns="http://www.w3.org/2000/svg" viewBox="0 0 534.1 534.1"><g fill="#d4cd9f"><path d="M132.94 302.45h237v102h-237zM132.94 135.45h237V20.55a267.53 267.53 0 0 0-237 15.53zM132.94 167.45h237v103h-237zM514.89 167.45H401.94v103h132.11c0-1.13.05-2.26.05-3.4a266.31 266.31 0 0 0-19.21-99.6zM531.76 302.45H401.94v102h94.13a265.39 265.39 0 0 0 35.69-102zM401.94 135.45h97.52a268.42 268.42 0 0 0-97.52-98.91zM369.94 436.45h-237V498a267.44 267.44 0 0 0 237 15.53zM401.94 436.45v61.1a268.21 268.21 0 0 0 71.55-61.1zM100.94 167.45H19.21a267.46 267.46 0 0 0 18.79 237h62.91zM100.94 135.45V58a268.12 268.12 0 0 0-66.3 77.49zM100.94 436.45H60.61a268.36 268.36 0 0 0 40.33 39.69z"/></g><path d="M242.42 247.92c-.92 2.17-1.32 2.53-3.22 3 .43 3-1.55 4.72-4.27 4a8.46 8.46 0 0 1-.48 1.39 3.2 3.2 0 0 1-5.11.84c-2-1.7-4-3.44-6-5.16l-6.47-5.53-.77-.65c-1.46 1.26-1.19 1.06-2.45 0-3.46-2.92-6.89-5.87-10.33-8.82-.92-.79-.92-.82-.14-1.74 4.57-5.35 9.16-10.7 13.72-16.07.55-.65.95-.73 1.63-.15q16.8 14.41 33.63 28.78a3.16 3.16 0 0 1 1.07 3.68 3 3 0 0 1-3 2 4.57 4.57 0 0 1-2.21-.93c-1.64-1.27-3.17-2.66-4.74-4zm-12.92-17.87l-12.64 14.77 7.28 6.21a3.36 3.36 0 0 1 3.43-2.94c0-1.81.14-2.56 1.08-3.13 1.33-.8 1.42-2.4 2.52-3.41a2.17 2.17 0 0 0-.78.06 9.4 9.4 0 0 1-5.21-1.26c-.23-.12-.29-.54-.43-.83a2.38 2.38 0 0 1 .91-.18 14.56 14.56 0 0 1 1.51.57 6.33 6.33 0 0 0 5.94-.46c.28-.17.73-.08 1.09-.12-.08.37 0 .82-.26 1.09-.78 1-1.64 2-2.46 2.92a2.14 2.14 0 0 0 .19 3.26 2.19 2.19 0 0 0 3-.5c1-1.18 2.05-2.36 3-3.57a4 4 0 0 0-.49-5.84c-1.17-1-2.37-2-3.55-3.05zm-3.47-2.9l-13.66 16 2.4 2.06 13.67-16zm13 16.06l-.17-.05v.09c3.4 2.93 6.78 5.87 10.21 8.76a1.74 1.74 0 0 0 2.29-.07c1.14-.87 1.08-2.24-.17-3.31q-5.33-4.57-10.66-9.12l-.31-.23zm-10.77 11.42c.72.62 1.43 1.26 2.18 1.86a1.91 1.91 0 0 0 2.64-.27 1.83 1.83 0 0 0-.08-2.65c-1.46-1.31-3-2.6-4.49-3.84a1.92 1.92 0 0 0-2.66.31 2 2 0 0 0 .24 2.74c.72.62 1.45 1.22 2.18 1.85zm1.41-8.81a1.76 1.76 0 0 0-.33 2.86c1.82 1.63 3.68 3.22 5.55 4.8a1.73 1.73 0 0 0 2.28.05c1.23-.85 1.16-2.35-.17-3.45-.76-.63-1.51-1.26-2.3-1.86a1.09 1.09 0 0 0-.73-.16c-2.27.4-3.29-.06-4.29-2.24zm5.73 1.32c.87.74 1.61 1.39 2.36 2a1.94 1.94 0 0 0 2.74-.14 1.89 1.89 0 0 0 0-2.73 19.81 19.81 0 0 0-2-1.74.78.78 0 0 0-.77 0c-.83.82-1.53 1.68-2.32 2.61z" fill="#332e20"/><text transform="translate(164.59 428.29)" font-size="19" fill="#898f65" font-weight="700" letter-spacing=".09em">CAPI<tspan x="48.94" y="0" letter-spacing=".07em">T</tspan><tspan x="60.42" y="0">OL </tspan><tspan x="95.38" y="0" letter-spacing=".011em">A</tspan><tspan x="108.47" y="0">VENUE</tspan></text><text transform="translate(207.8 159.29)" font-size="19" fill="#898f65" font-weight="700" letter-spacing=".09em">L STREET</text><text transform="translate(178.21 294.29)" font-size="19" fill="#898f65" font-weight="700" letter-spacing=".09em">LIES<tspan x="43.64" y="0" letter-spacing=".053em">T</tspan><tspan x="54.8" y="0">AL ALLEY</tspan></text><text transform="rotate(90 79.46 301.49)" font-size="19" fill="#898f65" font-weight="700" letter-spacing=".09em">18TH STREET</text><text transform="rotate(90 -56.03 165.98)" font-size="19" fill="#898f65" font-weight="700" letter-spacing=".09em">17TH STREET</text></svg>