<svg data-name="Layer 1" xmlns="http://www.w3.org/2000/svg" viewBox="0 0 534.1 534.1"><path d="M369.94 404.45h-237v-237h237zm-269-237H19.21a267.46 267.46 0 0 0 18.82 237h62.91zm301-32h97.52a268.34 268.34 0 0 0-97.52-98.91zm-269 0h237V20.55a267.53 267.53 0 0 0-237 15.53zm269 269h94.13a267.46 267.46 0 0 0 18.87-237h-113zm-32 32h-237v61.56a267.44 267.44 0 0 0 237 15.53zm-269-301V57.96a268.27 268.27 0 0 0-66.3 77.49zm301 301v61.11a268.27 268.27 0 0 0 71.55-61.11zm-301 0H60.61a268.36 268.36 0 0 0 40.33 39.69z" fill="#d4cd9f"/><path d="M340.74 277.94c-.92 2.17-1.32 2.54-3.22 3 .42 2.95-1.56 4.71-4.27 4a9.11 9.11 0 0 1-.48 1.39 3.2 3.2 0 0 1-5.11.84c-2-1.7-4-3.43-6-5.15l-6.46-5.54-.77-.65c-1.46 1.27-1.19 1.06-2.46 0q-5.17-4.4-10.32-8.82c-.92-.79-.93-.83-.15-1.74 4.58-5.36 9.17-10.7 13.72-16.07.56-.66 1-.73 1.64-.15q16.8 14.4 33.62 28.78a3.17 3.17 0 0 1 1.08 3.67 3 3 0 0 1-3 2 4.69 4.69 0 0 1-2.22-.92c-1.63-1.27-3.16-2.67-4.74-4zm-12.93-17.87l-12.63 14.77 7.27 6.22a3.37 3.37 0 0 1 3.44-2.95c0-1.8.13-2.56 1.08-3.13 1.33-.79 1.41-2.4 2.52-3.4a2 2 0 0 0-.79.05 9.41 9.41 0 0 1-5.21-1.25c-.22-.13-.28-.55-.42-.83a2.35 2.35 0 0 1 .9-.19 14.73 14.73 0 0 1 1.52.57 6.36 6.36 0 0 0 5.94-.45c.27-.18.72-.09 1.09-.12-.08.36-.06.82-.27 1.08-.77 1-1.64 1.95-2.46 2.93a2.13 2.13 0 0 0 .2 3.25 2.18 2.18 0 0 0 3-.5c1-1.18 2.05-2.35 3-3.56a4 4 0 0 0-.48-5.85c-1.17-1-2.37-2-3.56-3.05zm-3.46-2.9l-13.67 16 2.41 2.06 13.66-16zm13 16.06h-.16v.1c3.39 2.92 6.78 5.86 10.21 8.75a1.74 1.74 0 0 0 2.29-.06c1.14-.87 1.08-2.24-.18-3.32q-5.31-4.57-10.66-9.11c-.13-.12-.28-.22-.3-.24zm-10.77 11.42c.72.62 1.43 1.26 2.17 1.85a1.91 1.91 0 0 0 2.65-.27 1.83 1.83 0 0 0-.08-2.64c-1.47-1.32-3-2.6-4.49-3.84a1.91 1.91 0 0 0-2.66.31 2 2 0 0 0 .23 2.73c.72.66 1.46 1.24 2.18 1.86zm1.42-8.81a1.75 1.75 0 0 0-.33 2.86c1.82 1.63 3.68 3.22 5.54 4.8a1.75 1.75 0 0 0 2.29.05c1.23-.84 1.15-2.34-.18-3.44-.75-.63-1.51-1.27-2.29-1.86a1 1 0 0 0-.73-.17c-2.29.37-3.3-.1-4.3-2.24zm5.73 1.32c.87.74 1.6 1.39 2.36 2a1.91 1.91 0 0 0 2.73-.14 1.87 1.87 0 0 0-.05-2.73 20.72 20.72 0 0 0-2-1.73.81.81 0 0 0-.77 0c-.78.81-1.48 1.67-2.27 2.6z" fill="#332e20"/><text transform="translate(208.74 428.29)" font-size="19" fill="#898f65" font-weight="700" letter-spacing=".09em">I STREET</text><text transform="translate(206.02 159.29)" font-size="19" fill="#898f65" font-weight="700" letter-spacing=".09em">H STREET</text><text transform="rotate(90 78.92 302.03)" font-size="19" fill="#898f65" font-weight="700" letter-spacing=".09em">21ST STREET</text><text transform="rotate(90 -55.12 165.07)" font-size="19" fill="#898f65" font-weight="700" letter-spacing=".09em">20TH STREET</text></svg>