<svg data-name="Layer 1" xmlns="http://www.w3.org/2000/svg" viewBox="0 0 534.1 534.1"><path d="M110.94 396.45H33.4q2.23 4 4.61 8h72.93zM142.94 396.42h237v8h-237zM500.71 396.45h-88.77v8h84.14c1.6-2.67 3.13-5.34 4.63-8zM142.94 127.42h237v237h-237zM411.94 364.45h103.85a267.56 267.56 0 0 0-21.07-237h-82.78zM411.94 95.45h59.68a268.54 268.54 0 0 0-59.68-52.75zM110.94 436.45H60.58a268.08 268.08 0 0 0 50.36 47.27zM379.94 436.45h-237v67.1a267.42 267.42 0 0 0 237 5.56zM142.94 95.45h237V24.99a267.42 267.42 0 0 0-237 5.56zM411.94 436.45v55a268.1 268.1 0 0 0 61.57-55zM110.94 95.45v-45a268.31 268.31 0 0 0-48.46 45zM110.94 364.45v-237H39.39a267.47 267.47 0 0 0-21.07 237z" fill="#d4cd9f"/><path d="M300.42 344.92c-.92 2.16-1.32 2.53-3.22 3 .43 2.95-1.55 4.71-4.27 4a8 8 0 0 1-.48 1.38 3.2 3.2 0 0 1-5.11.84c-2-1.7-4-3.43-6-5.15l-6.47-5.53-.77-.66c-1.46 1.27-1.19 1.06-2.45 0-3.46-2.93-6.89-5.88-10.33-8.82-.92-.79-.92-.83-.14-1.74 4.57-5.36 9.16-10.7 13.72-16.07.55-.66.95-.73 1.63-.15q16.8 14.4 33.63 28.78a3.15 3.15 0 0 1 1.07 3.67 3 3 0 0 1-3 2 4.55 4.55 0 0 1-2.21-.92c-1.64-1.27-3.17-2.67-4.74-4zm-12.92-17.88l-12.64 14.77 7.28 6.22a3.35 3.35 0 0 1 3.43-2.94c0-1.81.14-2.57 1.08-3.13 1.33-.8 1.42-2.41 2.52-3.41a2 2 0 0 0-.78 0 9.31 9.31 0 0 1-5.21-1.25c-.23-.13-.29-.55-.43-.83a2.4 2.4 0 0 1 .91-.19 12.67 12.67 0 0 1 1.51.58 6.39 6.39 0 0 0 5.94-.46c.28-.18.73-.09 1.09-.12-.08.37-.05.82-.26 1.09-.78 1-1.64 1.94-2.46 2.92a2.14 2.14 0 0 0 .19 3.26 2.2 2.2 0 0 0 3-.51c1-1.18 2.05-2.35 3-3.56a4 4 0 0 0-.49-5.85c-1.17-1-2.37-2-3.55-3zm-3.47-2.9l-13.66 16 2.4 2.06 13.67-16zm13 16.07l-.17-.05v.09c3.4 2.92 6.78 5.86 10.21 8.75a1.73 1.73 0 0 0 2.29-.06c1.14-.87 1.08-2.24-.17-3.32l-10.66-9.11c-.14-.12-.28-.22-.31-.24zm-10.77 11.41c.72.62 1.43 1.26 2.18 1.85a1.9 1.9 0 0 0 2.64-.27 1.82 1.82 0 0 0-.08-2.64q-2.19-2-4.49-3.84a1.92 1.92 0 0 0-2.66.31 2 2 0 0 0 .24 2.73c.72.69 1.45 1.24 2.18 1.86zm1.41-8.81a1.76 1.76 0 0 0-.33 2.86c1.82 1.63 3.68 3.23 5.55 4.81a1.76 1.76 0 0 0 2.28.05c1.23-.85 1.16-2.35-.17-3.45-.76-.63-1.51-1.27-2.3-1.86a1 1 0 0 0-.73-.16c-2.27.39-3.29-.11-4.29-2.25zm5.73 1.32c.87.74 1.61 1.39 2.36 2a1.93 1.93 0 0 0 2.74-.15 1.89 1.89 0 0 0-.05-2.73 19.72 19.72 0 0 0-2-1.73.81.81 0 0 0-.77 0c-.74.83-1.48 1.69-2.27 2.61z" fill="#332e20"/><path d="M187.75 379.08v9.5a.7.7 0 0 1-.68.68.66.66 0 0 1-.48-.21l-4.75-4.75a.66.66 0 0 1 0-1l4.75-4.75a.69.69 0 0 1 .48-.2.67.67 0 0 1 .48.2.66.66 0 0 1 .2.53zM206.03 387.08l1.52 1.5a6.89 6.89 0 1 1-.19-9.4l-1.54 1.5a4.57 4.57 0 0 0-3.38-1.47 4.76 4.76 0 0 0 0 9.5 4.75 4.75 0 0 0 3.59-1.63zM214.88 377.31h2.32l5.17 13.3h-2.3l-1.22-3.16h-5.62l-1.22 3.15h-2.3zm-.84 8.06h4l-2-5.19zM225.6 377.31h4.52a4.26 4.26 0 1 1 0 8.52h-2.24v4.78h-2.28zm6.61 4.26c0-1.25-.82-2.09-2.38-2.09h-1.95v4.18h1.95c1.56 0 2.38-.84 2.38-2.09zM238.33 377.31h2.28v13.3h-2.28zM247.94 379.45h-3.66v-2.17h9.61v2.17h-3.67v11.13h-2.28zM269.56 383.96a6.73 6.73 0 1 1-6.72-6.87 6.62 6.62 0 0 1 6.72 6.87zm-2.32 0a4.42 4.42 0 1 0-4.4 4.72 4.44 4.44 0 0 0 4.4-4.72zM273.32 377.31h2.28v11.14h5.67v2.16h-7.95zM293.94 377.31l4.33 6.69 4.33-6.69h2.11v13.3h-2.28v-8.93l-4.16 6.33-4.16-6.33v8.93h-2.28v-13.3zM313.11 377.31h2.32l5.17 13.3h-2.3l-1.22-3.16h-5.62l-1.22 3.15h-2.3zm-.84 8.06h4l-2-5.19zM323.83 377.31h2.28v11.14h5.66v2.16h-7.94zM335.04 377.31h2.28v11.14h5.62v2.16h-7.9zM191.09 426.08l1.52 1.5a6.9 6.9 0 1 1-.19-9.41l-1.54 1.51a4.49 4.49 0 0 0-7.81 3.28 4.52 4.52 0 0 0 4.43 4.75 4.73 4.73 0 0 0 3.59-1.63zM199.94 416.31h2.32l5.17 13.3h-2.3l-1.19-3.16h-5.62l-1.21 3.15h-2.3zm-.83 8.06h4l-2-5.19zM210.66 416.31h4.52a4.26 4.26 0 1 1 0 8.51h-2.24v4.79h-2.28zm6.61 4.26c0-1.26-.82-2.09-2.37-2.09h-2v4.18h2c1.55 0 2.37-.84 2.37-2.09zM223.39 416.31h2.28v13.3h-2.28zM232.94 418.45h-3.66v-2.17h9.66v2.17h-3.67v11.13h-2.33zM254.62 422.96a6.73 6.73 0 1 1-6.72-6.88 6.62 6.62 0 0 1 6.72 6.88zm-2.31 0a4.42 4.42 0 1 0-4.41 4.71 4.44 4.44 0 0 0 4.41-4.71zM258.39 416.31h2.28v11.14h5.66v2.17h-7.94zM279 416.31l4.33 6.69 4.34-6.69h2.1v13.3h-2.28v-8.93l-4.16 6.33-4.16-6.33v8.93h-2.23v-13.3zM298.17 416.31h2.32l5.17 13.3h-2.3l-1.22-3.16h-5.62l-1.21 3.15h-2.3zm-.83 8.06h4l-2-5.19zM308.94 416.31h2.28v11.14h5.66v2.17h-7.94zM320.1 416.31h2.28v11.14h5.66v2.17h-7.94zM343.31 422.82a.66.66 0 0 1-.2.48l-4.75 4.75a.65.65 0 0 1-.48.2.63.63 0 0 1-.48-.2.66.66 0 0 1-.2-.48v-9.5a.65.65 0 0 1 .2-.47.63.63 0 0 1 .48-.2.65.65 0 0 1 .48.2l4.75 4.75a.65.65 0 0 1 .2.47zM219.21 105.96h2.28v11.13h5.67v2.17h-7.95zM241.94 113.71c-2-.69-4.16-1.75-4.16-4.22 0-1.88 1.67-3.76 4.35-3.76a5.72 5.72 0 0 1 4.33 2.11l-1.58 1.61a3.83 3.83 0 0 0-2.75-1.5 1.83 1.83 0 0 0-2 1.59c0 1.16 1 1.52 2.86 2.2 2 .77 3.73 1.68 3.73 4.09s-2.13 3.7-4.64 3.7a5.81 5.81 0 0 1-4.86-2.71l1.71-1.45a4.06 4.06 0 0 0 3.15 2c1.14 0 2.32-.46 2.32-1.54s-.89-1.57-2.46-2.12zM253.26 108.12h-3.66v-2.16h9.61v2.16h-3.67v11.14h-2.28zM262.59 105.96h4.35a4.08 4.08 0 0 1 4.41 4.14 3.85 3.85 0 0 1-3 4l3.33 5.17h-2.66l-3.15-5h-1.05v5h-2.28zm6.46 4.14c0-1.31-.91-2-2.37-2h-1.81v4h1.81c1.46-.03 2.37-.65 2.37-2zM277.66 111.35h5.28v2.17h-5.32v3.57h5.89v2.17h-8.17v-13.3h8.05v2.16h-5.77zM289.74 111.35h5.32v2.17h-5.32v3.57h5.89v2.17h-8.17v-13.3h8.06v2.16h-5.78zM302.07 108.12h-3.66v-2.16h9.61v2.16h-3.67v11.14h-2.28zM399.68 192.28a2.33 2.33 0 0 1 .06.45 4.41 4.41 0 0 1-4.51 4.51 4.66 4.66 0 0 1 0-9.31 5.89 5.89 0 0 1 2.75.74c.38.21 6.92 4.18 6.92 4.18l-1.18 1.9zm-4.45-2.05a2.36 2.36 0 1 0 2.38 2.35 2.27 2.27 0 0 0-2.38-2.35zM402.09 203.55v-3.67h2.17v9.57h-2.17v-3.66h-11.15v-2.24zM404.26 220.83v2.28h-13.32v-2.28h5.72v-5.68h-5.72v-2.28h13.3v2.28h-5.4v5.68zM396.51 239.15c.68-2 1.75-4.16 4.22-4.16 1.88 0 3.76 1.67 3.76 4.35a5.72 5.72 0 0 1-2.11 4.33l-1.56-1.57a3.86 3.86 0 0 0 1.5-2.76 1.83 1.83 0 0 0-1.59-2c-1.16 0-1.52 1-2.21 2.87-.76 2-1.67 3.72-4.08 3.72s-3.71-2.13-3.71-4.63a5.82 5.82 0 0 1 2.72-4.87l1.44 1.71a4.06 4.06 0 0 0-2 3.16c0 1.13.45 2.31 1.54 2.31s1.51-.88 2.08-2.46zM402.09 250.45v-3.67h2.17v9.67h-2.17v-3.7h-11.15v-2.3zM404.26 259.8v4.37a4.08 4.08 0 0 1-4.14 4.41 3.83 3.83 0 0 1-4-3l-5.18 3.36v-2.66l5-3.15v-1.05h-5v-2.28zm-4.14 6.46c1.31 0 2-.91 2-2.37v-1.81h-3.98v1.81c0 1.46.67 2.37 1.98 2.37zM398.86 274.87v5.32h-2.16v-5.32h-3.57v5.89h-2.19v-8.17h13.3v8.06h-2.17v-5.78zM398.86 286.95v5.32h-2.16v-5.32h-3.57v5.89h-2.19v-8.16h13.3v8h-2.17v-5.73zM402.09 299.29v-3.67h2.17v9.61h-2.17v-3.66h-11.15v-2.28zM119.73 192.05a5 5 0 0 1 3.08-4.65l1.08 1.9a3 3 0 0 0-2 2.75 2.33 2.33 0 0 0 2.47 2.44c1.42 0 2.47-.86 2.47-2.83a6.55 6.55 0 0 0-1.44-3.58h7.9v8.37h-2.17v-6.08h-2.6a4.55 4.55 0 0 1-4.16 6.42 4.49 4.49 0 0 1-4.63-4.74zM131.09 203.25v-3.67h2.17v9.61h-2.17v-3.67h-11.15v-2.27zM133.26 220.53v2.28h-13.32v-2.28h5.72v-5.68h-5.72v-2.28h13.3v2.28h-5.4v5.68zM125.51 238.85c.68-2 1.75-4.16 4.22-4.16 1.88 0 3.76 1.67 3.76 4.35a5.72 5.72 0 0 1-2.11 4.33l-1.56-1.58a3.83 3.83 0 0 0 1.5-2.75 1.83 1.83 0 0 0-1.59-2c-1.16 0-1.53 1-2.21 2.87-.76 2-1.67 3.72-4.08 3.72s-3.71-2.13-3.71-4.64a5.81 5.81 0 0 1 2.72-4.86l1.44 1.71a4.06 4.06 0 0 0-2 3.15c0 1.14.45 2.32 1.54 2.32s1.51-.86 2.08-2.46zM131.09 250.17v-3.66h2.17v9.61h-2.17v-3.67h-11.15v-2.28zM133.26 259.5v4.37a4.08 4.08 0 0 1-4.14 4.41 3.83 3.83 0 0 1-4-3l-5.18 3.36v-2.66l5-3.15v-1.05h-5v-2.28zm-4.14 6.46c1.31 0 2-.91 2-2.37v-1.81h-4v1.81c.02 1.46.69 2.37 2 2.37zM127.86 274.57v5.32h-2.16v-5.32h-3.57v5.88h-2.19v-8.17h13.3v8.06h-2.17v-5.78zM127.86 286.65v5.32h-2.16v-5.32h-3.57v5.89h-2.19v-8.17h13.3v8.08h-2.17v-5.8zM131.09 298.99v-3.67h2.17v9.61h-2.17v-3.66h-11.15v-2.28z" fill="#898f65"/></svg>