<svg data-name="Layer 1" xmlns="http://www.w3.org/2000/svg" viewBox="0 0 534.1 534.1"><path fill="#d4cd9f" d="M132.94 167.45h237v237h-237zM100.94 167.45H19.21a267.46 267.46 0 0018.79 237h62.91zM401.94 135.45h97.52a268.42 268.42 0 00-97.52-98.91zM132.94 135.45h237V20.55a267.53 267.53 0 00-237 15.53zM401.94 404.45h94.13a267.46 267.46 0 0018.82-237H401.94zM369.94 436.45h-237V498a267.44 267.44 0 00237 15.53zM100.94 135.45V58a268.12 268.12 0 00-66.3 77.49zM401.94 436.45v61.1a268.21 268.21 0 0071.55-61.1zM100.94 436.45H60.61a268.36 268.36 0 0040.33 39.69z"/><path d="M340.73 277.94c-.91 2.17-1.32 2.54-3.22 3 .43 3-1.55 4.71-4.27 4a8.12 8.12 0 01-.47 1.39 3.21 3.21 0 01-5.12.84c-2-1.7-4-3.43-6-5.15l-6.47-5.54-.76-.65c-1.47 1.27-1.19 1.06-2.46 0q-5.18-4.39-10.32-8.82c-.93-.79-.93-.83-.15-1.74 4.58-5.36 9.16-10.7 13.72-16.07.56-.66.95-.73 1.63-.15q16.8 14.4 33.63 28.78a3.17 3.17 0 011.08 3.67 3 3 0 01-3 2 4.69 4.69 0 01-2.22-.92c-1.63-1.27-3.17-2.67-4.74-4zm-12.92-17.87l-12.63 14.77 7.27 6.22a3.37 3.37 0 013.43-2.95c0-1.8.14-2.56 1.09-3.13 1.32-.79 1.41-2.4 2.51-3.4a2 2 0 00-.78.05 9.39 9.39 0 01-5.21-1.25c-.23-.13-.29-.55-.43-.83a2.43 2.43 0 01.91-.19 14.56 14.56 0 011.51.57 6.38 6.38 0 005.95-.45c.27-.18.72-.09 1.08-.12-.08.36-.05.82-.26 1.08-.78 1-1.64 1.95-2.46 2.93a2.12 2.12 0 00.2 3.25 2.17 2.17 0 003-.5c1-1.18 2.05-2.35 3-3.56a4 4 0 00-.48-5.85c-1.17-1-2.37-2-3.56-3zm-3.47-2.9l-13.66 16 2.41 2.06 13.66-16zm13 16.06l-.17-.05v.1c3.4 2.92 6.79 5.86 10.21 8.75a1.74 1.74 0 002.29-.06c1.14-.87 1.08-2.24-.17-3.32q-5.32-4.57-10.66-9.11a2.67 2.67 0 00-.31-.24zm-10.77 11.42c.73.62 1.43 1.26 2.18 1.85a1.91 1.91 0 002.65-.27 1.83 1.83 0 00-.08-2.64q-2.2-2-4.5-3.84a1.9 1.9 0 00-2.65.31 2 2 0 00.23 2.73c.72.64 1.46 1.21 2.18 1.86zm1.41-8.81a1.76 1.76 0 00-.33 2.86c1.83 1.63 3.68 3.22 5.55 4.8a1.75 1.75 0 002.29.05c1.23-.84 1.15-2.34-.18-3.45-.76-.62-1.51-1.26-2.29-1.85a1.08 1.08 0 00-.74-.17c-2.28.4-3.28-.08-4.28-2.24zm5.74 1.32c.86.74 1.6 1.39 2.36 2a1.91 1.91 0 002.73-.14 1.89 1.89 0 00-.05-2.73 19.72 19.72 0 00-2-1.73.81.81 0 00-.77 0c-.77.81-1.47 1.67-2.26 2.6z" fill="#332e20"/><path d="M210.41 415h2.28v13.3h-2.28zM229 422.74c-2-.68-4.16-1.75-4.16-4.22 0-1.88 1.67-3.76 4.35-3.76a5.72 5.72 0 014.33 2.11l-1.58 1.56a3.83 3.83 0 00-2.75-1.5 1.83 1.83 0 00-2 1.59c0 1.16 1 1.52 2.86 2.21 2 .76 3.73 1.67 3.73 4.08s-2.13 3.71-4.64 3.71a5.81 5.81 0 01-4.86-2.72l1.71-1.44a4.06 4.06 0 003.15 2c1.14 0 2.32-.46 2.32-1.54s-.89-1.53-2.46-2.08zM240.31 417.16h-3.66V415h9.61v2.17h-3.67v11.13h-2.28zM249.64 415H254a4.08 4.08 0 014.41 4.14 3.84 3.84 0 01-3 4l3.33 5.17h-2.66l-3.15-5h-1.05v5h-2.28zm6.46 4.14c0-1.31-.91-2-2.37-2h-1.81v3.95h1.81c1.46.02 2.37-.65 2.37-1.96zM264.71 420.39H270v2.16h-5.32v3.57h5.89v2.17h-8.17V415h8.05v2.17h-5.77zM276.79 420.39h5.32v2.16h-5.32v3.57h5.89v2.17h-8.17V415h8.06v2.17h-5.78zM289.12 417.16h-3.66V415h9.61v2.17h-3.67v11.13h-2.28zM215.39 146h2.28v13.3h-2.28v-5.72h-5.68v5.72h-2.28V146h2.28v5.41h5.68zM233.7 153.74c-1.95-.68-4.16-1.75-4.16-4.22 0-1.88 1.67-3.76 4.35-3.76a5.69 5.69 0 014.33 2.11l-1.57 1.56a3.86 3.86 0 00-2.76-1.5 1.83 1.83 0 00-2 1.59c0 1.16 1 1.52 2.87 2.21 2 .76 3.72 1.67 3.72 4.08s-2.13 3.71-4.63 3.71a5.82 5.82 0 01-4.85-2.72l1.71-1.44a4.06 4.06 0 003.16 2c1.14 0 2.31-.46 2.31-1.54s-.9-1.53-2.48-2.08zM245 148.16h-3.67V146H251v2.17h-3.66v11.13H245zM254.36 146h4.36a4.07 4.07 0 014.41 4.14 3.83 3.83 0 01-3 4l3.32 5.17h-2.66l-3.15-5h-1v5h-2.28zm6.45 4.14c0-1.31-.91-2-2.37-2h-1.8v4h1.8c1.46-.03 2.37-.7 2.37-2.01zM269.42 151.39h5.32v2.16h-5.32v3.57h5.89v2.17h-8.17V146h8.06v2.17h-5.78zM281.51 151.39h5.32v2.16h-5.32v3.57h5.89v2.17h-8.17V146h8v2.17h-5.77zM293.84 148.16h-3.67V146h9.61v2.17h-3.66v11.13h-2.28zM387.14 228.75a5.13 5.13 0 003.16 1.54 2 2 0 002.05-2 2.47 2.47 0 00-1.94-2.37l.74-2a4.58 4.58 0 013.32 4.41 3.94 3.94 0 01-4.14 4.26 5.48 5.48 0 01-3.26-1.16l-3.95-3.06v4.27H381v-8.75zM394.25 239.71v1.88H381v-2.28h10.26l-1.91-2.31 1.67-1.32zM386.5 251.13c.68-2 1.74-4.16 4.21-4.16 1.88 0 3.76 1.67 3.76 4.35a5.73 5.73 0 01-2.1 4.33l-1.56-1.58a3.83 3.83 0 001.5-2.75 1.83 1.83 0 00-1.6-2c-1.16 0-1.52 1-2.2 2.87-.76 2-1.67 3.72-4.08 3.72s-3.71-2.13-3.71-4.64a5.81 5.81 0 012.72-4.86l1.44 1.71a4.06 4.06 0 00-2 3.15c0 1.14.45 2.32 1.54 2.32s1.58-.88 2.08-2.46zM392.08 262.45v-3.66h2.17v9.61h-2.17v-3.67H381v-2.28zM386.5 283.3c.68-2 1.74-4.16 4.21-4.16 1.88 0 3.76 1.67 3.76 4.35a5.73 5.73 0 01-2.1 4.33l-1.56-1.58a3.83 3.83 0 001.5-2.75 1.84 1.84 0 00-1.6-2c-1.16 0-1.52 1.05-2.2 2.87-.76 2-1.67 3.73-4.08 3.73s-3.71-2.13-3.71-4.64a5.81 5.81 0 012.72-4.86l1.44 1.71a4.06 4.06 0 00-2 3.15c0 1.14.45 2.32 1.54 2.32s1.58-.9 2.08-2.47zM392.08 294.62V291h2.17v9.62h-2.17v-3.72H381v-2.28zM394.25 304v4.37a4.08 4.08 0 01-4.14 4.41 3.84 3.84 0 01-4-3l-5.11 3.31v-2.66l5-3.16v-1h-5V304zm-4.14 6.46c1.31 0 2-.91 2-2.38v-1.8h-3.95V308c-.03 1.5.63 2.41 1.95 2.41zM388.85 319v5.32h-2.16V319h-3.57v5.88H381v-8.16h13.3v8.05h-2.17V319zM388.85 331.1v5.32h-2.16v-5.32h-3.57v5.9H381v-8.17h13.3v8.06h-2.17v-5.79zM392.08 343.43v-3.67h2.17v9.62h-2.17v-3.67H381v-2.28zM116.14 225.84a5.12 5.12 0 003.16 1.53 2 2 0 002-2 2.49 2.49 0 00-1.94-2.38l.74-2a4.58 4.58 0 013.32 4.41 3.94 3.94 0 01-4.14 4.25 5.41 5.41 0 01-3.26-1.16l-4-3.05v4.27H110V221zM116.6 243.2c-3.61 0-6.88-1.6-6.88-5s3.27-5 6.88-5 6.87 1.63 6.87 5-3.26 5-6.87 5zm0-2.28c2.6 0 4.75-.85 4.75-2.7s-2.15-2.73-4.75-2.73-4.75.89-4.75 2.73 2.15 2.7 4.75 2.7zM121.08 249.6v-3.66h2.17v9.61h-2.17v-3.67H110v-2.28zM123.25 266.89v2.28H110v-2.28h5.72v-5.68H110v-2.28h13.3v2.28h-5.42v5.68zM115.5 285.21c.68-2 1.74-4.16 4.21-4.16 1.88 0 3.76 1.67 3.76 4.35a5.73 5.73 0 01-2.1 4.33l-1.56-1.58a3.83 3.83 0 001.5-2.75 1.83 1.83 0 00-1.6-2c-1.15 0-1.52 1-2.2 2.87-.76 2-1.67 3.72-4.08 3.72s-3.71-2.13-3.71-4.64a5.81 5.81 0 012.72-4.86l1.44 1.71a4.06 4.06 0 00-2 3.15c0 1.14.45 2.32 1.54 2.32s1.58-.88 2.08-2.46zM121.08 296.53v-3.66h2.17v9.61h-2.17v-3.67H110v-2.28zM123.25 305.86v4.37a4.08 4.08 0 01-4.14 4.41 3.83 3.83 0 01-4-3L110 315v-2.66l5-3.15v-1.05h-5v-2.28zm-4.14 6.46c1.31 0 2-.91 2-2.37v-1.81h-4V310c.02 1.41.68 2.32 2 2.32zM117.85 320.93v5.32h-2.16v-5.32h-3.58v5.89H110v-8.17h13.3v8.05h-2.17v-5.77zM117.85 333v5.32h-2.16V333h-3.58v5.89H110v-8.17h13.3v8.06h-2.17V333zM121.08 345.34v-3.66h2.17v9.61h-2.17v-3.67H110v-2.28z" fill="#898f65"/></svg>