<svg data-name="Layer 1" xmlns="http://www.w3.org/2000/svg" viewBox="0 0 533.6 533.6"><path d="M389.94 403.95v-251.9l-18-18a90.86 90.86 0 01-69.88 32.9H152.94v237zM152.94 134.95h149a58.94 58.94 0 0047.23-23.69L238.94.95a265.13 265.13 0 00-86 24.1zM389.94 29.42A265.37 265.37 0 00283.16 0l106.78 106.79zM533.6 250.44a265.72 265.72 0 00-18.66-83.49h-64.82zM532.62 294.71L421.94 184.05v219.9h74.11a265.22 265.22 0 0036.57-109.24zM120.94 435.95H60.61a268.48 268.48 0 0060.33 54.15zM421.94 134.95h77.5A268.34 268.34 0 00421.94 49zM389.94 435.95h-237v72.1a267.46 267.46 0 00237-4.37zM421.94 435.95v48.15a268.72 268.72 0 0051.55-48.15zM120.94 134.95v-92a268.47 268.47 0 00-86.3 92zM120.94 403.95v-237H19.21a267.46 267.46 0 0018.82 237z" fill="#d4cd9f"/><path d="M367.77 220.33c-.92 2.17-1.33 2.54-3.23 3 .43 2.95-1.55 4.71-4.27 4a8.12 8.12 0 01-.47 1.39 3.21 3.21 0 01-5.12.84c-2-1.7-4-3.43-6-5.15l-6.5-5.46-.76-.65c-1.46 1.27-1.19 1.06-2.46 0q-5.17-4.4-10.32-8.82c-.93-.79-.93-.83-.15-1.74 4.58-5.36 9.16-10.7 13.72-16.07.56-.66 1-.73 1.63-.15q16.8 14.4 33.63 28.78a3.17 3.17 0 011.08 3.67 3 3 0 01-3 2 4.69 4.69 0 01-2.22-.92c-1.63-1.27-3.17-2.67-4.74-4zm-12.93-17.87l-12.63 14.77 7.27 6.22a3.37 3.37 0 013.43-2.95c0-1.8.14-2.56 1.09-3.13 1.32-.79 1.41-2.4 2.51-3.4a2 2 0 00-.78 0 9.39 9.39 0 01-5.21-1.25c-.22-.13-.29-.55-.42-.83a2.35 2.35 0 01.9-.19 14.56 14.56 0 011.51.57 6.38 6.38 0 005.95-.45c.27-.18.72-.09 1.09-.12-.09.36-.06.82-.27 1.08-.78 1-1.64 2-2.46 2.93a2.13 2.13 0 00.2 3.25 2.18 2.18 0 003-.5c1-1.18 2.05-2.35 3-3.56a4 4 0 00-.48-5.85c-1.17-1-2.37-2-3.56-3.05zm-3.47-2.9l-13.66 16 2.41 2.06 13.66-16zm13 16.06h-.17v.1c3.4 2.92 6.79 5.86 10.21 8.75a1.74 1.74 0 002.29-.06c1.14-.87 1.08-2.24-.17-3.32q-5.3-4.62-10.59-9.14a2.67 2.67 0 00-.31-.24zm-10.77 11.42c.73.62 1.44 1.26 2.18 1.85a1.91 1.91 0 002.65-.27 1.83 1.83 0 00-.08-2.64c-1.47-1.32-3-2.6-4.5-3.84a1.9 1.9 0 00-2.65.31 2 2 0 00.23 2.73c.72.64 1.51 1.24 2.18 1.86zm1.41-8.81a1.76 1.76 0 00-.33 2.86c1.83 1.63 3.68 3.22 5.55 4.8a1.75 1.75 0 002.29.05c1.23-.84 1.15-2.34-.18-3.45-.76-.62-1.51-1.26-2.29-1.85a1.06 1.06 0 00-.74-.17c-2.27.4-3.28-.1-4.29-2.24zm5.74 1.32c.87.74 1.6 1.39 2.36 2a1.91 1.91 0 002.73-.14 1.89 1.89 0 00-.05-2.73 19.72 19.72 0 00-2-1.73.79.79 0 00-.76 0c-.78.81-1.48 1.67-2.27 2.6z" fill="#332e20"/><path d="M188.52 414.49h2.54v8.28h1.47v2.18h-1.47v2.89h-2.28v-2.89h-7zm.3 8.28v-5.15l-3.34 5.15zM198.74 416.66h-3.67v-2.17h9.62v2.17h-3.67v11.13h-2.28zM216.03 414.49h2.28v13.3h-2.28v-5.72h-5.68v5.72h-2.28v-13.3h2.28v5.46h5.68zM234 414.49h2.32l5.17 13.3h-2.3l-1.25-3.15h-5.62l-1.21 3.15h-2.3zm-.83 8.06h4l-2-5.19zM247.8 428.24l-6-13.75h2.49l3.53 8.53 3.5-8.53h2.37zM259.18 419.89h5.32v2.16h-5.32v3.57h5.89v2.17h-8.13v-13.3h8v2.17h-5.77zM271.04 414.49l6.64 9.16v-9.16h2.26v13.3h-2l-6.65-9.14v9.14h-2.35v-13.3zM292.47 414.49h2.28v8.46a5.13 5.13 0 01-10.26 0v-8.47h2.28v8.19c0 1.9.95 3.17 2.85 3.17s2.85-1.27 2.85-3.17zM301.55 419.89h5.32v2.16h-5.32v3.57h5.89v2.17h-8.17v-13.3h8.05v2.17h-5.77zM187.99 147.39a2.43 2.43 0 00-2.26 1.61l-2-.93a4.55 4.55 0 014.24-2.81 4 4 0 014.29 4 3.34 3.34 0 01-1.63 2.79 2.92 2.92 0 012 3c0 2.42-2 3.94-4.6 3.94a4.73 4.73 0 01-4.66-3.08l1.87-1.08a2.91 2.91 0 002.79 2c1.44 0 2.32-.78 2.32-1.81 0-1.4-1.22-1.88-2.42-1.88h-.99v-2.09h.72c1.39 0 2.3-.51 2.3-1.86a1.86 1.86 0 00-1.97-1.8zM196.6 145.49h4.34a4.07 4.07 0 014.4 4.14 3.83 3.83 0 01-3 4l3.32 5.17H203l-3.15-5h-1v5h-2.28zm6.46 4.14c0-1.31-.92-2-2.38-2h-1.8v3.95h1.8c1.46.03 2.38-.63 2.38-1.95zM220.25 152.14a6.37 6.37 0 01-6.57 6.65h-4.3v-13.3h4.3a6.37 6.37 0 016.57 6.65zm-2.32 0a4.22 4.22 0 00-4.21-4.48h-2.06v9h2.06a4.23 4.23 0 004.22-4.52zM235.18 145.49h2.32l5.17 13.3h-2.3l-1.22-3.15h-5.62l-1.21 3.15h-2.3zm-.83 8.06h4l-2-5.19zM248.94 159.24l-5.95-13.75h2.49l3.53 8.53 3.5-8.53h2.43zM260.36 150.89h5.32v2.16h-5.32v3.57h5.89v2.17h-8.17v-13.3h8.05v2.17h-5.77zM272.22 145.49l6.64 9.16v-9.16h2.28v13.3h-2.05l-6.65-9.14v9.14h-2.28v-13.3zM293.65 145.49h2.29v8.46a5.13 5.13 0 01-10.26 0v-8.47h2.26v8.19c0 1.9.95 3.17 2.85 3.17s2.85-1.27 2.85-3.17zM302.73 150.89h5.32v2.16h-5.32v3.57h5.89v2.17h-8.17v-13.3h8.05v2.17h-5.77zM411.37 225.59a2.44 2.44 0 00-1.62-2.26l.93-2a4.55 4.55 0 012.81 4.24 4 4 0 01-4 4.29 3.34 3.34 0 01-2.79-1.63 2.91 2.91 0 01-3 2c-2.41 0-3.93-2-3.93-4.6a4.73 4.73 0 013.08-4.66l1.08 1.86a2.93 2.93 0 00-2 2.8c0 1.44.78 2.32 1.8 2.32 1.41 0 1.88-1.22 1.88-2.42v-.95h2.09v.72c0 1.39.52 2.3 1.86 2.3a1.86 1.86 0 001.81-2.01zM399.74 238.36a5 5 0 013.08-4.66l1.08 1.9a3.06 3.06 0 00-2 2.76 2.32 2.32 0 002.47 2.43c1.42 0 2.47-.86 2.47-2.83a6.52 6.52 0 00-1.45-3.57h7.91v8.36h-2.17v-6.08h-2.6a4.55 4.55 0 01-4.16 6.42 4.49 4.49 0 01-4.63-4.73zM411.1 249.55v-3.67h2.17v9.61h-2.17v-3.66h-11.16v-2.28zM413.27 266.84v2.28h-13.33v-2.28h5.72v-5.68h-5.72v-2.28h13.3v2.28h-5.42v5.68zM405.52 285.15c.68-1.95 1.74-4.16 4.21-4.16 1.88 0 3.76 1.67 3.76 4.35a5.7 5.7 0 01-2.1 4.33l-1.56-1.57a3.83 3.83 0 001.5-2.76 1.83 1.83 0 00-1.6-2c-1.16 0-1.52 1-2.2 2.87-.76 2-1.67 3.72-4.09 3.72s-3.7-2.13-3.7-4.63a5.82 5.82 0 012.72-4.87l1.44 1.71a4.06 4.06 0 00-2 3.16c0 1.14.45 2.31 1.53 2.31s1.51-.88 2.09-2.46zM411.1 296.48v-3.67h2.17v9.61h-2.17v-3.66h-11.16v-2.28zM413.27 305.81v4.37a4.07 4.07 0 01-4.14 4.4 3.83 3.83 0 01-4-3l-5.19 3.37v-2.66l5-3.15v-1h-5v-2.28zm-4.14 6.46c1.31 0 2-.92 2-2.38v-1.8h-4v1.8c.02 1.46.68 2.38 2 2.38zM407.87 320.87v5.32h-2.16v-5.32h-3.58v5.89h-2.19v-8.17h13.3v8.06h-2.17v-5.78zM407.87 332.95v5.32h-2.16v-5.32h-3.58v5.89h-2.19v-8.17h13.3v8h-2.17v-5.72zM411.1 345.29v-3.67h2.17v9.61h-2.17v-3.66h-11.16v-2.28zM141.37 225.01a2.44 2.44 0 00-1.62-2.26l.93-2a4.53 4.53 0 012.81 4.23c0 2.43-1.53 4.3-4 4.3a3.34 3.34 0 01-2.79-1.64 2.91 2.91 0 01-3 2c-2.41 0-3.93-2-3.93-4.6a4.73 4.73 0 013.08-4.65l1.08 1.86a2.93 2.93 0 00-2 2.79c0 1.45.78 2.32 1.8 2.32 1.41 0 1.88-1.22 1.88-2.41v-1h2.09v.72c0 1.39.52 2.3 1.86 2.3a1.87 1.87 0 001.81-1.96zM143.27 238.95v2.55h-8.33v1.45h-2.12v-1.5h-2.88v-2.28h2.89v-7zm-8.29.31h5.15l-5.19-3.4zM141.1 249.12v-3.66h2.17v9.61h-2.17v-3.67h-11.16v-2.28zM143.27 266.41v2.28h-13.33v-2.28h5.72v-5.68h-5.72v-2.28h13.3v2.28h-5.42v5.68zM135.52 284.73c.68-2 1.74-4.16 4.21-4.16 1.88 0 3.76 1.67 3.76 4.35a5.73 5.73 0 01-2.1 4.33l-1.56-1.58a3.83 3.83 0 001.5-2.75 1.83 1.83 0 00-1.6-2c-1.16 0-1.52 1-2.2 2.86-.76 2-1.67 3.73-4.09 3.73s-3.7-2.13-3.7-4.64a5.81 5.81 0 012.72-4.86l1.44 1.71a4.06 4.06 0 00-2 3.15c0 1.14.45 2.32 1.53 2.32s1.51-.88 2.09-2.46zM141.1 296.05v-3.66h2.17V302h-2.17v-3.67h-11.16v-2.28zM143.27 305.38v4.37a4.08 4.08 0 01-4.15 4.41 3.83 3.83 0 01-4-3l-5.18 3.36v-2.66l5-3.15v-1.05h-5v-2.28zm-4.15 6.46c1.32 0 2-.91 2-2.37v-1.81h-3.95v1.81c-.02 1.48.64 2.37 1.95 2.37zM137.87 320.45v5.32h-2.16v-5.32h-3.58v5.89h-2.19v-8.17h13.3v8h-2.17v-5.72zM137.87 332.53v5.32h-2.16v-5.32h-3.58v5.89h-2.19v-8.17h13.3v8.06h-2.17v-5.78zM141.1 344.86v-3.66h2.17v9.61h-2.17v-3.67h-11.16v-2.28zM355.83 88.74l3 3c1.54 1.53 2.29 3.71.31 5.69a2.74 2.74 0 01-2.71.75 3.09 3.09 0 01-.74 3.66c-1.65 1.66-4.15 1.42-5.92-.36l-3.39-3.38zm-1.74 11.52c.89-.89.58-1.92-.31-2.81l-1.72-1.72-2.5 2.5 1.72 1.72c.89.88 1.93 1.19 2.81.31zm.89-4.68c.9.9 1.75 1.08 2.57.26s.53-1.78-.26-2.57l-1.35-1.38-2.31 2.31zM364.94 97.88l3.11 3.07a4.07 4.07 0 01.19 6 3.83 3.83 0 01-4.92.73l-1.3 6-1.88-1.88 1.32-5.77-.74-.74-3.55 3.66-1.61-1.62zm1.64 7.5c.93-.93.75-2.05-.28-3.08l-1.28-1.28-2.79 2.8 1.27 1.27c1.06 1.04 2.17 1.21 3.1.29zM378.27 120.6a6.73 6.73 0 11.11-9.62 6.61 6.61 0 01-.11 9.62zm-1.63-1.65a4.42 4.42 0 10-6.45.21 4.45 4.45 0 006.45-.21zM388.16 121.08l1.64 1.64-5.75 13.06-1.62-1.63 1.37-3.09-4-4-3.09 1.37-1.62-1.63zm-6.28 5.11l2.82 2.82 2.24-5.06zM398.72 141.04a6.36 6.36 0 01-9.35.06l-3-3 9.4-9.4 3 3a6.35 6.35 0 01-.05 9.34zm-1.64-1.63a4.23 4.23 0 00.19-6.16l-1.45-1.45-6.34 6.34 1.45 1.45a4.23 4.23 0 006.15-.18zM404.51 156.88l4.23-9.87-9.91 4.19 6-13.43 1.83 1.83-3.66 7.63 7.78-3.51 1.33 1.33-3.55 7.74 7.69-3.6 1.68 1.68zM421.94 154.95l1.64 1.64-5.75 13-1.59-1.64 1.37-3.09-4-4-3.09 1.37-1.58-1.58zm-6.29 5.1l2.82 2.82 2.26-5.07zM423.28 175.01l-1.61-1.61 3.71-3.71 2.48-8.91 1.78 1.78-1.91 6.5 6.5-1.91 1.67 1.67-8.91 2.48z" fill="#898f65"/></svg>