<svg data-name="Layer 1" xmlns="http://www.w3.org/2000/svg" viewBox="0 0 14.93 14.93"><path d="M14.93 11.79a3.64 3.64 0 0 1-.11.75 3.92 3.92 0 0 1-.22.72 2.85 2.85 0 0 1-1.29 1.13 4.16 4.16 0 0 1-2 .54 3.31 3.31 0 0 1-.55 0 4.2 4.2 0 0 1-.61-.13l-.51-.15-.58-.22-.52-.19a9.71 9.71 0 0 1-1.86-.88A15.6 15.6 0 0 1 3.9 11a15.6 15.6 0 0 1-2.29-2.8 10 10 0 0 1-.88-1.83c0-.06-.08-.23-.19-.52s-.18-.48-.22-.59-.09-.26-.15-.5A4.5 4.5 0 0 1 0 4.15a3.36 3.36 0 0 1 0-.56 4.13 4.13 0 0 1 .54-2A2.9 2.9 0 0 1 1.66.33a4.07 4.07 0 0 1 .73-.22A3.64 3.64 0 0 1 3.14 0a.61.61 0 0 1 .22 0c.13 0 .32.31.56.81.08.13.19.32.32.57l.37.67c.12.21.22.39.33.57l.19.27a2.72 2.72 0 0 1 .22.37.75.75 0 0 1 .08.3.86.86 0 0 1-.3.53 5.25 5.25 0 0 1-.66.59 5.13 5.13 0 0 0-.66.56.81.81 0 0 0-.3.49.93.93 0 0 0 .05.27l.09.21.15.26a1.23 1.23 0 0 1 .12.2 11.2 11.2 0 0 0 1.85 2.49A11.2 11.2 0 0 0 8.26 11l.2.12.26.15.21.09a.93.93 0 0 0 .24.05.81.81 0 0 0 .49-.3 6.08 6.08 0 0 0 .56-.66 5.27 5.27 0 0 1 .58-.66.91.91 0 0 1 .53-.3.73.73 0 0 1 .31.07 3.89 3.89 0 0 1 .36.24l.27.19.57.33.67.37c.25.13.44.24.57.32.5.24.76.43.81.56a.61.61 0 0 1 .04.22z" fill="#332e20"/></svg>