<svg data-name="Layer 1" xmlns="http://www.w3.org/2000/svg" viewBox="0 0 14.93 14.93"><path d="M14.93 11.79a3.64 3.64 0 01-.11.75 3.92 3.92 0 01-.22.72 2.85 2.85 0 01-1.29 1.13 4.16 4.16 0 01-2 .54 3.31 3.31 0 01-.55 0 4.2 4.2 0 01-.61-.13l-.51-.15-.58-.22-.52-.19a9.71 9.71 0 01-1.86-.88A15.6 15.6 0 013.9 11a15.6 15.6 0 01-2.29-2.8 10 10 0 01-.88-1.83c0-.06-.08-.23-.19-.52s-.18-.48-.22-.59-.09-.26-.15-.5A4.5 4.5 0 010 4.15a3.36 3.36 0 010-.56 4.13 4.13 0 01.54-2A2.9 2.9 0 011.66.33a4.07 4.07 0 01.73-.22A3.64 3.64 0 013.14 0a.61.61 0 01.22 0c.13 0 .32.31.56.81.08.13.19.32.32.57l.37.67c.12.21.22.39.33.57l.19.27a2.72 2.72 0 01.22.37.75.75 0 01.08.3.86.86 0 01-.3.53 5.25 5.25 0 01-.66.59 5.13 5.13 0 00-.66.56.81.81 0 00-.3.49.93.93 0 00.05.27l.09.21.15.26a1.23 1.23 0 01.12.2 11.2 11.2 0 001.85 2.49A11.2 11.2 0 008.26 11l.2.12.26.15.21.09a.93.93 0 00.24.05.81.81 0 00.49-.3 6.08 6.08 0 00.56-.66 5.27 5.27 0 01.58-.66.91.91 0 01.53-.3.73.73 0 01.31.07 3.89 3.89 0 01.36.24l.27.19.57.33.67.37c.25.13.44.24.57.32.5.24.76.43.81.56a.61.61 0 01.04.22z" fill="#332e20"/></svg>