<svg data-name="Layer 1" xmlns="http://www.w3.org/2000/svg" viewBox="0 0 12.07 12.07"><path d="M12.07 11.14a.92.92 0 0 1-.93.93.86.86 0 0 1-.65-.27L8 9.31a5 5 0 0 1-2.89.9 5 5 0 0 1-2-.4 5.12 5.12 0 0 1-1.62-1.09A5 5 0 0 1 .4 7.09a5 5 0 0 1-.4-2 5 5 0 0 1 .4-2A5 5 0 0 1 3.12.4a5 5 0 0 1 2-.4 5 5 0 0 1 2 .4 5 5 0 0 1 1.6 1.09 5.12 5.12 0 0 1 1.09 1.63 5 5 0 0 1 .4 2A5 5 0 0 1 9.31 8l2.49 2.49a.89.89 0 0 1 .27.65zM7.4 7.4a3.1 3.1 0 0 0 1-2.29 3.13 3.13 0 0 0-1-2.3 3.13 3.13 0 0 0-2.29-.95 3.16 3.16 0 0 0-2.3 1 3.12 3.12 0 0 0-.95 2.3 3.1 3.1 0 0 0 1 2.29 3.13 3.13 0 0 0 2.3 1A3.1 3.1 0 0 0 7.4 7.4z" fill="#cc9f53"/></svg>