<svg data-name="Layer 1" xmlns="http://www.w3.org/2000/svg" viewBox="0 0 37.82 30.71"><path d="M37.82 3.65a16.08 16.08 0 01-3.89 4v1a22 22 0 01-.93 6.24 22.51 22.51 0 01-2.77 6 23.26 23.26 0 01-4.43 5 19.69 19.69 0 01-6.19 3.51 22.68 22.68 0 01-7.75 1.3A21.53 21.53 0 010 27.23a15.19 15.19 0 001.87.1A15.14 15.14 0 0011.49 24a7.76 7.76 0 01-7.24-5.38 9.77 9.77 0 001.46.12 7.82 7.82 0 002-.26 7.67 7.67 0 01-4.41-2.65 7.48 7.48 0 01-1.76-4.94v-.09a7.64 7.64 0 003.5 1A7.61 7.61 0 012.52 9a7.56 7.56 0 01-.94-3.69 7.63 7.63 0 011.06-3.89 22 22 0 007.07 5.72 21.57 21.57 0 008.91 2.39 8.49 8.49 0 01-.19-1.78 7.44 7.44 0 012.27-5.48 7.76 7.76 0 0111.14.18A15.23 15.23 0 0036.76.58a7.52 7.52 0 01-3.41 4.27 15.48 15.48 0 004.47-1.2z" fill="#cfa455"/></svg>